<?xml version="1.0" encoding="utf-8"?>
<!-- Generator: Adobe Illustrator 25.4.6, SVG Export Plug-In . SVG Version: 6.00 Build 0)  -->
<svg version="1.1" id="fondos" xmlns="http://www.w3.org/2000/svg" xmlns:xlink="http://www.w3.org/1999/xlink" x="0px" y="0px"
	 viewBox="0 0 4431 4346.2" style="enable-background:new 0 0 4431 4346.2;" xml:space="preserve">
<style type="text/css">
	.st0{clip-path:url(#SVGID_00000051362074221240444120000014477592610829748129_);}
	.st1{fill:#033AD3;}
	.st2{clip-path:url(#SVGID_00000145045502517425627340000016829028624073735864_);}
	.st3{clip-path:url(#SVGID_00000030465489737651891420000014808362736185325440_);}
	.st4{fill:#FFBE00;}
	.st5{clip-path:url(#SVGID_00000011741040713255876660000000834750423954469761_);}
	.st6{fill:#E72276;}
	.st7{fill:#FFFFFF;}
	.st8{font-family:'HalyardMicro-Bold';}
	.st9{font-size:47.18px;}
	.st10{font-size:24.78px;}
	.st11{font-family:'HalyardMicroLight';}
	.st12{font-size:16.52px;}
	.st13{fill:#219774;}
	.st14{font-size:40.45px;}
</style>
<g>
	<defs>
		<rect id="SVGID_1_" x="283.6" y="-8799.1" width="1366" height="7031"/>
	</defs>
	<clipPath id="SVGID_00000124875700274032241780000006176999215790160042_">
		<use xlink:href="#SVGID_1_"  style="overflow:visible;"/>
	</clipPath>
	<g style="clip-path:url(#SVGID_00000124875700274032241780000006176999215790160042_);">
		<path class="st1" d="M814.5,65.7c-101.3,57.8-249.7,37.2-331.3-46.2l-915.7-936.4c-81.6-83.4-107.9-236.9-58.7-342.7l577-1241.5
			c49.2-105.8,182.8-178.6,298.4-162.5L1643.6-2488c115.6,16.1,224.2,122.7,242.6,237.9L2101.6-898
			c18.4,115.2-48.9,255.7-150.2,313.5L814.5,65.7z"/>
	</g>
</g>
<g>
	<defs>
		<rect id="SVGID_00000003799515326169745850000002784577522748054418_" x="3379.7" y="-5153.9" width="1366" height="3578.2"/>
	</defs>
	<clipPath id="SVGID_00000165193503954229816040000014954188770990709419_">
		<use xlink:href="#SVGID_00000003799515326169745850000002784577522748054418_"  style="overflow:visible;"/>
	</clipPath>
	<g style="clip-path:url(#SVGID_00000165193503954229816040000014954188770990709419_);">
		<path class="st1" d="M3861.7,168.5c-98.2,56.1-241.9,36-321.1-44.8l-887.4-907.6c-79.1-80.8-104.6-229.5-56.9-332.1l559.2-1203.2
			c47.7-102.6,177.2-173.1,289.2-157.5l1220.6,170.2c112,15.6,217.3,118.9,235.1,230.6l208.8,1310.3
			c17.8,111.7-47.4,247.8-145.6,303.9L3861.7,168.5z"/>
	</g>
</g>
<g>
	<defs>
		<rect id="SVGID_00000076586937469713704700000006490614862566473655_" x="-1742.8" y="-8799.1" width="1366" height="7489.5"/>
	</defs>
	<clipPath id="SVGID_00000156545703913095758760000005255257107777461416_">
		<use xlink:href="#SVGID_00000076586937469713704700000006490614862566473655_"  style="overflow:visible;"/>
	</clipPath>
	<g style="clip-path:url(#SVGID_00000156545703913095758760000005255257107777461416_);">
		<path class="st4" d="M-2887.9-294.1c-30.1-37.3-52.7-106.4-50.6-154.2l59.5-1380.2c1.8-47.7,29.9-115.1,62.3-150.3l959.1-1040.6
			c32.7-35.3,97.3-69.5,144.6-76.6L-302-3306.7c47.2-7,119,7.2,160.1,31.7l1199.3,717.2c40.9,24.7,86.3,81.5,101.2,127l428.7,1306.7
			c14.9,45.5,12,118.2-6.3,162.2L1039.7,326.3c-18.6,44.2-68,98.1-110.2,120.4L-332.1,1113c-42.2,22.3-114.6,33.1-161.9,24
			l-1389.1-270.2c-46.9-9.2-109.5-46.8-139.2-84.2L-2887.9-294.1z"/>
		<path class="st1" d="M-1290,534c-102.4,58.5-252.3,37.6-334.8-46.7l-925.4-946.4c-82.5-84.2-109.1-239.4-59.4-346.3l583.2-1254.7
			c49.7-106.9,184.7-180.5,301.6-164.2L-452-2046.9c116.9,16.3,226.6,124,245.2,240.5L10.9-440c18.6,116.4-49.4,258.4-151.8,316.9
			L-1290,534z"/>
	</g>
</g>
<g>
	<defs>
		<path id="SVGID_00000130633189654108325890000008296427360616773767_" d="M4381.4,2944.9c29.4-36.5,51.5-103.9,49.4-150.7
			l-58.1-1348.4c-1.7-46.6-29.2-112.5-60.8-146.8l-937-1016.7c-31.9-34.4-95.1-67.9-141.2-74.8L1855.1,1.8
			c-46.2-6.8-116.2,7-156.4,31L527,733.4c-40,24.1-84.3,79.6-98.9,124.1L9.3,2134c-14.6,44.4-11.8,115.4,6.2,158.5l528.8,1258.6
			c18.2,43.2,66.4,95.8,107.7,117.7l1232.5,650.9c41.2,21.8,112,32.3,158.1,23.4l1357.1-263.9c45.8-9,107-45.7,136-82.3
			L4381.4,2944.9z"/>
	</defs>
	<clipPath id="SVGID_00000163775432616205929900000013090584932513167251_">
		<use xlink:href="#SVGID_00000130633189654108325890000008296427360616773767_"  style="overflow:visible;"/>
	</clipPath>
	<g style="clip-path:url(#SVGID_00000163775432616205929900000013090584932513167251_);">
		
			<image style="overflow:visible;enable-background:new    ;" width="3969" height="3019" xlink:href="../mapa.png"  transform="matrix(-8.450063e-17 0.46 -0.46 -8.450063e-17 3192.1899 -215.35)">
		</image>
	</g>
</g>
<path class="st6" d="M2502.5,630.9c0,1.2-10.3,2-10.4,3.1s9.9,3.6,9.8,4.8s-10.5,0.2-10.8,1.4s9.2,5.2,8.8,6.3s-10.4-1.5-10.9-0.4
	s8.2,6.7,7.7,7.7s-10-3.2-10.6-2.2s7,7.9,6.3,8.8s-9.3-4.8-10.1-3.9s5.6,9,4.8,9.8s-8.4-6.3-9.3-5.5s4.1,9.8,3.1,10.4
	s-7.3-7.6-8.3-7s2.4,10.3,1.3,10.8s-5.9-8.7-7-8.3s0.7,10.6-0.5,10.8s-4.4-9.5-5.6-9.3s-1.1,10.5-2.2,10.6s-2.8-10.1-4-10.1
	s-2.8,10.2-4,10.1s-1.1-10.4-2.3-10.6s-4.4,9.6-5.6,9.3s0.6-10.5-0.5-10.8s-5.9,8.8-7,8.3s2.4-10.2,1.3-10.8s-7.3,7.6-8.3,7
	s4-9.7,3.1-10.4s-8.5,6.3-9.3,5.5s5.6-8.9,4.8-9.8s-9.4,4.9-10.1,3.9s6.9-7.9,6.3-8.8s-10.1,3.3-10.6,2.2s8.1-6.6,7.7-7.7
	s-10.5,1.6-10.9,0.4s9.1-5.2,8.8-6.3s-10.6-0.2-10.8-1.4s9.9-3.6,9.8-4.8s-10.4-1.9-10.4-3.1s10.3-2,10.4-3.1s-10-3.6-9.8-4.8
	s10.5-0.2,10.8-1.4s-9.2-5.2-8.8-6.3s10.4,1.5,10.9,0.4s-8.2-6.7-7.7-7.7s10,3.2,10.6,2.2s-7-7.9-6.3-8.8s9.3,4.8,10.1,3.9
	s-5.6-9-4.8-9.8s8.4,6.3,9.3,5.5s-4.1-9.8-3.1-10.4s7.3,7.6,8.3,7s-2.4-10.3-1.3-10.8s5.9,8.7,7,8.3s-0.7-10.6,0.5-10.8
	s4.4,9.5,5.6,9.3s1.1-10.5,2.3-10.6s2.8,10.1,4,10.1s2.8-10.2,4-10.1s1.1,10.4,2.2,10.6s4.4-9.6,5.6-9.3s-0.6,10.5,0.5,10.8
	s6-8.8,7-8.3s-2.4,10.2-1.3,10.8s7.3-7.6,8.3-7s-4,9.7-3.1,10.4s8.5-6.3,9.3-5.5s-5.6,8.9-4.8,9.8s9.4-4.9,10.1-3.9
	s-6.9,7.9-6.3,8.8s10.1-3.3,10.6-2.2s-8.1,6.6-7.7,7.7s10.5-1.6,10.9-0.4s-9.1,5.2-8.8,6.3s10.6,0.2,10.8,1.4s-9.9,3.6-9.8,4.8
	S2502.5,629.8,2502.5,630.9"/>
<text transform="matrix(1 0 0 1 2438.03 647.28)" class="st7 st8 st9">5</text>
<path class="st6" d="M2155.1,1022.8c0,1.2-10.3,2-10.4,3.1s10,3.6,9.8,4.8s-10.5,0.2-10.8,1.4s9.2,5.2,8.8,6.3s-10.4-1.5-10.9-0.4
	s8.2,6.7,7.7,7.7s-10-3.2-10.6-2.2s7,7.9,6.3,8.8s-9.3-4.8-10.1-3.9s5.6,9,4.8,9.8s-8.4-6.3-9.3-5.5s4.1,9.8,3.1,10.4
	s-7.3-7.6-8.3-7s2.4,10.3,1.3,10.8s-5.9-8.7-7-8.3s0.7,10.6-0.5,10.8s-4.4-9.5-5.6-9.3s-1.1,10.5-2.3,10.6s-2.8-10.1-4-10.1
	s-2.8,10.2-4,10.1s-1.1-10.4-2.2-10.6s-4.4,9.6-5.6,9.3s0.6-10.5-0.5-10.8s-6,8.8-7,8.3s2.4-10.2,1.3-10.8s-7.3,7.6-8.3,7
	s4-9.7,3.1-10.4s-8.5,6.3-9.3,5.5s5.6-8.9,4.8-9.8s-9.4,4.9-10.1,3.9s6.9-7.9,6.3-8.8s-10.1,3.3-10.6,2.2s8.1-6.6,7.7-7.7
	s-10.5,1.6-10.9,0.4s9.1-5.2,8.8-6.3s-10.6-0.2-10.8-1.4s9.9-3.6,9.8-4.8s-10.4-1.9-10.4-3.1s10.3-2,10.4-3.1s-9.9-3.6-9.8-4.8
	s10.5-0.2,10.8-1.4s-9.2-5.2-8.8-6.3s10.4,1.5,10.9,0.4s-8.2-6.7-7.7-7.7s10,3.2,10.6,2.2s-7-7.9-6.3-8.8s9.3,4.8,10.1,3.9
	s-5.6-9-4.8-9.8s8.4,6.3,9.3,5.5s-4.1-9.8-3.1-10.4s7.3,7.6,8.3,7s-2.4-10.3-1.3-10.8s5.9,8.7,7,8.3s-0.7-10.6,0.5-10.8
	s4.4,9.5,5.6,9.3s1.1-10.5,2.2-10.6s2.8,10.1,4,10.1s2.8-10.2,4-10.1s1.1,10.4,2.3,10.6s4.4-9.6,5.6-9.3s-0.6,10.5,0.5,10.8
	s5.9-8.8,7-8.3s-2.4,10.2-1.3,10.8s7.3-7.6,8.3-7s-4,9.7-3.1,10.4s8.5-6.3,9.3-5.5s-5.6,8.9-4.8,9.8s9.4-4.9,10.1-3.9
	s-6.9,7.9-6.3,8.8s10.1-3.3,10.6-2.2s-8.1,6.6-7.7,7.7s10.5-1.6,10.9-0.4s-9.1,5.2-8.8,6.3s10.6,0.2,10.8,1.4s-9.9,3.6-9.8,4.8
	S2155.1,1021.6,2155.1,1022.8"/>
<text transform="matrix(1 0 0 1 2089.75 1039.17)" class="st7 st8 st9">3</text>
<path class="st6" d="M2180.7,608.1c0,1.2-10.3,2-10.4,3.1s9.9,3.6,9.8,4.8s-10.5,0.2-10.8,1.4s9.2,5.2,8.8,6.3s-10.4-1.5-10.9-0.4
	s8.2,6.7,7.7,7.7s-10-3.2-10.6-2.2s7,7.9,6.3,8.8s-9.3-4.8-10.1-3.9s5.6,9,4.8,9.8s-8.4-6.3-9.3-5.5s4.1,9.8,3.1,10.4
	s-7.3-7.6-8.3-7s2.4,10.3,1.3,10.8s-5.9-8.7-7-8.3s0.7,10.6-0.5,10.8s-4.4-9.5-5.6-9.3s-1.1,10.5-2.2,10.6s-2.8-10.1-4-10.1
	s-2.8,10.2-3.9,10.1s-1.1-10.4-2.3-10.6s-4.4,9.6-5.6,9.3s0.6-10.5-0.5-10.8s-5.9,8.8-7,8.3s2.4-10.2,1.3-10.8s-7.3,7.7-8.3,7
	s4-9.7,3.1-10.4s-8.5,6.3-9.3,5.5s5.6-8.9,4.8-9.8s-9.4,4.9-10.1,3.9s6.9-7.9,6.3-8.8s-10.1,3.3-10.6,2.2s8.1-6.6,7.7-7.7
	s-10.5,1.5-10.9,0.4s9.1-5.2,8.8-6.3s-10.6-0.2-10.8-1.4s9.9-3.6,9.8-4.8s-10.4-1.9-10.4-3.1s10.3-2,10.4-3.1s-9.9-3.6-9.8-4.8
	s10.5-0.2,10.8-1.4s-9.2-5.2-8.8-6.3s10.4,1.5,10.9,0.4s-8.2-6.7-7.7-7.7s10,3.2,10.6,2.2s-7-7.9-6.3-8.8s9.3,4.8,10.1,3.9
	s-5.6-9-4.8-9.8s8.4,6.3,9.3,5.5s-4.1-9.8-3.1-10.4s7.3,7.6,8.3,7s-2.4-10.3-1.3-10.8s5.9,8.7,7,8.3s-0.7-10.5,0.5-10.8
	s4.4,9.5,5.6,9.3s1.1-10.5,2.3-10.6s2.8,10.1,3.9,10.1s2.8-10.2,4-10.1s1.1,10.4,2.2,10.6s4.4-9.6,5.6-9.3s-0.6,10.5,0.5,10.8
	s5.9-8.7,7-8.3s-2.4,10.2-1.3,10.8s7.3-7.6,8.3-7s-4,9.7-3.1,10.4s8.5-6.3,9.3-5.5s-5.6,8.9-4.8,9.8s9.4-4.9,10.1-3.9
	s-6.9,7.9-6.3,8.8s10.1-3.3,10.6-2.2s-8.1,6.6-7.7,7.7s10.5-1.6,10.9-0.4s-9.1,5.2-8.8,6.3s10.6,0.2,10.8,1.4s-9.9,3.6-9.8,4.8
	S2180.7,606.9,2180.7,608.1"/>
<text transform="matrix(1 0 0 1 2116.28 624.4)" class="st7 st8 st9">2</text>
<path class="st6" d="M2132.2,530.1c0,1.2-10.3,2-10.4,3.1s9.9,3.6,9.8,4.8s-10.5,0.2-10.8,1.4s9.2,5.2,8.8,6.3s-10.4-1.5-10.9-0.4
	s8.2,6.7,7.7,7.7s-10-3.2-10.6-2.2s7,7.9,6.3,8.8s-9.3-4.8-10.1-3.9s5.6,9,4.8,9.8s-8.4-6.3-9.3-5.5s4.1,9.8,3.1,10.4
	s-7.3-7.6-8.3-7s2.4,10.3,1.3,10.8s-5.9-8.7-7-8.3s0.7,10.5-0.5,10.8s-4.4-9.5-5.6-9.3s-1.1,10.5-2.2,10.6s-2.8-10.1-3.9-10.1
	s-2.8,10.2-4,10.1s-1.1-10.4-2.2-10.6s-4.4,9.6-5.6,9.3s0.6-10.5-0.5-10.8s-6,8.7-7,8.3s2.4-10.2,1.3-10.8s-7.3,7.6-8.3,7
	s4-9.7,3.1-10.4s-8.5,6.3-9.3,5.5s5.6-8.9,4.8-9.8s-9.4,4.9-10.1,3.9s6.9-7.9,6.3-8.8s-10.1,3.3-10.6,2.2s8.1-6.6,7.7-7.7
	s-10.5,1.6-10.8,0.4s9.1-5.2,8.8-6.3s-10.6-0.2-10.8-1.4s9.8-3.6,9.8-4.8s-10.4-1.9-10.4-3.1s10.3-2,10.4-3.1s-9.9-3.6-9.8-4.8
	s10.5-0.2,10.8-1.4s-9.2-5.2-8.8-6.3s10.4,1.5,10.8,0.4s-8.2-6.7-7.7-7.7s10,3.2,10.6,2.2s-7-7.9-6.3-8.9s9.3,4.8,10.1,3.9
	s-5.6-9-4.8-9.8s8.4,6.3,9.3,5.5s-4.1-9.8-3.1-10.4s7.3,7.6,8.3,7s-2.4-10.3-1.3-10.8s5.9,8.7,7,8.3s-0.7-10.5,0.5-10.8
	s4.4,9.5,5.6,9.3s1.1-10.5,2.2-10.6s2.8,10.1,4,10.1s2.8-10.2,3.9-10.1s1.1,10.4,2.2,10.6s4.4-9.6,5.6-9.3s-0.6,10.5,0.5,10.9
	s6-8.8,7-8.3s-2.4,10.2-1.3,10.8s7.3-7.6,8.3-7s-4,9.7-3.1,10.4s8.5-6.3,9.3-5.5s-5.6,8.9-4.8,9.8s9.4-4.9,10.1-3.9
	s-6.9,7.9-6.3,8.9s10.1-3.3,10.6-2.2s-8.1,6.6-7.7,7.7s10.5-1.6,10.9-0.4s-9.1,5.2-8.8,6.3s10.6,0.2,10.8,1.4s-9.9,3.6-9.8,4.8
	S2132.2,528.9,2132.2,530.1"/>
<text transform="matrix(1 0 0 1 2071.47 546.4099)" class="st7 st8 st9">1</text>
<path class="st6" d="M2937.8,1181.8c0,1.2-10.3,2-10.4,3.1s9.9,3.6,9.8,4.8s-10.5,0.2-10.8,1.4s9.2,5.2,8.8,6.3s-10.4-1.5-10.9-0.4
	s8.2,6.7,7.7,7.7s-10-3.2-10.6-2.2s7,7.9,6.3,8.8s-9.3-4.8-10.1-3.9s5.6,9,4.8,9.8s-8.4-6.3-9.3-5.5s4.1,9.8,3.1,10.4
	s-7.3-7.6-8.3-7s2.4,10.3,1.3,10.8s-5.9-8.7-7-8.3s0.7,10.6-0.5,10.8s-4.4-9.5-5.6-9.3s-1.1,10.5-2.2,10.6s-2.8-10.1-4-10.1
	s-2.8,10.2-3.9,10.1s-1.1-10.4-2.2-10.6s-4.4,9.6-5.6,9.3s0.6-10.5-0.5-10.8s-6,8.8-7,8.3s2.4-10.2,1.3-10.8s-7.3,7.7-8.3,7
	s4-9.7,3.1-10.4s-8.5,6.3-9.3,5.6s5.6-8.9,4.8-9.8s-9.4,4.9-10.1,3.9s6.9-7.9,6.3-8.8s-10.1,3.3-10.6,2.2s8.1-6.6,7.7-7.7
	s-10.5,1.6-10.9,0.4s9.1-5.2,8.8-6.3s-10.6-0.2-10.8-1.4s9.9-3.6,9.8-4.8s-10.4-1.9-10.4-3.1s10.3-2,10.4-3.1s-9.9-3.6-9.8-4.8
	s10.5-0.2,10.8-1.4s-9.2-5.2-8.8-6.3s10.4,1.5,10.9,0.4s-8.2-6.7-7.7-7.7s10,3.2,10.6,2.2s-7-7.9-6.3-8.8s9.3,4.8,10.1,3.9
	s-5.6-9-4.8-9.8s8.4,6.3,9.3,5.5s-4.1-9.8-3.1-10.4s7.3,7.6,8.3,7s-2.4-10.3-1.3-10.8s5.9,8.7,7,8.3s-0.7-10.6,0.5-10.8
	s4.4,9.5,5.6,9.3s1.1-10.5,2.2-10.6s2.8,10.1,3.9,10.1s2.8-10.2,4-10.1s1.1,10.4,2.2,10.6s4.4-9.6,5.6-9.3s-0.6,10.5,0.5,10.8
	s5.9-8.7,7-8.3s-2.4,10.2-1.3,10.8s7.3-7.6,8.3-7s-4,9.7-3.1,10.4s8.5-6.3,9.3-5.5s-5.6,8.9-4.8,9.8s9.4-4.9,10.1-3.9
	s-6.9,7.9-6.3,8.8s10.1-3.3,10.6-2.2s-8.1,6.6-7.7,7.7s10.5-1.6,10.9-0.4s-9.1,5.2-8.8,6.3s10.6,0.2,10.8,1.4s-9.9,3.6-9.8,4.8
	S2937.8,1180.6,2937.8,1181.8"/>
<text transform="matrix(1 0 0 1 2869.52 1194.89)" class="st7 st8 st9">4</text>
<text transform="matrix(1 0 0 1 2900.9099 251.1201)" class="st7 st8 st10">LUGARES DE</text>
<text transform="matrix(1 0 0 1 2900.9099 280.8501)" class="st7 st8 st10">INTERVENCIÓN</text>
<text transform="matrix(1 0 0 1 2900.9099 313.8799)" class="st7 st11 st12">LOCUS EN VIÑA DEL MAR</text>
<path class="st7" d="M2880.5,266.7c0,1.2-10.3,2-10.4,3.1s9.9,3.6,9.8,4.8s-10.5,0.2-10.8,1.4s9.2,5.2,8.8,6.3s-10.4-1.5-10.9-0.4
	s8.2,6.7,7.7,7.7s-10-3.2-10.6-2.2s7,7.9,6.3,8.9s-9.3-4.8-10.1-3.9s5.6,9,4.8,9.8s-8.4-6.3-9.3-5.5s4.1,9.8,3.1,10.4
	s-7.3-7.6-8.3-7s2.4,10.3,1.3,10.8s-5.9-8.7-7-8.3s0.7,10.6-0.5,10.9s-4.4-9.5-5.6-9.3s-1.1,10.5-2.2,10.6s-2.8-10.1-4-10.1
	s-2.8,10.2-4,10.1s-1.1-10.4-2.2-10.6s-4.4,9.6-5.6,9.3s0.6-10.5-0.5-10.9s-6,8.8-7,8.3s2.4-10.2,1.3-10.8s-7.3,7.6-8.3,7
	s4-9.7,3.1-10.4s-8.5,6.3-9.3,5.5s5.6-8.9,4.8-9.8s-9.4,4.9-10.1,3.9s6.9-7.9,6.3-8.9s-10.1,3.3-10.6,2.2s8.1-6.6,7.7-7.7
	s-10.5,1.6-10.9,0.4s9.1-5.2,8.8-6.3s-10.6-0.2-10.8-1.4s9.9-3.6,9.8-4.8s-10.4-1.9-10.4-3.1s10.3-2,10.4-3.1s-9.9-3.6-9.8-4.8
	s10.5-0.2,10.8-1.4s-9.2-5.2-8.8-6.3s10.4,1.5,10.9,0.4s-8.2-6.7-7.7-7.7s10,3.2,10.6,2.2s-7-7.9-6.3-8.9s9.3,4.8,10.1,3.9
	s-5.6-9-4.8-9.8s8.4,6.3,9.3,5.5s-4.1-9.8-3.1-10.4s7.3,7.6,8.3,7s-2.4-10.3-1.3-10.8s5.9,8.7,7,8.3s-0.7-10.6,0.5-10.9
	s4.4,9.5,5.6,9.3s1.1-10.5,2.2-10.6s2.8,10.1,4,10.1s2.8-10.2,4-10.1s1.1,10.4,2.2,10.6s4.4-9.6,5.6-9.3s-0.6,10.5,0.5,10.9
	s5.9-8.8,7-8.3s-2.4,10.2-1.3,10.8s7.3-7.6,8.3-7s-4,9.7-3.1,10.4s8.5-6.3,9.3-5.5s-5.6,8.9-4.8,9.8s9.4-4.9,10.1-3.9
	s-6.9,7.9-6.3,8.9s10.1-3.3,10.6-2.2s-8.1,6.6-7.7,7.7s10.5-1.6,10.9-0.4s-9.1,5.2-8.8,6.3s10.6,0.2,10.8,1.4s-9.9,3.6-9.8,4.8
	S2880.5,265.5,2880.5,266.7"/>
<text transform="matrix(1 0 0 1 2809.52 279.53)" class="st13 st8 st14">n</text>
<path class="st13" d="M2859.1,268l-17.2-3.5c-0.2-0.1-0.5,0.1-0.5,0.3c0,0,0,0.1,0,0.1v7.3c0,0.2,0.2,0.4,0.4,0.4c0,0,0.1,0,0.1,0
	l17.2-3.9c0.2,0,0.4-0.3,0.4-0.5C2859.4,268.2,2859.3,268,2859.1,268z"/>
</svg>
