<svg id="fondos" xmlns="http://www.w3.org/2000/svg" xmlns:xlink="http://www.w3.org/1999/xlink" viewBox="0 0 4535.49 4448.74"><defs><style>.cls-1{fill:none;}.cls-2{clip-path:url(#clip-path);}.cls-3{fill:#033ad3;}.cls-4{clip-path:url(#clip-path-2);}.cls-5{fill:#ffbe00;}</style><clipPath id="clip-path"><rect class="cls-1" x="5146.16" y="-8844.74" width="1366" height="7031.02"/></clipPath><clipPath id="clip-path-2"><rect class="cls-1" x="3119.76" y="-8844.74" width="1366" height="7489.55"/></clipPath></defs><g class="cls-2"><path class="cls-3" d="M5677,20.12C5575.68,78,5427.37,57.28,5345.72-26.07L4430-962.5c-81.64-83.36-107.93-236.86-58.74-342.67l577-1241.52c49.18-105.82,182.79-178.62,298.4-162.5l1259.4,175.59c115.62,16.12,224.21,122.69,242.58,237.93l215.43,1352c18.37,115.23-48.91,255.68-150.23,313.53Z"/></g><g class="cls-4"><path class="cls-5" d="M1974.69-339.72C1944.6-377,1922-446.08,1924.08-494l59.47-1380.22c1.77-47.71,29.94-115.14,62.26-150.29L3004.9-3065.12c32.65-35.26,97.33-69.53,144.59-76.55l1411.05-210.66c47.25-7,118.95,7.2,160.13,31.75L5920-2603.42c40.91,24.68,86.29,81.48,101.22,127l428.71,1306.66c14.92,45.48,12,118.16-6.32,162.24L5902.25,280.73c-18.62,44.21-68,98.09-110.2,120.44L4530.47,1067.43c-42.22,22.34-114.64,33-161.85,23.94L2979.48,821.23C2932.6,812,2870,774.42,2840.27,737Z"/><path class="cls-3" d="M3572.58,488.41c-102.41,58.45-252.31,37.55-334.82-46.69L2312.32-504.69C2229.81-588.93,2203.25-744.07,2253-851l583.18-1254.74c49.71-106.95,184.74-180.53,301.59-164.24l1272.81,177.46c116.85,16.3,226.6,124,245.17,240.47L4873.43-485.65C4892-369.19,4824-227.24,4721.6-168.77Z"/></g><path class="cls-5" d="M50.75,3014.4C20.66,2977.08-2,2908,.14,2860.15L59.61,1479.93c1.77-47.71,29.94-115.14,62.26-150.29L1081,289c32.65-35.26,97.34-69.53,144.59-76.55L2636.6,1.79c47.25-7,119,7.2,160.13,31.74L3996,750.7c40.91,24.68,86.28,81.48,101.22,127l428.71,1306.66c14.92,45.48,12,118.16-6.32,162.24L3978.31,3634.85c-18.63,44.21-68,98.09-110.21,120.43L2606.53,4421.55c-42.22,22.34-114.64,33.05-161.85,23.94L1055.53,4175.35c-46.87-9.22-109.49-46.81-139.21-84.24Z"/></svg>