<svg xmlns="http://www.w3.org/2000/svg" xmlns:xlink="http://www.w3.org/1999/xlink" viewBox="0 0 24.77 24.35"><defs><style>.cls-1{fill:none;}.cls-2{clip-path:url(#clip-path);}.cls-3{fill:#fff;}</style><clipPath id="clip-path"><rect class="cls-1" x="1773.03" y="-5657.25" width="1366" height="5518.05"/></clipPath></defs><g id="fondos"><g class="cls-2"><path class="cls-3" d="M1728.31-1926.16c-60.36-8.78-150.75,11.19-201.79,44.59L363.57-1121.72c-51.11,33.35-106.72,107.51-124.13,166.17L-169,412.62c-17.37,58.59-13,151.73,10,208.09L383.15,1956c22.92,56.35,85,126.12,138.58,155.4l1235.72,673.41c53.58,29.28,145.23,42.18,204.82,29l1349.35-298.17c59.59-13.17,137.32-63.49,173.58-112.62l836.85-1131.39c36.26-49.13,63.16-138.56,60.19-199.32L4311.33-367.12c-3-60.77-38.16-147.11-78.65-192.91L3285.75-1628.69c-40.5-45.86-122.19-89.69-182.54-98.41Z"/></g></g><g id="figuras"><path class="cls-3" d="M8,7.82C-.75,1.39-4,15.61,6.93,12.56-4,15.61,5.1,27,10,16.36,5.1,27,19.68,27,14.82,16.36c4.86,10.65,14-.75,3-3.8,10.92,3,7.67-11.17-1.08-4.74,8.75-6.43-4.38-12.75-4.38-2.11C12.39-4.93-.75,1.39,8,7.82"/></g></svg>