<?xml version="1.0" encoding="utf-8"?>
<!-- Generator: Adobe Illustrator 24.2.1, SVG Export Plug-In . SVG Version: 6.00 Build 0)  -->
<svg version="1.1" id="Capa_1" xmlns="http://www.w3.org/2000/svg" xmlns:xlink="http://www.w3.org/1999/xlink" x="0px" y="0px"
	 viewBox="0 0 3828 3920.3" style="enable-background:new 0 0 3828 3920.3;" xml:space="preserve">
<style type="text/css">
	.st0{fill:#FFFFFF;}
</style>
<g id="Capa_5">
	<path class="st0" d="M2000.3,13.5c-47.6-18-124.9-18-172.6,0l-1085.1,410c-47.7,18-106.4,68.5-131.2,113.1L32,1578.6
		C7.2,1623.2-5.9,1699.9,2.6,1750l201.5,1186.4c8.5,50.1,46.6,118.1,85,151.7l886.2,771.7c38.4,33.5,110.8,60.6,161.8,60.6H2491
		c51,0,123.4-27,161.8-60.6l886.1-771.7c38.4-33.5,76.5-101.6,85-151.7L3825.4,1750c8.5-50.1-4.6-126.8-29.4-171.4L3216.5,536.7
		c-24.8-44.7-83.5-95.1-131.1-113.1L2000.3,13.5z"/>
</g>
<g id="Capa_6">
	<g>
		<defs>
			<rect id="SVGID_1_" x="751.1" y="-1749.5" width="1366" height="607.4"/>
		</defs>
		<clipPath id="SVGID_2_">
			<use xlink:href="#SVGID_1_"  style="overflow:visible;"/>
		</clipPath>
	</g>
</g>
</svg>
