<svg xmlns="http://www.w3.org/2000/svg" xmlns:xlink="http://www.w3.org/1999/xlink" viewBox="0 0 95.89 95.57"><defs><style>.cls-1{fill:none;}.cls-2{clip-path:url(#clip-path);}.cls-3{fill:#fff;}.cls-4{fill:#033ad3;}.cls-5{fill:#e72276;}</style><clipPath id="clip-path"><rect class="cls-1" x="-810.82" y="-7880.5" width="1366" height="6363.31"/></clipPath></defs><g id="fondos"><g class="cls-2"><path class="cls-3" d="M-855.54-4344.72c-60.36-8.78-150.75,11.19-201.79,44.59l-1163,759.85c-51.11,33.35-106.72,107.51-124.13,166.17l-408.47,1368.17c-17.37,58.59-13,151.73,10,208.09l542.22,1335.3c22.92,56.36,85,126.12,138.58,155.4L-826.4,366.26c53.58,29.28,145.23,42.18,204.82,29L727.77,97.1C787.36,83.93,865.09,33.61,901.35-15.52L1738.2-1146.91c36.26-49.13,63.16-138.56,60.19-199.32l-70.91-1439.45c-3-60.77-38.16-147.11-78.65-192.91L701.9-4047.25c-40.5-45.86-122.19-89.69-182.54-98.41Z"/><path class="cls-4" d="M-256.68,240.17c-98.21,56.05-241.95,36-321.08-44.77L-1465.2-712.15c-79.12-80.79-104.6-229.56-56.93-332.11l559.24-1203.23C-915.22-2350-785.73-2420.61-673.68-2405L546.88-2234.81c112,15.63,217.3,118.92,235.11,230.6L990.77-693.89c17.8,111.67-47.4,247.8-145.6,303.86Z"/></g></g><g id="figuras"><path class="cls-5" d="M95.89,47.78c0,1.2-10.31,2-10.4,3.12s9.94,3.62,9.75,4.77S84.76,55.9,84.47,57s9.21,5.21,8.83,6.32-10.37-1.52-10.85-.44,8.23,6.66,7.67,7.69-10-3.21-10.63-2.22,7,7.92,6.29,8.85-9.32-4.81-10.12-3.94,5.62,9,4.76,9.76S72,76.79,71.08,77.52s4.08,9.76,3.09,10.4-7.26-7.56-8.3-7,2.42,10.3,1.34,10.78-5.91-8.66-7-8.28.68,10.56-.47,10.85S55.32,84.75,54.15,85,53.08,95.47,51.9,95.57s-2.76-10.12-4-10.12S45.16,95.66,44,95.57,42.89,85.14,41.74,85s-4.43,9.61-5.57,9.32.65-10.46-.46-10.85-6,8.75-7,8.28S31.05,81.48,30,80.92s-7.31,7.65-8.3,7,4-9.68,3.1-10.41-8.47,6.35-9.34,5.55,5.56-8.9,4.76-9.76-9.4,4.87-10.12,3.93,6.94-7.86,6.29-8.84S6.34,71.65,5.77,70.61s8.14-6.61,7.67-7.69S3,64.48,2.59,63.36s9.12-5.17,8.83-6.32S.84,56.84.65,55.67s9.85-3.58,9.75-4.77S0,49,0,47.78s10.31-2,10.4-3.11S.46,41.05.65,39.9s10.48-.23,10.77-1.37-9.21-5.21-8.83-6.32,10.37,1.52,10.85.44S5.21,26,5.77,25s10,3.21,10.63,2.22-7-7.92-6.29-8.85,9.32,4.81,10.12,3.94-5.62-9-4.76-9.76,8.41,6.27,9.34,5.54S20.73,8.29,21.72,7.64s7.26,7.57,8.3,7S27.6,4.34,28.68,3.87s5.91,8.66,7,8.27S35,1.59,36.17,1.3s4.39,9.52,5.57,9.32S42.8.1,44,0s2.76,10.11,3.95,10.11S50.73-.09,51.9,0,53,10.43,54.15,10.62,58.58,1,59.71,1.3s-.64,10.46.47,10.84,6-8.74,7-8.27-2.37,10.21-1.34,10.78,7.32-7.65,8.31-7-4,9.68-3.1,10.4,8.47-6.34,9.34-5.54-5.56,8.89-4.76,9.76,9.39-4.87,10.12-3.94-6.94,7.86-6.29,8.85S89.55,23.92,90.12,25,82,31.57,82.45,32.65s10.47-1.56,10.85-.44-9.12,5.17-8.83,6.32,10.58.2,10.77,1.37-9.85,3.58-9.75,4.77,10.4,1.92,10.4,3.11"/></g></svg>