<svg xmlns="http://www.w3.org/2000/svg" xmlns:xlink="http://www.w3.org/1999/xlink" viewBox="0 0 27.55 26.8"><defs><style>.cls-1{fill:none;}.cls-2{clip-path:url(#clip-path);}.cls-3{fill:#fff;}.cls-4{fill:#033ad3;}</style><clipPath id="clip-path"><rect class="cls-1" x="-765.51" y="-7909.4" width="1366" height="6363.31"/></clipPath></defs><g id="fondos"><g class="cls-2"><path class="cls-3" d="M-810.23-4373.62C-870.6-4382.4-961-4362.42-1012-4329L-2175-3569.18c-51.12,33.35-106.73,107.52-124.14,166.17l-408.46,1368.17c-17.37,58.59-13,151.73,10,208.09l542.23,1335.3c22.92,56.36,85,126.12,138.58,155.4L-781.1,337.36c53.59,29.28,145.23,42.18,204.82,29L773.07,68.2C832.66,55,910.4,4.71,946.66-44.42l836.85-1131.39c36.25-49.13,63.15-138.55,60.19-199.32l-70.91-1439.45c-3-60.77-38.16-147.1-78.65-192.91L747.21-4076.15C706.7-4122,625-4165.84,564.66-4174.56Z"/><path class="cls-4" d="M-211.37,211.27c-98.21,56.06-241.95,36-321.08-44.77L-1419.9-741c-79.12-80.79-104.59-229.56-56.92-332.1l559.24-1203.24c47.66-102.55,177.15-173.11,289.2-157.49L592.19-2263.7c112,15.62,217.29,118.91,235.1,230.59L1036.07-722.79c17.8,111.68-47.4,247.8-145.59,303.86Z"/></g></g><g id="figuras"><g id="_3NP6JJ.tif" data-name="3NP6JJ.tif"><path class="cls-3" d="M0,18.67a.81.81,0,0,1,.66-.55.71.71,0,0,1,.8.65c0,.11,0,.22,0,.33v6.2h24.6c0-.1,0-.21,0-.31V19c0-.49.22-.78.61-.83a.71.71,0,0,1,.84.66,1.62,1.62,0,0,1,0,.22v6.86c0,.64-.27.92-.91.92H.92A.87.87,0,0,1,0,26.21Z"/><path class="cls-3" d="M13.94,0a1,1,0,0,1,.57,1V18.28l.26-.25,5-5a.76.76,0,0,1,.82-.27.73.73,0,0,1,.38,1.11,2.41,2.41,0,0,1-.21.24l-6.29,6.3a.8.8,0,0,1-1.32,0L6.79,14.12a.77.77,0,0,1-.29-.81.72.72,0,0,1,1.16-.38,1.58,1.58,0,0,1,.23.22c1.62,1.62,3.24,3.23,4.85,4.85.08.08.14.17.21.25l.09,0V17.9Q13,9.47,13,1a1,1,0,0,1,.59-1Z"/></g></g></svg>