<svg xmlns="http://www.w3.org/2000/svg" viewBox="0 0 340.68 112.41"><defs><style>.cls-1{fill:#fff;}</style></defs><g id="Capa_6" data-name="Capa 6"><path class="cls-1" d="M59.33,25.38a8.48,8.48,0,0,0,.94-4.63v-.63a8.44,8.44,0,0,0-.94-4.48,3.67,3.67,0,0,0-3.22-1.41,3.74,3.74,0,0,0-3.18,1.37c-.63,1-.87,2.4-.87,4.52v.63A7.93,7.93,0,0,0,53,25.22a3.59,3.59,0,0,0,3.06,1.38,3.87,3.87,0,0,0,3.26-1.22m42.59,59.77-4,3.26a10.41,10.41,0,0,0-7.18-2.94c-2.16,0-3.22.7-3.22,1.84,0,1.34,1.84,1.92,4.83,2.51,5.46,1.14,9.22,3.22,9.22,6.91,0,4-3.53,7.07-10.09,7.07-4.87,0-9-1.29-11.7-3.69l3.69-3.89a11.71,11.71,0,0,0,7.66,3.42c2.71,0,3.53-.86,3.53-1.88,0-1.34-1.68-2.09-5.34-2.87-5.38-1.18-8.56-3-8.56-6.68,0-4.12,4-6.75,10.06-6.75,5,0,8.52,1.41,11.11,3.69m-.43-18H94.61a37.51,37.51,0,0,1-.86-5.3C92.57,65.47,89.9,68,86.6,68A5.92,5.92,0,0,1,81.85,66c-1.18-1.29-1.65-3.8-1.65-7.89V46.23h7.5v11c0,3.1.16,4.16.51,4.71a2.45,2.45,0,0,0,2.28,1,4.85,4.85,0,0,0,3.26-1.14V46.23h7.54V60.72c0,1.18.08,6.09.2,6.48M67.85,20.43c0,6.76-4.13,11.15-11.78,11.15-7.89,0-11.62-4.39-11.62-11.15S48.8,9.32,56.19,9.32c7.65,0,11.66,4.32,11.66,11.11M45,56.76c0-6.64,4.56-11.11,11.47-11.11,6,0,9.15,2.55,10.64,6.12l-6.71,1.89A3.37,3.37,0,0,0,56.74,51a3.6,3.6,0,0,0-3,1.17,6.86,6.86,0,0,0-1.18,4.44V57a7,7,0,0,0,1.18,4.44,3.9,3.9,0,0,0,3,1.18c2.4,0,3.5-.83,3.93-3l6.52,1.42c-1.18,4.28-4.63,6.83-10.8,6.83C48.84,67.91,45,63.71,45,56.76M29.75,31.61H13.15V9.3h8.74V23.11L20.78,26l.3.3L23.83,25h5.92ZM111.8,63a2.27,2.27,0,0,0,.44-1.91L108.43,44.4a2.25,2.25,0,0,0-1.22-1.53L91.82,35.45a2.29,2.29,0,0,0-1.95,0L75.06,42.59a3.65,3.65,0,0,1-3.13,0L68.63,41a1.35,1.35,0,0,1-.47-2.06L77.1,27.73a2.27,2.27,0,0,0,.44-1.91L73.74,9.16a2.26,2.26,0,0,0-1.22-1.52L57.12.22a2.29,2.29,0,0,0-1.95,0L40.36,7.36a3.65,3.65,0,0,1-3.13,0L22.43.22a2.32,2.32,0,0,0-2,0L5.08,7.64A2.23,2.23,0,0,0,3.86,9.16L.06,25.82a2.23,2.23,0,0,0,.43,1.91L11.14,41.09a2.28,2.28,0,0,0,1.77.84H30a2.26,2.26,0,0,0,1.76-.84l6-7.51a1.35,1.35,0,0,1,2.11,0l4.28,5.36A1.35,1.35,0,0,1,43.66,41l-3.88,1.87a2.25,2.25,0,0,0-1.22,1.53l-3.8,16.65A2.23,2.23,0,0,0,35.19,63L45.84,76.32a2.27,2.27,0,0,0,1.76.84H64.69a2.27,2.27,0,0,0,1.76-.84l6-7.51a1.35,1.35,0,0,1,2.11,0l4.29,5.37a1.35,1.35,0,0,1-.47,2.06l-3.9,1.88a2.28,2.28,0,0,0-1.22,1.53L69.45,96.3a2.27,2.27,0,0,0,.44,1.91l10.65,13.36a2.27,2.27,0,0,0,1.76.84H99.39a2.27,2.27,0,0,0,1.76-.84L111.8,98.21a2.27,2.27,0,0,0,.44-1.91l-3.81-16.65a2.23,2.23,0,0,0-1.22-1.53l-3.89-1.88a1.35,1.35,0,0,1-.47-2.06Z"/><path class="cls-1" d="M210.9,34.42l.12-.35V30.32l-.13-.43.44.12h.78c1.3,0,1.9.68,1.9,2.13v.06c0,1.41-.64,2.11-1.94,2.11h-.73Zm-1.13.9h2.29c2,0,3.26-1.09,3.26-3.14A2.87,2.87,0,0,0,212.14,29h-2.37Zm-6.57-2.51-.43.19.23-.33.75-2.25.21-1.1.22,1.11.71,2.22.28.37-.48-.21Zm2.62,2.51h1.28L204.79,29h-1.57l-2.39,6.32h1.23l.54-1.5h2.68Zm-11.52-.9.12-.35V30.32l-.13-.43.45.12h.78c1.29,0,1.89.68,1.89,2.13v.06c0,1.41-.64,2.11-1.94,2.11h-.72Zm-1.13.9h2.29c2,0,3.26-1.09,3.26-3.14A2.87,2.87,0,0,0,195.54,29h-2.37Zm-5.88.16a2.41,2.41,0,0,0,2.59-2.72V29h-1.22v3.82c0,1.09-.41,1.61-1.37,1.61s-1.42-.55-1.42-1.63V29h-1.24v3.75a2.41,2.41,0,0,0,2.66,2.73m-7.2-.16h1.24V29h-1.24Zm-5.75.16a2.67,2.67,0,0,0,2.85-2.1l-1.24-.3a1.43,1.43,0,0,1-1.58,1.33c-1.05,0-1.67-.85-1.67-2.2v-.1c0-1.42.64-2.22,1.69-2.22a1.41,1.41,0,0,1,1.54,1.29h1.3a2.64,2.64,0,0,0-2.83-2.33,3,3,0,0,0-3,3.32c0,2,1.18,3.32,2.94,3.32m-12.73-2.67-.44.19.24-.33.75-2.25.21-1.1.22,1.11.71,2.22.28.37-.49-.21Zm2.61,2.51h1.29L163.2,29h-1.57l-2.39,6.32h1.23l.54-1.5h2.68Zm-11.12,0h4.08V34.23h-2.46l-.55.21h0l.2-.53V29H153.1ZM144.7,29v3.62l.22,1.54,0,.14-.52-1.23L141.82,29h-1.38v6.32h1.12V31.48l-.18-1.5.5,1,2.79,4.3h1.16V29Zm-11.93,6.32h4.72V34.25h-3.14l-.56.16.15-.51V32.68l-.06-.23.5.14h1.93V31.54h-2.23l-.21.08.07-.29v-.92l-.14-.48.54.12h3V29h-4.62Z"/><path class="cls-1" d="M336.78,22.43l-.44.19.24-.32.75-2.26.21-1.09.22,1.1.71,2.23.28.36-.49-.21Zm2.61,2.51h1.29l-2.31-6.31H336.8l-2.39,6.31h1.23l.54-1.49h2.68Zm-8.85,0h1.24V18.63h-1.24Zm-5.75.16a2.67,2.67,0,0,0,2.85-2.1l-1.24-.29A1.43,1.43,0,0,1,324.82,24c-1.05,0-1.67-.86-1.67-2.21v-.09c0-1.42.64-2.23,1.69-2.23a1.41,1.41,0,0,1,1.54,1.29h1.3a2.64,2.64,0,0,0-2.83-2.33,3,3,0,0,0-3,3.32c0,2,1.18,3.32,2.94,3.32m-7-6.47v3.61l.22,1.54,0,.14-.52-1.22-2.61-4.07H313.5v6.31h1.12V21.11l-.18-1.51.5,1,2.79,4.3h1.16V18.63Zm-11.93,6.31h4.72V23.88h-3.14l-.56.15.15-.51V22.31l-.06-.23.5.13h1.93v-1h-2.23l-.21.07L307,21V20l-.14-.47.54.11h3.05v-1h-4.62Zm-5.75.16a2.65,2.65,0,0,0,2.84-2.1l-1.23-.29A1.43,1.43,0,0,1,300.11,24c-1.05,0-1.67-.86-1.67-2.21v-.09c0-1.42.64-2.23,1.69-2.23a1.41,1.41,0,0,1,1.54,1.29H303a2.64,2.64,0,0,0-2.83-2.33,3,3,0,0,0-3,3.32c0,2,1.18,3.32,2.94,3.32m-7.86,0c1.56,0,2.37-.82,2.37-1.94s-1.16-1.61-2.18-1.91c-.84-.25-1.6-.44-1.6-1s.31-.83,1.11-.83,1.29.33,1.43,1h1.2a2.31,2.31,0,0,0-2.61-1.94c-1.49,0-2.32.84-2.32,1.89,0,1.21,1.12,1.59,2.14,1.88.84.24,1.6.42,1.6,1s-.28.88-1.11.88A1.5,1.5,0,0,1,290.58,23H289.3c.24,1.38,1.3,2.12,2.92,2.12m-10-.15h4.73V23.88h-3.15l-.55.15.14-.51V22.31l-.06-.23.51.13h1.93v-1H283.5l-.21.07.07-.28V20l-.13-.47.53.11h3.05v-1h-4.62Zm-6.88,0h4.08V23.86h-2.46l-.55.21h0l.2-.54V18.63h-1.26Zm-6.09-.85c-1.21,0-1.83-.85-1.83-2.29v0c0-1.46.64-2.28,1.83-2.28s1.83.84,1.83,2.28v0c0,1.45-.64,2.29-1.83,2.29m0,1a3,3,0,0,0,3.16-3.32,3,3,0,0,0-3.09-3.32,3,3,0,0,0-3.15,3.32c0,2,1.11,3.32,3.08,3.32m-10.09-1.05.13-.35V20l-.14-.44.45.12h.78c1.3,0,1.89.68,1.89,2.13v.06c0,1.41-.63,2.11-1.94,2.11h-.72Zm-1.13.89h2.3c2,0,3.26-1.08,3.26-3.14a2.86,2.86,0,0,0-3.18-3.17H258Zm-6.56-2.51-.44.19.24-.32L252,20l.21-1.09.22,1.1.71,2.23.28.36-.49-.21ZM254,24.94h1.29L253,18.63h-1.57L249,24.94h1.23l.54-1.49h2.68Zm-13.66,0h1.25V22.53l2.28-3.9h-1.36l-1.35,2.49-.14.68h0l-.15-.67-1.35-2.5h-1.42l2.27,3.9ZM229,22.43l-.44.19.24-.32.75-2.26.21-1.09.22,1.1.71,2.23.28.36-.49-.21Zm2.62,2.51h1.28l-2.31-6.31H229l-2.39,6.31h1.23l.54-1.49h2.68Zm-8.86,0H224V18.63h-1.25ZM217,25.1a2.66,2.66,0,0,0,2.85-2.1l-1.24-.29A1.43,1.43,0,0,1,217,24c-1,0-1.67-.86-1.67-2.21v-.09c0-1.42.64-2.23,1.69-2.23a1.41,1.41,0,0,1,1.54,1.29h1.31a2.66,2.66,0,0,0-2.84-2.33,3,3,0,0,0-3,3.32c0,2,1.17,3.32,2.93,3.32m-7-6.47v3.61l.21,1.54,0,.14-.51-1.22-2.62-4.07H205.7v6.31h1.13V21.11l-.18-1.51.49,1,2.79,4.3h1.16V18.63Zm-10.83,3.8-.44.19.24-.32.75-2.26L199.9,19l.22,1.1.71,2.23.28.36-.49-.21Zm2.62,2.51H203l-2.31-6.31h-1.57l-2.39,6.31H198l.54-1.49h2.68Zm-11,0H192v-2.3l-.11-.36.56.15h2V21.37h-2.24l-.31.07.11-.27V20.05l-.14-.47.55.11h2.8V18.63h-4.43Zm-4.49-6.31v3.61l.22,1.54,0,.14L186,22.7l-2.61-4.07H182v6.31h1.12V21.11l-.18-1.51.5,1,2.79,4.3h1.15V18.63Zm-8.87,6.31h1.24V18.63h-1.24Zm-11.59,0h4.73V23.88h-3.15l-.55.15.14-.51V22.31l-.06-.23.51.13h1.93v-1h-2.24l-.2.07L167,21V20l-.13-.47.53.11h3.05v-1h-4.62Zm-7.12-3.23,0-.26V19.93l-.13-.4.44.09h1.13c.89,0,1.25.36,1.25,1,0,.8-.31,1.09-1.55,1.09H159Zm-1.17,3.23h1.2V22.78l0-.35.46.08h.64a5.26,5.26,0,0,0,.84-.06,2.57,2.57,0,0,1,.81,2.15v.34h1.37v-.17c0-1.19-.3-1.86-1-2.16a2.85,2.85,0,0,0-.93-.18V22.3a1.76,1.76,0,0,0,1.84-1.89c0-1.14-.83-1.78-2.44-1.78h-2.73ZM152,24h-1.23l-.45.1.1-.33V21.92l.3.11h1.53a.88.88,0,0,1,.94,1c0,.62-.38.93-1.19.93m-1.24-4.4h1.25c.66,0,.93.3.93.82s-.32.92-1,.92h-1.5V19.87l-.13-.36Zm1.78,2.34a1.64,1.64,0,0,0,1.68-1.56c0-1.06-.72-1.72-2.34-1.72h-2.66v6.31h2.82c1.65,0,2.45-.51,2.45-1.68s-.84-1.35-1.95-1.35m-9.42,2.18c-1.21,0-1.82-.85-1.82-2.29v0c0-1.46.63-2.28,1.83-2.28s1.83.84,1.83,2.28v0c0,1.45-.64,2.29-1.84,2.29m0,1a3,3,0,0,0,3.16-3.32,3,3,0,0,0-3.09-3.32A3,3,0,0,0,140,21.78c0,2,1.12,3.32,3.09,3.32m-8,0c1.56,0,2.36-.82,2.36-1.94s-1.16-1.61-2.18-1.91c-.84-.25-1.6-.44-1.6-1s.31-.83,1.11-.83,1.3.33,1.43,1h1.21a2.32,2.32,0,0,0-2.62-1.94c-1.49,0-2.32.84-2.32,1.89,0,1.21,1.12,1.59,2.14,1.88.84.24,1.6.42,1.6,1s-.28.88-1.11.88A1.5,1.5,0,0,1,133.48,23H132.2c.24,1.38,1.3,2.12,2.93,2.12"/><path class="cls-1" d="M301.14,14.56h4.08V13.48h-2.47l-.55.21h0l.2-.53V8.25h-1.25Zm-6.57-2.51-.43.19.23-.32.76-2.25.2-1.1.22,1.1.72,2.23.27.36-.48-.21Zm2.62,2.51h1.28l-2.31-6.31h-1.57l-2.38,6.31h1.22l.54-1.49h2.69Zm-8.73-6.31v3.61l.21,1.54,0,.15-.51-1.23-2.62-4.07H284.2v6.31h1.12V10.73l-.18-1.5.49,1,2.79,4.3h1.16V8.25ZM278.1,13.71c-1.21,0-1.83-.85-1.83-2.28v0c0-1.46.64-2.28,1.84-2.28s1.83.84,1.83,2.28v0c0,1.44-.64,2.28-1.84,2.28m0,1a3,3,0,0,0,3.17-3.32,3,3,0,0,0-3.09-3.32A3,3,0,0,0,275,11.41c0,2,1.11,3.32,3.08,3.32m-7.29-.17H272V8.25h-1.24Zm-5.75.17a2.66,2.66,0,0,0,2.84-2.11l-1.23-.29a1.44,1.44,0,0,1-1.58,1.33c-1.05,0-1.68-.85-1.68-2.21v-.09c0-1.42.65-2.23,1.7-2.23a1.41,1.41,0,0,1,1.54,1.3h1.3a2.64,2.64,0,0,0-2.83-2.33,3,3,0,0,0-3,3.32c0,2,1.18,3.32,2.94,3.32m-9.1-2.68-.44.19.24-.32.75-2.25.21-1.1.22,1.1.71,2.23.28.36-.49-.21Zm2.61,2.51h1.29l-2.31-6.31h-1.57l-2.39,6.31h1.23l.54-1.49H258ZM249.8,8.25v3.61L250,13.4l0,.15-.52-1.23-2.61-4.07h-1.38v6.31h1.12V10.73l-.18-1.5.5,1,2.78,4.3h1.16V8.25Zm-11.38,3.08,0-.26V9.55l-.12-.4.44.1h1.13c.88,0,1.25.36,1.25,1,0,.81-.31,1.09-1.55,1.09h-.84Zm-1.17,3.23h1.19V12.4l0-.35.46.08h.64a5.35,5.35,0,0,0,.84-.06,2.54,2.54,0,0,1,.8,2.15v.34h1.37v-.17c0-1.19-.29-1.85-1-2.16a2.85,2.85,0,0,0-.93-.18v-.13A1.76,1.76,0,0,0,242.42,10c0-1.15-.84-1.79-2.44-1.79h-2.73Zm-7.68,0h4.73V13.5h-3.15l-.55.15.14-.5V11.93l-.06-.23.51.13h1.93v-1h-2.24l-.21.07.07-.28V9.66l-.13-.48.53.11h3.05v-1h-4.62Zm-5.93,0h1.22V9.64l-.12-.54h0l.53.26h1.49V8.25h-5.08v1.1h1.5l.53-.25h0l-.12.56Zm-5.83-6.31v3.61L218,13.4l0,.15-.52-1.23-2.61-4.07h-1.38v6.31h1.12V10.73l-.18-1.5.5,1,2.78,4.3h1.16V8.25Zm-8.87,6.31h1.24V8.25h-1.24Zm-10.41,0h4.08V13.48h-2.46l-.55.21h0l.2-.53V8.25h-1.26ZM192,12.05l-.44.19.24-.32.75-2.25.21-1.1.22,1.1.71,2.23.28.36-.49-.21Zm2.61,2.51h1.29l-2.31-6.31H192l-2.39,6.31h1.23l.54-1.49h2.68Zm-7.83-6.31-1.43,4.52-.16,1.39L185,12.77l-1.5-4.52h-1.32l2.21,6.31h1.42L188,8.25Zm-8.53,6.31h1.24V8.25h-1.24Zm-5.93,0h1.22V9.64l-.13-.54h0l.53.26h1.5V8.25h-5.08v1.1h1.49l.53-.25h0l-.11.56Zm-6.55.16c1.56,0,2.37-.83,2.37-1.94s-1.16-1.62-2.18-1.92c-.84-.24-1.6-.43-1.6-1s.31-.82,1.11-.82,1.29.32,1.43,1h1.2a2.31,2.31,0,0,0-2.61-1.94c-1.49,0-2.32.83-2.32,1.88,0,1.22,1.12,1.59,2.14,1.88.84.24,1.6.42,1.6,1s-.28.89-1.11.89a1.51,1.51,0,0,1-1.67-1.14h-1.28c.24,1.38,1.3,2.12,2.92,2.12m-10-.16h4.73V13.5h-3.15l-.55.15.14-.5V11.93l-.06-.23.51.13h1.93v-1H157l-.21.07.07-.28V9.66l-.13-.48.53.11h3.05v-1h-4.62Zm-7.24,0h1.22v-2.3l-.12-.36.56.15h2V11h-2.24l-.31.07.11-.26V9.67l-.15-.47.56.11h2.8V8.25h-4.43Zm-8.56-4.05a.82.82,0,0,1-.85-.92v0a.83.83,0,0,1,.88-.88.8.8,0,0,1,.84.88v0a.83.83,0,0,1-.87.92m0,.72a1.6,1.6,0,0,0,1.71-1.65A1.57,1.57,0,0,0,140,7.93a1.6,1.6,0,0,0-1.73,1.65,1.58,1.58,0,0,0,1.68,1.65m-5.84,3.33h1.18V8.25h-1.13a2.65,2.65,0,0,1-1.93,2v1.16c.89,0,1.45-.74,1.91-1.7l0,0-.07.42Z"/><path class="cls-1" d="M246.12,53.4h4.81V52.34h-3.08l-.75.23.11-.18c.47-1.45,3.76-1.68,3.76-3.63,0-1.22-.9-1.84-2.3-1.84a2.74,2.74,0,0,0-2.6,1.65l1.07.56c.39-.77.71-1.16,1.49-1.16s1.08.29,1.08.8c0,1.38-3.59,1.42-3.59,4.33Zm-7.49,0h4.82V52.34h-3.08l-.76.23.11-.18c.47-1.45,3.77-1.68,3.77-3.63,0-1.22-.91-1.84-2.31-1.84a2.73,2.73,0,0,0-2.59,1.65l1.06.56c.39-.77.72-1.16,1.5-1.16s1.07.29,1.07.8c0,1.38-3.59,1.42-3.59,4.33Zm-5.28-.85c-.94,0-1.44-.73-1.44-2.19v-.23c0-1.48.48-2.27,1.41-2.27s1.43.8,1.43,2.27v.23c0,1.46-.48,2.19-1.4,2.19m0,1c1.7,0,2.68-1.2,2.68-3.29s-1-3.32-2.67-3.32-2.69,1.25-2.69,3.33,1,3.28,2.68,3.28m-10.18-.13H228V52.34h-3.08l-.75.23.1-.18c.48-1.45,3.77-1.68,3.77-3.63,0-1.22-.9-1.84-2.3-1.84a2.74,2.74,0,0,0-2.6,1.65l1.07.56c.39-.77.71-1.16,1.49-1.16s1.08.29,1.08.8c0,1.38-3.59,1.42-3.59,4.33Zm-10.66-3.23,0-.26V48.39l-.12-.4.44.09H214c.88,0,1.25.36,1.25,1,0,.81-.31,1.1-1.55,1.1h-.84Zm-1.16,3.23h1.19V51.24l0-.35L213,51h.64a5.42,5.42,0,0,0,.84-.05,2.54,2.54,0,0,1,.8,2.15v.34h1.37v-.17c0-1.19-.29-1.86-1-2.16a2.85,2.85,0,0,0-.93-.18v-.13a1.76,1.76,0,0,0,1.84-1.89c0-1.14-.84-1.79-2.44-1.79h-2.73Zm-6.57-2.51-.43.19.23-.32.75-2.26.21-1.09.22,1.1.71,2.23.28.36-.48-.21Zm2.62,2.51h1.28l-2.31-6.32h-1.57l-2.39,6.32h1.23l.54-1.49h2.68Zm-14.91,0h1.11v-4l-.14-1.94h.07l.39,1.37,1.8,4.58h.81l1.77-4.59.39-1.36h.06l-.1,2v4h1.14V47.08h-1.85l-1.57,4.18-.16,1.29h-.05l-.2-1.28-1.6-4.19h-1.87Zm-10.4,0h4.08V52.32h-2.47l-.55.21h0l.2-.54v-4.9h-1.25Zm-7.68,0h4.73V52.34H176l-.55.15.14-.51V50.77l-.06-.23.51.13h1.93V49.62H175.7l-.21.08.07-.28v-.93l-.13-.47.53.11h3V47.08h-4.62Zm-7.4-.89.12-.36V48.41L167,48l.45.12h.78c1.29,0,1.89.68,1.89,2.13v.06c0,1.41-.64,2.11-1.94,2.11h-.72Zm-1.13.89h2.29c2,0,3.26-1.08,3.26-3.14a2.87,2.87,0,0,0-3.17-3.18h-2.38Zm-10.2-2.51-.44.19.24-.32.75-2.26.21-1.09.22,1.1.71,2.23.28.36-.48-.21Zm2.62,2.51h1.28l-2.31-6.32h-1.57l-2.39,6.32h1.23l.54-1.49h2.68Zm-8.73-6.32V50.7l.21,1.54,0,.14-.51-1.22-2.62-4.08h-1.38V53.4h1.13V49.57l-.18-1.51.49,1,2.79,4.3h1.16V47.08Zm-2.76-.93a2.57,2.57,0,0,1,.23-1h.24a1.62,1.62,0,0,0,1.64,1.27c.78,0,1.11-.37,1.21-1.15l0-.47h-.78l0,.24a2.54,2.54,0,0,1-.25,1h-.24a1.63,1.63,0,0,0-1.66-1.28c-.72,0-1.06.35-1.15,1.16l-.06.45h.78a1.62,1.62,0,0,1,0-.22m-6.12,7.25h1.25V47.08h-1.25Zm-4-6.32-1.43,4.52L135.1,53l-.16-1.39-1.5-4.52h-1.32l2.21,6.32h1.41L138,47.08Z"/></g></svg>