<svg xmlns="http://www.w3.org/2000/svg" viewBox="0 0 269.35 136.69"><defs><style>.cls-1{fill:#033ad3;}</style></defs><g id="Capa_6" data-name="Capa 6"><polygon class="cls-1" points="56.79 13.74 56.79 15.87 54.39 15.87 54.39 17.21 56.79 17.21 56.79 21.47 58.12 21.47 58.12 17.21 60.52 17.21 60.52 15.87 58.12 15.87 58.12 13.74 56.79 13.74"/><path class="cls-1" d="M56.79,38.45v27c-2.66.88-6.66,1.46-12.51.93V78.21h-27A40.1,40.1,0,0,1,56.79,38.45m41,39.76H70.63V66.36c-5.85.53-9.85,0-12.51-.93v-27A40.55,40.55,0,0,1,97.77,78.21M58.12,119.35V99.07C65,97.29,70.37,90.2,70.55,79.54H97.77a40.41,40.41,0,0,1-39.65,39.81m-.66-53c2.52.85,5.72,1.41,12.11,1V78.9c0,10.29-5.1,17.62-12.11,19.17-7-1.55-12.12-8.88-12.12-19.17V67.35c6.39.42,9.59-.14,12.12-1M17.25,79.54H44.32c.18,10.66,5.55,17.75,12.47,19.53v20.28A40.13,40.13,0,0,1,17.25,79.54m-1.12-.64A41.38,41.38,0,1,0,57.51,37.33,41.47,41.47,0,0,0,16.13,78.9"/><path class="cls-1" d="M65.09,21.82,64.81,23a56.41,56.41,0,0,1-7.3,112.33A56.41,56.41,0,0,1,50.2,23l-.28-1.13C21.87,25.35,0,49.87,0,78.9a57.51,57.51,0,1,0,115,0c0-29-21.88-53.55-49.93-57.08"/><path class="cls-1" d="M58,9.89,58.72.74A3.06,3.06,0,0,1,57.58,0a3.06,3.06,0,0,1-1.14.74l.71,9.15ZM56.44,10,54.88,1.77s-.86.59-1,.74l1.71,7.68Zm-1.7.3L52.6,3.25,51,3.84l3,6.94Zm-1.29.88L49.33,4.14l-2,.14,5.4,7.39Zm-1.42,1L44.92,4.58H43.35V6.35l8,6.65Zm-1.14,1.33-8-5.32A11.34,11.34,0,0,1,42.64,10l7.83,4.29ZM50,15.06,41.93,12l-.71,1.48L49.75,16Zm-.43,1.63-9.39-1.77c-.28.29-1.14,1.47-1.14,1.47l10.39,1Zm-.14,2.36v-.88L37.94,18l-1,.74a9.91,9.91,0,0,1,1,1.18ZM38.65,21.27c.29.29.86.88,1.14,1.18L49.61,21l-.14-.88ZM58.72,10l.85.15,1.71-7.68-1-.74Zm1.71.3.71.44,3-6.94-1.57-.59Zm1.28.88.71.45,5.41-7.39-2-.14Zm1.42,1,.71.74,8-6.65V4.58H70.25Zm1.14,1.33.43.74L72.52,10a11.34,11.34,0,0,1-.28-1.77Zm.85,1.47.29.89L74,13.44,73.24,12Zm.43,1.63.14.74,10.39-1s-.85-1.18-1.14-1.47Zm.14,2.36,11.53.89a10.7,10.7,0,0,1,1-1.18l-1-.74-11.53.15Zm10.82,2.22L65.69,20.09l-.14.88,9.82,1.48c.28-.3.85-.89,1.14-1.18"/><path class="cls-1" d="M24.73,111.57a4.86,4.86,0,0,0-.55-.5l-3.73,3.77c-.21.21-.3.35-.19.55a2.23,2.23,0,0,0,.33.37c1.12,1.11,2.19,1,3.71-.54,1.85-1.88,1.06-3,.43-3.65M21.37,117a6.37,6.37,0,0,1-1.32-1.08c-.38-.37-.63-.66-1-1s-.58-.56-.88-.83l.13-.13a.76.76,0,0,0,.53.2c.26,0,.47-.22,1.1-.85l2.51-2.54c.47-.47.6-.65.64-.84a.69.69,0,0,0-.19-.55l.13-.14s.26.3.79.84c.24.23.7.65,1.23,1.18s2.64,2.74.43,5a3.17,3.17,0,0,1-4.14.76"/><path class="cls-1" d="M28.36,122.82,26,121.1c-.47-.34-.91-.68-1.4-1l.11-.15a.71.71,0,0,0,.55.11c.26,0,.44-.28,1-1l2.12-2.88c.38-.53.49-.73.5-.92a.7.7,0,0,0-.27-.52l.11-.15c.44.36.8.62,1.27,1l2.4,1.75s-.52.69-.77,1.1l-.18-.13a.77.77,0,0,0,.13-.77c-.1-.25-.25-.39-.77-.77l-.69-.5-1.51,2.05.71.52a1.27,1.27,0,0,0,.78.35.77.77,0,0,0,.58-.33l.18.13c-.14.18-.24.28-.63.81s-.44.63-.58.83l-.17-.13a.84.84,0,0,0,.15-.59,1.39,1.39,0,0,0-.61-.7l-.69-.5-1.35,1.85c-.28.38-.25.48.2.81l.14.1c.47.34.81.57,1.18.51a1.08,1.08,0,0,0,.61-.41l.17.13c-.31.36-.88,1.15-.88,1.15"/><path class="cls-1" d="M40.81,122.27a8.32,8.32,0,0,0-.94.81l-4.17,3.83-.77-.22.54-5.57a12.8,12.8,0,0,0,.08-1.32.52.52,0,0,0-.32-.47l.08-.17c.27.14.89.46,1.16.58s1,.45,1.28.56l-.08.17a.73.73,0,0,0-.49-.1.29.29,0,0,0-.19.17,2.11,2.11,0,0,0-.11.6l-.35,3.44c-.07.66-.13,1-.13,1s.24-.27.71-.72l2.47-2.44a1.92,1.92,0,0,0,.4-.47.27.27,0,0,0,0-.23c-.06-.15-.26-.24-.38-.31l.08-.17c.32.17.54.3.88.46s.58.26.89.37l-.08.17a.57.57,0,0,0-.58.06"/><path class="cls-1" d="M43.35,125.12a6.16,6.16,0,0,1,0-1l-1.51,2,1.55.48Zm.71,4.79c-.29-.09-1-.3-1.33-.37l.06-.17a.72.72,0,0,0,.5,0,.31.31,0,0,0,.16-.19,2.55,2.55,0,0,0,0-.61l-.06-1.52-1.85-.57-.93,1.23a1.79,1.79,0,0,0-.33.51.28.28,0,0,0,0,.24c.08.14.29.2.42.26l0,.17c-.34-.12-.58-.22-.93-.33s-.61-.17-.94-.24l.06-.18a.58.58,0,0,0,.57-.14,9.09,9.09,0,0,0,.82-.93l3.6-4.37.76.09.24,5.6c0,.76.09,1.24.11,1.32a.53.53,0,0,0,.38.42l-.06.18c-.28-.11-.94-.33-1.23-.42"/><path class="cls-1" d="M51.36,131.34l-2.81-.46c-.57-.09-1.12-.19-1.7-.25l0-.19a.7.7,0,0,0,.54-.14c.21-.17.26-.45.41-1.33l.57-3.53c.11-.65.12-.88,0-1a.69.69,0,0,0-.48-.34l0-.19c.39.09,1.13.23,1.49.29s1.12.16,1.52.21l0,.19a1,1,0,0,0-.85.18c-.19.18-.23.5-.36,1.3L49.12,130c-.08.46,0,.53.55.62l.17,0c.57.09.92.13,1.21-.08a1.07,1.07,0,0,0,.36-.65l.22,0c-.12.47-.27,1.43-.27,1.43"/><path class="cls-1" d="M56.56,128.65a2.23,2.23,0,0,1-.68-.11v-.21l.22,0a1.24,1.24,0,0,0,.74-.19,1.67,1.67,0,0,0,.55-1.37c.05-1.5-.82-1.56-1.35-1.58a3.23,3.23,0,0,0-.44,0l-.14,4.57c0,.81,0,1.13.1,1.34a1,1,0,0,0,.8.34v.18l-1.67-.09c-.37,0-1,0-1.4,0v-.19a.68.68,0,0,0,.52-.21c.18-.19.2-.48.23-1.38l.11-3.57c0-.65,0-.88-.11-1a.68.68,0,0,0-.52-.28v-.18l1.24.07c.58,0,.94,0,1.57,0a6.94,6.94,0,0,1,1.17.14,1.67,1.67,0,0,1,1.4,1.77c0,1.38-1.12,2-2.37,1.93"/><path class="cls-1" d="M62.32,127a7.4,7.4,0,0,1-.37-.91l-.63,2.41,1.62-.17Zm2.52,4.14c-.31,0-1.08.13-1.37.18l0-.19a.74.74,0,0,0,.47-.17.28.28,0,0,0,.07-.24,2,2,0,0,0-.21-.57l-.64-1.38-1.94.2-.38,1.49a1.94,1.94,0,0,0-.1.6.22.22,0,0,0,.1.21.81.81,0,0,0,.49.08l0,.18-1,.06c-.33,0-.63.08-1,.14l0-.19a.57.57,0,0,0,.48-.35,10.21,10.21,0,0,0,.39-1.17l1.63-5.43.74-.21L65,129.47c.33.69.56,1.12.61,1.19a.54.54,0,0,0,.51.24l0,.18c-.3,0-1,.06-1.29.09"/><path class="cls-1" d="M68.6,123.9a3.76,3.76,0,0,0-.43.15l.77,3,.48-.1a1.31,1.31,0,0,0,.38-.14c.13-.08.76-.37.41-1.74S69,123.8,68.6,123.9m4.72,5.48a1.78,1.78,0,0,1-1.87-.43c-.29-.22-1.3-1-2-1.6l-.42.11.35,1.36c.17.64.25.85.39,1a.69.69,0,0,0,.58.12l0,.18c-.4.08-1,.21-1.33.3l-1.33.38,0-.18a.69.69,0,0,0,.43-.35c.12-.23.06-.52-.16-1.38l-.89-3.46c-.17-.64-.26-.85-.39-1a.71.71,0,0,0-.58-.11l0-.19c.4-.08.74-.16,1.09-.25.73-.18.89-.26,1.53-.42a5.2,5.2,0,0,1,1.18-.2,1.64,1.64,0,0,1,1.75,1.26,1.89,1.89,0,0,1-1,2.21l2.22,1.53c.63.42,1.07.72,1.5.63l.05.17a8.26,8.26,0,0,1-1.08.32"/><path class="cls-1" d="M77,123.21a6.83,6.83,0,0,1-.64-.75l.16,2.48,1.48-.65Zm3.68,3.15c-.29.13-1,.46-1.25.6l-.08-.17a.76.76,0,0,0,.4-.31.28.28,0,0,0,0-.25,2.08,2.08,0,0,0-.38-.48l-1-1.11-1.78.79.1,1.53a1.8,1.8,0,0,0,.09.61.23.23,0,0,0,.16.17.77.77,0,0,0,.49-.08l.07.17c-.34.13-.57.21-.91.36s-.58.27-.87.43l-.08-.17a.6.6,0,0,0,.35-.48,11.46,11.46,0,0,0,0-1.24l-.14-5.67.64-.43,3.85,4.07a10.79,10.79,0,0,0,.94.93.53.53,0,0,0,.57.07l.07.17-1.2.49"/><path class="cls-1" d="M81.84,118.37c0,.26.08.51.54,1.28l1.82,3.08c.33.56.47.74.64.82a.69.69,0,0,0,.59,0l.1.16c-.36.19-.92.49-1.23.68s-.84.52-1.18.74l-.09-.16a.7.7,0,0,0,.32-.45c.05-.26-.09-.52-.54-1.29L81,120.11c-.33-.56-.48-.74-.65-.82a.67.67,0,0,0-.59,0l-.09-.17c.36-.18.92-.49,1.23-.67s.84-.52,1.17-.75l.1.16a.69.69,0,0,0-.32.46m-.45-1.72-1.53,1.83-.2-.1.53-2,0,0,1.12.13Z"/><path class="cls-1" d="M88.54,121.65a5.81,5.81,0,0,1-1.44.81l-.1-.13c-.29-.4-.51-.66-.71-.89l.17-.13a1.11,1.11,0,0,0,.74.39,1.7,1.7,0,0,0,1-.41c1.08-.8.57-1.52.44-1.68-.4-.55-.9-.49-1.57-.43l-.68.06a2.07,2.07,0,0,1-2.13-.8c-.31-.41-.89-1.6.84-2.89a10.82,10.82,0,0,1,1.35-.87s.12.2.31.47a6.57,6.57,0,0,0,.47.59l-.18.13a1,1,0,0,0-.59-.33,1.57,1.57,0,0,0-1,.37c-.85.64-.59,1.21-.38,1.49s.73.45,1.38.39l.77-.08a2.1,2.1,0,0,1,2.27.79c.83,1.12.3,2.25-.92,3.15"/><path class="cls-1" d="M90.24,111.67c-1,1-.4,2.31.77,3.48s2.6,1.75,3.53.82.4-2.32-.77-3.48-2.6-1.75-3.53-.82m4.58,4.66a3.14,3.14,0,0,1-4.81,0,3.34,3.34,0,0,1-.05-5,3.13,3.13,0,0,1,4.81,0,3.34,3.34,0,0,1,0,5"/><path class="cls-1" d="M12,96.68a2.31,2.31,0,0,1,.18.67l-.2.07a1.64,1.64,0,0,0-.07-.2,1.13,1.13,0,0,0-.48-.6,1.65,1.65,0,0,0-1.47,0c-1.38.57-1.1,1.39-.9,1.88.07.16.2.39.2.39l4.23-1.71c.75-.31,1.05-.42,1.19-.64a.94.94,0,0,0,0-.87l.17-.07c.14.38.46,1.23.59,1.56s.36.88.57,1.28l-.18.07a.69.69,0,0,0-.4-.39c-.25-.09-.52,0-1.35.35l-3.31,1.34c-.61.25-.81.36-.91.52a.66.66,0,0,0,0,.59l-.18.07c-.13-.39-.3-.83-.44-1.17-.21-.54-.37-.86-.6-1.45a5.78,5.78,0,0,1-.35-1.12,1.67,1.67,0,0,1,1-2A2,2,0,0,1,12,96.68"/><path class="cls-1" d="M6.54,90.6C6.86,92,8.29,92.16,9.9,91.79s2.86-1.28,2.56-2.56S10.71,87.66,9.1,88,6.24,89.31,6.54,90.6m6.37-1.43a3.15,3.15,0,0,1-2.53,4.11,3.34,3.34,0,0,1-4.3-2.63,3.14,3.14,0,0,1,2.53-4.1,3.34,3.34,0,0,1,4.3,2.62"/><path class="cls-1" d="M5.1,78.63c.21.17.5.16,1.39.11l5.08-.28,0,.59-5,4.24a1.74,1.74,0,0,1-.38.27l4.13-.23c.65,0,.88-.08,1-.19a.67.67,0,0,0,.23-.54h.19c0,.4,0,.61,0,1a8.62,8.62,0,0,0,.1,1h-.19a.73.73,0,0,0-.25-.5c-.21-.16-.5-.16-1.39-.11l-3.57.2c-.65,0-.88.08-1,.19a.67.67,0,0,0-.23.54H5c0-.4,0-.84,0-1.2,0-.16-.06-.62-.09-.9l3.83-3.23a3.17,3.17,0,0,1,.5-.36l-3,.16c-.66,0-.88.08-1,.2a.67.67,0,0,0-.23.54H4.77c0-.41,0-.66,0-1a7.89,7.89,0,0,0-.1-1h.19a.67.67,0,0,0,.25.49"/><path class="cls-1" d="M6.61,71.4a.79.79,0,0,0-.73.29c-.16.21-.2.42-.26,1.06l0,.38,4.82.46c.65.06.88,0,1,0s.33-.6.34-.71l.19,0c-.06.4-.15,1.23-.19,1.59s-.09,1.2-.11,1.61l-.19,0a1.13,1.13,0,0,0-.18-.74c-.18-.19-.44-.23-1.33-.31l-4.53-.43,0,.38c-.06.64-.06.85.06,1.09a.78.78,0,0,0,.67.42l0,.22c-.48-.09-1.33-.16-1.33-.16l.51-5.42s.86.09,1.34.1Z"/><path class="cls-1" d="M6.44,67.4c.16.21.44.28,1.31.46l3.5.72c.64.13.87.15,1.05.08a.71.71,0,0,0,.36-.47l.18,0c-.1.39-.25,1-.32,1.37s-.18,1-.24,1.37l-.18,0a.69.69,0,0,0-.13-.54c-.15-.22-.44-.29-1.31-.47l-3.5-.72c-.64-.13-.87-.14-1-.07a.66.66,0,0,0-.36.46l-.19,0c.1-.4.25-1,.33-1.37s.17-1,.24-1.37l.18,0a.69.69,0,0,0,.12.54"/><path class="cls-1" d="M9.25,61.08a.8.8,0,0,0-.78.12c-.2.18-.28.37-.48,1L7.73,63l2.43.78.26-.83a1.29,1.29,0,0,0,.09-.86.8.8,0,0,0-.5-.44l.07-.21c.21.07.35.14,1,.34s.73.22,1,.28l-.06.21a.81.81,0,0,0-.61.05,1.38,1.38,0,0,0-.47.79l-.26.82,1.76.56c.63.2.83.23,1,.18s.45-.52.49-.62l.18.06c-.14.38-.42,1.15-.53,1.5-.18.55-.23.79-.38,1.36L13,66.9a.69.69,0,0,0-.06-.55c-.14-.23-.41-.33-1.26-.6l-3.4-1.09c-.63-.2-.85-.24-1-.19a.67.67,0,0,0-.41.43l-.18-.06c.2-.54.34-1,.52-1.52L8,60.49s.82.28,1.29.38Z"/><path class="cls-1" d="M10,56.84c.11.25.38.37,1.19.73L14.47,59c.6.26.82.33,1,.29a.69.69,0,0,0,.46-.37l.17.07c-.19.36-.46.93-.61,1.27s-.38.91-.52,1.29l-.17-.08a.72.72,0,0,0,0-.56c-.11-.24-.37-.36-1.18-.73l-3.27-1.44c-.6-.26-.82-.33-1-.3a.73.73,0,0,0-.45.38l-.17-.07c.18-.36.46-.94.61-1.27s.38-.91.52-1.29l.17.08a.74.74,0,0,0,0,.55"/><path class="cls-1" d="M14.61,50.45a.75.75,0,0,0-.66-.07,1.84,1.84,0,0,0-.89.85c-.47.79-1,2.09,1.42,3.53,1.49.89,2.83,1,3.72-.52a1.51,1.51,0,0,0,.26-1.19.88.88,0,0,0-.44-.51l.12-.19c.24.17.51.35.93.6l.15.09a6.24,6.24,0,0,1-.69,1.63,3.73,3.73,0,0,1-2.56,2,3.28,3.28,0,0,1-2.17-.52,3.43,3.43,0,0,1-1.74-3.76,5.17,5.17,0,0,1,.6-1.47,16.19,16.19,0,0,1,.93-1.35c.16.12.37.24.55.35l.58.32Z"/><path class="cls-1" d="M16.5,46.3c.05.26.27.44,1,1l2.84,2.16c.52.4.72.52.91.53a.7.7,0,0,0,.52-.27l.15.12c-.26.31-.66.8-.88,1.09s-.58.79-.81,1.13l-.15-.11a.75.75,0,0,0,.13-.55c-.05-.26-.28-.44-1-1l-2.84-2.16c-.52-.4-.72-.52-.9-.53a.7.7,0,0,0-.53.27l-.15-.12c.26-.31.66-.8.88-1.09s.59-.79.81-1.13l.15.11a.71.71,0,0,0-.12.55"/><path class="cls-1" d="M21.37,43.81a7.23,7.23,0,0,1-.87-.45l1.07,2.24,1.13-1.16ZM26,45.36c-.22.23-.74.79-.93,1l-.14-.13a.69.69,0,0,0,.25-.44.25.25,0,0,0-.1-.22,2,2,0,0,0-.53-.3l-1.37-.64L21.78,46l.67,1.39a2,2,0,0,0,.31.53.25.25,0,0,0,.21.09c.16,0,.32-.16.42-.26l.14.13c-.27.25-.46.41-.72.68s-.43.47-.64.73L22,49.19a.57.57,0,0,0,.14-.57,10.09,10.09,0,0,0-.45-1.15l-2.25-5.2.43-.64L25,44c.7.31,1.15.49,1.23.51a.54.54,0,0,0,.55-.15l.13.13c-.22.2-.72.69-.93.9"/><path class="cls-1" d="M31.25,33.44c0,.26.11.51.6,1.26L33,36.46a4.72,4.72,0,0,1,.77,1.5c.29,1.29-.78,2.12-1.48,2.58-1.47,1-2.31.77-2.91.35a5,5,0,0,1-1.1-1.37l-1.31-2c-.36-.55-.51-.73-.69-.8a.67.67,0,0,0-.58.08l-.1-.16c.35-.21.89-.54,1.19-.74s.81-.56,1.14-.8l.1.16a.76.76,0,0,0-.3.47c0,.26.12.51.6,1.26l1.52,2.31c.51.78,1.1,1.55,2.37.72s.74-1.79.29-2.48L30.84,35c-.36-.55-.51-.72-.68-.8a.7.7,0,0,0-.59.08l-.1-.16c.35-.2.66-.38,1-.58s.68-.47,1-.72l.1.16a.69.69,0,0,0-.3.47"/><path class="cls-1" d="M39.31,29.66c-.09.26,0,.53.38,1.35l2,4.66-.53.23-5.72-3.24a2.62,2.62,0,0,1-.39-.26l1.65,3.79c.26.6.38.8.54.9a.71.71,0,0,0,.59,0l.07.17c-.38.14-.58.2-.91.35s-.54.24-.94.45L36,37.92a.73.73,0,0,0,.38-.41c.08-.25,0-.52-.38-1.34l-1.43-3.28c-.26-.6-.38-.8-.54-.9a.69.69,0,0,0-.58,0l-.08-.17c.38-.14.79-.29,1.12-.44l.81-.4,4.36,2.48a4,4,0,0,1,.51.33L39,31c-.26-.6-.38-.8-.54-.9a.71.71,0,0,0-.59,0l-.07-.17c.38-.14.62-.22,1-.37a7.86,7.86,0,0,0,.9-.43l.07.17a.69.69,0,0,0-.37.41"/><path class="cls-1" d="M43.83,28.3c-.11.24,0,.52.21,1.38l1,3.43c.18.63.28.84.42,1a.67.67,0,0,0,.58.1l0,.18c-.39.09-1,.25-1.36.35s-.94.29-1.32.43l0-.18a.71.71,0,0,0,.42-.36c.12-.24,0-.52-.2-1.38l-1-3.44c-.19-.62-.28-.84-.42-1a.72.72,0,0,0-.58-.1l-.06-.18c.4-.09,1-.25,1.36-.35s.94-.29,1.33-.42l0,.18a.66.66,0,0,0-.43.36"/><path class="cls-1" d="M52,26.76a8.8,8.8,0,0,0-.32,1.2l-1.27,5.52-.75.26-2.71-4.9a13.25,13.25,0,0,0-.68-1.14.56.56,0,0,0-.53-.21l0-.18L47,27.14c.31-.06,1.08-.2,1.37-.27l0,.18a.79.79,0,0,0-.46.2.3.3,0,0,0,0,.25,2.05,2.05,0,0,0,.25.55l1.65,3c.31.59.44.87.44.87s0-.35.18-1l.65-3.4A2,2,0,0,0,51.1,27a.23.23,0,0,0-.12-.2c-.13-.1-.34-.06-.49-.05l0-.18c.36,0,.62-.06,1-.13a7.63,7.63,0,0,0,.95-.2l0,.19a.58.58,0,0,0-.45.38"/><path class="cls-1" d="M58.6,32.86l-2.91.07c-.58,0-1.14,0-1.72.07v-.19a.69.69,0,0,0,.5-.24c.17-.2.17-.49.15-1.39l-.08-3.57a2.08,2.08,0,0,0-.16-1,.68.68,0,0,0-.54-.25v-.19c.57,0,1,0,1.59,0l3-.07s0,.86.07,1.34h-.22a.8.8,0,0,0-.37-.7,1.89,1.89,0,0,0-1.08-.13l-.86,0L56,29.14l.87,0a1.29,1.29,0,0,0,.83-.19.78.78,0,0,0,.26-.62h.22c0,.23,0,.38,0,1s0,.77.05,1H58a.83.83,0,0,0-.24-.55,1.33,1.33,0,0,0-.91-.19l-.85,0,0,2.3c0,.46.1.52.66.51h.18c.57,0,1,0,1.23-.31a1.05,1.05,0,0,0,.24-.71h.22c0,.48,0,1.45,0,1.45"/><path class="cls-1" d="M63.3,26.8a3.83,3.83,0,0,0-.45,0l-.38,3.06s.23.05.48.08a1.87,1.87,0,0,0,.41,0c.15,0,.84-.06,1-1.46s-.68-1.6-1.08-1.65m2.38,6.83a1.8,1.8,0,0,1-1.58-1.09c-.19-.32-.84-1.41-1.25-2.22l-.43-.05-.18,1.4c-.08.65-.08.88,0,1a.65.65,0,0,0,.49.32l0,.19c-.4-.07-1-.17-1.35-.21s-1-.1-1.37-.13l0-.19a.66.66,0,0,0,.53-.16c.2-.17.25-.46.36-1.35l.44-3.55c.08-.65.08-.88,0-1a.66.66,0,0,0-.49-.33l0-.18,1.11.17c.74.09.92.08,1.58.16a5.43,5.43,0,0,1,1.16.25,1.64,1.64,0,0,1,1.17,1.81,1.86,1.86,0,0,1-1.74,1.69l1.5,2.24c.44.63.74,1.07,1.17,1.14l0,.17a7,7,0,0,1-1.12-.09"/><path class="cls-1" d="M69,34.44a6.37,6.37,0,0,1-1.53-.64l0-.16c.12-.47.19-.81.25-1.11l.21.06a1.08,1.08,0,0,0,.16.82,1.73,1.73,0,0,0,.94.55c1.29.35,1.54-.5,1.6-.7.17-.65-.18-1-.64-1.5l-.47-.5a2.07,2.07,0,0,1-.69-2.17c.14-.5.72-1.69,2.81-1.12a9.68,9.68,0,0,1,1.51.53A4.74,4.74,0,0,0,73,29c-.15.56-.18.73-.18.73l-.21-.06a1,1,0,0,0-.1-.66,1.57,1.57,0,0,0-.94-.6c-1-.28-1.31.28-1.41.62-.14.52.09.85.55,1.32l.54.55A2.11,2.11,0,0,1,72,33.21c-.36,1.35-1.58,1.63-3,1.23"/><path class="cls-1" d="M77.3,30.4c-.24.12-.35.39-.68,1.22L75.32,35c-.24.61-.29.83-.25,1a.66.66,0,0,0,.4.44l-.07.17L74.11,36c-.34-.13-.93-.34-1.31-.46l.06-.18a.69.69,0,0,0,.56,0c.24-.12.35-.38.68-1.22l1.3-3.32c.24-.62.29-.84.25-1a.71.71,0,0,0-.4-.44l.07-.17c.37.17,1,.42,1.29.55l1.31.47-.07.17a.67.67,0,0,0-.55,0"/><path class="cls-1" d="M82.18,32.79a5,5,0,0,0-.66-.32L79,37.12c-.14.26-.19.42,0,.57a2,2,0,0,0,.42.27c1.39.76,2.38.36,3.42-1.54,1.27-2.31.19-3.2-.59-3.63m-1.75,6.12a6.25,6.25,0,0,1-1.56-.67c-.47-.25-.79-.47-1.2-.69S77,37.17,76.6,37l.09-.17a.69.69,0,0,0,.56.05c.25-.09.4-.34.83-1.13l1.72-3.13c.31-.57.39-.79.38-1a.71.71,0,0,0-.34-.49l.09-.16s.33.22,1,.58c.3.16.85.44,1.51.8.82.45,3.29,1.91,1.77,4.67a3.17,3.17,0,0,1-3.77,1.86"/><path class="cls-1" d="M88.16,39a8,8,0,0,1,.35-.92l-2.1,1.32,1.28,1Zm-1,4.73c-.24-.19-.86-.64-1.11-.81l.11-.15a.74.74,0,0,0,.46.2.29.29,0,0,0,.22-.12,2.42,2.42,0,0,0,.24-.57l.48-1.44L86,39.66l-1.31.81a2,2,0,0,0-.49.37.24.24,0,0,0-.07.22c0,.16.19.3.3.39l-.11.15c-.28-.24-.46-.41-.76-.64a8.43,8.43,0,0,0-.78-.55l.11-.15a.6.6,0,0,0,.59.07c.14,0,.48-.24,1.09-.58l4.91-2.82.69.36-1.76,5.32c-.23.72-.36,1.19-.37,1.27a.54.54,0,0,0,.21.53l-.11.15c-.23-.2-.77-.64-1-.83"/><path class="cls-1" d="M95.29,42.79a6.54,6.54,0,0,0-.53-.52L90.88,45.9c-.22.2-.31.33-.21.53a2,2,0,0,0,.32.39c1.08,1.15,2.15,1.08,3.72-.4,1.93-1.8,1.18-3,.58-3.63m-3.57,5.27a6.54,6.54,0,0,1-1.28-1.13c-.36-.38-.6-.69-.92-1L88.68,45l.13-.12a.74.74,0,0,0,.52.21c.26,0,.48-.2,1.13-.81l2.61-2.44c.48-.44.63-.62.67-.81a.7.7,0,0,0-.17-.56l.14-.13s.24.31.76.87c.23.24.67.68,1.18,1.23s2.53,2.83.24,5a3.18,3.18,0,0,1-4.17.6"/><path class="cls-1" d="M103,54.91a.76.76,0,0,0,.38-.55,1.87,1.87,0,0,0-.32-1.19c-.46-.79-1.34-1.9-3.78-.46-1.49.88-2.23,2-1.34,3.51a1.5,1.5,0,0,0,.92.8.9.9,0,0,0,.65-.13l.12.19c-.27.13-.56.28-1,.52l-.16.09a6.29,6.29,0,0,1-1.08-1.39,3.76,3.76,0,0,1-.54-3.22,3.71,3.71,0,0,1,5.64-1.36,5.11,5.11,0,0,1,1,1.25,14.86,14.86,0,0,1,.73,1.46,5.33,5.33,0,0,0-.57.31l-.56.35Z"/><path class="cls-1" d="M104,59.79a6.82,6.82,0,0,1,.76-.61l-2.48.07.61,1.5Zm-3.27,3.57c-.12-.29-.42-1-.55-1.27l.17-.07a.71.71,0,0,0,.3.41.25.25,0,0,0,.24,0,1.85,1.85,0,0,0,.49-.36l1.15-1-.73-1.81-1.54.05a2.39,2.39,0,0,0-.61.07c-.09,0-.15.08-.17.16a.83.83,0,0,0,.06.49l-.17.07c-.12-.34-.19-.58-.33-.93s-.25-.58-.4-.88l.17-.07a.59.59,0,0,0,.47.36,10.85,10.85,0,0,0,1.24.05l5.66,0,.41.65L102.37,63c-.56.51-.91.85-1,.92a.54.54,0,0,0-.09.56l-.17.07c-.09-.29-.34-.94-.45-1.22"/><path class="cls-1" d="M107.78,68.42a.79.79,0,0,0,.59-.52c.08-.25,0-.46-.12-1.08l-.09-.38-4.7,1.22c-.63.17-.84.25-1,.39s-.1.68-.07.78l-.2,0c-.08-.39-.26-1.2-.36-1.56s-.32-1.16-.44-1.54l.18,0a1.14,1.14,0,0,0,.42.63c.24.12.5.06,1.36-.16l4.41-1.14-.1-.38c-.16-.62-.23-.81-.42-1a.8.8,0,0,0-.77-.17l-.06-.21c.47-.08,1.31-.3,1.31-.3l1.36,5.27s-.83.2-1.29.36Z"/><path class="cls-1" d="M111.3,74.71l-1-2.15.17-.14,1.56,1.3,0,.07-.59,1Zm-1.83-1.23c-.14-1.41-1.54-1.78-3.18-1.61s-3,.91-2.86,2.22,1.54,1.77,3.18,1.6,3-.9,2.86-2.21m-6.5.6a3.14,3.14,0,0,1,3-3.74,3.33,3.33,0,0,1,3.93,3.14,3.14,3.14,0,0,1-3,3.75A3.34,3.34,0,0,1,103,74.08"/><path class="cls-1" d="M103.15,83.36l.14-2.84c0-.58.06-1.14.06-1.73h.19a.67.67,0,0,0,.2.52c.19.19.48.21,1.37.26l3.57.17c.65,0,.88,0,1-.08a.72.72,0,0,0,.29-.52h.19c0,.41-.1,1.15-.12,1.52s0,1.13,0,1.53h-.19c0-.43-.08-.67-.27-.82s-.53-.17-1.33-.21l-4-.2c-.46,0-.53.06-.56.62v.17c0,.58,0,.93.22,1.2a1.11,1.11,0,0,0,.69.29v.21c-.48-.06-1.45-.1-1.45-.1"/><path class="cls-1" d="M109,87.85c-.17-.21-.45-.26-1.34-.4l-3.52-.56c-.65-.11-.88-.11-1,0a.66.66,0,0,0-.34.48l-.19,0c.09-.4.21-1,.27-1.38s.13-1,.17-1.38l.19,0a.7.7,0,0,0,.14.54c.17.2.46.26,1.34.4l3.53.56c.64.1.87.11,1,0a.69.69,0,0,0,.34-.48l.19,0c-.09.39-.21,1-.26,1.37s-.14,1-.18,1.39l-.19,0a.66.66,0,0,0-.14-.54"/><path class="cls-1" d="M106.14,95.21a.72.72,0,0,0,.65-.1,2,2,0,0,0,.65-1c.25-.88.44-2.28-2.28-3.06-1.67-.47-3-.23-3.47,1.46a1.53,1.53,0,0,0,.06,1.22.9.9,0,0,0,.55.38l-.06.21c-.29-.1-.59-.21-1.06-.34l-.17-.05a6.4,6.4,0,0,1,.26-1.75,3.79,3.79,0,0,1,2-2.61,3.32,3.32,0,0,1,2.24,0,3.42,3.42,0,0,1,2.63,3.19,4.92,4.92,0,0,1-.21,1.58,16.05,16.05,0,0,1-.55,1.54l-.62-.2-.64-.16Z"/><path class="cls-1" d="M103.32,99.31a6.74,6.74,0,0,1,1,.13l-1.76-1.74-.67,1.47Zm-4.85.11c.13-.29.43-1,.53-1.28l.17.08a.68.68,0,0,0-.08.49.27.27,0,0,0,.17.18,1.88,1.88,0,0,0,.6.1l1.51.14.8-1.77-1.1-1.08a2,2,0,0,0-.47-.39.27.27,0,0,0-.23,0c-.15.06-.24.26-.31.39l-.17-.08c.17-.32.29-.54.44-.88s.25-.58.36-.9l.17.08a.59.59,0,0,0,.06.58,10.17,10.17,0,0,0,.83.93l3.88,4.12-.19.75-5.57-.46a12.83,12.83,0,0,0-1.33-.06.53.53,0,0,0-.47.32l-.17-.08c.15-.26.45-.89.57-1.16"/><path class="cls-1" d="M60.8,54h1.07a1.85,1.85,0,0,1-.62-1.13c0-.9,1.07-1.51,1.07-2.67s-.8-1.77-.8-2.84.71-1.65.71-2.46a2.26,2.26,0,0,0-.45-1.29h-1a3.2,3.2,0,0,1,.45,1.3c0,.8-.71,1.31-.71,2.47s.89,2,.89,2.85-1.07,1.57-1.07,2.64A1.65,1.65,0,0,0,60.8,54"/><path class="cls-1" d="M61.7,55.83h7.4c0,1.34-2.86,1.82-2.86,2.89s2.14.84,2.14,2.44h-6c0-1.6,2.14-1.37,2.14-2.44s-2.85-1.55-2.85-2.89m-.38,5.24v1.16H88.74V61.16H81.61a5.1,5.1,0,0,0,4.25-5.31c0-4.28-4.81-8.58-11.77-8.58a14.7,14.7,0,0,0-4.39.6,1.93,1.93,0,0,1-.07-.53c0-1,.72-1.66.72-2.46a2.27,2.27,0,0,0-.45-1.3h-1a3.2,3.2,0,0,1,.45,1.3c0,.8-.72,1.31-.72,2.47a2.33,2.33,0,0,0,.18.83,10.18,10.18,0,0,0-1.55.77,4.27,4.27,0,0,1-.5-1.61c0-1,.71-1.66.71-2.46a2.33,2.33,0,0,0-.44-1.3h-1a3.34,3.34,0,0,1,.44,1.3c0,.8-.71,1.31-.71,2.47a6.49,6.49,0,0,0,.72,2.12,9.16,9.16,0,0,0-2.77,3.42v-.2c0-.71,1.07-1.61,1.07-2.5,0-1.16-.81-1.79-.81-2.86s.72-1.65.72-2.45a2.27,2.27,0,0,0-.45-1.3h-1a3.2,3.2,0,0,1,.45,1.3c0,.8-.72,1.31-.72,2.47s.9,2,.9,2.85-1.07,1.57-1.07,2.64A1.6,1.6,0,0,0,63.3,54h1c.89-2.67,3.66-5.77,9.72-5.77,6.6,0,10.7,4.2,10.7,7.6,0,3-2,4.37-4.1,4.37-2.85,0-3.83-1.78-3.83-3.29a3,3,0,0,1,2-3c-.72-1.6-2.86-3.41-6.33-3.41-3.84,0-5.8,2.12-6.34,3.45h1.07a4.52,4.52,0,0,1,1.28-1.39.93.93,0,0,0,0,.24A1.66,1.66,0,0,0,68.92,54H70a1.8,1.8,0,0,1-.62-1.13,1.49,1.49,0,0,1,.32-.86,8,8,0,0,1,2.8-.46,5.83,5.83,0,0,1,4.9,2.06,4.09,4.09,0,0,0-1.87,3.34c0,2,1.23,3.71,3.8,4.24H69.54c0-1.86-2.4-1.86-2.4-2.39s3.21-1.6,3.21-3.74h-9.9c0,2.14,3.24,3.16,3.24,3.69s-2.37.66-2.37,2.35"/><path class="cls-1" d="M77.57,70.71a2.13,2.13,0,0,1-2.14,2.23A2.24,2.24,0,0,0,76,71.6c0-1.51-2-2.23-2-3.83a2.06,2.06,0,0,1,2-2.23,2.8,2.8,0,0,0-.44,1.51c0,1.43,2,2.23,2,3.66m-.27-5.62a1.86,1.86,0,0,0-1.25-.36,3,3,0,0,0-3,3.12c0,2.06,2,2.68,2,3.93a1.88,1.88,0,0,1-1,1.52,2.1,2.1,0,0,0,1.43.44,3,3,0,0,0,3-3.12c0-1.78-1.87-2.59-1.87-3.84a2.82,2.82,0,0,1,.71-1.69"/><path class="cls-1" d="M88.27,72.94a2.25,2.25,0,0,0,.54-1.34c0-1.51-2-2.23-2-3.83a2.07,2.07,0,0,1,2.06-2.23,2.72,2.72,0,0,0-.45,1.51c0,1.43,2,2.23,2,3.66a2.13,2.13,0,0,1-2.14,2.23m1.16-6.16a2.82,2.82,0,0,1,.71-1.69,1.83,1.83,0,0,0-1.24-.36,3,3,0,0,0-3,3.12c0,2.06,2,2.68,2,3.93a1.89,1.89,0,0,1-1,1.52,2.1,2.1,0,0,0,1.43.44,3,3,0,0,0,3-3.12c0-1.78-1.87-2.59-1.87-3.84"/><path class="cls-1" d="M84,70.71a2.13,2.13,0,0,1-2.14,2.23,2.25,2.25,0,0,0,.54-1.34c0-1.51-2-2.23-2-3.83a2.07,2.07,0,0,1,2-2.23A2.8,2.8,0,0,0,82,67.05c0,1.43,2,2.23,2,3.66m-.27-5.62a1.86,1.86,0,0,0-1.25-.36,3,3,0,0,0-3,3.12c0,2.06,2,2.68,2,3.93a1.88,1.88,0,0,1-1,1.52,2.1,2.1,0,0,0,1.43.44,3,3,0,0,0,3-3.12C84.88,68.84,83,68,83,66.78a2.82,2.82,0,0,1,.71-1.69"/><path class="cls-1" d="M32.68,51.62A3.21,3.21,0,0,0,36,54.78a2.72,2.72,0,0,0,2.81-2.62A2.25,2.25,0,0,0,38.46,51a9.65,9.65,0,0,0,3,.45A1.88,1.88,0,0,0,43,50.81c-3.43-.09-4.79-.91-6.32-.91a1.77,1.77,0,0,0-1.9,1.72,1.46,1.46,0,0,0,1.45,1.54,1,1,0,0,0,1.08-.91.43.43,0,0,0-.45-.45c0,.27-.18.45-.54.45a.62.62,0,0,1-.64-.63c0-.45.36-.81,1-.81A1.23,1.23,0,0,1,38,52.16c0,1.09-.72,1.81-2.08,1.81a2.2,2.2,0,0,1-2.25-2.35A2.54,2.54,0,0,1,36.48,49c2.07,0,3.43.54,7.4.54S49.21,49,51.29,49a2.54,2.54,0,0,1,2.8,2.62A2.2,2.2,0,0,1,51.83,54c-1.35,0-2.07-.72-2.07-1.81a1.23,1.23,0,0,1,1.35-1.35c.63,0,1,.36,1,.81a.62.62,0,0,1-.64.63c-.36,0-.54-.18-.54-.45a.43.43,0,0,0-.45.45,1,1,0,0,0,1.08.91A1.46,1.46,0,0,0,53,51.62a1.77,1.77,0,0,0-1.9-1.72c-1.53,0-2.89.82-6.32.91a1.88,1.88,0,0,0,1.53.63,9.65,9.65,0,0,0,3-.45,2.17,2.17,0,0,0-.37,1.17,2.72,2.72,0,0,0,2.8,2.62,3.21,3.21,0,0,0,3.35-3.16c0-2-1.27-3.43-3.8-3.43-2.17,0-3.61.63-7.41.63s-5.24-.63-7.4-.63c-2.53,0-3.8,1.44-3.8,3.43m2.53-4.16c0,.18.09.27.18.27h17c.09,0,.18-.09.18-.27s-.18-.54-.73-.54H35.93c-.54,0-.72.27-.72.54M36.48,56a1.44,1.44,0,0,0,.81,1.17.89.89,0,0,0-.18.64,1.22,1.22,0,0,0,1.26,1.17,1,1,0,0,0-.27.73,1.11,1.11,0,0,0,1.18,1c.54,0,.9-.36.81-.81a1.3,1.3,0,0,1-.63.18c-.36,0-.72-.18-.72-.55a.76.76,0,0,1,.18-.54c.36-.09.54-.18.54-.63a2.52,2.52,0,0,1-.82.09.82.82,0,0,1-.9-.72.72.72,0,0,1,.18-.46A1.8,1.8,0,0,0,39.46,57c.36,2.08,2,5.34,4.42,5.25,2.44.09,4.07-3.17,4.43-5.25a1.8,1.8,0,0,0,1.54.18.72.72,0,0,1,.18.46.82.82,0,0,1-.91.72,2.49,2.49,0,0,1-.81-.09c0,.45.18.54.54.63a.76.76,0,0,1,.18.54c0,.37-.36.55-.72.55a1.3,1.3,0,0,1-.63-.18c-.09.45.27.81.81.81a1.12,1.12,0,0,0,1.18-1,1,1,0,0,0-.27-.73,1.22,1.22,0,0,0,1.26-1.17.89.89,0,0,0-.18-.64A1.44,1.44,0,0,0,51.29,56a.88.88,0,0,0-1-.9.82.82,0,0,1,.27.63c0,.54-.45.9-1.17.9a1.82,1.82,0,0,1-1-.27c.09-.45-.27-.72-.63-.9a2.27,2.27,0,0,1-.09,1.17c-.27.82-1.45,1-1.45,1.09,0,.27.27.36.46.36a1.1,1.1,0,0,0,.9-.54C47.23,59,46,61.56,43.88,61.56S40.54,59,40.18,57.5a1.1,1.1,0,0,0,.9.54c.18,0,.46-.09.46-.36,0-.09-1.18-.27-1.45-1.09A2.27,2.27,0,0,1,40,55.42c-.36.18-.72.45-.63.9a1.85,1.85,0,0,1-1,.27c-.72,0-1.17-.36-1.17-.9a.82.82,0,0,1,.27-.63.88.88,0,0,0-1,.9m1.71-1.45c-.45.55-.09,1,.45,1s1.27-.27,2-1.54c.45-.63.63-1.08,1.45-1.08,1.17,0,1.08-1.18,1.8-1.18s.64,1.18,1.81,1.18c.81,0,1,.45,1.45,1.08.72,1.27,1.44,1.54,2,1.54s.91-.45.46-1a.61.61,0,0,1-.55.36c-.72,0-1-.63-1.53-1.44.27.09.54.45.9.45a.45.45,0,0,0,.45-.63c-1.44,0-1.08-1-2.89-1-.81,0-1.08-1.17-2.08-1.17s-1.26,1.17-2.07,1.17c-1.81,0-1.45,1-2.89,1a.45.45,0,0,0,.45.63c.36,0,.63-.36.9-.45-.54.81-.81,1.44-1.53,1.44a.61.61,0,0,1-.55-.36m2.53.45c0,.28.18.37.27.37s.27-.27.55-.37a.48.48,0,0,0,.54.55.5.5,0,0,0,.54-.45c.18.09.36.36.45.36s.18-.18.18-.55a1.71,1.71,0,0,0-1.35-.63c-.73,0-1.18.18-1.18.72m1.81,4.16.09.45a.67.67,0,0,1,.45-.09c.27,0,.36.09.81.09s.55-.09.82-.09a.67.67,0,0,1,.45.09l.09-.45a1,1,0,0,0-.63-.18c-.27,0-.45.09-.73.09s-.45-.09-.72-.09a1,1,0,0,0-.63.18m.27-1c.54,0,.63.18,1.08.18s.55-.18,1.09-.18a1.28,1.28,0,0,0-.18-.54c-.72,0-.72.27-.91.27s-.18-.27-.9-.27a1.28,1.28,0,0,0-.18.54m.45,2.17a.74.74,0,0,0,1.27,0,.54.54,0,0,0-.09-.36c-.09.09-.18.18-.55.18s-.45-.09-.54-.18a.54.54,0,0,0-.09.36m1.27-5.43c0,.37.09.55.18.55s.27-.27.45-.36a.5.5,0,0,0,.54.45.48.48,0,0,0,.54-.55c.27.1.37.37.55.37s.27-.09.27-.37c0-.54-.45-.72-1.18-.72a1.71,1.71,0,0,0-1.35.63"/><path class="cls-1" d="M38.69,63.72V62.55c-2.69,0-5,.18-6.94,1.35-2-1.17-4.12-1.35-6.87-1.35v1.17a7.13,7.13,0,0,0-2.1-.29V75.34c4.49,0,6.64.64,8.2,1.51h1.61c1.5-.87,3.65-1.51,8.13-1.51V63.43a7,7,0,0,0-2,.29m-12.92-.47c2,0,4.37.3,5.56,1.35v9.16a13.64,13.64,0,0,0-5.56-1.11Zm12,0v9.4a13.51,13.51,0,0,0-5.56,1.11V64.6c1.14-1,3.59-1.35,5.56-1.35m2,11c-3.65,0-5.92.64-7.42,1.69H31.16c-1.56-1-3.77-1.69-7.48-1.69v-10a3.79,3.79,0,0,1,1.2.29v8.81a11.88,11.88,0,0,1,6.34,1.34h1.07a12.38,12.38,0,0,1,6.4-1.34V64.6a3.5,3.5,0,0,1,1.14-.29Z"/><path class="cls-1" d="M46.74,103.25c-3.46,0-3.52,3.14-6.78,3.14s-3.52-3.2-6.78-3.2a5.12,5.12,0,0,0-3.67,1.66c.23.26.53.58.75.81a3.93,3.93,0,0,1,2.85-1.36c2.8,0,3.33,3.13,6.85,3.13,3.78,0,3.78-3.13,6.78-3.13s3.26,3.26,6.78,3.13v-1c-3.26,0-3.26-3.14-6.78-3.14"/><path class="cls-1" d="M46.74,107.47c-3.46,0-3.52,3.14-6.78,3.14s-3.52-3.2-6.78-3.2a5,5,0,0,0-1,.11c.32.28,1.12,1,1.15,1,2.64.08,3.11,3.13,6.63,3.13,3.78,0,3.78-3.13,6.78-3.13s3.26,3.26,6.78,3.13v-1c-3.26,0-3.26-3.14-6.78-3.14"/><path class="cls-1" d="M46.8,111.69c-2.37,0-3.14,1.47-4.44,2.39.3.21.68.32,1,.51,1-.87,1.74-1.85,3.42-1.85,3,0,3.26,3.26,6.78,3.13v-1.05c-3.26,0-3.26-3.13-6.78-3.13"/><path class="cls-1" d="M27.27,102.25l.64.76c2.06-.56,2.79-2.76,5.2-2.76,2.8,0,3.33,3.13,6.85,3.13,3.78,0,3.78-3.13,6.78-3.13s3.26,3.26,6.78,3.13v-1c-3.26,0-3.26-3.14-6.78-3.14s-3.52,3.14-6.78,3.14-3.52-3.2-6.78-3.2c-3,0-3.82,2.39-5.91,3.11"/><path class="cls-1" d="M32.57,84.21c.36,0,1.09,1.07,1.09,2.14,0,1.25-.64,2.14-1.09,2.14s-1.1-.89-1.1-2.14c0-1.07.73-2.14,1.1-2.14m-3.12,3.3a2.89,2.89,0,0,1,2.47,2.22c0,.36-.27.54-.73.54A2.6,2.6,0,0,1,28.81,88c0-.35.18-.53.64-.53m6.14,0a.48.48,0,0,1,.55.53,2.52,2.52,0,0,1-2.38,2.23.48.48,0,0,1-.55-.54,2.78,2.78,0,0,1,2.38-2.22M29.18,90.8a2.79,2.79,0,0,1,2.74,2.14c0,.36-.27.53-.64.53a2.55,2.55,0,0,1-2.56-2.22c0-.36.18-.45.46-.45m4.58,2.67c-.46,0-.55-.26-.55-.53a2.31,2.31,0,0,1,2.19-2c.46,0,.64.09.64.45a2.21,2.21,0,0,1-2.28,2.13M32.57,95.7a2.39,2.39,0,0,0-1-1.51.87.87,0,0,0,1-.81c.09.63.45.81,1,.81a2.34,2.34,0,0,0-1,1.51m-1.38,1.07a2.53,2.53,0,0,1-2.38-2.32c0-.35.28-.44.55-.44a2.57,2.57,0,0,1,2.56,2.13.65.65,0,0,1-.73.63m2.66,0a.57.57,0,0,1-.64-.63A2.38,2.38,0,0,1,35.4,94c.46,0,.83.09.83.44a2.46,2.46,0,0,1-2.38,2.32m-1.28-4.36a2.43,2.43,0,0,0-1.1-1.52c.55,0,1-.09,1.1-.89.09.8.54.89,1.09.89a2.38,2.38,0,0,0-1.09,1.52M32,99.55h1.09V97.21c.1.18.46.27.83.27a3.4,3.4,0,0,0,3.11-3.2l2.85-3-.55-.44-2.76,2.67a1.21,1.21,0,0,0-.91-.26A2.6,2.6,0,0,0,37,91l2.94-2.86-.55-.44-2.76,2.68a1.11,1.11,0,0,0-.82-.27,3,3,0,0,0,1.28-2.23l2.85-3-.55-.52-2.66,2.76a1,1,0,0,0-.92-.44,2.66,2.66,0,0,0-1.65.62,2,2,0,0,0,.28-1.16A3.06,3.06,0,0,0,33,83.59l-.09-3.21H32.2l-.09,3.21a3.09,3.09,0,0,0-1.38,2.58,2.84,2.84,0,0,0,.19,1.07,3.26,3.26,0,0,0-1.65-.53,1,1,0,0,0-.83.35l-2.66-2.67-.55.52L28,87.78A3,3,0,0,0,29,90a1,1,0,0,0-.73.27l-2.57-2.59-.55.44L27.9,91a3,3,0,0,0,1.19,2.23,1.13,1.13,0,0,0-.74.26l-2.66-2.58-.55.44L28,94.19a3.49,3.49,0,0,0,3.11,3.29,1.4,1.4,0,0,0,.92-.27Z"/><path class="cls-1" d="M67.17,110.86a1.29,1.29,0,0,1-.72.62,1.26,1.26,0,0,1-1-.08,1.21,1.21,0,0,1-.61-.72,1.22,1.22,0,0,1,.79-1.55,1.24,1.24,0,0,1,1.56.79,1.27,1.27,0,0,1-.07.94m-.24-2.27a1.9,1.9,0,0,0-1.46-.11,1.85,1.85,0,0,0-1.12,1,1.92,1.92,0,0,0,2,2.76,2.61,2.61,0,0,0,.27-.06,1.94,1.94,0,0,0,1.23-2.43,1.91,1.91,0,0,0-1-1.11"/><path class="cls-1" d="M76.74,107.43a1,1,0,0,1-.58.49,1,1,0,0,1-.76-.06,1,1,0,0,1-.49-.57,1,1,0,0,1,.63-1.26.8.8,0,0,1,.15,0,.92.92,0,0,1,.61.09,1,1,0,0,1,.5.58,1,1,0,0,1-.06.76m-.13-2a1.68,1.68,0,0,0-1.52,3,1.65,1.65,0,0,0,1,.16.94.94,0,0,0,.24-.06,1.65,1.65,0,0,0,1-.83,1.68,1.68,0,0,0-.74-2.26"/><path class="cls-1" d="M80.27,108.38A1.72,1.72,0,0,1,78.8,108l-.32-.31-1.58,1.75.29.29a1.89,1.89,0,0,1,.59,1.44l-1,.32a1.89,1.89,0,0,1-.38-1.52l.07-.4-1.88-.4-.43-.08-.08.43a1.68,1.68,0,0,1-1,1.15l-.64-.61c.1-.52.78-1,1.06-1.09l.33-.16-.63-2.09-.36,0a2.71,2.71,0,0,1-1.53-.25l.19-.9A1.7,1.7,0,0,1,73,106l.33.34,1.54-1.77-.27-.29a1.88,1.88,0,0,1-.55-1.45l.89-.3a2,2,0,0,1,.42,1.51l-.06.39,1.84.41.44.09.08-.44a1.66,1.66,0,0,1,.93-1.13l.68.61a2.61,2.61,0,0,1-1.09,1.1l-.32.18.73,2.06.36-.07a2.1,2.1,0,0,1,1.5.25Zm-10.18,1h-.37l-.23,2.35.42,0a2.24,2.24,0,0,1,1.31.54l-.44.85c-.61.06-1.24-.66-1.25-.67l-.28-.34-1.78,1.59.28.32a2.07,2.07,0,0,1,.48,1.33l-.88.29a2.06,2.06,0,0,1-.39-1.36l0-.42-2.37-.23,0,.44s-.07,1-.61,1.27l-.85-.42a2.13,2.13,0,0,1,.73-1.21l.32-.28-1.58-1.78-.32.23a2.35,2.35,0,0,1-1.3.53l-.3-.91a2.12,2.12,0,0,1,1.36-.35l.42,0,.21-2.37-.42,0a2.1,2.1,0,0,1-1.3-.58l.43-.84a2,2,0,0,1,1.24.7l.28.32,1.8-1.61-.28-.32a2,2,0,0,1-.53-1.25l1-.32a1.94,1.94,0,0,1,.32,1.32l0,.43,2.4.24,0-.43a2,2,0,0,1,.59-1.29l.85.42a2.12,2.12,0,0,1-.72,1.24l-.31.28,1.56,1.77.31-.24a2.12,2.12,0,0,1,1.34-.48l.26.79a2.63,2.63,0,0,1-1.37.41m2.22-.54-.4-1.23a3.35,3.35,0,0,0,.74,0l.23.74a3.83,3.83,0,0,0-.57.44m8.93-1.7a2.29,2.29,0,0,0-2.1-.78l-.26-.73a2.86,2.86,0,0,0,1.27-1.75l0-.22-1.45-1.3-.24.1a2.69,2.69,0,0,0-1.57,1.46l-.72-.16a2.28,2.28,0,0,0-1-2.07l-.16-.09-1.66.54-.08.17a2.31,2.31,0,0,0,.41,2.26l-.48.56a2.68,2.68,0,0,0-2.13-.26l-.25.06-.41,1.91.16.16a1.92,1.92,0,0,0,.41.31,3.12,3.12,0,0,0-1.33.44l-.51-.57a2.19,2.19,0,0,0,.63-2l0-.17-1.54-.77-.17.06A2.17,2.17,0,0,0,66.8,106l-.76-.07a2.06,2.06,0,0,0-.91-1.83L65,104l-1.71.56-.08.15a2,2,0,0,0,.34,2l-.57.51a2.16,2.16,0,0,0-2-.61l-.17.05L60,108.21l.05.17a2.19,2.19,0,0,0,1.69,1.23l-.07.75a2.13,2.13,0,0,0-1.85.93l-.08.16.54,1.67.16.08a2.28,2.28,0,0,0,2-.35l.52.59a2.14,2.14,0,0,0-.65,2l0,.17,1.54.76.17,0a2.13,2.13,0,0,0,1.28-1.66l.73.07a2.44,2.44,0,0,0,.9,1.84l.18.12,1.74-.57.07-.2a2.45,2.45,0,0,0-.36-2l.55-.49a2.12,2.12,0,0,0,2,.59l.17,0,.79-1.53,0-.17a2.16,2.16,0,0,0-1.69-1.2l.08-.8a3.46,3.46,0,0,0,1.19-.36,1.24,1.24,0,0,0,0,.43v.18l1.3,1.22.24-.07a2.63,2.63,0,0,0,1.65-1.49l.73.15a2.3,2.3,0,0,0,1,2.09l.17.1,1.74-.57.07-.18a2.25,2.25,0,0,0-.45-2.25l.5-.56a2.59,2.59,0,0,0,2.21.23l.24-.08.33-1.76Z"/><path class="cls-1" d="M78.42,83.24v3.57L84.89,83v3.78l5.94-4.11-.74-1h2.76v3L91.7,83.51l-8,5.86v-4L76.6,89.85V86.74L70,90.59v1.28l5.73-3.37v3.17l7.08-4.45v4l8.9-6.55,2,2.16v-6H88.2l1.28,1.62-3.71,2.63V81.28L79.3,85.06V81.48l-7.49,4v1.28Zm10,6.54-6.61,5V90.32l-7,4.45V91.53L68,95.72V97l6-3.64v3.17l7-4.46v4.46L89.88,90l-.81-1h2.77v3.17L90.76,91,79.7,99.63V95L73,99.36V96.53l-6.21,3.91v1.28l5.33-3.44v2.83l6.74-4.31v4.79l11.94-9.45,2,2.16V88.09H87.12Z"/><path class="cls-1" d="M59.5,89.3a5.65,5.65,0,0,1-2,.87,5.65,5.65,0,0,1-2-.87v-11H49.61V74.19h5.91V68.84h4v5.35h5.92v4.06H59.5Zm-3.07-.69a1.48,1.48,0,0,0,2.16,0V77.34h5.83V75.05H58.59V69.84H56.43v5.21H50.6v2.29h5.83Z"/><polygon class="cls-1" points="57.3 94.4 57.3 94.91 55.39 94.91 55.39 92.51 57.23 92.51 57.23 93 55.94 93 55.94 93.52 57.05 93.52 57.05 93.95 55.94 93.95 55.94 94.4 57.3 94.4"/><polygon class="cls-1" points="59.78 93.04 58.99 93.04 58.99 94.91 58.45 94.91 58.45 93.04 57.66 93.04 57.66 92.51 59.78 92.51 59.78 93.04"/><polygon class="cls-1" points="63.48 92.14 63.84 92.52 62.56 93.75 60.9 92.02 61.29 91.64 62.59 92.99 63.48 92.14"/><path class="cls-1" d="M64.34,90.08c-.58-.13-.9-.18-.9-.18s.16.28.47.79Zm1.14.25-.65-.15-.65.93c.1.17.22.36.36.56l-.33.47c-.89-1.42-1.35-2.25-1.35-2.25l.38-.53s.93.15,2.57.51Z"/><path class="cls-1" d="M66.16,88c.1-.22.08-.36-.09-.43s-.28,0-.38.23l-.32.7.47.21Zm-1.64.12.47.21.25-.56c.09-.21.05-.32-.1-.39s-.28,0-.38.2Zm1.82-1c.43.2.5.57.27,1.07l-.55,1.23-2.18-1,.49-1.11c.22-.49.55-.6.91-.44a.45.45,0,0,1,.3.43.57.57,0,0,1,.76-.2"/><path class="cls-1" d="M67,85.34a.67.67,0,0,0-.53-.9.76.76,0,1,0,.53.9m-1.89-.45a1.22,1.22,0,1,1,.9,1.54,1.15,1.15,0,0,1-.9-1.54"/><path class="cls-1" d="M66.68,82.89l0-.58c0-.32-.07-.46-.32-.48s-.35.11-.38.44l0,.57Zm1.27-1c-.25.1-.52.23-.73.33v.08l0,.59.71,0,0,.53-2.39-.16.07-1.13c0-.62.37-.95.91-.92a.77.77,0,0,1,.69.45c.22-.11.54-.28.87-.43Z"/><polygon class="cls-1" points="49.32 82.74 48.78 82.79 48.88 83.93 48.44 83.97 48.34 82.83 47.42 82.91 47.38 82.37 49.76 82.16 49.93 84.03 49.44 84.08 49.32 82.74"/><rect class="cls-1" x="47.73" y="84.74" width="2.4" height="0.54" transform="translate(-16.64 12.07) rotate(-12.03)"/><path class="cls-1" d="M48.92,87.37c.18.47.47.63.89.47s.54-.47.36-.94L50,86.44l-1.25.47Zm1.73-.7c.33.86.09,1.41-.64,1.69s-1.27,0-1.6-.84l-.34-.92,2.24-.85Z"/><polygon class="cls-1" points="50.87 91.13 50.45 91.39 49.43 89.78 51.45 88.5 52.43 90.06 52.02 90.32 51.32 89.23 50.89 89.5 51.49 90.44 51.12 90.68 50.52 89.73 50.14 89.97 50.87 91.13"/><path class="cls-1" d="M53,92a.43.43,0,0,0,.16-.09c.11-.1.16-.26-.1-.54s-.41-.29-.56-.16c-.38.34,1,1.21.28,1.82-.34.3-.73.23-1.21-.3s-.49-1-.16-1.27a1.93,1.93,0,0,1,.41.32c-.21.18-.18.38.08.67s.4.31.53.19c.37-.33-1-1.2-.25-1.84.32-.29.72-.24,1.2.29s.45.93.21,1.15a.54.54,0,0,1-.25.14Z"/><path class="cls-1" d="M130.81,47.12A3.3,3.3,0,0,1,129.7,47v-.34l.35,0a1.92,1.92,0,0,0,1.2-.36,2.69,2.69,0,0,0,.83-2.25c0-2.43-1.42-2.5-2.28-2.5-.29,0-.71.05-.71.05v7.45c0,1.32,0,1.84.23,2.18a1.59,1.59,0,0,0,1.32.51V52c-.66,0-2.13-.07-2.72-.07s-1.54,0-2.27.07v-.3a1.14,1.14,0,0,0,.83-.38c.29-.32.31-.79.31-2.25V43.29c0-1.07-.06-1.44-.22-1.69a1.16,1.16,0,0,0-.87-.43v-.3c.66,0,1.44.05,2,.05,1,0,1.53,0,2.56,0a9.33,9.33,0,0,1,1.91.17,2.7,2.7,0,0,1,2.37,2.81c0,2.25-1.73,3.25-3.76,3.25"/><path class="cls-1" d="M141.68,41.53c-2.3,0-3.13,2.2-3.13,4.89s1,5,3.11,5c2.3,0,3.13-2.2,3.13-4.89s-1-5-3.11-5m-.1,10.65c-3.51,0-5.57-2.14-5.57-5.54s2.23-5.85,5.75-5.85,5.57,2.13,5.57,5.53-2.23,5.86-5.75,5.86"/><path class="cls-1" d="M159.5,41.55c-.29.32-.31.79-.31,2.25v8.29h-.94l-6.45-8.56a3.64,3.64,0,0,1-.41-.65v6.74c0,1.07.05,1.44.22,1.69a1.16,1.16,0,0,0,.87.43V52c-.66,0-1-.07-1.6-.07a14.82,14.82,0,0,0-1.69.07v-.3a1.14,1.14,0,0,0,.83-.38c.29-.32.31-.79.31-2.25V43.29c0-1.07-.05-1.44-.22-1.69a1.16,1.16,0,0,0-.87-.43v-.3c.66,0,1.37.07,2,.07.25,0,1,0,1.47-.07l4.91,6.53a6.47,6.47,0,0,1,.54.83V43.29c0-1.07,0-1.44-.22-1.69a1.15,1.15,0,0,0-.86-.43v-.3c.66,0,1.06.07,1.65.07a13.75,13.75,0,0,0,1.63-.07v.3a1.14,1.14,0,0,0-.83.38"/><path class="cls-1" d="M169.79,43.1a1.3,1.3,0,0,0-.58-1.15c-.37-.22-.71-.25-1.76-.25h-.62v7.9c0,1.07,0,1.44.22,1.68.27.41,1,.44,1.2.44V52c-.66,0-2-.07-2.61-.07s-2,0-2.62.07v-.3a1.85,1.85,0,0,0,1.17-.41c.28-.32.3-.76.3-2.22V41.7h-.62c-1.05,0-1.39,0-1.76.25a1.3,1.3,0,0,0-.58,1.15h-.36c.07-.77.06-2.18.06-2.18h8.86s0,1.41,0,2.18Z"/><path class="cls-1" d="M174.93,41.55c-.28.32-.3.79-.3,2.25v5.82c0,1.07.05,1.44.22,1.69a1.13,1.13,0,0,0,.86.43V52c-.66,0-1.69-.07-2.28-.07s-1.61,0-2.27.07v-.3a1.14,1.14,0,0,0,.83-.38c.29-.32.3-.79.3-2.25V43.29c0-1.07,0-1.44-.22-1.69a1.12,1.12,0,0,0-.86-.43v-.3c.66,0,1.69.07,2.29.07s1.6,0,2.26-.07v.3a1.15,1.15,0,0,0-.83.38"/><path class="cls-1" d="M184.82,43.1a1.33,1.33,0,0,0-.58-1.15c-.37-.22-.71-.25-1.76-.25h-1.39v4.15h1.43a2.17,2.17,0,0,0,1.37-.29,1.38,1.38,0,0,0,.44-1h.35c0,.37,0,.61,0,1.68s0,1.25,0,1.64h-.35A1.34,1.34,0,0,0,184,47a2.24,2.24,0,0,0-1.47-.34h-1.39v3c0,1.06,0,1.4.22,1.64.27.41,1,.44,1.21.44V52c-.66,0-2-.08-2.59-.08-1,0-1.36,0-2.31.08v-.3a1.14,1.14,0,0,0,.83-.38c.29-.32.31-.79.31-2.25V43.29c0-1.07,0-1.44-.22-1.69a1.16,1.16,0,0,0-.87-.43v-.3c.94.05,1.66.05,2.61.05h4.84s0,1.41,0,2.18Z"/><path class="cls-1" d="M190.47,41.55c-.29.32-.31.79-.31,2.25v5.82c0,1.07.06,1.44.22,1.69a1.16,1.16,0,0,0,.87.43V52c-.66,0-1.69-.07-2.29-.07s-1.6,0-2.26.07v-.3a1.12,1.12,0,0,0,.82-.38c.29-.32.31-.79.31-2.25V43.29c0-1.07-.05-1.44-.22-1.69a1.15,1.15,0,0,0-.86-.43v-.3c.66,0,1.69.07,2.28.07s1.61,0,2.27-.07v.3a1.14,1.14,0,0,0-.83.38"/><path class="cls-1" d="M201.86,43.1a1.22,1.22,0,0,0-.46-1,3.15,3.15,0,0,0-1.93-.54c-1.49,0-3.77.32-3.77,4.93,0,2.82,1,4.79,3.82,4.79a2.43,2.43,0,0,0,1.88-.63,1.47,1.47,0,0,0,.36-1h.35c0,.49-.06,1-.06,1.81v.29a10.62,10.62,0,0,1-2.86.37,6.14,6.14,0,0,1-5-1.91,5.46,5.46,0,0,1-1.07-3.49A5.59,5.59,0,0,1,197,41.16a8.22,8.22,0,0,1,2.58-.37c1.3,0,2.5.18,2.65.18,0,.32,0,.71,0,1.05s0,.86,0,1.08Z"/><path class="cls-1" d="M207.85,41.55c-.29.32-.3.79-.3,2.25v5.82c0,1.07,0,1.44.22,1.69a1.12,1.12,0,0,0,.86.43V52c-.66,0-1.69-.07-2.29-.07s-1.6,0-2.26.07v-.3a1.12,1.12,0,0,0,.82-.38c.29-.32.31-.79.31-2.25V43.29c0-1.07-.05-1.44-.22-1.69a1.15,1.15,0,0,0-.86-.43v-.3c.66,0,1.69.07,2.28.07s1.61,0,2.27-.07v.3a1.14,1.14,0,0,0-.83.38"/><path class="cls-1" d="M214.89,44.85a13.22,13.22,0,0,1-.46-1.53l-1.4,3.8h2.64Zm3.4,7.12c-.51,0-1.76,0-2.25.07v-.3a1.22,1.22,0,0,0,.8-.21.47.47,0,0,0,.15-.37,3.36,3.36,0,0,0-.26-1l-.81-2.34h-3.16l-.87,2.35a3.83,3.83,0,0,0-.27,1,.42.42,0,0,0,.14.35,1.26,1.26,0,0,0,.78.21V52c-.59,0-1-.07-1.61-.07s-1,0-1.57.07v-.3a1,1,0,0,0,.82-.5A15.89,15.89,0,0,0,211,49.4l3.52-8.53,1.24-.22,3,8.6c.42,1.17.72,1.89.79,2a.91.91,0,0,0,.8.48V52c-.49,0-1.63-.07-2.12-.07"/><path class="cls-1" d="M135.87,61.14c-.28.33-.3.8-.3,2.25v3.44a7.71,7.71,0,0,1-.29,2.74c-.76,2-3,2.18-4.33,2.18-2.86,0-3.83-1-4.27-2.13a8.48,8.48,0,0,1-.28-2.84V62.89c0-1.07-.05-1.44-.22-1.7a1.16,1.16,0,0,0-.87-.42v-.3c.66,0,1.7.06,2.29.06s1.61,0,2.27-.06v.3a1.16,1.16,0,0,0-.83.37c-.29.33-.31.8-.31,2.25V67.9c0,1.52.12,3.09,2.59,3.09s2.61-1.77,2.61-3.11v-5c0-1.07-.05-1.44-.22-1.7a1.16,1.16,0,0,0-.87-.42v-.3c.66,0,1.24.06,1.83.06s1.36,0,2-.06v.3a1.18,1.18,0,0,0-.83.37"/><path class="cls-1" d="M148.55,61.14c-.29.33-.31.8-.31,2.25v8.3h-.94l-6.45-8.57a3.41,3.41,0,0,1-.41-.64v6.74c0,1.06.05,1.44.22,1.69a1.16,1.16,0,0,0,.87.42v.31c-.66,0-1-.07-1.6-.07a14.82,14.82,0,0,0-1.69.07v-.31a1.12,1.12,0,0,0,.83-.37c.29-.32.31-.8.31-2.25V62.89c0-1.07,0-1.44-.22-1.7a1.16,1.16,0,0,0-.87-.42v-.3c.66,0,1.37.06,2,.06.25,0,1,0,1.47-.06L146.64,67a5.67,5.67,0,0,1,.54.83V62.89c0-1.07-.05-1.44-.22-1.7a1.15,1.15,0,0,0-.86-.42v-.3c.66,0,1.06.06,1.65.06a16,16,0,0,0,1.63-.06v.3a1.16,1.16,0,0,0-.83.37"/><path class="cls-1" d="M154.76,61.14c-.29.33-.3.8-.3,2.25v5.83c0,1.06,0,1.44.22,1.69a1.11,1.11,0,0,0,.86.42v.31c-.66,0-1.69-.07-2.29-.07s-1.6,0-2.26.07v-.31a1.14,1.14,0,0,0,.83-.37c.28-.32.3-.8.3-2.25V62.89c0-1.07-.05-1.44-.22-1.7a1.15,1.15,0,0,0-.86-.42v-.3c.66,0,1.69.06,2.28.06s1.61,0,2.27-.06v.3a1.16,1.16,0,0,0-.83.37"/><path class="cls-1" d="M166.86,61.26a20,20,0,0,0-.83,1.85l-3.5,8.53-1.29.22-3-8.6c-.43-1.17-.73-1.9-.8-2a.88.88,0,0,0-.8-.47v-.3c.5,0,1.63.06,2.12.06s1.78,0,2.27-.06v.3a1.29,1.29,0,0,0-.8.2.49.49,0,0,0-.15.38,3.6,3.6,0,0,0,.25,1l1.85,5.32c.35,1,.47,1.52.47,1.52s.19-.56.56-1.56l2-5.3a3.43,3.43,0,0,0,.28-1,.45.45,0,0,0-.14-.36,1.32,1.32,0,0,0-.78-.2v-.3c.59,0,1,.06,1.63.06s1,0,1.57-.06v.3a1,1,0,0,0-.83.49"/><path class="cls-1" d="M175.83,71.6h-4.74c-1,0-1.86,0-2.81,0v-.31a1.12,1.12,0,0,0,.83-.37c.29-.32.31-.8.31-2.25V62.89c0-1.07,0-1.44-.22-1.7a1.19,1.19,0,0,0-.87-.42v-.3c.93.05,1.66.05,2.61.05h4.84s0,1.4.05,2.18h-.35a1.33,1.33,0,0,0-.58-1.15c-.37-.22-.71-.25-1.76-.25h-1.39v4.14h1.42a2.08,2.08,0,0,0,1.37-.29,1.27,1.27,0,0,0,.44-1h.36c0,.37,0,.61,0,1.67s0,1.25,0,1.64H175a1.26,1.26,0,0,0-.37-.91,2.24,2.24,0,0,0-1.47-.34h-1.39V70c0,.76.14.86,1.05.86h.29c.93,0,1.61,0,2-.45a1.74,1.74,0,0,0,.41-1.14h.35c-.07.78,0,2.37,0,2.37"/><path class="cls-1" d="M182.11,61.13a6.28,6.28,0,0,0-.73,0v5s.39,0,.8,0a2.73,2.73,0,0,0,.66-.07c.23-.06,1.35-.27,1.35-2.57s-1.42-2.45-2.08-2.45m5.23,10.56a2.92,2.92,0,0,1-2.78-1.44c-.37-.47-1.64-2.12-2.47-3.34h-.71v2.31c0,1.06.05,1.44.22,1.69a1.12,1.12,0,0,0,.86.42v.31c-.66,0-1.62-.07-2.21-.07s-1.59,0-2.25.07v-.31a1.14,1.14,0,0,0,.83-.37c.28-.32.3-.8.3-2.25V62.89c0-1.07,0-1.44-.22-1.7a1.16,1.16,0,0,0-.86-.42v-.3c.66,0,1.23.05,1.83.05,1.21,0,1.5-.05,2.58-.05a8.56,8.56,0,0,1,1.93.17,2.66,2.66,0,0,1,2.25,2.69,3,3,0,0,1-2.47,3.08l2.88,3.31c.83.94,1.41,1.58,2.12,1.61v.29a13.28,13.28,0,0,1-1.83.07"/><path class="cls-1" d="M192.75,71.7a9.85,9.85,0,0,1-2.67-.35v-.27c0-.8,0-1.36-.07-1.85h.36a1.74,1.74,0,0,0,.59,1.22,2.75,2.75,0,0,0,1.71.46c2.18,0,2.22-1.44,2.22-1.78,0-1.1-.71-1.5-1.65-2.08l-.94-.59c-1.22-.76-2-1.51-2-3.12,0-.84.41-3,3.93-3a16.81,16.81,0,0,1,2.61.19,6.28,6.28,0,0,0-.06.91,10.54,10.54,0,0,0,0,1.22h-.36a1.55,1.55,0,0,0-.45-1,2.52,2.52,0,0,0-1.73-.54c-1.74,0-1.95,1-1.95,1.57,0,.88.51,1.31,1.43,1.85l1.08.64c1.37.81,2.2,1.54,2.2,3.25,0,2.27-1.79,3.23-4.27,3.23"/><path class="cls-1" d="M202.82,61.14c-.28.33-.3.8-.3,2.25v5.83c0,1.06,0,1.44.22,1.69a1.11,1.11,0,0,0,.86.42v.31c-.66,0-1.69-.07-2.28-.07s-1.61,0-2.27.07v-.31a1.12,1.12,0,0,0,.83-.37c.29-.32.3-.8.3-2.25V62.89c0-1.07-.05-1.44-.22-1.7a1.11,1.11,0,0,0-.86-.42v-.3c.66,0,1.69.06,2.28.06s1.61,0,2.27-.06v.3a1.18,1.18,0,0,0-.83.37"/><path class="cls-1" d="M210.19,61.26a9.09,9.09,0,0,0-1.21.05V70c0,.49.05.75.41.85a3.42,3.42,0,0,0,.81,0c2.57,0,3.68-1.36,3.68-4.88,0-4.29-2.24-4.72-3.69-4.72m2.3,10.11a11,11,0,0,1-2.76.27c-.86,0-1.49,0-2.25,0-.59,0-1.31,0-2,0v-.31a1.12,1.12,0,0,0,.83-.37c.29-.32.31-.8.31-2.25V62.89c0-1.07-.05-1.44-.22-1.7a1.15,1.15,0,0,0-.86-.42v-.3s.64.05,1.87.05c.55,0,1.56,0,2.78,0,1.52,0,6.19.14,6.19,5.27,0,4-2.35,5.18-3.92,5.62"/><path class="cls-1" d="M222.46,64.44a10.67,10.67,0,0,1-.46-1.52l-1.41,3.79h2.64Zm3.4,7.13c-.51,0-1.76,0-2.25.07v-.31a1.19,1.19,0,0,0,.79-.2.48.48,0,0,0,.15-.37,3.28,3.28,0,0,0-.25-1l-.81-2.33h-3.17l-.86,2.35a3.31,3.31,0,0,0-.27,1,.44.44,0,0,0,.13.36,1.34,1.34,0,0,0,.78.2v.31c-.59,0-1-.07-1.61-.07s-1,0-1.57.07v-.31a1,1,0,0,0,.83-.49,15.89,15.89,0,0,0,.83-1.84l3.52-8.53,1.24-.22,3,8.59c.42,1.17.73,1.9.8,2a.88.88,0,0,0,.79.47v.31c-.49,0-1.62-.07-2.11-.07"/><path class="cls-1" d="M233.74,61.26a9,9,0,0,0-1.2.05V70c0,.49.05.75.41.85a3.42,3.42,0,0,0,.81,0c2.57,0,3.67-1.36,3.67-4.88,0-4.29-2.23-4.72-3.69-4.72M236,71.37a10.85,10.85,0,0,1-2.75.27c-.87,0-1.49,0-2.25,0-.6,0-1.31,0-2,0v-.31a1.12,1.12,0,0,0,.83-.37c.29-.32.31-.8.31-2.25V62.89c0-1.07-.05-1.44-.22-1.7a1.16,1.16,0,0,0-.87-.42v-.3s.65.05,1.88.05c.54,0,1.56,0,2.78,0,1.52,0,6.19.14,6.19,5.27,0,4-2.35,5.18-3.93,5.62"/><path class="cls-1" d="M138.23,83a1.73,1.73,0,0,0-.65-1.39,4.44,4.44,0,0,0-2.74-.77c-2.12,0-5.37.46-5.37,7,0,4,1.37,6.8,5.44,6.8a3.46,3.46,0,0,0,2.67-.89,2.06,2.06,0,0,0,.5-1.46h.51c-.05.69-.1,1.44-.1,2.57v.41a14.81,14.81,0,0,1-4.06.53c-3,0-5.56-.87-7.05-2.72a7.75,7.75,0,0,1-1.51-5,7.94,7.94,0,0,1,5.43-7.89,11.67,11.67,0,0,1,3.66-.53,37.76,37.76,0,0,1,3.77.26,14.64,14.64,0,0,0,0,1.49c0,.63,0,1.23,0,1.54Z"/><path class="cls-1" d="M147.56,85.48a17.45,17.45,0,0,1-.65-2.16l-2,5.38h3.75Zm4.83,10.12c-.72,0-2.5.05-3.2.1v-.43a1.71,1.71,0,0,0,1.13-.29.65.65,0,0,0,.22-.53,4.71,4.71,0,0,0-.36-1.37L149,89.76h-4.49L143.3,93.1a4.87,4.87,0,0,0-.38,1.37.59.59,0,0,0,.19.51,1.84,1.84,0,0,0,1.1.29v.43c-.84,0-1.41-.1-2.28-.1s-1.47,0-2.24.1v-.43a1.35,1.35,0,0,0,1.18-.7A24.34,24.34,0,0,0,142.05,92l5-12.12,1.76-.31,4.33,12.21c.6,1.66,1,2.7,1.13,2.86a1.25,1.25,0,0,0,1.13.68v.43c-.7,0-2.31-.1-3-.1"/><path class="cls-1" d="M167.64,83a1.85,1.85,0,0,0-.82-1.63c-.53-.32-1-.36-2.5-.36h-.89V92.24c0,1.51.07,2,.31,2.38.39.58,1.47.62,1.71.62v.46c-.94,0-2.86-.1-3.7-.1s-2.79.05-3.73.1v-.43a2.62,2.62,0,0,0,1.66-.58c.41-.46.43-1.08.43-3.15V81h-.89c-1.49,0-2,0-2.5.36A1.85,1.85,0,0,0,155.9,83h-.5c.09-1.1.07-3.1.07-3.1h12.6s0,2,.07,3.1Z"/><path class="cls-1" d="M180.91,76.85l-5.19,1.82-.29-.43L178.8,75l.17,0L181,76.49Zm-3.27,3.92c-3.27,0-4.45,3.12-4.45,7,0,4,1.38,7.11,4.43,7.11,3.27,0,4.45-3.12,4.45-7,0-4-1.37-7.11-4.43-7.11m-.14,15.12c-5,0-7.91-3-7.91-7.86,0-5,3.17-8.32,8.17-8.32s7.92,3,7.92,7.86c0,5-3.18,8.32-8.18,8.32"/><path class="cls-1" d="M198.9,95.65h-6.59c-1.34,0-2.64,0-4,0v-.43a1.62,1.62,0,0,0,1.18-.53c.41-.46.43-1.13.43-3.2V83.27c0-1.52-.07-2-.31-2.41a1.63,1.63,0,0,0-1.23-.6v-.43c.94,0,2.67.09,3.52.09s2.62,0,3.55-.09v.46a2.17,2.17,0,0,0-1.87.72c-.36.48-.34,1.22-.34,3.1v9.21c0,1.08.19,1.23,1.49,1.23h.41c1.32,0,2.14,0,2.74-.65a2.38,2.38,0,0,0,.58-1.61H199c-.1,1.1-.08,3.36-.08,3.36"/><path class="cls-1" d="M206.74,80.79c-.41.46-.43,1.13-.43,3.2v8.27c0,1.52.07,2,.31,2.41a1.65,1.65,0,0,0,1.23.6v.43c-.94,0-2.4-.1-3.25-.1s-2.28.05-3.22.1v-.43a1.62,1.62,0,0,0,1.18-.53c.41-.46.43-1.13.43-3.2V83.27c0-1.52-.07-2-.31-2.41a1.63,1.63,0,0,0-1.23-.6v-.43c.94,0,2.41.09,3.25.09s2.28,0,3.22-.09v.43a1.62,1.62,0,0,0-1.18.53"/><path class="cls-1" d="M222.93,83a1.73,1.73,0,0,0-.65-1.39,4.44,4.44,0,0,0-2.74-.77c-2.12,0-5.36.46-5.36,7,0,4,1.37,6.8,5.43,6.8a3.45,3.45,0,0,0,2.67-.89,2.06,2.06,0,0,0,.5-1.46h.51c0,.69-.1,1.44-.1,2.57v.41a14.81,14.81,0,0,1-4.06.53c-3,0-5.56-.87-7-2.72a7.75,7.75,0,0,1-1.51-5A7.94,7.94,0,0,1,216,80.24a11.67,11.67,0,0,1,3.66-.53,37.76,37.76,0,0,1,3.77.26c0,.46,0,1,0,1.49,0,.63,0,1.23,0,1.54Z"/><path class="cls-1" d="M232.26,85.48a17.45,17.45,0,0,1-.65-2.16l-2,5.38h3.75Zm4.83,10.12c-.72,0-2.5.05-3.19.1v-.43A1.75,1.75,0,0,0,235,95a.68.68,0,0,0,.21-.53,4.71,4.71,0,0,0-.36-1.37l-1.15-3.32h-4.5L228,93.1a4.87,4.87,0,0,0-.38,1.37.62.62,0,0,0,.19.51,1.87,1.87,0,0,0,1.11.29v.43c-.84,0-1.42-.1-2.29-.1s-1.46,0-2.23.1v-.43a1.35,1.35,0,0,0,1.17-.7A22.35,22.35,0,0,0,226.75,92l5-12.12,1.75-.31,4.33,12.21c.6,1.66,1,2.7,1.13,2.86a1.26,1.26,0,0,0,1.13.68v.43c-.7,0-2.31-.1-3-.1"/><path class="cls-1" d="M251.48,85.31a9,9,0,0,0-1.2,0V94c0,.49.05.75.41.85a3.42,3.42,0,0,0,.81,0c2.57,0,3.67-1.36,3.67-4.88,0-4.29-2.23-4.72-3.69-4.72m2.31,10.11a11,11,0,0,1-2.76.27c-.87,0-1.49,0-2.25,0-.6,0-1.31,0-2,0v-.31a1.12,1.12,0,0,0,.83-.37c.29-.32.31-.8.31-2.25V86.94c0-1.07,0-1.44-.22-1.7a1.16,1.16,0,0,0-.87-.42v-.3s.65,0,1.88,0c.54,0,1.56,0,2.78,0,1.52,0,6.19.14,6.19,5.27,0,4-2.35,5.18-3.92,5.62"/><path class="cls-1" d="M267.12,95.65h-4.74c-.94,0-1.86,0-2.81,0v-.31a1.12,1.12,0,0,0,.83-.37c.29-.32.31-.8.31-2.25V86.94c0-1.07,0-1.44-.22-1.7a1.16,1.16,0,0,0-.87-.42v-.3c.94,0,1.66,0,2.61,0h4.84s0,1.4.05,2.18h-.35a1.31,1.31,0,0,0-.58-1.15c-.37-.22-.71-.25-1.76-.25H263v4.14h1.43a2.11,2.11,0,0,0,1.37-.29,1.34,1.34,0,0,0,.44-1h.35c0,.37,0,.61,0,1.67s0,1.25,0,1.64h-.35a1.31,1.31,0,0,0-.38-.91,2.18,2.18,0,0,0-1.47-.34H263V94c0,.76.14.86,1,.86h.29c.93,0,1.61,0,2-.45a1.74,1.74,0,0,0,.41-1.14h.35c-.06.78-.05,2.37-.05,2.37"/><path class="cls-1" d="M139.13,105.12a24,24,0,0,0-1.17,2.6l-4.94,12-1.81.31-4.3-12.13c-.6-1.64-1-2.67-1.12-2.84a1.26,1.26,0,0,0-1.12-.67V104c.69.05,2.29.1,3,.1s2.51,0,3.2-.1v.43a1.69,1.69,0,0,0-1.12.29.65.65,0,0,0-.22.53,4.75,4.75,0,0,0,.36,1.36l2.6,7.49c.5,1.46.67,2.15.67,2.15s.26-.79.79-2.2l2.77-7.47a4.74,4.74,0,0,0,.38-1.36.61.61,0,0,0-.19-.5,1.82,1.82,0,0,0-1.1-.29V104c.84.05,1.43.1,2.29.1a20.5,20.5,0,0,0,2.22-.1v.43a1.36,1.36,0,0,0-1.17.7"/><path class="cls-1" d="M146.56,109.6a16.79,16.79,0,0,1-.65-2.14l-2,5.34h3.72Zm4.8,10.05c-.72,0-2.49,0-3.18.1v-.43a1.69,1.69,0,0,0,1.12-.29.65.65,0,0,0,.22-.52,4.67,4.67,0,0,0-.36-1.36l-1.15-3.3h-4.46l-1.22,3.32a4.74,4.74,0,0,0-.38,1.36.6.6,0,0,0,.19.5,1.69,1.69,0,0,0,1.1.29v.43c-.84,0-1.41-.1-2.27-.1s-1.46,0-2.22.1v-.43a1.36,1.36,0,0,0,1.17-.69,25.08,25.08,0,0,0,1.17-2.6l5-12,1.74-.31,4.3,12.13a29.17,29.17,0,0,0,1.12,2.84,1.24,1.24,0,0,0,1.12.67v.43c-.69,0-2.29-.1-3-.1"/><path class="cls-1" d="M166.39,119.7h-6.54c-1.33,0-2.62,0-4,0v-.43a1.63,1.63,0,0,0,1.17-.52c.41-.46.43-1.13.43-3.18v-8.21c0-1.51-.07-2-.31-2.39a1.6,1.6,0,0,0-1.22-.6V104c.93.05,2.65.1,3.49.1s2.6,0,3.53-.1v.46c-1,0-1.53.26-1.86.71s-.34,1.22-.34,3.08v9.15c0,1.07.19,1.21,1.48,1.21h.41c1.31,0,2.12,0,2.72-.64a2.38,2.38,0,0,0,.57-1.6h.51c-.1,1.1-.08,3.34-.08,3.34"/><path class="cls-1" d="M176.13,112.8a4.88,4.88,0,0,1-1.57-.19v-.48s.26,0,.5,0a2.76,2.76,0,0,0,1.69-.5,3.8,3.8,0,0,0,1.17-3.18c0-3.44-2-3.53-3.22-3.53-.4,0-1,.07-1,.07v10.5c0,1.87,0,2.61.33,3.08s.86.67,1.86.72v.43c-.93,0-3-.1-3.84-.1s-2.17,0-3.2.1v-.43a1.6,1.6,0,0,0,1.17-.53c.41-.45.43-1.12.43-3.17v-8.21c0-1.51-.07-2-.31-2.39a1.6,1.6,0,0,0-1.22-.6V104c.94.05,2,.08,2.87.08,1.34,0,2.15,0,3.6,0a13.58,13.58,0,0,1,2.7.24,3.82,3.82,0,0,1,3.34,4c0,3.17-2.43,4.58-5.3,4.58"/><path class="cls-1" d="M188.64,109.6a17.44,17.44,0,0,1-.64-2.14l-2,5.34h3.72Zm4.8,10.05c-.72,0-2.48,0-3.17.1v-.43a1.69,1.69,0,0,0,1.12-.29.67.67,0,0,0,.21-.52,4.67,4.67,0,0,0-.36-1.36l-1.14-3.3h-4.47l-1.21,3.32a4.74,4.74,0,0,0-.38,1.36.57.57,0,0,0,.19.5,1.68,1.68,0,0,0,1.09.29v.43c-.83,0-1.4-.1-2.26-.1s-1.46,0-2.22.1v-.43a1.39,1.39,0,0,0,1.17-.69,25.08,25.08,0,0,0,1.17-2.6l5-12,1.74-.31,4.3,12.13c.6,1.65,1,2.68,1.12,2.84a1.27,1.27,0,0,0,1.12.67v.43c-.69,0-2.29-.1-3-.1"/><path class="cls-1" d="M203.78,104.93a9.11,9.11,0,0,0-1,.07v7.06s.55,0,1.12,0a3.76,3.76,0,0,0,.93-.09c.34-.1,1.91-.39,1.91-3.63s-2-3.46-2.93-3.46m7.37,14.89a4.08,4.08,0,0,1-3.91-2c-.53-.67-2.32-3-3.49-4.7h-1v3.25c0,1.5.07,2,.31,2.38a1.57,1.57,0,0,0,1.22.6v.43c-.93,0-2.29-.1-3.13-.1s-2.24,0-3.17.1v-.43a1.63,1.63,0,0,0,1.17-.52c.4-.46.43-1.13.43-3.18v-8.21c0-1.51-.08-2-.32-2.39a1.6,1.6,0,0,0-1.21-.6V104c.93.05,1.74.08,2.58.08,1.71,0,2.12-.08,3.65-.08a12.11,12.11,0,0,1,2.72.24,3.77,3.77,0,0,1,3.17,3.8,4.28,4.28,0,0,1-3.48,4.34l4.06,4.68c1.17,1.32,2,2.22,3,2.27v.41a20.51,20.51,0,0,1-2.58.09"/><path class="cls-1" d="M222.18,109.6a17.44,17.44,0,0,1-.64-2.14l-2,5.34h3.72Zm4.8,10.05c-.72,0-2.48,0-3.17.1v-.43a1.69,1.69,0,0,0,1.12-.29.67.67,0,0,0,.21-.52,4.67,4.67,0,0,0-.36-1.36l-1.14-3.3h-4.47L218,117.17a4.86,4.86,0,0,0-.39,1.36.58.58,0,0,0,.2.5,1.68,1.68,0,0,0,1.09.29v.43c-.83,0-1.4-.1-2.26-.1s-1.46,0-2.22.1v-.43a1.39,1.39,0,0,0,1.17-.69,26.1,26.1,0,0,0,1.16-2.6l5-12,1.74-.31,4.3,12.13c.6,1.65,1,2.68,1.12,2.84a1.27,1.27,0,0,0,1.12.67v.43c-.69,0-2.29-.1-3-.1"/><path class="cls-1" d="M238,101l-5.16,1.82-.28-.43,3.34-3.27.17-.05,2.05,1.58ZM236.84,105c-.41.45-.43,1.12-.43,3.17v8.22c0,1.5.07,2,.31,2.38a1.57,1.57,0,0,0,1.22.6v.43c-.93,0-2.39-.1-3.23-.1s-2.26,0-3.19.1v-.43a1.59,1.59,0,0,0,1.16-.52c.41-.46.43-1.13.43-3.18v-8.21c0-1.51-.07-2-.31-2.39a1.6,1.6,0,0,0-1.21-.6V104c.93.05,2.38.1,3.22.1s2.27,0,3.2-.1v.43a1.6,1.6,0,0,0-1.17.53"/><path class="cls-1" d="M244.5,119.85a13.59,13.59,0,0,1-3.77-.51V119c0-1.12,0-1.91-.1-2.6h.5a2.49,2.49,0,0,0,.84,1.72,3.88,3.88,0,0,0,2.41.64c3.08,0,3.13-2,3.13-2.5,0-1.55-1-2.13-2.32-2.94l-1.33-.83c-1.72-1.08-2.84-2.13-2.84-4.4,0-1.19.57-4.17,5.53-4.17a24.29,24.29,0,0,1,3.68.26,10.69,10.69,0,0,0-.07,1.29,17,17,0,0,0,.05,1.72h-.5a2.17,2.17,0,0,0-.65-1.41,3.54,3.54,0,0,0-2.43-.77c-2.46,0-2.75,1.41-2.75,2.22,0,1.24.72,1.84,2,2.61l1.52.9c1.94,1.15,3.11,2.18,3.11,4.59,0,3.2-2.53,4.56-6,4.56"/><path class="cls-1" d="M261.38,104.93c-3.25,0-4.42,3.1-4.42,6.89,0,4,1.36,7.07,4.39,7.07,3.25,0,4.42-3.1,4.42-6.9,0-4-1.36-7.06-4.39-7.06m-.14,15c-4.95,0-7.86-3-7.86-7.8,0-5,3.15-8.26,8.12-8.26s7.85,3,7.85,7.8c0,5-3.15,8.26-8.11,8.26"/></g></svg>