<svg xmlns="http://www.w3.org/2000/svg" viewBox="0 0 69.65 69.65"><defs><style>.cls-1{fill:#033ad3;}</style></defs><g id="Capa_6" data-name="Capa 6"><path class="cls-1" d="M52.42,69.65H17.23A17.25,17.25,0,0,1,0,52.42V17.23A17.25,17.25,0,0,1,17.23,0H52.42A17.25,17.25,0,0,1,69.65,17.23V52.42A17.25,17.25,0,0,1,52.42,69.65ZM17.23,4.86A12.39,12.39,0,0,0,4.86,17.23V52.42A12.39,12.39,0,0,0,17.23,64.79H52.42A12.39,12.39,0,0,0,64.79,52.42V17.23A12.39,12.39,0,0,0,52.42,4.86Z"/><path class="cls-1" d="M34.82,53.45A18.63,18.63,0,1,1,53.45,34.82,18.64,18.64,0,0,1,34.82,53.45Zm0-32.39A13.77,13.77,0,1,0,48.59,34.82,13.77,13.77,0,0,0,34.82,21.06Z"/><path class="cls-1" d="M54.87,10.32a4.61,4.61,0,1,1-4.74,4.54A4.65,4.65,0,0,1,54.87,10.32Z"/></g></svg>