<svg xmlns="http://www.w3.org/2000/svg" viewBox="0 0 341.51 84.37"><defs><style>.cls-1{fill:#033ad3;}</style></defs><g id="Capa_6" data-name="Capa 6"><path class="cls-1" d="M2.28,25.85A8.61,8.61,0,0,1,0,19.56a10.13,10.13,0,0,1,1.16-4.85,8.86,8.86,0,0,1,3.17-3.42A8.38,8.38,0,0,1,8.83,10c4.19,0,6.27,2.12,6.27,6.35a7.82,7.82,0,0,1-.26,2.09l-.44.44H4.73A6.26,6.26,0,0,0,6,23.09a4.39,4.39,0,0,0,3.49,1.43A11.05,11.05,0,0,0,14,23.4l.26.15.6,1.83a17.79,17.79,0,0,1-3.2,1.9,7.41,7.41,0,0,1-3.15.86A8.29,8.29,0,0,1,2.28,25.85Zm7.56-9.28a.87.87,0,0,0,.58-.18,1.14,1.14,0,0,0,.13-.68c0-1.84-.78-2.76-2.35-2.76a3.06,3.06,0,0,0-2.37,1,4.9,4.9,0,0,0-1.1,2.91Z"/><path class="cls-1" d="M19.54,32.21c.05-1.12.14-3.35.25-6.7s.16-5.79.16-7.33-.05-4-.16-7.41-.2-5.62-.25-6.74l8.07-.41.15.3L27.49,6l-3.88.79V29.52l4,.79.15.33-.27,2Z"/><path class="cls-1" d="M40.17,27.42A3,3,0,0,1,39,25.27l-.3-.11a17.66,17.66,0,0,1-2.31,2,3.43,3.43,0,0,1-1.8.8A4.8,4.8,0,0,1,31,26.45a5.44,5.44,0,0,1-1.46-3.87,3.36,3.36,0,0,1,.6-2,2.78,2.78,0,0,1,1.57-1.1l7.2-1.68,0-.89a3.46,3.46,0,0,0-.86-2.5,3.1,3.1,0,0,0-2.35-.9,5.58,5.58,0,0,0-2.19.51,10.45,10.45,0,0,0-2.18,1.25L31,15.12l-.63-2.24a40.83,40.83,0,0,1,3.92-1.94A8.76,8.76,0,0,1,37.2,10a6.78,6.78,0,0,1,4.65,1.4,4.73,4.73,0,0,1,1.55,3.68c0,.54-.12,1.66-.34,3.36-.27,2.41-.41,3.85-.41,4.33A1.61,1.61,0,0,0,43,23.93a1.28,1.28,0,0,0,1,.41,2.44,2.44,0,0,0,.95-.21,4.08,4.08,0,0,0,.84-.43l.56.79a12.53,12.53,0,0,1-1.66,2.29,4.2,4.2,0,0,1-1.92,1.36A4.19,4.19,0,0,1,40.17,27.42Zm-2.84-3.27a5.19,5.19,0,0,0,1.36-.78l.11-3.55-4,1.12a1.12,1.12,0,0,0-.89,1.23,2.4,2.4,0,0,0,.57,1.63,2,2,0,0,0,1.52.65A3.72,3.72,0,0,0,37.33,24.15Z"/><path class="cls-1" d="M59.37,25.46l-.22-.08C56.73,27.12,55.28,28,54.78,28a6.5,6.5,0,0,1-5.17-2.2,8.78,8.78,0,0,1-1.92-6,10.2,10.2,0,0,1,1.21-5,8.83,8.83,0,0,1,3.36-3.47,9.35,9.35,0,0,1,4.83-1.25,16.82,16.82,0,0,1,1.94.11V5.41a2.74,2.74,0,0,0-.35-1.62,1.44,1.44,0,0,0-1.21-.47,3.28,3.28,0,0,0-.56,0,1.42,1.42,0,0,0-.34.07l.22-2.2c1.47-.17,3-.4,4.45-.67S63.7.1,64.15,0l.33.63c-.32.48-.59,2.9-.82,7.28s-.33,9.35-.33,14.9a1.81,1.81,0,0,0,.31,1.12,1.06,1.06,0,0,0,.88.41,2,2,0,0,0,.78-.15,4,4,0,0,0,.62-.3l.32-.19.6.79c-.08.14-.29.47-.64,1A11.36,11.36,0,0,1,64.84,27a4.56,4.56,0,0,1-1.74,1.12C60.89,28.14,59.64,27.25,59.37,25.46Zm-2-1.18a5.9,5.9,0,0,0,1.08-.58,3.79,3.79,0,0,0,.54-.41V13.85l-.44-.19a8.23,8.23,0,0,0-1-.3,5.58,5.58,0,0,0-1.35-.15,3.31,3.31,0,0,0-2.83,1.37,6.31,6.31,0,0,0-1,3.86,8.48,8.48,0,0,0,1,4.44,3,3,0,0,0,4,1.4Z"/><path class="cls-1" d="M67.51,32.36l.26-2.05,3.88-.79V6.76l-4-.79-.15-.33.26-2,8,.41q-.07,1.68-.24,6.68c-.12,3.34-.17,5.79-.17,7.36s0,4,.17,7.39.19,5.63.24,6.75l-8.06.41Z"/><path class="cls-1" d="M12.91,52.85c-.26,1.3-.48,2.83-.67,4.61l-.25.27c-3.16-.12-5.74-.17-7.74-.17A36.25,36.25,0,0,0,0,57.81l.17-1.67a2.22,2.22,0,0,0,1.42-.6A2.42,2.42,0,0,0,2,54l0-9.48a2.57,2.57,0,0,0-.15-1.09c-.1-.17-.31-.26-.65-.26s-.47,0-.77,0L.27,43l.2-1.49H1c1.18.05,2.51.07,4,.07a61.56,61.56,0,0,0,7.56-.3l.2.28q-.2.91-.36,2.19t-.21,2.31L10,46.21l.05-1a1.94,1.94,0,0,0-.21-1.05,1.24,1.24,0,0,0-.85-.43,14.52,14.52,0,0,0-2.12-.11,5.83,5.83,0,0,0-.9.05.42.42,0,0,0-.33.23,1.53,1.53,0,0,0-.12.57l-.17,3.9,2.34,0c.35,0,.78,0,1.3-.06s1.05-.1,1.59-.17l.19.23-.34,2.11a3.34,3.34,0,0,1-.5,0c-1.16,0-2.08-.05-2.76-.05a15.14,15.14,0,0,0-1.92.15l0,3.56a3.26,3.26,0,0,0,.11,1,.66.66,0,0,0,.43.4,3.79,3.79,0,0,0,1.08.1,10.39,10.39,0,0,0,2.38-.19,1.55,1.55,0,0,0,1-.76,5.54,5.54,0,0,0,.5-1.89l2-.17Z"/><path class="cls-1" d="M16.61,57.7a6.45,6.45,0,0,1-1.16-.31,4.18,4.18,0,0,1-.52-.21l-.15-.25c.07-.44.13-1,.19-1.56s.1-1.17.13-1.72l1.37-.13Q16.5,56,18.69,56a2.17,2.17,0,0,0,1.19-.31.91.91,0,0,0,.47-.79,1.19,1.19,0,0,0-.49-.91,11.61,11.61,0,0,0-2-1.13,6.37,6.37,0,0,1-2.17-1.48A2.7,2.7,0,0,1,15,49.59a3.13,3.13,0,0,1,.65-2,4.14,4.14,0,0,1,1.81-1.35,7,7,0,0,1,2.67-.48,8.11,8.11,0,0,1,1.34.1,6,6,0,0,1,1,.21l.46.13.13.25c0,.19-.11.6-.22,1.23s-.19,1.3-.26,2l-1.39.1,0-.45a1.73,1.73,0,0,0-.43-1.28,1.85,1.85,0,0,0-1.32-.41,1.92,1.92,0,0,0-1.09.31.93.93,0,0,0-.45.79,1.21,1.21,0,0,0,.4.87,5,5,0,0,0,1.32.84,16,16,0,0,1,2.25,1.25A3.34,3.34,0,0,1,23,52.82a2.64,2.64,0,0,1,.32,1.33A2.9,2.9,0,0,1,22.64,56a4.47,4.47,0,0,1-1.84,1.35,6.49,6.49,0,0,1-2.56.49A7.47,7.47,0,0,1,16.61,57.7Z"/><path class="cls-1" d="M26.4,56.32a5.78,5.78,0,0,1-1.47-4.19,6.88,6.88,0,0,1,.77-3.28,5.67,5.67,0,0,1,2.16-2.26,6.14,6.14,0,0,1,3.12-.8,9.17,9.17,0,0,1,1.53.11,11.09,11.09,0,0,1,1.12.22l.51.16.1.23c0,.1-.06.33-.14.68s-.15.82-.23,1.38-.14,1.16-.18,1.77l-1.59.1v-.82a1.92,1.92,0,0,0-.41-1.31,1.46,1.46,0,0,0-1.16-.46,2.06,2.06,0,0,0-1.78.86,4.24,4.24,0,0,0-.61,2.45,5.63,5.63,0,0,0,.73,3.14,2.3,2.3,0,0,0,2,1.09,4.4,4.4,0,0,0,1.2-.16,6.27,6.27,0,0,0,1-.34l.49-.22.17.07.4,1.27a9.81,9.81,0,0,1-.8.59,10.54,10.54,0,0,1-1.44.84,3.29,3.29,0,0,1-1.49.41A5.3,5.3,0,0,1,26.4,56.32Z"/><path class="cls-1" d="M36.8,48.24a.73.73,0,0,0-.64-.29,2.33,2.33,0,0,0-.4,0,1.24,1.24,0,0,0-.23,0l.15-1.44c.86-.11,1.76-.26,2.69-.43l1.82-.36.22.39a11.12,11.12,0,0,0-.47,2.73c-.14,1.4-.2,2.85-.2,4.34a2.52,2.52,0,0,0,.38,1.52,1.42,1.42,0,0,0,1.19.5,2.18,2.18,0,0,0,1-.24,9.63,9.63,0,0,0,1.18-.71V49.19a1.53,1.53,0,0,0-.21-.94A1.14,1.14,0,0,0,42.4,48L42,48l.2-1.42c.9-.11,1.82-.25,2.78-.42l1.85-.32.22.39a11.19,11.19,0,0,0-.47,2.91c-.13,1.57-.2,3.28-.2,5.16a1,1,0,0,0,.25.74.82.82,0,0,0,.65.28,1.61,1.61,0,0,0,.53-.1c.18-.07.32-.14.44-.2l.22-.13.38.5c-.07.12-.24.35-.5.71a8.59,8.59,0,0,1-1,1.08,2.4,2.4,0,0,1-1.1.67c-1.51,0-2.35-.63-2.54-1.91l-.19-.1a19.57,19.57,0,0,1-1.73,1.43,2.7,2.7,0,0,1-1.06.56,4.56,4.56,0,0,1-2.89-.8,2.79,2.79,0,0,1-1-2.31L37,49.17A1.6,1.6,0,0,0,36.8,48.24Z"/><path class="cls-1" d="M51,56.32a5.68,5.68,0,0,1-1.51-4.19,6.79,6.79,0,0,1,.77-3.23,6,6,0,0,1,2.12-2.28,5.52,5.52,0,0,1,3-.83c2.78,0,4.18,1.41,4.18,4.23a5.19,5.19,0,0,1-.18,1.39l-.3.3H52.63a4.19,4.19,0,0,0,.86,2.77,2.9,2.9,0,0,0,2.32,1,7.41,7.41,0,0,0,3-.75l.17.1.4,1.22a12.11,12.11,0,0,1-2.13,1.27,5.11,5.11,0,0,1-2.1.57A5.5,5.5,0,0,1,51,56.32Zm5-6.18a.61.61,0,0,0,.38-.12.75.75,0,0,0,.09-.45c0-1.23-.52-1.84-1.57-1.84a2,2,0,0,0-1.58.67,3.31,3.31,0,0,0-.73,1.94Z"/><path class="cls-1" d="M60.92,56.26a1.78,1.78,0,0,0,.83-.36,1,1,0,0,0,.33-.6,4.92,4.92,0,0,0,.08-1.08V42.68a3,3,0,0,0-.11-1,.63.63,0,0,0-.44-.38,3.76,3.76,0,0,0-1.07,0l-.1-.1.15-1.32c2-.27,3.69-.53,5-.8l.17.48a22.6,22.6,0,0,0-.56,5.07Q65,48.9,65,54.94a1.63,1.63,0,0,0,.17.87.65.65,0,0,0,.58.25l.82-.05.07.15-.27,1.47-.82,0c-.93,0-1.59,0-2,0a26.07,26.07,0,0,0-2.84.22Z"/><path class="cls-1" d="M74.79,57.37A2,2,0,0,1,74,55.94l-.2-.08a11.47,11.47,0,0,1-1.54,1.36,2.28,2.28,0,0,1-1.2.53,3.18,3.18,0,0,1-2.43-1,3.61,3.61,0,0,1-1-2.57,2.25,2.25,0,0,1,.39-1.33,1.86,1.86,0,0,1,1-.74L73.93,51l0-.59a2.28,2.28,0,0,0-.58-1.67,2,2,0,0,0-1.56-.6,3.63,3.63,0,0,0-1.46.34,7.24,7.24,0,0,0-1.46.83l-.22-.1-.42-1.49a28.84,28.84,0,0,1,2.61-1.3,6,6,0,0,1,1.94-.59,4.5,4.5,0,0,1,3.1.93,3.14,3.14,0,0,1,1,2.45,21,21,0,0,1-.22,2.24c-.18,1.61-.28,2.57-.28,2.89a1.08,1.08,0,0,0,.25.74.82.82,0,0,0,.65.28,1.77,1.77,0,0,0,.64-.14,2.78,2.78,0,0,0,.55-.29l.38.53A8.73,8.73,0,0,1,77.8,57a2.88,2.88,0,0,1-1.28.9A2.8,2.8,0,0,1,74.79,57.37ZM72.9,55.19a3.26,3.26,0,0,0,.91-.52l.07-2.36-2.66.74a.76.76,0,0,0-.6.82A1.6,1.6,0,0,0,71,55a1.27,1.27,0,0,0,1,.43A2.59,2.59,0,0,0,72.9,55.19Z"/><path class="cls-1" d="M92.05,56.06,91.9,56A9.81,9.81,0,0,1,89,57.75a4.33,4.33,0,0,1-3.45-1.46,5.82,5.82,0,0,1-1.28-4A6.84,6.84,0,0,1,85.07,49a5.86,5.86,0,0,1,2.24-2.31,6.21,6.21,0,0,1,3.22-.83,11.91,11.91,0,0,1,1.29.07V42.7a1.92,1.92,0,0,0-.23-1.08,1,1,0,0,0-.81-.31l-.37,0-.23.05.15-1.47c1-.11,2-.26,3-.44s1.64-.31,1.94-.38l.23.43c-.22.31-.4,1.93-.55,4.85s-.23,6.23-.23,9.93a1.13,1.13,0,0,0,.22.74.67.67,0,0,0,.58.28,1.5,1.5,0,0,0,.52-.1,3.16,3.16,0,0,0,.41-.2l.22-.13.39.53a8.09,8.09,0,0,1-1.33,1.69,3,3,0,0,1-1.16.74C93.06,57.85,92.23,57.26,92.05,56.06Zm-1.31-.78a4,4,0,0,0,.72-.39,3.14,3.14,0,0,0,.36-.27v-6.3l-.3-.12a5,5,0,0,0-.64-.2,4.13,4.13,0,0,0-.9-.1,2.21,2.21,0,0,0-1.89.91,4.25,4.25,0,0,0-.67,2.57,5.73,5.73,0,0,0,.68,3,2.07,2.07,0,0,0,1.81,1.12A2.21,2.21,0,0,0,90.74,55.28Z"/><path class="cls-1" d="M99.25,56.32a5.68,5.68,0,0,1-1.51-4.19,6.79,6.79,0,0,1,.77-3.23,6,6,0,0,1,2.12-2.28,5.49,5.49,0,0,1,3-.83q4.19,0,4.19,4.23a5.19,5.19,0,0,1-.18,1.39l-.3.3h-6.44a4.13,4.13,0,0,0,.86,2.77,2.9,2.9,0,0,0,2.32,1,7.36,7.36,0,0,0,3-.75l.18.1.4,1.22a12.11,12.11,0,0,1-2.13,1.27,5.11,5.11,0,0,1-2.1.57A5.5,5.5,0,0,1,99.25,56.32Zm5-6.18a.64.64,0,0,0,.38-.12.75.75,0,0,0,.09-.45c0-1.23-.52-1.84-1.57-1.84a2,2,0,0,0-1.58.67,3.24,3.24,0,0,0-.73,1.94Z"/><path class="cls-1" d="M121.41,57.56l.12-1.47a12,12,0,0,0,1.23-.16,1.13,1.13,0,0,0,.54-.25.7.7,0,0,0,.15-.49,4,4,0,0,0-.13-.87l-.52-1.92c-.86,0-1.62,0-2.29,0-.3,0-.92,0-1.87.12l-.52.05-.62,1.92a3.38,3.38,0,0,0-.15.77.7.7,0,0,0,.26.62,1.82,1.82,0,0,0,.91.17h1.07l.13.18-.18,1.51-1.49-.08c-.76,0-1.48-.06-2.14-.06s-1.33,0-1.88,0-.93,0-1.11.05L113.1,56a1.66,1.66,0,0,0,.94-.47,3.53,3.53,0,0,0,.7-1.22l4.45-12.61,3.81-.4.27.12c.25,1,.77,2.88,1.56,5.81s1.46,5.28,2,7.06a2.78,2.78,0,0,0,.69,1.27,2.27,2.27,0,0,0,1.27.44l.1.18-.17,1.44c-.22,0-.62,0-1.22-.05s-1.2,0-1.82,0c-.88,0-1.74,0-2.57.08l-1.61.11Zm-.9-7.12,1.84-.07-1.47-5.56h-.32l-1.84,5.63Z"/><path class="cls-1" d="M130.45,55.74a2.38,2.38,0,0,0,.26-1.32v-5a2.14,2.14,0,0,0-.22-1.16,1,1,0,0,0-.85-.31l-.47,0-.12-.17.15-1.24c.87-.15,1.77-.32,2.69-.5l1.78-.35.23.23c0,.15-.08.46-.14.94a13.88,13.88,0,0,0-.11,1.39l.15.1a6.47,6.47,0,0,1,1.7-1.81,3.18,3.18,0,0,1,1.78-.65,4.45,4.45,0,0,1,.57,0,2.17,2.17,0,0,1,.3,0l.1.2c-.05.29-.13.9-.25,1.83s-.2,1.83-.24,2.68l-1.6.1a5.84,5.84,0,0,0-.13-1.58.55.55,0,0,0-.57-.39,1.54,1.54,0,0,0-.84.3,3.62,3.62,0,0,0-.85.82c0,.47-.05,1.22-.11,2.28s-.09,1.89-.11,2.52a1.43,1.43,0,0,0,.21.9.94.94,0,0,0,.76.25q.38,0,.75,0a2.78,2.78,0,0,0,.49,0l.08.15-.27,1.65-1.29-.07c-.62,0-1.26,0-1.93,0s-1.26,0-1.89,0l-1.22.07.2-1.52A1.34,1.34,0,0,0,130.45,55.74Z"/><path class="cls-1" d="M144.77,61.89a5.08,5.08,0,0,0,1.13-.18.79.79,0,0,0,.5-.42,2.59,2.59,0,0,0,.16-.95l.1-4.25a11,11,0,0,1-2.83,1.72,4.32,4.32,0,0,1-3.45-1.49,5.87,5.87,0,0,1-1.28-4,6.84,6.84,0,0,1,.81-3.33,5.86,5.86,0,0,1,2.24-2.31,6.21,6.21,0,0,1,3.22-.83,20.41,20.41,0,0,1,2.74.24l1.08-.42.56-.22.27.27a21.64,21.64,0,0,0-.38,4.43q-.13,3.9-.14,9.93a6.9,6.9,0,0,0,.06,1.07.62.62,0,0,0,.71.6l.43,0h.22l.05.08-.18,1.49h-3.11c-.51,0-1.1,0-1.76,0s-1.1,0-1.3.06Zm.81-6.6a3.93,3.93,0,0,0,.72-.4,3.14,3.14,0,0,0,.36-.27v-6.3l-.29-.12a5.78,5.78,0,0,0-.65-.2,4.13,4.13,0,0,0-.9-.1,2.21,2.21,0,0,0-1.89.91,4.25,4.25,0,0,0-.67,2.57,5.76,5.76,0,0,0,.68,3,2,2,0,0,0,2.64.92Z"/><path class="cls-1" d="M153.11,48.24a.74.74,0,0,0-.65-.29,2.41,2.41,0,0,0-.4,0l-.22,0,.15-1.44c.86-.11,1.76-.26,2.68-.43l1.82-.36.23.39a11,11,0,0,0-.48,2.73c-.13,1.4-.2,2.85-.2,4.34a2.45,2.45,0,0,0,.39,1.52,1.41,1.41,0,0,0,1.18.5,2.25,2.25,0,0,0,1-.24,10.45,10.45,0,0,0,1.18-.71V49.19a1.53,1.53,0,0,0-.21-.94,1.15,1.15,0,0,0-.86-.27l-.45,0,.2-1.42c.89-.11,1.82-.25,2.77-.42l1.86-.32.22.39a11.19,11.19,0,0,0-.47,2.91c-.14,1.57-.2,3.28-.2,5.16a1,1,0,0,0,.25.74.8.8,0,0,0,.64.28,1.66,1.66,0,0,0,.54-.1l.43-.2.23-.13.37.5c-.07.12-.23.35-.5.71a7.87,7.87,0,0,1-1,1.08,2.38,2.38,0,0,1-1.09.67c-1.51,0-2.36-.63-2.54-1.91l-.2-.1a17,17,0,0,1-1.73,1.43,2.62,2.62,0,0,1-1,.56,4.52,4.52,0,0,1-2.89-.8,2.77,2.77,0,0,1-1-2.31l.18-5.55A1.69,1.69,0,0,0,153.11,48.24Z"/><path class="cls-1" d="M166,56.26a1.81,1.81,0,0,0,1.06-.48,1.53,1.53,0,0,0,.34-1.06V49.34a1.89,1.89,0,0,0-.23-1.09,1,1,0,0,0-.82-.3L166,48l-.22,0,.15-1.41c.93-.13,1.87-.29,2.84-.46l1.86-.36.23.39a10.66,10.66,0,0,0-.44,3c-.11,1.64-.16,3.56-.16,5.76a1.62,1.62,0,0,0,.17.85.71.71,0,0,0,.6.25,3,3,0,0,0,.43,0l.29,0,.08.12-.25,1.52c-.19,0-.55,0-1.09-.05s-1.09,0-1.65,0a14.38,14.38,0,0,0-1.75.11c-.66.07-1.09.13-1.29.16Zm1.35-13.09a1.74,1.74,0,0,1-.45-1.27,2,2,0,0,1,.53-1.44,1.94,1.94,0,0,1,1.43-.55,1.64,1.64,0,0,1,1.25.49,1.8,1.8,0,0,1,.45,1.28A2,2,0,0,1,170,43.1a1.89,1.89,0,0,1-1.4.55A1.65,1.65,0,0,1,167.37,43.17Z"/><path class="cls-1" d="M175.08,57.12a3,3,0,0,1-.82-2.33V49.25a1.49,1.49,0,0,0-.27-1.06,1.7,1.7,0,0,0-1.08-.29l-.24-.17.17-1.22a16.56,16.56,0,0,0,1.87-1c.61-.38,1.12-.73,1.53-1l.76-.57.69.35c0,.1-.05.34-.11.72s-.11.85-.16,1.42l2.93-.08.1.13-.24,1.67L177.27,48q-.15,2.16-.15,5.43a2.51,2.51,0,0,0,.37,1.54,1.48,1.48,0,0,0,1.22.47,2.94,2.94,0,0,0,.91-.15l.59-.2.32.8c-.1.1-.34.31-.71.62a12.58,12.58,0,0,1-1.2.91,2,2,0,0,1-1,.43A3.82,3.82,0,0,1,175.08,57.12Z"/><path class="cls-1" d="M183.08,56.32a5.68,5.68,0,0,1-1.51-4.19,6.79,6.79,0,0,1,.77-3.23,6,6,0,0,1,2.12-2.28,5.49,5.49,0,0,1,3-.83q4.19,0,4.18,4.23a5.19,5.19,0,0,1-.17,1.39l-.3.3h-6.44a4.13,4.13,0,0,0,.86,2.77,2.9,2.9,0,0,0,2.32,1,7.36,7.36,0,0,0,3-.75l.18.1.4,1.22a12.11,12.11,0,0,1-2.13,1.27,5.11,5.11,0,0,1-2.1.57A5.5,5.5,0,0,1,183.08,56.32Zm5-6.18a.64.64,0,0,0,.38-.12.75.75,0,0,0,.09-.45c0-1.23-.52-1.84-1.57-1.84a2,2,0,0,0-1.58.67,3.24,3.24,0,0,0-.73,1.94Z"/><path class="cls-1" d="M194.66,56.32a5.78,5.78,0,0,1-1.47-4.19,6.88,6.88,0,0,1,.77-3.28,5.67,5.67,0,0,1,2.16-2.26,6.14,6.14,0,0,1,3.12-.8,9.17,9.17,0,0,1,1.53.11,11.09,11.09,0,0,1,1.12.22l.51.16.1.23c0,.1-.06.33-.14.68s-.15.82-.23,1.38-.14,1.16-.18,1.77l-1.59.1v-.82a1.92,1.92,0,0,0-.41-1.31,1.46,1.46,0,0,0-1.16-.46,2.06,2.06,0,0,0-1.78.86,4.24,4.24,0,0,0-.61,2.45,5.72,5.72,0,0,0,.72,3.14,2.31,2.31,0,0,0,2,1.09,4.4,4.4,0,0,0,1.2-.16,6.27,6.27,0,0,0,1-.34l.49-.22.17.07.4,1.27c-.12.1-.38.3-.8.59a10.54,10.54,0,0,1-1.44.84,3.29,3.29,0,0,1-1.49.41A5.3,5.3,0,0,1,194.66,56.32Z"/><path class="cls-1" d="M205.93,57.12a3,3,0,0,1-.82-2.33V49.25a1.49,1.49,0,0,0-.27-1.06,1.67,1.67,0,0,0-1.07-.29l-.25-.17.17-1.22a15.73,15.73,0,0,0,1.87-1c.61-.38,1.12-.73,1.53-1l.76-.57.7.35q0,.15-.12.72c-.05.38-.11.85-.16,1.42l2.94-.08.1.13-.25,1.67L208.12,48q-.15,2.16-.15,5.43a2.5,2.5,0,0,0,.38,1.54,1.45,1.45,0,0,0,1.21.47,2.89,2.89,0,0,0,.91-.15c.31-.1.51-.16.59-.2l.32.8c-.1.1-.33.31-.71.62a13.81,13.81,0,0,1-1.19.91,2,2,0,0,1-1,.43A3.82,3.82,0,0,1,205.93,57.12Z"/><path class="cls-1" d="M213.45,48.24a.74.74,0,0,0-.65-.29,2.41,2.41,0,0,0-.4,0l-.22,0,.15-1.44c.86-.11,1.76-.26,2.68-.43l1.82-.36.23.39a11,11,0,0,0-.48,2.73c-.13,1.4-.2,2.85-.2,4.34a2.45,2.45,0,0,0,.39,1.52,1.41,1.41,0,0,0,1.18.5,2.18,2.18,0,0,0,1-.24,9.64,9.64,0,0,0,1.19-.71V49.19a1.45,1.45,0,0,0-.22-.94,1.11,1.11,0,0,0-.85-.27l-.45,0,.2-1.42c.89-.11,1.82-.25,2.77-.42l1.86-.32.22.39a11.19,11.19,0,0,0-.47,2.91c-.14,1.57-.2,3.28-.2,5.16a1,1,0,0,0,.25.74.8.8,0,0,0,.64.28,1.66,1.66,0,0,0,.54-.1l.43-.2.23-.13.37.5c-.07.12-.23.35-.5.71a7.87,7.87,0,0,1-1,1.08,2.38,2.38,0,0,1-1.09.67c-1.51,0-2.36-.63-2.54-1.91l-.2-.1a18.22,18.22,0,0,1-1.73,1.43,2.62,2.62,0,0,1-1,.56,4.52,4.52,0,0,1-2.89-.8,2.77,2.77,0,0,1-1-2.31l.18-5.55A1.69,1.69,0,0,0,213.45,48.24Z"/><path class="cls-1" d="M227.59,55.74a2.29,2.29,0,0,0,.26-1.32v-5a2.14,2.14,0,0,0-.22-1.16,1,1,0,0,0-.85-.31l-.47,0-.12-.17.15-1.24c.88-.15,1.77-.32,2.7-.5l1.78-.35L231,46c0,.15-.08.46-.14.94s-.09,1-.11,1.39l.15.1a6.47,6.47,0,0,1,1.7-1.81,3.2,3.2,0,0,1,1.78-.65,4.51,4.51,0,0,1,.58,0,2,2,0,0,1,.29,0l.1.2q-.07.44-.24,1.83c-.12.94-.2,1.83-.25,2.68l-1.6.1a5.84,5.84,0,0,0-.13-1.58.54.54,0,0,0-.56-.39,1.54,1.54,0,0,0-.85.3,3.41,3.41,0,0,0-.84.82c0,.47-.06,1.22-.12,2.28s-.09,1.89-.11,2.52a1.43,1.43,0,0,0,.21.9,1,1,0,0,0,.76.25q.38,0,.75,0a3.08,3.08,0,0,0,.5,0L233,56l-.27,1.65-1.28-.07c-.63,0-1.27,0-1.93,0l-1.9,0-1.21.07.2-1.52A1.34,1.34,0,0,0,227.59,55.74Z"/><path class="cls-1" d="M243.37,57.37a2,2,0,0,1-.76-1.43l-.2-.08a11.47,11.47,0,0,1-1.54,1.36,2.28,2.28,0,0,1-1.2.53,3.18,3.18,0,0,1-2.43-1,3.61,3.61,0,0,1-1-2.57,2.25,2.25,0,0,1,.39-1.33,1.86,1.86,0,0,1,1.05-.74l4.8-1.12,0-.59A2.32,2.32,0,0,0,242,48.7a2,2,0,0,0-1.56-.6,3.63,3.63,0,0,0-1.46.34,7.24,7.24,0,0,0-1.46.83l-.22-.1-.42-1.49a28.84,28.84,0,0,1,2.61-1.3,6,6,0,0,1,1.94-.59,4.5,4.5,0,0,1,3.1.93,3.14,3.14,0,0,1,1,2.45,21,21,0,0,1-.22,2.24C245.11,53,245,54,245,54.3a1.08,1.08,0,0,0,.25.74.82.82,0,0,0,.65.28,1.67,1.67,0,0,0,.63-.14,2.63,2.63,0,0,0,.56-.29l.38.53A8.73,8.73,0,0,1,246.38,57a2.88,2.88,0,0,1-1.28.9A2.8,2.8,0,0,1,243.37,57.37Zm-1.89-2.18a3.26,3.26,0,0,0,.91-.52l.07-2.36-2.66.74a.76.76,0,0,0-.6.82,1.6,1.6,0,0,0,.39,1.09,1.27,1.27,0,0,0,1,.43A2.59,2.59,0,0,0,241.48,55.19Z"/><path class="cls-1" d="M252.81,63.17a5.57,5.57,0,0,1-.81-.87,1.5,1.5,0,0,1-.36-.74l.18-.3a5.41,5.41,0,0,0,2.84-1,7.23,7.23,0,0,0,2.08-2.48,1.45,1.45,0,0,1-.11-.29,1.31,1.31,0,0,0-.09-.28c-.21-.58-.69-1.91-1.43-4s-1.3-3.6-1.7-4.54a1.84,1.84,0,0,0-.61-.81,1.78,1.78,0,0,0-.91-.26l0-.13.18-1.39,1.94,0c.74,0,1.56,0,2.44-.07a11.62,11.62,0,0,0,1.31-.1l.06.12-.2,1.42a2.26,2.26,0,0,0-1,.17.45.45,0,0,0-.24.43,9.07,9.07,0,0,0,.39,1.75c.25.93.52,1.84.79,2.74s.45,1.49.54,1.76h.25a53,53,0,0,0,2.26-6.25.47.47,0,0,0-.17-.4,1.05,1.05,0,0,0-.57-.12h-.8L259,47.4l.2-1.39c.17,0,.5,0,1,.05s1,0,1.64,0l2.29,0-.2,1.49a1.93,1.93,0,0,0-.8.36,2.45,2.45,0,0,0-.47.86l-3.16,7.69a21.86,21.86,0,0,1-3,5.49,3.88,3.88,0,0,1-3,1.6A1.25,1.25,0,0,1,252.81,63.17Z"/><path class="cls-1" d="M274.6,57.68q-1.23-.12-2.13-.12a18,18,0,0,0-1.84.1q-1,.09-1.32.15l.15-1.67a2.42,2.42,0,0,0,1.44-.62,2.36,2.36,0,0,0,.37-1.5V44.54a2.57,2.57,0,0,0-.14-1.07.66.66,0,0,0-.63-.27l-.52,0-.32,0-.13-.23.2-1.51,1.3,0c.63,0,1.24,0,1.84,0s1.49,0,2.29,0l1.64-.06a9.57,9.57,0,0,1,4.3.9,6.36,6.36,0,0,1,2.79,2.56,7.75,7.75,0,0,1,1,4,9.63,9.63,0,0,1-1.1,4.63,8,8,0,0,1-3.08,3.17,8.69,8.69,0,0,1-4.45,1.13Zm.31-14a.71.71,0,0,0-.18.48q-.32,6.94-.32,9.78a2.77,2.77,0,0,0,.18,1.13.92.92,0,0,0,.63.53,4.54,4.54,0,0,0,1.33.15,3.93,3.93,0,0,0,3.35-1.54,7.5,7.5,0,0,0,1.15-4.53,6.63,6.63,0,0,0-1.38-4.64,5.51,5.51,0,0,0-4.21-1.48A.91.91,0,0,0,274.91,43.69Z"/><path class="cls-1" d="M286.46,56.26a1.78,1.78,0,0,0,1.05-.48,1.49,1.49,0,0,0,.34-1.06V49.34a2,2,0,0,0-.22-1.09,1,1,0,0,0-.83-.3,2,2,0,0,0-.34,0,1.24,1.24,0,0,0-.23,0l.15-1.41c.93-.13,1.88-.29,2.84-.46l1.87-.36.22.39a11.08,11.08,0,0,0-.44,3c-.1,1.64-.16,3.56-.16,5.76a1.51,1.51,0,0,0,.18.85.67.67,0,0,0,.59.25,3.15,3.15,0,0,0,.44,0l.29,0,.07.12L292,57.63c-.18,0-.54,0-1.08-.05s-1.09,0-1.66,0a14.38,14.38,0,0,0-1.75.11c-.66.07-1.08.13-1.28.16Zm1.34-13.09a1.74,1.74,0,0,1-.45-1.27,2,2,0,0,1,.54-1.44,1.91,1.91,0,0,1,1.43-.55,1.62,1.62,0,0,1,1.24.49,1.8,1.8,0,0,1,.45,1.28,2,2,0,0,1-.53,1.42,1.91,1.91,0,0,1-1.41.55A1.65,1.65,0,0,1,287.8,43.17Z"/><path class="cls-1" d="M295.58,57.7a6.45,6.45,0,0,1-1.16-.31,3.57,3.57,0,0,1-.52-.21l-.15-.25c.06-.44.12-1,.18-1.56s.11-1.17.14-1.72l1.37-.13c0,1.68.75,2.52,2.21,2.52a2.2,2.2,0,0,0,1.2-.31.93.93,0,0,0,.47-.79,1.2,1.2,0,0,0-.5-.91,11.21,11.21,0,0,0-2-1.13,6.42,6.42,0,0,1-2.16-1.48,2.7,2.7,0,0,1-.67-1.83,3.19,3.19,0,0,1,.64-2,4.17,4.17,0,0,1,1.82-1.35,7,7,0,0,1,2.66-.48,8.23,8.23,0,0,1,1.35.1,6,6,0,0,1,1,.21l.46.13.12.25q0,.29-.21,1.23c-.11.64-.19,1.3-.26,2l-1.39.1,0-.45a1.73,1.73,0,0,0-.42-1.28,1.85,1.85,0,0,0-1.32-.41,1.89,1.89,0,0,0-1.09.31.93.93,0,0,0-.45.79,1.24,1.24,0,0,0,.39.87,5.39,5.39,0,0,0,1.32.84,16.81,16.81,0,0,1,2.26,1.25A3.44,3.44,0,0,1,302,52.82a2.64,2.64,0,0,1,.31,1.33,2.89,2.89,0,0,1-.67,1.86,4.53,4.53,0,0,1-1.84,1.35,6.49,6.49,0,0,1-2.56.49A7.47,7.47,0,0,1,295.58,57.7Z"/><path class="cls-1" d="M305.41,56.32a5.68,5.68,0,0,1-1.51-4.19,6.79,6.79,0,0,1,.77-3.23,5.89,5.89,0,0,1,2.12-2.28,5.49,5.49,0,0,1,3-.83Q314,45.79,314,50a5.63,5.63,0,0,1-.17,1.39l-.3.3H307a4.18,4.18,0,0,0,.85,2.77,2.92,2.92,0,0,0,2.33,1,7.36,7.36,0,0,0,3-.75l.18.1.39,1.22a11.66,11.66,0,0,1-2.12,1.27,5.11,5.11,0,0,1-2.11.57A5.49,5.49,0,0,1,305.41,56.32Zm5-6.18a.68.68,0,0,0,.39-.12.75.75,0,0,0,.09-.45c0-1.23-.53-1.84-1.57-1.84a2,2,0,0,0-1.58.67,3.24,3.24,0,0,0-.73,1.94Z"/><path class="cls-1" d="M323.69,55.76a1.54,1.54,0,0,0,.29-.94l.07-4.31a2.78,2.78,0,0,0-.39-1.63,1.45,1.45,0,0,0-1.22-.53,3.81,3.81,0,0,0-2.19.94c-.17,3-.25,4.86-.25,5.6a1.64,1.64,0,0,0,.16.87.64.64,0,0,0,.59.25l.67,0,.05.1-.25,1.54c-.19,0-.53,0-1-.05s-1,0-1.58,0-1.1,0-1.72.06l-1.21.08.2-1.54a1.64,1.64,0,0,0,1-.38,1.49,1.49,0,0,0,.28-1V49.49a2,2,0,0,0-.26-1.18,1.19,1.19,0,0,0-1-.31h-.32l-.1-.12.12-1.3c.95-.13,1.88-.29,2.8-.47l1.78-.35.2.25c0,.1-.08.32-.15.67a7.5,7.5,0,0,0-.12,1l.1.1A17.54,17.54,0,0,1,322,46.47a3.15,3.15,0,0,1,1.45-.68,4.09,4.09,0,0,1,2.75.84,3,3,0,0,1,1,2.37c0,.25-.07,1.12-.2,2.61-.17,1.69-.25,2.78-.25,3.26a1.74,1.74,0,0,0,.18.92.67.67,0,0,0,.59.27l.47,0,.3,0,.05.1-.22,1.52c-.2,0-.56,0-1.09-.05s-1.05,0-1.6,0c-.4,0-.91,0-1.53.08l-1.23.11.12-1.54A1.39,1.39,0,0,0,323.69,55.76Zm-5.61-12.51V43L320,40.49l.4-.1a8,8,0,0,1,1.74.44,6.77,6.77,0,0,0,1.47.4,1,1,0,0,0,.59-.31,5.56,5.56,0,0,0,.63-.66c.18-.23.3-.38.34-.45h.28l1,.9V41l-1.92,2.51-.42.1a7,7,0,0,1-1.72-.45l-.67-.22a2.88,2.88,0,0,0-.8-.18,1,1,0,0,0-.63.32,3.78,3.78,0,0,0-.62.65l-.34.45h-.25Z"/><path class="cls-1" d="M332.47,57.15a4.72,4.72,0,0,1-1.84-2,6.47,6.47,0,0,1-.65-3,6.94,6.94,0,0,1,.76-3.31,5.55,5.55,0,0,1,2.11-2.26,6.1,6.1,0,0,1,3.13-.8,4.91,4.91,0,0,1,3.81,1.53,5.87,5.87,0,0,1,1.41,4.14,7.15,7.15,0,0,1-.75,3.32,5.42,5.42,0,0,1-2.1,2.27,6,6,0,0,1-3.12.8A5.29,5.29,0,0,1,332.47,57.15Zm4.89-2a4.7,4.7,0,0,0,.56-2.53,7.65,7.65,0,0,0-.65-3.53,2,2,0,0,0-1.87-1.19,1.81,1.81,0,0,0-1.63.86,4.66,4.66,0,0,0-.56,2.52,7.59,7.59,0,0,0,.65,3.53,2,2,0,0,0,1.87,1.2A1.84,1.84,0,0,0,337.36,55.13Z"/><path class="cls-1" d="M.36,79.24a1.89,1.89,0,0,0,1.08-.44,1.61,1.61,0,0,0,.27-1.09V69.87a1.51,1.51,0,0,0-.14-.8A.61.61,0,0,0,1,68.86l-.37,0a1.55,1.55,0,0,1-.26,0l0-.07L.49,68l.84,0c.41,0,.82,0,1.23,0l1.32,0,1,0a4.51,4.51,0,0,1,3,.86,3,3,0,0,1,1,2.46,3.58,3.58,0,0,1-.61,2,4.63,4.63,0,0,1-1.59,1.52,4.1,4.1,0,0,1-2.07.58H3.07l0,1.83a9.53,9.53,0,0,0,.06,1.28.71.71,0,0,0,.21.5,1,1,0,0,0,.55.12l.61,0a2.48,2.48,0,0,0,.4,0l0,.08L4.73,80a6.78,6.78,0,0,0-.68,0L3,80q-.75,0-1.74.06a6.36,6.36,0,0,0-1,.09Zm6.41-5.58a3.14,3.14,0,0,0,.57-2,2.48,2.48,0,0,0-.85-2.1,4.25,4.25,0,0,0-2.66-.67,1.42,1.42,0,0,0-.41,0s-.08.1-.09.22c-.11,1.58-.19,3.29-.23,5.14l2,.28A2.59,2.59,0,0,0,6.77,73.66Z"/><path class="cls-1" d="M11,79.65a3.51,3.51,0,0,1-1.28-1.46,5.37,5.37,0,0,1,.12-4.56,4.28,4.28,0,0,1,1.55-1.71,4,4,0,0,1,2.21-.63,3.51,3.51,0,0,1,1.87.52,3.56,3.56,0,0,1,1.29,1.47,5,5,0,0,1,.46,2.15,5.09,5.09,0,0,1-.57,2.4,4.4,4.4,0,0,1-1.56,1.72,4,4,0,0,1-2.2.62A3.44,3.44,0,0,1,11,79.65ZM15,78.41a3.83,3.83,0,0,0,.62-2.3,5.49,5.49,0,0,0-.34-2,3.19,3.19,0,0,0-.94-1.36A2.17,2.17,0,0,0,13,72.3a2,2,0,0,0-1.66.86,3.93,3.93,0,0,0-.61,2.33,5.4,5.4,0,0,0,.33,2A3.2,3.2,0,0,0,12,78.79a2.2,2.2,0,0,0,1.38.47A1.93,1.93,0,0,0,15,78.41Z"/><path class="cls-1" d="M24.81,79a1.16,1.16,0,0,0,.24-.77l.07-3.7a2.26,2.26,0,0,0-.4-1.44,1.39,1.39,0,0,0-1.14-.5,2.66,2.66,0,0,0-1.22.31,6.87,6.87,0,0,0-1.08.66c-.11,2.58-.17,4.11-.17,4.59a1.56,1.56,0,0,0,.15.81.56.56,0,0,0,.52.24l.39,0,.27,0,0,.07-.16.81a6.07,6.07,0,0,0-.66,0l-1,0c-.33,0-.68,0-1.08,0l-.77.06.09-.76a1.35,1.35,0,0,0,.77-.34,1.08,1.08,0,0,0,.22-.76V73.64a1.46,1.46,0,0,0-.2-.88.88.88,0,0,0-.71-.25h-.21l0-.08,0-.62c.54-.08,1.07-.19,1.6-.3l1-.24.11.15a2.68,2.68,0,0,0-.11.48,5.9,5.9,0,0,0-.1.75l0,.06A7.59,7.59,0,0,1,24,71.29a2.63,2.63,0,0,1,1.87.65,2.33,2.33,0,0,1,.69,1.76c0,.12,0,.7-.11,1.72q-.15,1.93-.15,2.7a1.57,1.57,0,0,0,.15.79.53.53,0,0,0,.5.26l.39,0,.27,0,0,.07-.15.81a5.54,5.54,0,0,0-.63,0l-1,0a8,8,0,0,0-1.11.09l-.81.13.08-.76A1.56,1.56,0,0,0,24.81,79Z"/><path class="cls-1" d="M30.24,79.66a2.37,2.37,0,0,1-.52-1.74V73.33a.91.91,0,0,0-.23-.71,1.3,1.3,0,0,0-.84-.23l-.07-.11.09-.56a6.42,6.42,0,0,0,1-.64c.35-.26.63-.48.84-.67s.36-.32.42-.39l.38.15q0,.09-.06.45c0,.24-.06.55-.09.95l2.74,0,.06,0-.17,1-2.71,0c-.08,1.36-.13,2.92-.13,4.66a2.08,2.08,0,0,0,.33,1.34,1.37,1.37,0,0,0,1.13.4,2.16,2.16,0,0,0,.56-.08,2.42,2.42,0,0,0,.46-.16l.25-.1.18.48a4.58,4.58,0,0,1-.47.36,8.92,8.92,0,0,1-.79.51,1.37,1.37,0,0,1-.62.25A2.52,2.52,0,0,1,30.24,79.66Z"/><path class="cls-1" d="M35.29,79.41A1.55,1.55,0,0,0,36.1,79a1.16,1.16,0,0,0,.24-.77V73.46c0-.68-.23-1-.69-1l-.28,0-.19,0,.08-.69c.52-.07,1.06-.17,1.61-.3L38,71.29l.09.23a11.29,11.29,0,0,0-.3,2.39c-.09,1.34-.13,2.74-.13,4.21a1.57,1.57,0,0,0,.15.79.54.54,0,0,0,.5.26l.39,0,.27,0,0,.07L38.8,80a5.54,5.54,0,0,0-.63,0l-1,0A8,8,0,0,0,36,80l-.81.13Zm.9-10.6a1,1,0,0,1-.24-.67,1.09,1.09,0,0,1,1.1-1.1.82.82,0,0,1,.67.28A1,1,0,0,1,38,68a1.09,1.09,0,0,1-1.1,1.1A.83.83,0,0,1,36.19,68.81Z"/><path class="cls-1" d="M46.31,79.41a2.19,2.19,0,0,0,.68-.3.86.86,0,0,0,.29-.51,5.63,5.63,0,0,0,.07-1.07V73.46a1.79,1.79,0,0,0-.09-.66.55.55,0,0,0-.36-.28,3.36,3.36,0,0,0-.84-.07h-3c0,.62,0,1.57,0,2.84s0,2.21,0,2.83.31,1,.92,1h1.15l0,.07L45,80,44,80l-1.36,0c-.44,0-.86,0-1.28,0s-.69,0-.81,0l.09-.73a1.46,1.46,0,0,0,.67-.22.82.82,0,0,0,.31-.5,4.29,4.29,0,0,0,.08-1V73.2a.77.77,0,0,0-.27-.62,1.71,1.71,0,0,0-.9-.19l-.08-.11.13-.63,1.12-.21a6.74,6.74,0,0,1,.56-2.83,4.23,4.23,0,0,1,1.61-1.85,4.5,4.5,0,0,1,2.46-.66,5,5,0,0,1,1.19.14,7.59,7.59,0,0,1,1.29.5l0,.17c0,.07-.11.24-.23.5s-.23.56-.35.9l-.2,0a1.75,1.75,0,0,0-.4-.33,4.59,4.59,0,0,0-1-.56,2.89,2.89,0,0,0-1.25-.27,2,2,0,0,0-1.76.85,4.82,4.82,0,0,0-.61,2.61v.86c2.26,0,3.7,0,4.32,0A8.61,8.61,0,0,0,49,71.29l.09.23a11.32,11.32,0,0,0-.3,2.4c-.09,1.35-.13,2.75-.13,4.2a1.57,1.57,0,0,0,.15.8.53.53,0,0,0,.5.25l.39,0,.27,0,0,.07-.15.81a5.54,5.54,0,0,0-.63,0l-1,0A8,8,0,0,0,47,80l-.81.13Z"/><path class="cls-1" d="M52.47,79.05a4.15,4.15,0,0,1-1.07-3A5.17,5.17,0,0,1,52,73.63a4.42,4.42,0,0,1,1.55-1.71,4,4,0,0,1,2.19-.63,6.56,6.56,0,0,1,1,.08,6.37,6.37,0,0,1,.79.16,1.82,1.82,0,0,1,.39.12l.05.13c0,.06,0,.21-.1.44a9.1,9.1,0,0,0-.18.91,9.22,9.22,0,0,0-.11,1.22l-.77.06v-.58a1.43,1.43,0,0,0-1.53-1.53,2.08,2.08,0,0,0-1.75.81,3.76,3.76,0,0,0-.62,2.31A4.25,4.25,0,0,0,53.58,78a2.15,2.15,0,0,0,1.85.94,3.38,3.38,0,0,0,.94-.13c.31-.1.57-.19.78-.28a3,3,0,0,0,.39-.2l.11,0,.21.57-.57.4a7.27,7.27,0,0,1-1,.57,2.23,2.23,0,0,1-1,.28A3.69,3.69,0,0,1,52.47,79.05Z"/><path class="cls-1" d="M59.6,79.41a1.56,1.56,0,0,0,.8-.44,1.16,1.16,0,0,0,.24-.77V73.46c0-.68-.23-1-.69-1l-.28,0-.19,0,.08-.69c.52-.07,1.06-.17,1.61-.3l1.08-.24.09.23a11.29,11.29,0,0,0-.3,2.39c-.09,1.34-.13,2.74-.13,4.21a1.57,1.57,0,0,0,.15.79.54.54,0,0,0,.5.26l.4,0,.26,0,0,.07-.14.81a6,6,0,0,0-.64,0l-1,0a8,8,0,0,0-1.11.09l-.81.13Zm.89-10.6a1,1,0,0,1-.24-.67,1.1,1.1,0,0,1,.32-.78,1.06,1.06,0,0,1,.78-.32.82.82,0,0,1,.67.28,1,1,0,0,1,.24.67,1.06,1.06,0,0,1-.31.77,1.05,1.05,0,0,1-.78.33A.84.84,0,0,1,60.49,68.81Z"/><path class="cls-1" d="M69.3,78.66h-.08A9.63,9.63,0,0,1,68,79.71a1.67,1.67,0,0,1-.83.39,2.35,2.35,0,0,1-1.71-.65,2.22,2.22,0,0,1-.68-1.66,1.68,1.68,0,0,1,.27-1,1.26,1.26,0,0,1,.72-.55l3.55-1,0-.82a2.24,2.24,0,0,0-.43-1.45,1.48,1.48,0,0,0-1.21-.53,2.77,2.77,0,0,0-1.11.25,4.7,4.7,0,0,0-1.13.69l-.1-.06-.22-.8a19.61,19.61,0,0,1,1.76-.91,3.84,3.84,0,0,1,1.28-.4,2.67,2.67,0,0,1,1.9.64,2.28,2.28,0,0,1,.69,1.77c0,.27,0,.83-.13,1.68-.13,1.37-.2,2.24-.2,2.61a1,1,0,0,0,.2.64.73.73,0,0,0,.56.22,1.59,1.59,0,0,0,.62-.14,1.45,1.45,0,0,0,.5-.33l.26.3a4.5,4.5,0,0,1-.71.91,2.25,2.25,0,0,1-.91.58A1.49,1.49,0,0,1,69.3,78.66Zm-1-.08a3.41,3.41,0,0,0,.87-.65l.09-1.9-2.54.77a.73.73,0,0,0-.54.78,1.19,1.19,0,0,0,.37.9,1.28,1.28,0,0,0,.92.35A1.8,1.8,0,0,0,68.32,78.58Z"/><path class="cls-1" d="M79.6,79.1a4.13,4.13,0,0,1-1.06-3V69.87a1.62,1.62,0,0,0-.14-.8.62.62,0,0,0-.55-.21l-.38,0a1.49,1.49,0,0,1-.26,0l0-.07.13-.82.85,0c.41,0,.83,0,1.25,0s.72,0,1.15-.06.69-.08.82-.11l-.08.84a1.85,1.85,0,0,0-.92.31,1.09,1.09,0,0,0-.27.76L80,75.29a4.36,4.36,0,0,0,.8,2.83,2.8,2.8,0,0,0,2.31,1,3.17,3.17,0,0,0,2.34-.81,3.21,3.21,0,0,0,.8-2.34c0-1,0-2.13-.06-3.41s0-2.17-.05-2.68a2.08,2.08,0,0,0-.16-.83.64.64,0,0,0-.53-.18l-.47,0a2.48,2.48,0,0,1-.33,0l0-.07L84.7,68l.85,0c.41,0,.83,0,1.26,0A10.3,10.3,0,0,0,87.88,68c.38,0,.63-.08.74-.11l-.08.84a4.69,4.69,0,0,0-.83.18.61.61,0,0,0-.36.3,1.31,1.31,0,0,0-.1.59v6.27a3.81,3.81,0,0,1-1.21,3,5,5,0,0,1-3.41,1.07A4.06,4.06,0,0,1,79.6,79.1Z"/><path class="cls-1" d="M95.82,79a1.17,1.17,0,0,0,.25-.77l.07-3.7a2.33,2.33,0,0,0-.4-1.44,1.4,1.4,0,0,0-1.15-.5,2.62,2.62,0,0,0-1.21.31,7.49,7.49,0,0,0-1.09.66c-.11,2.58-.16,4.11-.16,4.59a1.56,1.56,0,0,0,.15.81.56.56,0,0,0,.52.24l.39,0,.26,0,0,.07-.17.81a5.83,5.83,0,0,0-.65,0l-1,0c-.32,0-.68,0-1.07,0l-.77.06.09-.76a1.32,1.32,0,0,0,.76-.34,1.08,1.08,0,0,0,.23-.76V73.64a1.38,1.38,0,0,0-.21-.88.86.86,0,0,0-.71-.25h-.2l-.06-.08.06-.62c.53-.08,1.06-.19,1.59-.3l1-.24.11.15c0,.08-.06.23-.11.48a4.52,4.52,0,0,0-.09.75l0,.06A7.6,7.6,0,0,1,95,71.29a2.62,2.62,0,0,1,1.86.65,2.29,2.29,0,0,1,.69,1.76c0,.12,0,.7-.11,1.72q-.15,1.93-.15,2.7a1.57,1.57,0,0,0,.15.79.55.55,0,0,0,.51.26l.39,0,.26,0,0,.07-.15.81a5.78,5.78,0,0,0-.64,0l-1,0a7.74,7.74,0,0,0-1.11.09l-.81.13.07-.76A1.56,1.56,0,0,0,95.82,79Z"/><path class="cls-1" d="M100.09,79.41a1.55,1.55,0,0,0,.81-.44,1.16,1.16,0,0,0,.24-.77V73.46c0-.68-.23-1-.69-1l-.28,0-.19,0,.08-.69c.52-.07,1.06-.17,1.61-.3l1.08-.24.09.23a11.29,11.29,0,0,0-.3,2.39c-.09,1.34-.13,2.74-.13,4.21a1.57,1.57,0,0,0,.15.79.54.54,0,0,0,.5.26l.39,0,.27,0,0,.07-.15.81a5.54,5.54,0,0,0-.63,0l-1,0a8,8,0,0,0-1.11.09l-.81.13Zm.9-10.6a1,1,0,0,1-.24-.67,1.09,1.09,0,0,1,1.1-1.1.82.82,0,0,1,.67.28,1,1,0,0,1,.24.67,1.09,1.09,0,0,1-1.1,1.1A.83.83,0,0,1,101,68.81Z"/><path class="cls-1" d="M106.8,76.75c-.55-1.75-.94-3-1.16-3.63a1.3,1.3,0,0,0-1.27-.93l0-.08.11-.61,1.55,0c.47,0,.94,0,1.38-.06l.86-.07,0,.09-.11.58a2.51,2.51,0,0,0-.87.12.36.36,0,0,0-.23.36,18.86,18.86,0,0,0,.67,2.66c.44,1.55.75,2.6.91,3.15h.08l1-2.51q.51-1.23.84-2.1a4.57,4.57,0,0,0,.34-1.1.37.37,0,0,0-.18-.35,1.34,1.34,0,0,0-.62-.1h-.71l-.08-.11.1-.58,2,0,1.53,0-.13.69a.89.89,0,0,0-.61.32,4.37,4.37,0,0,0-.58,1.08L109,80l-1,.32C107.73,79.67,107.36,78.5,106.8,76.75Z"/><path class="cls-1" d="M115.12,79.66a3.45,3.45,0,0,1-1.38-1.45,4.71,4.71,0,0,1-.49-2.16,5,5,0,0,1,.57-2.35,4.83,4.83,0,0,1,1.52-1.76,3.6,3.6,0,0,1,2-.65,2.84,2.84,0,0,1,2.07.69,2.7,2.7,0,0,1,.71,2,3.38,3.38,0,0,1-.11.91l-.25.23h-5.15a4.54,4.54,0,0,0,.72,2.79,2.44,2.44,0,0,0,2.06,1,5.49,5.49,0,0,0,2.28-.58l.11,0,.21.55a10.11,10.11,0,0,1-1.48.87,3.39,3.39,0,0,1-1.38.39A4.08,4.08,0,0,1,115.12,79.66Zm3-5.38a.74.74,0,0,0,.37-.13.57.57,0,0,0,.09-.38,1.5,1.5,0,0,0-.4-1.13,1.55,1.55,0,0,0-1.15-.4,2.1,2.1,0,0,0-1.5.6,2.74,2.74,0,0,0-.79,1.61Z"/><path class="cls-1" d="M122.85,78.91a2.57,2.57,0,0,0,.18-1.18v-4.1a1.71,1.71,0,0,0-.16-.88.6.6,0,0,0-.55-.26.94.94,0,0,0-.25,0l-.14,0-.09-.13,0-.58c.48-.08,1-.19,1.51-.31l1-.25.13.12a7,7,0,0,0-.12.77,7.59,7.59,0,0,0-.05,1.15l.07,0a5.35,5.35,0,0,1,1.32-1.43,2.28,2.28,0,0,1,1.31-.56l.41,0,.17,0,.06.08c0,.17-.08.54-.16,1.1a13.43,13.43,0,0,0-.14,1.56l-.73.06a3.23,3.23,0,0,0-.1-1,.39.39,0,0,0-.4-.25,1.5,1.5,0,0,0-.88.35,3.64,3.64,0,0,0-.86.92c0,.36,0,1-.07,1.79s-.07,1.51-.08,2a1.45,1.45,0,0,0,.19.86.92.92,0,0,0,.71.22l.48,0,.34,0,0,.08-.17.82-.75,0L124,80c-.46,0-.88,0-1.25,0s-.61,0-.71,0l.09-.75A.94.94,0,0,0,122.85,78.91Z"/><path class="cls-1" d="M130.3,80.09a4.67,4.67,0,0,1-.77-.18,2.33,2.33,0,0,1-.36-.13l0-.13c0-.18.08-.57.13-1.15s.08-1,.09-1.35l.66-.09a2.8,2.8,0,0,0,.4,1.73,1.73,1.73,0,0,0,1.41.51A2.13,2.13,0,0,0,133,79a.92.92,0,0,0,.48-.78,1.11,1.11,0,0,0-.43-.85,11.19,11.19,0,0,0-1.73-1.08,5,5,0,0,1-1.55-1.1,1.84,1.84,0,0,1-.48-1.23,2.2,2.2,0,0,1,.44-1.35,2.93,2.93,0,0,1,1.24-1,4.27,4.27,0,0,1,1.75-.35,4.83,4.83,0,0,1,.86.07,5.11,5.11,0,0,1,.67.14l.34.09,0,.09c0,.13-.08.41-.17.85s-.14.92-.18,1.43l-.69.06a1.22,1.22,0,0,1,0-.23c0-.11,0-.22,0-.31a1.22,1.22,0,0,0-.37-1,1.76,1.76,0,0,0-1.17-.31,1.85,1.85,0,0,0-1.07.3.87.87,0,0,0-.44.72,1.2,1.2,0,0,0,.38.84,4.78,4.78,0,0,0,1.25.84,9.59,9.59,0,0,1,2.06,1.36,1.7,1.7,0,0,1,.55,1.26,2.15,2.15,0,0,1-.47,1.32,3.2,3.2,0,0,1-1.26,1,4,4,0,0,1-1.69.36A6.2,6.2,0,0,1,130.3,80.09Z"/><path class="cls-1" d="M136.66,79.41a1.56,1.56,0,0,0,.8-.44,1.16,1.16,0,0,0,.24-.77V73.46c0-.68-.23-1-.69-1l-.28,0-.18,0,.07-.69q.78-.1,1.62-.3l1.07-.24.09.23a11.29,11.29,0,0,0-.3,2.39c-.08,1.34-.13,2.74-.13,4.21a1.57,1.57,0,0,0,.15.79.55.55,0,0,0,.51.26l.39,0,.26,0,0,.07-.15.81a5.78,5.78,0,0,0-.64,0l-1,0a8,8,0,0,0-1.12.09l-.81.13Zm.89-10.6a1,1,0,0,1-.24-.67,1.1,1.1,0,0,1,.32-.78,1.06,1.06,0,0,1,.78-.32.82.82,0,0,1,.67.28,1,1,0,0,1,.25.67,1.07,1.07,0,0,1-.32.77,1,1,0,0,1-.78.33A.85.85,0,0,1,137.55,68.81Z"/><path class="cls-1" d="M147.82,78.85l-.13-.06a8.07,8.07,0,0,1-2.33,1.33,3.6,3.6,0,0,1-1.89-.5,3.23,3.23,0,0,1-1.27-1.39,4.48,4.48,0,0,1-.45-2A5,5,0,0,1,144.08,72a4.34,4.34,0,0,1,2.32-.66,12,12,0,0,1,1.29.08v-3.1c0-.67-.23-1-.69-1l-.28,0a.68.68,0,0,0-.19,0l.08-.7c.53-.07,1.08-.17,1.66-.29l1.1-.25.11.25a17.92,17.92,0,0,0-.36,3.93Q149,73.91,149,78a1,1,0,0,0,.2.64.73.73,0,0,0,.56.22,1.34,1.34,0,0,0,.52-.1,2.22,2.22,0,0,0,.41-.22,1,1,0,0,0,.19-.15l.26.3a4.06,4.06,0,0,1-.28.4,4.12,4.12,0,0,1-.58.65,1.93,1.93,0,0,1-.76.44A1.47,1.47,0,0,1,147.82,78.85Zm-1.32-.17a4.59,4.59,0,0,0,.78-.46l.41-.3V72.8l-.28-.14a3.22,3.22,0,0,0-.63-.19,3.54,3.54,0,0,0-.9-.1,2.47,2.47,0,0,0-2,.85,3.49,3.49,0,0,0-.72,2.33,4.18,4.18,0,0,0,.33,1.69,3,3,0,0,0,.89,1.22,2,2,0,0,0,1.24.45A1.91,1.91,0,0,0,146.5,78.68Z"/><path class="cls-1" d="M156.44,78.66h-.07a10.39,10.39,0,0,1-1.23,1.06,1.67,1.67,0,0,1-.83.39,2.36,2.36,0,0,1-1.71-.65,2.22,2.22,0,0,1-.68-1.66,1.68,1.68,0,0,1,.27-1,1.3,1.3,0,0,1,.72-.55l3.55-1,0-.82a2.18,2.18,0,0,0-.43-1.45,1.48,1.48,0,0,0-1.21-.53,2.77,2.77,0,0,0-1.11.25,4.7,4.7,0,0,0-1.13.69l-.1-.06-.22-.8a19.61,19.61,0,0,1,1.76-.91,3.84,3.84,0,0,1,1.28-.4,2.67,2.67,0,0,1,1.9.64,2.28,2.28,0,0,1,.69,1.77q0,.4-.12,1.68-.21,2.06-.21,2.61a.91.91,0,0,0,.21.64.69.69,0,0,0,.55.22,1.59,1.59,0,0,0,.62-.14,1.45,1.45,0,0,0,.5-.33l.27.3a5,5,0,0,1-.72.91,2.25,2.25,0,0,1-.91.58A1.49,1.49,0,0,1,156.44,78.66Zm-1-.08a3.41,3.41,0,0,0,.87-.65l.09-1.9-2.54.77a.73.73,0,0,0-.54.78,1.19,1.19,0,0,0,.37.9,1.28,1.28,0,0,0,.92.35A1.8,1.8,0,0,0,155.46,78.58Z"/><path class="cls-1" d="M166.65,78.85l-.13-.06a7.94,7.94,0,0,1-2.33,1.33,3.6,3.6,0,0,1-1.89-.5A3.23,3.23,0,0,1,161,78.23a4.61,4.61,0,0,1-.44-2A4.93,4.93,0,0,1,162.91,72a4.34,4.34,0,0,1,2.32-.66,12,12,0,0,1,1.29.08v-3.1c0-.67-.23-1-.69-1l-.28,0a.68.68,0,0,0-.19,0l.08-.7c.53-.07,1.09-.17,1.66-.29l1.1-.25.11.25a18.68,18.68,0,0,0-.36,3.93q-.16,3.63-.16,7.71a.91.91,0,0,0,.21.64.69.69,0,0,0,.55.22,1.34,1.34,0,0,0,.52-.1,2.22,2.22,0,0,0,.41-.22,1,1,0,0,0,.19-.15l.27.3-.28.4a4.82,4.82,0,0,1-.59.65,1.86,1.86,0,0,1-.76.44A1.47,1.47,0,0,1,166.65,78.85Zm-1.32-.17a4.59,4.59,0,0,0,.78-.46l.41-.3V72.8l-.28-.14a3.22,3.22,0,0,0-.63-.19,3.54,3.54,0,0,0-.9-.1,2.47,2.47,0,0,0-2,.85,3.49,3.49,0,0,0-.72,2.33,4.18,4.18,0,0,0,.33,1.69,3.14,3.14,0,0,0,.89,1.22,2,2,0,0,0,1.25.45A1.9,1.9,0,0,0,165.33,78.68Z"/><path class="cls-1" d="M177.12,79.47a4.78,4.78,0,0,1-2-2,6.53,6.53,0,0,1-.68-3,6.77,6.77,0,0,1,.84-3.37,6.09,6.09,0,0,1,2.32-2.35,6.6,6.6,0,0,1,3.35-.85,9.75,9.75,0,0,1,1.41.1c.48.07.88.14,1.21.21a5.62,5.62,0,0,1,.63.14l.07.11q0,.1-.12.54c0,.29-.12.66-.19,1.12s-.11.94-.15,1.46l-.9.07a3.14,3.14,0,0,0,0-.35c0-.16,0-.35,0-.57,0-1.15-.92-1.73-2.75-1.73a3.81,3.81,0,0,0-3.6,2.29,6.12,6.12,0,0,0-.5,2.56,7.26,7.26,0,0,0,.53,2.86,4.46,4.46,0,0,0,1.5,1.91,3.78,3.78,0,0,0,2.24.68,2.9,2.9,0,0,0,2.05-.72,4.3,4.3,0,0,0,1.12-2.23l.9-.07c0,.19-.12.6-.24,1.24a16.27,16.27,0,0,0-.26,1.8l-.11.17-.58.21a12.14,12.14,0,0,1-1.41.37,9.7,9.7,0,0,1-1.84.16A6,6,0,0,1,177.12,79.47Z"/><path class="cls-1" d="M190.76,78.66h-.07a11.26,11.26,0,0,1-1.22,1.06,1.75,1.75,0,0,1-.83.39,2.39,2.39,0,0,1-1.72-.65,2.22,2.22,0,0,1-.67-1.66,1.68,1.68,0,0,1,.27-1,1.28,1.28,0,0,1,.71-.55l3.55-1,0-.82a2.18,2.18,0,0,0-.43-1.45,1.48,1.48,0,0,0-1.21-.53,2.69,2.69,0,0,0-1.1.25,4.57,4.57,0,0,0-1.14.69l-.09-.06-.23-.8c.59-.34,1.17-.64,1.76-.91a3.91,3.91,0,0,1,1.28-.4,2.69,2.69,0,0,1,1.91.64,2.28,2.28,0,0,1,.69,1.77c0,.27-.05.83-.13,1.68q-.21,2.06-.21,2.61a.91.91,0,0,0,.21.64.7.7,0,0,0,.56.22,1.58,1.58,0,0,0,.61-.14,1.61,1.61,0,0,0,.51-.33l.26.3a5,5,0,0,1-.72.91,2.19,2.19,0,0,1-.91.58A1.49,1.49,0,0,1,190.76,78.66Zm-1-.08a3.41,3.41,0,0,0,.87-.65l.09-1.9-2.53.77a.73.73,0,0,0-.55.78,1.23,1.23,0,0,0,.37.9,1.28,1.28,0,0,0,.92.35A1.77,1.77,0,0,0,189.78,78.58Z"/><path class="cls-1" d="M196.29,79.66a2.37,2.37,0,0,1-.52-1.74V73.33a.91.91,0,0,0-.23-.71,1.3,1.3,0,0,0-.84-.23l-.07-.11.09-.56a6.42,6.42,0,0,0,1.05-.64c.35-.26.63-.48.84-.67s.36-.32.42-.39l.38.15q0,.09-.06.45c0,.24,0,.55-.09.95l2.74,0,.06,0-.17,1-2.71,0c-.08,1.36-.13,2.92-.13,4.66a2.08,2.08,0,0,0,.33,1.34,1.37,1.37,0,0,0,1.13.4,2.16,2.16,0,0,0,.56-.08,2.42,2.42,0,0,0,.46-.16l.25-.1.18.48a4.58,4.58,0,0,1-.47.36,7.66,7.66,0,0,1-.79.51,1.33,1.33,0,0,1-.62.25A2.52,2.52,0,0,1,196.29,79.66Z"/><path class="cls-1" d="M202.86,79.65a3.44,3.44,0,0,1-1.28-1.46,4.83,4.83,0,0,1-.46-2.16,5.12,5.12,0,0,1,.57-2.4,4.37,4.37,0,0,1,1.56-1.71,4,4,0,0,1,2.2-.63,3.54,3.54,0,0,1,1.88.52,3.47,3.47,0,0,1,1.28,1.47,4.82,4.82,0,0,1,.46,2.15,5.09,5.09,0,0,1-.57,2.4,4.4,4.4,0,0,1-1.56,1.72,4,4,0,0,1-2.2.62A3.38,3.38,0,0,1,202.86,79.65Zm4.06-1.24a3.76,3.76,0,0,0,.62-2.3,5.29,5.29,0,0,0-.34-2,3.1,3.1,0,0,0-.94-1.36,2.14,2.14,0,0,0-1.37-.48,1.94,1.94,0,0,0-1.66.86,3.93,3.93,0,0,0-.62,2.33,5.2,5.2,0,0,0,.34,2,3.1,3.1,0,0,0,.93,1.34,2.2,2.2,0,0,0,1.38.47A1.93,1.93,0,0,0,206.92,78.41Zm-2.7-8.22-.38-.35c.57-.61,1.13-1.26,1.7-1.93s.94-1.1,1.1-1.3l.19,0,.71.77,0,.2c-.18.14-.59.46-1.21,1s-1.27,1-1.92,1.65Z"/><path class="cls-1" d="M210.38,79.41a1.59,1.59,0,0,0,.73-.37,1,1,0,0,0,.27-.54,9.1,9.1,0,0,0,0-1.07V68.27a1.6,1.6,0,0,0-.13-.79.62.62,0,0,0-.54-.2l-.43,0-.06,0,.08-.64a22.91,22.91,0,0,0,2.76-.54l.11.25a19.18,19.18,0,0,0-.36,4c-.11,2.45-.16,5-.16,7.78a1.57,1.57,0,0,0,.15.8.53.53,0,0,0,.5.25l.66,0,0,.07-.15.81c-.82,0-1.37-.06-1.66-.06a13.57,13.57,0,0,0-1.92.22Z"/><path class="cls-1" d="M215.3,79.41a1.59,1.59,0,0,0,.81-.44,1.16,1.16,0,0,0,.24-.77V73.46c0-.68-.23-1-.69-1l-.28,0-.19,0,.08-.69c.52-.07,1.06-.17,1.61-.3l1.07-.24.1.23a10.61,10.61,0,0,0-.3,2.39c-.09,1.34-.13,2.74-.13,4.21a1.57,1.57,0,0,0,.15.79.53.53,0,0,0,.5.26l.39,0,.26,0,0,.07-.15.81a5.54,5.54,0,0,0-.63,0l-1,0A8,8,0,0,0,216,80l-.81.13Zm.9-10.6a1,1,0,0,1-.24-.67,1.08,1.08,0,0,1,1.1-1.1.83.83,0,0,1,.67.28A1,1,0,0,1,218,68a1.09,1.09,0,0,1-1.1,1.1A.82.82,0,0,1,216.2,68.81Z"/><path class="cls-1" d="M221.46,79.05a4.15,4.15,0,0,1-1.06-3,5.17,5.17,0,0,1,.57-2.42,4.35,4.35,0,0,1,1.55-1.71,4,4,0,0,1,2.19-.63,6.66,6.66,0,0,1,1,.08,6.37,6.37,0,0,1,.79.16,1.66,1.66,0,0,1,.38.12l.06.13c0,.06,0,.21-.1.44a9.1,9.1,0,0,0-.18.91,9.22,9.22,0,0,0-.11,1.22l-.77.06v-.58a1.44,1.44,0,0,0-1.53-1.53,2.06,2.06,0,0,0-1.75.81,3.76,3.76,0,0,0-.62,2.31,4.32,4.32,0,0,0,.68,2.56,2.18,2.18,0,0,0,1.86.94,3.31,3.31,0,0,0,.93-.13c.31-.1.58-.19.79-.28a3,3,0,0,0,.39-.2l.11,0,.21.57-.57.4a7.9,7.9,0,0,1-1,.57,2.27,2.27,0,0,1-1,.28A3.73,3.73,0,0,1,221.46,79.05Z"/><path class="cls-1" d="M232.79,78.66h-.07a11.26,11.26,0,0,1-1.22,1.06,1.75,1.75,0,0,1-.83.39,2.39,2.39,0,0,1-1.72-.65,2.22,2.22,0,0,1-.67-1.66,1.68,1.68,0,0,1,.27-1,1.28,1.28,0,0,1,.71-.55l3.55-1,0-.82a2.18,2.18,0,0,0-.43-1.45,1.48,1.48,0,0,0-1.21-.53,2.69,2.69,0,0,0-1.1.25,4.57,4.57,0,0,0-1.14.69l-.09-.06-.23-.8c.59-.34,1.17-.64,1.76-.91a3.91,3.91,0,0,1,1.28-.4,2.69,2.69,0,0,1,1.91.64,2.28,2.28,0,0,1,.69,1.77c0,.27-.05.83-.13,1.68q-.21,2.06-.21,2.61a.91.91,0,0,0,.21.64.7.7,0,0,0,.56.22,1.58,1.58,0,0,0,.61-.14,1.61,1.61,0,0,0,.51-.33l.26.3a5,5,0,0,1-.72.91,2.19,2.19,0,0,1-.91.58A1.49,1.49,0,0,1,232.79,78.66Zm-1-.08a3.41,3.41,0,0,0,.87-.65l.09-1.9-2.53.77a.73.73,0,0,0-.55.78,1.23,1.23,0,0,0,.37.9,1.28,1.28,0,0,0,.92.35A1.77,1.77,0,0,0,231.81,78.58Z"/><path class="cls-1" d="M246.75,78.85l-.13-.06a7.94,7.94,0,0,1-2.33,1.33,3.54,3.54,0,0,1-1.88-.5,3.17,3.17,0,0,1-1.27-1.39,4.48,4.48,0,0,1-.45-2A4.93,4.93,0,0,1,243,72a4.37,4.37,0,0,1,2.33-.66,12,12,0,0,1,1.28.08v-3.1c0-.67-.23-1-.69-1l-.28,0a.5.5,0,0,0-.18,0l.07-.7c.53-.07,1.09-.17,1.66-.29l1.1-.25.11.25a19.52,19.52,0,0,0-.36,3.93q-.17,3.63-.16,7.71a.91.91,0,0,0,.21.64.7.7,0,0,0,.56.22,1.32,1.32,0,0,0,.51-.1,1.94,1.94,0,0,0,.41-.22,1.21,1.21,0,0,0,.2-.15l.26.3c0,.06-.13.2-.28.4a4.82,4.82,0,0,1-.59.65,1.8,1.8,0,0,1-.76.44A1.47,1.47,0,0,1,246.75,78.85Zm-1.31-.17a4.89,4.89,0,0,0,.77-.46l.41-.3V72.8l-.28-.14a3.09,3.09,0,0,0-.62-.19,3.62,3.62,0,0,0-.91-.1,2.47,2.47,0,0,0-2,.85,3.49,3.49,0,0,0-.72,2.33,4.18,4.18,0,0,0,.33,1.69,3.07,3.07,0,0,0,.9,1.22,2,2,0,0,0,1.24.45A2,2,0,0,0,245.44,78.68Z"/><path class="cls-1" d="M252.63,79.66a3.45,3.45,0,0,1-1.38-1.45,4.7,4.7,0,0,1-.48-2.16,5,5,0,0,1,.57-2.35,4.65,4.65,0,0,1,1.52-1.76,3.55,3.55,0,0,1,2-.65A2.84,2.84,0,0,1,257,72a2.66,2.66,0,0,1,.71,2,3.38,3.38,0,0,1-.11.91l-.24.23h-5.15a4.41,4.41,0,0,0,.72,2.79,2.43,2.43,0,0,0,2.06,1,5.48,5.48,0,0,0,2.27-.58l.12,0,.2.55a10.11,10.11,0,0,1-1.48.87,3.31,3.31,0,0,1-1.37.39A4.09,4.09,0,0,1,252.63,79.66Zm3-5.38a.7.7,0,0,0,.37-.13.57.57,0,0,0,.09-.38,1.5,1.5,0,0,0-.4-1.13,1.52,1.52,0,0,0-1.14-.4,2.11,2.11,0,0,0-1.51.6,2.8,2.8,0,0,0-.79,1.61Z"/><path class="cls-1" d="M265.82,76.16c-.65-2.11-1.31-4.19-2-6.21a1.35,1.35,0,0,0-.58-.8,2.45,2.45,0,0,0-1.14-.27l0-.07.13-.8.9,0,1.26,0c.41,0,.93,0,1.56-.08l1.24-.12.06.13-.08.73a4.6,4.6,0,0,0-1.33.22.56.56,0,0,0-.33.56,35.77,35.77,0,0,0,1,3.87c.66,2.34,1.11,3.92,1.36,4.77H268a81.21,81.21,0,0,0,3.1-8.59.6.6,0,0,0-.3-.56,2,2,0,0,0-1-.18h-1l0-.08.11-.8L270,68c.55,0,1.08,0,1.59,0s.89,0,1.28,0l.78,0-.15.87a1.59,1.59,0,0,0-.81.19,1.54,1.54,0,0,0-.42.71l-4,10.08-1.19.41Z"/><path class="cls-1" d="M277.49,78.66h-.07a11.26,11.26,0,0,1-1.22,1.06,1.75,1.75,0,0,1-.83.39,2.39,2.39,0,0,1-1.72-.65,2.22,2.22,0,0,1-.67-1.66,1.61,1.61,0,0,1,.27-1,1.28,1.28,0,0,1,.71-.55l3.55-1,0-.82a2.18,2.18,0,0,0-.43-1.45,1.48,1.48,0,0,0-1.21-.53,2.69,2.69,0,0,0-1.1.25,4.57,4.57,0,0,0-1.14.69l-.1-.06-.22-.8c.59-.34,1.17-.64,1.76-.91a3.91,3.91,0,0,1,1.28-.4,2.69,2.69,0,0,1,1.91.64A2.28,2.28,0,0,1,279,73.7c0,.27-.05.83-.13,1.68q-.21,2.06-.21,2.61a.91.91,0,0,0,.21.64.7.7,0,0,0,.56.22,1.58,1.58,0,0,0,.61-.14,1.61,1.61,0,0,0,.51-.33l.26.3a5,5,0,0,1-.72.91,2.19,2.19,0,0,1-.91.58A1.49,1.49,0,0,1,277.49,78.66Zm-1-.08a3.41,3.41,0,0,0,.87-.65l.09-1.9-2.53.77a.73.73,0,0,0-.55.78,1.19,1.19,0,0,0,.37.9,1.28,1.28,0,0,0,.92.35A1.77,1.77,0,0,0,276.51,78.58Z"/><path class="cls-1" d="M281.54,79.41a1.64,1.64,0,0,0,.74-.37,1,1,0,0,0,.26-.54,8.56,8.56,0,0,0,0-1.07V68.27a1.73,1.73,0,0,0-.13-.79.63.63,0,0,0-.55-.2l-.42,0-.06,0,.07-.64a22.72,22.72,0,0,0,2.77-.54l.11.25a18.74,18.74,0,0,0-.37,4c-.1,2.45-.16,5-.16,7.78a1.68,1.68,0,0,0,.15.8.54.54,0,0,0,.51.25l.65,0,0,.07-.15.81c-.82,0-1.38-.06-1.66-.06a13.57,13.57,0,0,0-1.92.22Z"/><path class="cls-1" d="M286.51,83.65a1.9,1.9,0,0,0,.6-.17.61.61,0,0,0,.27-.38,3.06,3.06,0,0,0,.08-.8c0-.52,0-1,0-1.34l0-1.76V73.64a1.38,1.38,0,0,0-.21-.88.86.86,0,0,0-.71-.25h-.2l-.06-.08.06-.62c.53-.08,1.06-.19,1.59-.3l1-.24.11.15-.08.4a4.55,4.55,0,0,0-.1.61l.07.13a6.74,6.74,0,0,1,2.16-1.21,3.6,3.6,0,0,1,1.89.49,3.35,3.35,0,0,1,1.27,1.39,4.53,4.53,0,0,1,.45,2.06,4.91,4.91,0,0,1-.64,2.44,4.84,4.84,0,0,1-1.7,1.78,4.3,4.3,0,0,1-2.31.66c-.28,0-.54,0-.81,0l-.55-.05,0,1.92a2.64,2.64,0,0,0,.17,1.17.75.75,0,0,0,.7.31l.64,0,0,0-.15.71h-1.77a11.84,11.84,0,0,0-1.24.06l-.74.07Zm6.09-5.35a3.48,3.48,0,0,0,.72-2.32,4.23,4.23,0,0,0-.33-1.7,3,3,0,0,0-.89-1.22,2,2,0,0,0-1.24-.44,2.24,2.24,0,0,0-.92.25,4.67,4.67,0,0,0-1,.66c-.11,1.63-.15,3.39-.15,5.26a5.13,5.13,0,0,0,1.86.36A2.44,2.44,0,0,0,292.6,78.3Z"/><path class="cls-1" d="M300.77,78.66h-.08a10.38,10.38,0,0,1-1.22,1.06,1.71,1.71,0,0,1-.83.39,2.39,2.39,0,0,1-1.72-.65,2.22,2.22,0,0,1-.67-1.66,1.68,1.68,0,0,1,.27-1,1.26,1.26,0,0,1,.72-.55l3.54-1,0-.82a2.18,2.18,0,0,0-.43-1.45,1.47,1.47,0,0,0-1.21-.53,2.73,2.73,0,0,0-1.1.25,4.57,4.57,0,0,0-1.14.69l-.09-.06-.23-.8c.59-.34,1.18-.64,1.77-.91a3.78,3.78,0,0,1,1.28-.4,2.68,2.68,0,0,1,1.9.64,2.28,2.28,0,0,1,.69,1.77c0,.27,0,.83-.13,1.68q-.21,2.06-.21,2.61a.91.91,0,0,0,.21.64.72.72,0,0,0,.56.22,1.54,1.54,0,0,0,.61-.14,1.41,1.41,0,0,0,.51-.33l.26.3a4.56,4.56,0,0,1-.72.91,2.16,2.16,0,0,1-.9.58A1.49,1.49,0,0,1,300.77,78.66Zm-1-.08a3.54,3.54,0,0,0,.86-.65l.1-1.9-2.54.77a.73.73,0,0,0-.54.78,1.22,1.22,0,0,0,.36.9,1.29,1.29,0,0,0,.93.35A1.83,1.83,0,0,0,299.79,78.58Z"/><path class="cls-1" d="M306.08,78.91a2.41,2.41,0,0,0,.19-1.18v-4.1a1.6,1.6,0,0,0-.17-.88.58.58,0,0,0-.54-.26.94.94,0,0,0-.25,0l-.14,0-.09-.13.05-.58c.48-.08,1-.19,1.5-.31l1-.25.13.12c0,.11-.06.36-.11.77a7.65,7.65,0,0,0-.06,1.15l.08,0A5.19,5.19,0,0,1,309,71.93a2.28,2.28,0,0,1,1.31-.56l.4,0,.18,0,.06.08c0,.17-.08.54-.16,1.1a11.54,11.54,0,0,0-.14,1.56l-.73.06a3.57,3.57,0,0,0-.1-1,.4.4,0,0,0-.41-.25,1.5,1.5,0,0,0-.87.35,3.64,3.64,0,0,0-.86.92c0,.36,0,1-.08,1.79s-.06,1.51-.07,2a1.38,1.38,0,0,0,.19.86.92.92,0,0,0,.71.22l.48,0,.34,0,0,.08-.17.82-.75,0-1.16,0c-.46,0-.87,0-1.25,0s-.61,0-.7,0l.09-.75A.9.9,0,0,0,306.08,78.91Z"/><path class="cls-1" d="M316.54,78.66h-.08a10.38,10.38,0,0,1-1.22,1.06,1.71,1.71,0,0,1-.83.39,2.39,2.39,0,0,1-1.72-.65,2.22,2.22,0,0,1-.67-1.66,1.68,1.68,0,0,1,.27-1,1.26,1.26,0,0,1,.72-.55l3.55-1,0-.82a2.24,2.24,0,0,0-.43-1.45,1.49,1.49,0,0,0-1.22-.53,2.73,2.73,0,0,0-1.1.25,4.75,4.75,0,0,0-1.14.69l-.09-.06-.22-.8a19.61,19.61,0,0,1,1.76-.91,3.84,3.84,0,0,1,1.28-.4,2.67,2.67,0,0,1,1.9.64A2.28,2.28,0,0,1,318,73.7c0,.27,0,.83-.13,1.68-.14,1.37-.2,2.24-.2,2.61a.91.91,0,0,0,.2.64.72.72,0,0,0,.56.22,1.59,1.59,0,0,0,.62-.14,1.45,1.45,0,0,0,.5-.33l.26.3a4.23,4.23,0,0,1-.72.91,2.16,2.16,0,0,1-.9.58A1.49,1.49,0,0,1,316.54,78.66Zm-1-.08a3.8,3.8,0,0,0,.87-.65l.09-1.9L314,76.8a.73.73,0,0,0-.54.78,1.22,1.22,0,0,0,.36.9,1.31,1.31,0,0,0,.93.35A1.83,1.83,0,0,0,315.56,78.58Z"/><path class="cls-1" d="M321.09,70.19l-.37-.35c.56-.61,1.12-1.26,1.7-1.93s.94-1.1,1.1-1.3l.19,0,.7.77v.2c-.19.14-.6.46-1.22,1s-1.26,1-1.92,1.65Zm-.18,9.22a1.56,1.56,0,0,0,.8-.44,1.16,1.16,0,0,0,.24-.77V73.46c0-.68-.23-1-.69-1l-.28,0-.19,0,.08-.69c.52-.07,1.06-.17,1.61-.3l1.08-.24.09.23a11.29,11.29,0,0,0-.3,2.39c-.09,1.34-.13,2.74-.13,4.21a1.57,1.57,0,0,0,.15.79.54.54,0,0,0,.5.26l.39,0,.27,0,0,.07-.15.81a5.54,5.54,0,0,0-.63,0l-1,0a8,8,0,0,0-1.11.09l-.81.13Z"/><path class="cls-1" d="M327.43,80.09a5.11,5.11,0,0,1-.78-.18,2.52,2.52,0,0,1-.35-.13l-.06-.13c0-.18.08-.57.13-1.15s.08-1,.1-1.35l.65-.09a2.79,2.79,0,0,0,.41,1.73,1.7,1.7,0,0,0,1.4.51,2.19,2.19,0,0,0,1.2-.32.92.92,0,0,0,.48-.78,1.12,1.12,0,0,0-.44-.85,10.7,10.7,0,0,0-1.73-1.08,5,5,0,0,1-1.54-1.1,1.8,1.8,0,0,1-.49-1.23,2.21,2.21,0,0,1,.45-1.35,3,3,0,0,1,1.23-1,4.31,4.31,0,0,1,1.75-.35,6.2,6.2,0,0,1,1.53.21l.34.09,0,.09c0,.13-.08.41-.17.85a12.07,12.07,0,0,0-.19,1.43l-.69.06s0-.12,0-.23,0-.22,0-.31a1.21,1.21,0,0,0-.36-1,1.8,1.8,0,0,0-1.17-.31,1.85,1.85,0,0,0-1.07.3.85.85,0,0,0-.44.72,1.16,1.16,0,0,0,.38.84,4.7,4.7,0,0,0,1.24.84,9.09,9.09,0,0,1,2.06,1.36,1.7,1.7,0,0,1,.55,1.26,2.14,2.14,0,0,1-.46,1.32,3.2,3.2,0,0,1-1.26,1,4,4,0,0,1-1.69.36A6.13,6.13,0,0,1,327.43,80.09Z"/><path class="cls-1" d="M335.3,79.65A3.44,3.44,0,0,1,334,78.19a4.83,4.83,0,0,1-.46-2.16,5.12,5.12,0,0,1,.57-2.4,4.37,4.37,0,0,1,1.56-1.71,4,4,0,0,1,2.2-.63,3.48,3.48,0,0,1,1.87.52,3.42,3.42,0,0,1,1.29,1.47,4.82,4.82,0,0,1,.46,2.15,5.09,5.09,0,0,1-.57,2.4,4.4,4.4,0,0,1-1.56,1.72,4,4,0,0,1-2.2.62A3.38,3.38,0,0,1,335.3,79.65Zm4.06-1.24a3.83,3.83,0,0,0,.62-2.3,5.29,5.29,0,0,0-.34-2,3.19,3.19,0,0,0-.94-1.36,2.14,2.14,0,0,0-1.37-.48,1.94,1.94,0,0,0-1.66.86,3.93,3.93,0,0,0-.62,2.33,5.2,5.2,0,0,0,.34,2,3.1,3.1,0,0,0,.93,1.34,2.2,2.2,0,0,0,1.38.47A1.93,1.93,0,0,0,339.36,78.41Z"/></g></svg>