<svg xmlns="http://www.w3.org/2000/svg" viewBox="0 0 435.84 134.29"><defs><style>.cls-1,.cls-10,.cls-11,.cls-2,.cls-3,.cls-4,.cls-5,.cls-6,.cls-7,.cls-8,.cls-9{fill:#033ad3;}.cls-10,.cls-11,.cls-2,.cls-3,.cls-4,.cls-5,.cls-6,.cls-7,.cls-8,.cls-9{font-size:12.58px;font-family:gobCL;}.cls-3{letter-spacing:-0.02em;}.cls-4{letter-spacing:-0.03em;}.cls-5{letter-spacing:-0.07em;}.cls-6{letter-spacing:-0.05em;}.cls-7{letter-spacing:-0.02em;}.cls-8{letter-spacing:-0.01em;}.cls-9{letter-spacing:-0.06em;}.cls-10{letter-spacing:-0.1em;}.cls-11{letter-spacing:-0.03em;}</style></defs><g id="Capa_6" data-name="Capa 6"><path class="cls-1" d="M74.26,17l-.17-6.78h0c-.14.86-.29,1.48-.39,1.94L72.56,17H70.22l-1-4.84c-.1-.46-.24-1.05-.4-1.94h0L68.67,17H67.13l.3-8h2.69s.88,4,1.34,6.65h0C72,13,73,9,73,9h2.63L76,17Z"/><path class="cls-1" d="M77.83,17V12.28l-.67-.14v-1h2.22V17Zm0-8.21H79.4V10.2H77.83Z"/><path class="cls-1" d="M84.41,17V13.53c0-.88-.33-1.3-1-1.3a1.92,1.92,0,0,0-1,.36V17H80.78V11.16h1l.24.67a2.38,2.38,0,0,1,1.84-.78c1.48,0,2.09.87,2.09,2.33V17Z"/><path class="cls-1" d="M87.74,17V12.28l-.68-.14v-1h2.22V17Zm0-8.21h1.58V10.2H87.74Z"/><path class="cls-1" d="M92,12.7c0,.9,2.53.63,2.53,2.53,0,1.05-.79,1.88-2.3,1.88a3.79,3.79,0,0,1-1.75-.42l.33-1.05a2.73,2.73,0,0,0,1.37.4c.51,0,.86-.29.86-.64,0-1.05-2.49-.71-2.49-2.7,0-.85.65-1.62,2.23-1.62a4.6,4.6,0,0,1,1.64.28l-.22,1.13a3.55,3.55,0,0,0-1.4-.29C92.3,12.17,92,12.37,92,12.7Z"/><path class="cls-1" d="M97.94,17.11c-1,0-1.71-.49-1.71-1.94v-2.9h-.86V11.16h.87V10.11l1.53-.5v1.51h1.57v1.11H97.76v2.85a.6.6,0,0,0,.5.67h.12a1.83,1.83,0,0,0,.89-.22l.3,1.24A3.3,3.3,0,0,1,97.94,17.11Z"/><path class="cls-1" d="M101.55,14.49a1.32,1.32,0,0,0,1.18,1.45,1.15,1.15,0,0,0,.32,0,3.92,3.92,0,0,0,1.71-.48l.3,1.05a4.83,4.83,0,0,1-2.2.57A2.71,2.71,0,0,1,100,14.54a2.29,2.29,0,0,1,0-.52c0-1.79.86-3,2.74-3s2.44,1.31,2.44,2.77v.68Zm1-2.3c-.77,0-1,.7-1,1.39h2.09c0-.75-.19-1.39-1-1.39Z"/><path class="cls-1" d="M109.66,12.46a2.23,2.23,0,0,0-.72-.09,1.65,1.65,0,0,0-1,.38V17h-1.55V11.16h1l.17.79h0a1.56,1.56,0,0,1,1.4-.89,3.16,3.16,0,0,1,.68.08Z"/><path class="cls-1" d="M111.09,17V12.28l-.68-.14v-1h2.24V17Zm0-8.21h1.57V10.2h-1.57Z"/><path class="cls-1" d="M119.27,14.06c0,2-1,3-2.74,3s-2.73-1-2.73-3a2.75,2.75,0,1,1,5.47-.47A3.68,3.68,0,0,1,119.27,14.06Zm-1.59,0c0-1.4-.42-1.88-1.15-1.88s-1.13.49-1.13,1.88.37,1.91,1.13,1.91S117.68,15.46,117.68,14.06Z"/><path class="cls-1" d="M126.82,11.61a3.38,3.38,0,0,1-.15-1V8.78h1.55V17H127l-.13-.64a1.88,1.88,0,0,1-1.55.76c-1.32,0-2.37-.95-2.37-3,0-1.93,1-3,2.5-3A1.94,1.94,0,0,1,126.82,11.61Zm-.15.88a2.14,2.14,0,0,0-1-.28c-.73,0-1.2.5-1.2,1.85S124.86,16,125.6,16a1.52,1.52,0,0,0,1.05-.5Z"/><path class="cls-1" d="M131,14.49a1.32,1.32,0,0,0,1.18,1.45,1.15,1.15,0,0,0,.32,0,3.88,3.88,0,0,0,1.7-.48l.3,1.05a4.83,4.83,0,0,1-2.2.57,2.7,2.7,0,0,1-2.88-2.54,2.18,2.18,0,0,1,0-.51c0-1.79.87-3,2.73-3s2.45,1.31,2.45,2.77v.68Zm1.05-2.3c-.78,0-1.05.7-1.05,1.39h2.09C133.1,12.83,132.86,12.19,132.06,12.19Z"/><path class="cls-1" d="M72,124.9a5.27,5.27,0,0,1-2.37.57c-1.9,0-2.79-1.33-2.79-3.34s1-3.23,2.95-3.23a3.52,3.52,0,0,1,2.09.57l-.53.93a2.78,2.78,0,0,0-1.54-.41c-1.14,0-1.66.86-1.66,2.1,0,1.5.55,2.31,1.62,2.31a2.51,2.51,0,0,0,1.11-.23V123H70l-.07-.91H72Z"/><path class="cls-1" d="M77.08,123.07c0,1.57-.78,2.4-2.15,2.4s-2.16-.82-2.16-2.4a2.17,2.17,0,1,1,4.31-.42,1.48,1.48,0,0,1,0,.42m-1.25,0c0-1.11-.34-1.49-.9-1.49S74,122,74,123.07s.28,1.5.89,1.5.9-.4.9-1.5"/><path class="cls-1" d="M79.14,121.25a1.65,1.65,0,0,1,1.23-.57c1,0,1.85.78,1.85,2.39s-.93,2.4-2,2.4a1.49,1.49,0,0,1-1.33-.65l-.22.56H78V118.9h1.22v1.63Zm.08,2.85a1.06,1.06,0,0,0,.84.47c.54,0,.93-.39.93-1.5s-.29-1.49-.91-1.49a1.33,1.33,0,0,0-.86.36Z"/><path class="cls-1" d="M83.53,125.38v-3.7l-.52-.12v-.78h1.74v4.6Zm0-6.48h1.25V120H83.49Z"/><path class="cls-1" d="M86.93,123.41a1,1,0,0,0,.94,1.15h.24a3,3,0,0,0,1.34-.4l.23.86a3.5,3.5,0,0,1-1.73.46,2.08,2.08,0,0,1-2.28-1.88,1.81,1.81,0,0,1,0-.52c0-1.41.68-2.39,2.1-2.39a1.93,1.93,0,0,1,2,1.89,1.51,1.51,0,0,1,0,.3v.54Zm.85-1.82c-.61,0-.85.55-.85,1H88.6c0-.58-.19-1-.82-1"/><path class="cls-1" d="M93.28,121.81a1.89,1.89,0,0,0-.58-.08,1.3,1.3,0,0,0-.82.31v3.34H90.7v-4.6h.86a4,4,0,0,0,.12.62h0a1.26,1.26,0,0,1,1-.71,3.33,3.33,0,0,1,.54.07v1"/><path class="cls-1" d="M96.91,125.38v-2.76c0-.69-.26-1-.81-1a1.42,1.42,0,0,0-.82.28v3.47H94.05v-4.6h.85l.19.52a1.92,1.92,0,0,1,1.46-.62c1.16,0,1.62.69,1.62,1.86v2.84Z"/><path class="cls-1" d="M103.31,123.07c0,1.57-.79,2.4-2.16,2.4s-2.16-.82-2.16-2.4a2.17,2.17,0,0,1,4.32-.42,2.94,2.94,0,0,1,0,.42m-1.26,0c0-1.11-.34-1.49-.9-1.49s-.89.39-.89,1.49.29,1.5.89,1.5.9-.4.9-1.5"/><path class="cls-1" d="M109.28,121.13a2.35,2.35,0,0,1-.12-.83v-1.4h1.22v6.48h-1l-.14-.5a1.51,1.51,0,0,1-1.23.59c-1,0-1.87-.74-1.87-2.39s.86-2.4,2-2.4a1.54,1.54,0,0,1,1.15.45m-.12.71a1.45,1.45,0,0,0-.83-.23c-.59,0-1,.39-1,1.46s.36,1.51.94,1.51a1.14,1.14,0,0,0,.85-.4Z"/><path class="cls-1" d="M112.55,123.41a1,1,0,0,0,.94,1.15h.25a3.11,3.11,0,0,0,1.35-.4l.23.86a3.53,3.53,0,0,1-1.73.46,2.09,2.09,0,0,1-2.29-1.88,2.26,2.26,0,0,1,0-.52c0-1.41.69-2.39,2.15-2.39a1.93,1.93,0,0,1,2,1.89,1.51,1.51,0,0,1,0,.3v.54Zm.86-1.82c-.61,0-.86.55-.86,1h1.69c0-.58-.19-1-.83-1"/><path class="cls-1" d="M121,125.47c-1.78,0-2.73-1.19-2.73-3.31,0-2,.94-3.26,2.73-3.26a4,4,0,0,1,2.16.54l-.47,1a2.87,2.87,0,0,0-1.56-.43c-1,0-1.58.78-1.58,2.17s.53,2.24,1.56,2.24a3.05,3.05,0,0,0,1.68-.57l.39,1a3.7,3.7,0,0,1-2.18.67"/><path class="cls-1" d="M124,125.38V118.9h1.22v1.7a2.45,2.45,0,0,1-.11.71,1.61,1.61,0,0,1,1.3-.63c1.33,0,1.7.7,1.7,1.86v2.84h-1.25v-2.76a.43.43,0,0,0-.06-.27.67.67,0,0,0-.76-.74,1.52,1.52,0,0,0-.82.28v3.47Z"/><path class="cls-1" d="M129.52,125.38v-3.7l-.54-.12v-.78h1.76v4.6Zm0-6.48h1.24V120h-1.24Z"/><path class="cls-1" d="M131.86,124.16v-5.24h1.24v5.24c0,.39.24.45.75.45v.86a3.83,3.83,0,0,1-.67.08c-1,0-1.28-.5-1.28-1.31"/><path class="cls-1" d="M135.67,123.41a1,1,0,0,0,.94,1.15h.25a3,3,0,0,0,1.34-.4l.23.86a3.53,3.53,0,0,1-1.73.46,2.09,2.09,0,0,1-2.29-1.88,2.26,2.26,0,0,1,0-.52c0-1.41.69-2.39,2.16-2.39s1.94,1,1.94,2.19v.54Zm.85-1.82c-.61,0-.85.55-.85,1h1.68c0-.58-.19-1-.83-1"/><path class="cls-1" d="M144.93,0H0V134.28H147.22V0ZM2.28,2.28h57.3V132H2.3ZM144.94,132H61.84V2.28h83Z"/><path class="cls-1" d="M32.73,20.07a.58.58,0,0,0,.18-.78c-.11-.2-.38-.23-.26-.25,1.46-.34,2.25-2.48,2.21-3.3a2.94,2.94,0,0,0,3.67-.14,2.62,2.62,0,0,0-.12-3.71l-.07-.07a2.38,2.38,0,0,0-2.68,0,1.4,1.4,0,0,0-1.07-.67A2.7,2.7,0,0,0,34,9.43a2.81,2.81,0,0,0-3.53,0A2.5,2.5,0,0,0,27.27,11a2.52,2.52,0,0,0-.13,1.09A4.28,4.28,0,0,0,25,11.7a2.66,2.66,0,0,0-1.44.82c-.11.15-.23.35-.33.52a2.48,2.48,0,0,0-.25,1.26,2.31,2.31,0,0,0,1,1.84,3.94,3.94,0,0,0,2.24.34,1.7,1.7,0,0,0,.93-.52c.09-.09.15-.25.3-.25a1.81,1.81,0,0,0,1.15,1.85.54.54,0,0,1,0,.18,1.68,1.68,0,0,0,1.44,1.45c-.45.27-.26.67-.16.88a5.4,5.4,0,0,1,1.37-.24A5.2,5.2,0,0,1,32.73,20.07Z"/><path class="cls-1" d="M36.21,24.68a4.51,4.51,0,0,1,1-2.72.39.39,0,0,0,.11-.34.4.4,0,0,0-.14-.24l-1-.6h0a.23.23,0,0,0-.22.12,1.77,1.77,0,0,1-1.12.4h-.33a3.48,3.48,0,0,1-.83-.32l-.48-.22h0a4.28,4.28,0,0,0-3.57,0h0l-.21.11-.52.24a2.25,2.25,0,0,1-.57.19H28a1.79,1.79,0,0,1-1.13-.4c-.09-.08-.14-.12-.22-.12h-.05l-1,.61a.39.39,0,0,0-.17.25.42.42,0,0,0,.12.34,4.54,4.54,0,0,1,1,2.75A4,4,0,0,1,26,27.19a2.89,2.89,0,0,0,2.83,4.35c.17,0,1.7,0,2.22,1,0,0,.28.43.37.62l.12.23.12-.23c.12-.21.24-.42.38-.63.51-1,2.09-1,2.21-1a2.89,2.89,0,0,0,2.83-4.35A4.07,4.07,0,0,1,36.21,24.68Zm-.81,0-2.67,1.91,1.05,3-2.57-1.95-2.56,1.95,1.05-3L27,24.68h3.29l.92-3.06.92,3.06H35.4Z"/><path class="cls-1" d="M36.81,20.48l.19.16Z"/><path class="cls-1" d="M37.82,21.28,37.48,21Z"/><path class="cls-1" d="M37.1,20.72l.33.25Z"/><path class="cls-1" d="M54.08,37.37c-.34-.39-1.23-.2-1.23-.2a1.31,1.31,0,0,0-.67-1.74L52,35.37a1.16,1.16,0,0,0-1,.11h0a.16.16,0,0,0-.09.07.63.63,0,0,0-.2.47.68.68,0,0,0,.69.68.64.64,0,0,0,.66-.52.75.75,0,0,1,.25.31c.36,1.24-1,1.67-1,1.67a5.29,5.29,0,0,1-4.84-.65l.53-.27a1.13,1.13,0,0,1,.48-.11.14.14,0,0,0,0,.09.59.59,0,0,0,.6.59.58.58,0,0,0,.59-.59.61.61,0,0,0-.12-.37c-.35-.52-1.56-.18-1.56-.18A2.21,2.21,0,0,0,47,35a1.64,1.64,0,0,0-1.89-.79.83.83,0,0,0-.56.55c-.17.91.58,1,.58,1,.54,0,.55-.41.55-.41.07-.43-.54-.45-.54-.45.51-.89,2.1.57,1,1.86a.13.13,0,0,1-.21,0,20.67,20.67,0,0,1-3.26-1.87c0-.52-.49-.77-.41-.9s.34.09.49-.13a6.13,6.13,0,0,0,.28-1.46,5.3,5.3,0,0,0,3.35.44.38.38,0,0,0,.26-.38c0-.63-1.6-4.34-1.64-5.65.76.38,1.24-.81,1.38-1.18,1,.47,1.39,10.11,2.19,10.48.41.16.57-.49.6-.61a31.44,31.44,0,0,0,1.25-9.88,27.28,27.28,0,0,0-.84-6c-.33-1.11-1-3.39-2.42-3.7a1.05,1.05,0,0,0-1.19.89A.86.86,0,0,0,46,17c0,.5.36.74.2,1.23a4.09,4.09,0,0,0-.46,1c-.08.36.23.51.13.88-.47-.07-.7.34-1.43.16.48-.23.48-1.58-.09-1.81a.22.22,0,0,1-.21-.13,2,2,0,0,0,.35-2.1c.24,0,.49-.41.53-.77h0a1.63,1.63,0,0,1,.13-.69.19.19,0,0,0-.08-.24.17.17,0,0,0-.24.08h0c-.15.3-.5.13-.35-.18a.17.17,0,0,0-.08-.24h0a.18.18,0,0,0-.23.08v0c-.14.28-.47.12-.34-.17a.17.17,0,0,0-.08-.24h0a.18.18,0,0,0-.24.08c-.14.31-.49.14-.35-.16a.18.18,0,0,0-.07-.25.28.28,0,0,0-.16,0,1.36,1.36,0,0,1-.42.58c-.32.05-.24.43-.2.68a.89.89,0,0,0-1,.69.13.13,0,0,1,0,.06h-.07c-.5,0-1,.27-.94.74a.77.77,0,0,0,.44.59c.05,0,0-.27.23-.3a.7.7,0,0,1,.64.42c0,.25-.16.88.66,1v.26a2.43,2.43,0,0,0-.66,0,1.77,1.77,0,0,0-1.4.89,1.27,1.27,0,0,0,0,.39c0,.1.12.23.1.37a.87.87,0,0,1-.16.23,1.7,1.7,0,0,1-1,.46,1.24,1.24,0,0,1-.93-.45c-.52-.7.16-1.91.15-2.36,0-1.21-1.55-.49-2.16-.18a5.91,5.91,0,0,0-1.76,1.58,5,5,0,0,0-.71,1.05c0,.06-.09.07-.15.06a3.61,3.61,0,0,0,1.28.36,2.15,2.15,0,0,0,1.45-.39.28.28,0,0,1,.2-.08.34.34,0,0,1,.23.1l.17.14.19.16.11.08.32.25h0l.35.26h0l.3.22h0a.14.14,0,0,1,0,.09.2.2,0,0,1-.06.14l-.16.2a6.46,6.46,0,0,0-.8,1.37,1.84,1.84,0,0,0,1.44,1,.75.75,0,0,0,.85-.61v.05a6.41,6.41,0,0,0,.77,2c-.37.18-1,.76-.63,2.37a11.77,11.77,0,0,1-1.12-.85,1.76,1.76,0,0,0-1.39-1.2,6.73,6.73,0,0,0,.61,1.37,3.85,3.85,0,0,1,.39,2.19c.37-.39.32-1.46.32-1.46h.09c.07,0,.46.75,1.12.9a8.48,8.48,0,0,0,2.75,3c0,.36,0,1.2-.21,1.2-.73.16-1.4-.33-2.09-.3l-.12,0c-2.77-1.34-6.45,1.54-7.06,2.09-.33.3-.69-.1-.69-.1a1,1,0,0,0-1.48-.1l-.11.1s-.37.4-.69.1c-.58-.52-3.91-3.14-6.62-2.22,0-.14-.38-.23-.48-.26a2.86,2.86,0,0,1-.54-.3,3.81,3.81,0,0,0-1.12-.1,1.31,1.31,0,0,1-.43-.16,4.07,4.07,0,0,1-1.2-1l-.18-.24a1.8,1.8,0,0,1-.31-.58,4.38,4.38,0,0,1,.16-1.65c.05-.29.07-.58.09-.86a5.15,5.15,0,0,0,2.83-2.58c.05-.09.1-.18.14-.27h.24c.69,0,1.16-.39,1.91-.3a1,1,0,0,0,.59.57,3,3,0,0,0,.24,1.28c0,.07.09.12.13.19a5.09,5.09,0,0,0,.42-1.8.35.35,0,0,1-.06-.14,1.59,1.59,0,0,0-.92-1.29,4,4,0,0,1-.51-.23,2,2,0,0,1-.74-.74.86.86,0,0,0,.18-.2,4.14,4.14,0,0,0,.9-2.09c.38-.5,1.39-.31,1.78-.23a.89.89,0,0,1,.36.11c.1.08.14.24.28.32a1.69,1.69,0,0,0,.55,0,1.64,1.64,0,0,1,.16.29l.15.2a3.9,3.9,0,0,0,1.41-.42.24.24,0,0,1-.08-.06,1.55,1.55,0,0,0-.84-.62c-.38-.06-.46-.41-.82-.48a1.57,1.57,0,0,0-.53,0A9.2,9.2,0,0,1,25,18.88c-.73,0-.75.44-1,.84a2.15,2.15,0,0,1-.33.46c-.2.18-.43.18-.67.37l-.11-.3a2.61,2.61,0,0,0-.32-.75,2.57,2.57,0,0,0-1.71-1.28.9.9,0,0,1-.3-.17.15.15,0,0,1-.05-.2.12.12,0,0,1,.05-.05c.25-.15.68-.1.95-.22.7-.33.45-.92.18-1a7.17,7.17,0,0,1-1.1-.3c-.17-.11-.45-.64-.73-.77s-.2-.57-.47-.68a.91.91,0,0,0-.51.14c0-.11-.08-.67-.38-.85s-.33.07-.32.2.35.29.41.82l-.17.11a1.06,1.06,0,0,0-.36-.7c-.25-.13-.33.07-.32.21s.3.26.4.71l-.2.18c-.47-.13-.6-.44-.71-.46s-.34,0-.23.28a1.1,1.1,0,0,0,.67.44l-.13.15c-.53-.11-.67-.46-.78-.48s-.35,0-.25.28.77.47.83.48a.58.58,0,0,0-.12.38c-.42-.05-1.17.18-1.05.67.15.1.64-.3,1.05-.07a1.68,1.68,0,0,0,.89.56,1.22,1.22,0,0,1,.27.6A4.76,4.76,0,0,0,19,19.57c.25.39.51.77.8,1.14a1,1,0,0,1,0,.34,10.3,10.3,0,0,1-1.61,1.41c-.38.37-4,3.14-4.44,4.31a2.23,2.23,0,0,0-.15,1c-.22.12-.7.32-.86.1-.27-.39.28-.69.15-1a.28.28,0,0,0-.37-.15h0a1.21,1.21,0,0,0-.25,1.7,1.2,1.2,0,0,0,.39.35c.62.25.71-.42,1.19-.15.12.07,1.26,1.05,1,1.9a1.34,1.34,0,0,1-.07.18,11.13,11.13,0,0,1-1,.85c-.58.38.57,2.75.48,4-.07.46.38.4.66,1.13a.86.86,0,0,0-.71.28.56.56,0,0,0-.11.37.58.58,0,0,0,.58.58h0a.59.59,0,0,0,.59-.58v-.09a1.13,1.13,0,0,1,.48.11l.53.27a5.28,5.28,0,0,1-4.85.65s-1.37-.43-1-1.65a.69.69,0,0,1,.25-.31.68.68,0,0,0,.83.49.66.66,0,0,0,.51-.65.69.69,0,0,0-.18-.47l-.1-.07h0a1.17,1.17,0,0,0-1-.11A1.32,1.32,0,0,0,9.93,37a1.34,1.34,0,0,0,.07.18s-.89-.2-1.23.2a.51.51,0,0,0-.1.34h0a.75.75,0,0,0,.09.29.52.52,0,0,0,.42.22.53.53,0,0,0,.41-.19h0a.22.22,0,0,1,.3,0c2,2.09,5.24,1.22,7.05-.17A10.93,10.93,0,0,1,19,36.33c.43.18.89.32,1.34.49a4.34,4.34,0,0,0,.82,2.65,1,1,0,0,1-1.28.36.72.72,0,0,1-.13-1,.1.1,0,0,1,0,0s.36-.3.51.07a.35.35,0,0,0-.33.36.34.34,0,0,0,.34.34h0a.34.34,0,0,0,.35-.32h0a.83.83,0,0,0-.28-.77,1,1,0,0,0-.79-.22c-.75.13-1.18,1.71.3,2.36,0,0,1.18.54,1.79-.33,0,0,0-.14.22.08,1.23,1.21,4,.86,5.11,0a5.21,5.21,0,0,1,.59-.32.87.87,0,1,0,1-.87,1.76,1.76,0,0,0-1.37.32,6.41,6.41,0,0,1-.81.45,5,5,0,0,0,.59-1.71c1.22.13,2.45.22,3.74.25a3.68,3.68,0,0,1-.22,1.18s-.45.19-.46.51c0,0-.05.23.36.56a2.46,2.46,0,0,1,.38.57s0,.36.51.36h.18c.48,0,.51-.36.51-.36a2.29,2.29,0,0,1,.41-.52c.4-.33.35-.56.35-.56,0-.32-.47-.51-.47-.51a3.89,3.89,0,0,1-.21-1.17,35.06,35.06,0,0,0,3.75-.25,4.64,4.64,0,0,0,.58,1.7,5.67,5.67,0,0,1-.8-.45,1.79,1.79,0,0,0-1.38-.32.86.86,0,1,0,.38,1.67.84.84,0,0,0,.67-.8,4.83,4.83,0,0,1,.59.32c1.1.82,3.88,1.17,5.12,0,.22-.22.21-.08.21-.08.61.87,1.78.33,1.78.33,1.5-.65,1-2.23.32-2.35a.93.93,0,0,0-.8.22.86.86,0,0,0-.28.76.35.35,0,1,0,.69,0,.37.37,0,0,0-.32-.36c.15-.36.51-.07.51-.07a.72.72,0,0,1-.21,1,1,1,0,0,1-1.34-.37l0-.05a4.35,4.35,0,0,0,.83-2.65c.45-.16.91-.3,1.35-.49a11.35,11.35,0,0,1,2.09,1.62c1.8,1.39,5,2.25,7.05.17.15-.16.26-.1.3-.06h0a.52.52,0,0,0,.83,0,.85.85,0,0,0,.13-.25h0A.58.58,0,0,0,54.08,37.37Zm-37.2-.61a.17.17,0,0,1-.21,0c-1-1.29.56-2.76,1-1.87,0,0-.61,0-.54.45,0,0,0,.44.55.41,0,0,.76-.07.58-1a.84.84,0,0,0-.49-.59,1.64,1.64,0,0,0-1.89.79,2.27,2.27,0,0,0-.21.67,1.07,1.07,0,0,0-.51-.25,6.39,6.39,0,0,1-.4-3.46,3.5,3.5,0,0,0,2.77-2.57,1.13,1.13,0,0,1,.67.8c0,.28-.1.56.06.79a4.73,4.73,0,0,0,1.05.84A18.35,18.35,0,0,0,21.14,33c.22,0,.35-.11.53-.08a.46.46,0,0,1,.16.11,2.75,2.75,0,0,0,.26.22,13.12,13.12,0,0,0-1.57,1.21S20,35.19,16.88,36.76Zm5,1.43a2.31,2.31,0,0,1-.23.67A4.27,4.27,0,0,1,21.15,37c.34.1.66.23,1.05.32A5.42,5.42,0,0,0,21.85,38.19Zm4,1.89a3.49,3.49,0,0,1-3.56-.67,8.25,8.25,0,0,1,.49-1.91,32.93,32.93,0,0,0,3.67.69C26.33,39,26.2,40,25.81,40.08ZM23.72,36a2.42,2.42,0,0,1,1.63-.67,1.19,1.19,0,0,1,1.11,1.17c-1-.14-1.94-.31-2.73-.5Zm2.09-1.34a4.88,4.88,0,0,0-2.65,1.2c-.63-.15-1.2-.31-1.65-.45a4.15,4.15,0,0,1,.32-.53,4.41,4.41,0,0,1,5-1c.08,0-.12.55-1,.7Zm1.47,1.95c.14-1.28.23-2.36.69-2.35a.79.79,0,0,1,.57.32c.41.56,1.49,1.23,2,2.25-1.18,0-2.23-.12-3.23-.22Zm5.08.22c.5-1,1.59-1.69,2-2.25a.75.75,0,0,1,.55-.32c.47,0,.57,1.05.69,2.35-1,.1-2.06.19-3.21.22Zm3.69-2.91a4.39,4.39,0,0,1,5,1,2.66,2.66,0,0,1,.34.53c-.45.14-1,.31-1.66.46a4.73,4.73,0,0,0-2.63-1.25c-.88-.15-1.09-.67-1-.7Zm1.5,1.41a2.36,2.36,0,0,1,1.64.68c-.8.18-1.72.35-2.76.49a1.2,1.2,0,0,1,1.14-1.17Zm-.45,4.78c-.33,0-.51-1-.6-1.89a31.92,31.92,0,0,0,3.66-.69,7.37,7.37,0,0,1,.5,1.91,3.49,3.49,0,0,1-3.54.67Zm4.19-1.22a3.12,3.12,0,0,1-.23-.67,5.11,5.11,0,0,0-.29-.83c.35-.09.67-.21,1-.31a4.29,4.29,0,0,1-.52,1.81Z"/><path class="cls-1" d="M67.21,27.57V21h1.53v6.58c0,.49.31.56,1,.56v1a6.44,6.44,0,0,1-.86.09C67.64,29.23,67.21,28.6,67.21,27.57Z"/><path class="cls-1" d="M74.29,29.12l-.21-.7a2.09,2.09,0,0,1-1.71.81,1.82,1.82,0,0,1-2-1.65v-.22c0-1,.8-1.71,2.2-1.71h1.23v-.31c0-.74-.43-1-1-1a4,4,0,0,0-1.75.4l-.4-1.12a5.88,5.88,0,0,1,2.3-.47c1.65,0,2.36.76,2.36,2.25v3.7Zm-.44-2.55h-1c-.64,0-.93.31-.93.75a.76.76,0,0,0,.67.85h.19a1.76,1.76,0,0,0,1-.39Z"/><path class="cls-1" d="M78.05,24.82c0,.91,2.51.64,2.51,2.53,0,1-.78,1.88-2.29,1.88a3.79,3.79,0,0,1-1.75-.42l.32-1a2.75,2.75,0,0,0,1.39.41c.51,0,.85-.28.85-.64,0-1.05-2.49-.7-2.49-2.69,0-.86.66-1.63,2.22-1.63a4.63,4.63,0,0,1,1.65.29l-.21,1.13a3.39,3.39,0,0,0-1.4-.3C78.31,24.28,78.05,24.49,78.05,24.82Z"/><path class="cls-1" d="M87.7,29.23c-2.25,0-3.47-1.5-3.47-4.19,0-2.5,1.2-4.09,3.47-4.09a5,5,0,0,1,2.74.67l-.6,1.27a3.36,3.36,0,0,0-2-.57c-1.33,0-2,.95-2,2.71s.67,2.81,2,2.81a3.67,3.67,0,0,0,2.09-.75l.51,1.27A4.85,4.85,0,0,1,87.7,29.23Z"/><path class="cls-1" d="M95.37,29.12l-.24-.72a2.29,2.29,0,0,1-1.82.83c-1.45,0-2.1-.81-2.1-2.41V23.29h1.55v3.54c0,.89.32,1.22,1,1.22a1.89,1.89,0,0,0,1-.35V23.29h1.56v5.83Z"/><path class="cls-1" d="M97.74,27.57V21h1.53v6.58c0,.49.31.56,1,.56v1a6.44,6.44,0,0,1-.86.09C98.17,29.23,97.74,28.6,97.74,27.57Z"/><path class="cls-1" d="M103.38,29.23c-1,0-1.72-.48-1.72-1.95V24.39h-.86v-1.1h.86V22.24l1.54-.49v1.51h1.61v1.1H103.2v2.89a.59.59,0,0,0,.49.66h.13a2.11,2.11,0,0,0,.89-.21l.24,1.14A3.29,3.29,0,0,1,103.38,29.23Z"/><path class="cls-1" d="M110.05,29.12l-.24-.72a2.29,2.29,0,0,1-1.82.83c-1.45,0-2.09-.81-2.09-2.41V23.29h1.54v3.54c0,.89.32,1.22,1,1.22a1.86,1.86,0,0,0,1-.35V23.29h1.56v5.83Z"/><path class="cls-1" d="M115.64,24.59a2.5,2.5,0,0,0-.72-.1,1.76,1.76,0,0,0-1,.39v4.19h-1.55V23.29h1.05l.16.78h0a1.55,1.55,0,0,1,1.39-.89,2.52,2.52,0,0,1,.67.09Z"/><path class="cls-1" d="M120.06,29.12l-.21-.7a2.09,2.09,0,0,1-1.71.81,1.81,1.81,0,0,1-2-1.65v-.22c0-1,.79-1.71,2.2-1.71h1.23v-.31c0-.74-.43-1-1.05-1a4,4,0,0,0-1.74.4l-.4-1.12a5.83,5.83,0,0,1,2.29-.47c1.66,0,2.37.76,2.37,2.25v3.7Zm-.44-2.55h-1c-.64,0-.94.31-.94.75a.76.76,0,0,0,.69.85h.18a1.76,1.76,0,0,0,1-.39Z"/><path class="cls-1" d="M123.82,24.82c0,.91,2.51.64,2.51,2.53,0,1-.78,1.88-2.29,1.88a3.79,3.79,0,0,1-1.75-.42l.32-1a2.75,2.75,0,0,0,1.39.41c.5,0,.85-.28.85-.64,0-1.05-2.49-.7-2.49-2.69,0-.86.65-1.63,2.22-1.63a4.9,4.9,0,0,1,1.65.29L126,24.63a3.36,3.36,0,0,0-1.4-.3C124.07,24.28,123.82,24.49,123.82,24.82Z"/><path class="cls-1" d="M127.41,27.44H129v1.77c0,1-.56,1.41-1.57,1.52v-.81c.22,0,.38-.25.38-.8l-.38-.18Z"/><path class="cls-1" d="M67.21,39.69V33h1.53v6.58c0,.49.31.56,1,.56v1a4.26,4.26,0,0,1-.86.09C67.64,41.36,67.21,40.73,67.21,39.69Z"/><path class="cls-1" d="M74.29,41.24l-.21-.69a2.15,2.15,0,0,1-1.71.81,1.82,1.82,0,0,1-2-1.65v-.22c0-1.05.8-1.73,2.2-1.73h1.23v-.29c0-.76-.43-1-1-1a4.38,4.38,0,0,0-1.75.39l-.4-1a6,6,0,0,1,2.3-.48c1.65,0,2.36.77,2.36,2.25v3.7Zm-.44-2.55h-1c-.64,0-.93.31-.93.75a.78.78,0,0,0,.68.86h.18a1.76,1.76,0,0,0,1-.39Z"/><path class="cls-1" d="M78.05,36.94c0,.91,2.51.63,2.51,2.54,0,1.05-.78,1.88-2.29,1.88a3.72,3.72,0,0,1-1.76-.43l.32-1a2.75,2.75,0,0,0,1.39.41c.51,0,.85-.3.85-.65,0-1-2.49-.7-2.49-2.69,0-.85.66-1.63,2.22-1.63a4.89,4.89,0,0,1,1.65.28l-.2,1.08a3.55,3.55,0,0,0-1.4-.29C78.31,36.41,78.05,36.61,78.05,36.94Z"/><path class="cls-1" d="M85.39,41.24H83.84l2.17-8h2.6l2.1,8H89l-.42-1.81H85.82ZM87,34.59l-.88,3.59H88.3l-.83-3.59Z"/><path class="cls-1" d="M94.9,36.68a2.9,2.9,0,0,0-.72-.09,1.56,1.56,0,0,0-1.05.4v4.19H91.58V35.41h1l.17.79h0a1.56,1.56,0,0,1,1.39-.9,3,3,0,0,1,.67.08Z"/><path class="cls-1" d="M98,41.36c-1,0-1.72-.49-1.72-2v-2.9h-.9v-1.1h.86v-1l1.54-.51v1.52h1.55v1.1h-1.5v2.86a.57.57,0,0,0,.48.66h.13a1.94,1.94,0,0,0,.89-.21L99.57,41A3.48,3.48,0,0,1,98,41.36Z"/><path class="cls-1" d="M101.6,38.78a1.32,1.32,0,0,0,1.17,1.45,1.22,1.22,0,0,0,.33,0,4,4,0,0,0,1.71-.49l.29,1.1a4.67,4.67,0,0,1-2.19.57A2.72,2.72,0,0,1,100,38.87a2.9,2.9,0,0,1,0-.51c0-1.8.87-3,2.73-3s2.46,1.31,2.46,2.78v.67Zm1.05-2.31c-.78,0-1.05.7-1.05,1.4h2.1c.06-.8-.2-1.44-1-1.44Z"/><path class="cls-1" d="M107.74,36.94c0,.91,2.53.63,2.53,2.54,0,1.05-.79,1.88-2.3,1.88a3.8,3.8,0,0,1-1.75-.43l.33-1a2.65,2.65,0,0,0,1.37.41c.51,0,.86-.3.86-.65,0-1-2.49-.7-2.49-2.69,0-.85.65-1.63,2.23-1.63a5.09,5.09,0,0,1,1.64.28l-.22,1.08a3.55,3.55,0,0,0-1.4-.29C108,36.41,107.74,36.61,107.74,36.94Z"/><path class="cls-1" d="M116.33,41.1l-1,.19-1.73-5.88h1.73l1.23,4.89h0l1.25-4.89h1.55l-1.8,6c-.49,1.67-1.34,2.29-2.55,2.29a3.08,3.08,0,0,1-1.63-.57l.48-1.05H114a2.06,2.06,0,0,0,1,.41c.62,0,1-.42,1.24-1.18Z"/><path class="cls-1" d="M124.1,38.78a1.32,1.32,0,0,0,1.18,1.45,1.16,1.16,0,0,0,.32,0,3.83,3.83,0,0,0,1.71-.49l.3,1.1a4.83,4.83,0,0,1-2.2.57,2.72,2.72,0,0,1-2.89-2.53,2.9,2.9,0,0,1,0-.51c0-1.8.87-3,2.73-3s2.46,1.31,2.46,2.78v.67Zm1.05-2.31c-.78,0-1.05.7-1.05,1.4h2.1c0-.8-.2-1.44-1-1.44Z"/><path class="cls-1" d="M128.91,39.69V33h1.54v6.58c0,.49.3.56.93.56v1a3.93,3.93,0,0,1-.84.09C129.34,41.36,128.91,40.73,128.91,39.69Z"/><path class="cls-1" d="M69.68,50.57h-.89v2.79H67.23v-8h2.45c1.63,0,3,.78,3,2.51A2.74,2.74,0,0,1,70,50.58Zm0-3.92h-.84v2.69h.84a1.32,1.32,0,0,0,1.44-1.2,1,1,0,0,0,0-.24c0-.82-.59-1.25-1.49-1.25Z"/><path class="cls-1" d="M77,53.36l-.21-.68a2.09,2.09,0,0,1-1.7.77A1.8,1.8,0,0,1,73.1,51.8a1.48,1.48,0,0,1,0-.21c0-1.05.8-1.73,2.19-1.73h1.23v-.3a.9.9,0,0,0-.7-1.05,1,1,0,0,0-.35,0,4.23,4.23,0,0,0-1.75.4l-.35-1a6.12,6.12,0,0,1,2.31-.48c1.65,0,2.36.77,2.36,2.25v3.7Zm-.44-2.54h-1c-.64,0-.93.3-.93.74a.77.77,0,0,0,.71.84h.14a1.71,1.71,0,0,0,1.05-.4Z"/><path class="cls-1" d="M81.52,53.45c-1,0-1.71-.49-1.71-2V48.64h-.87V47.53h.87V46.48l1.53-.5v1.51H82.9V48.6H81.34v2.85c0,.41.2.67.62.67a2,2,0,0,0,.89-.22L83.09,53A3.2,3.2,0,0,1,81.52,53.45Z"/><path class="cls-1" d="M87.4,48.83a2.57,2.57,0,0,0-.73-.1,1.71,1.71,0,0,0-1,.39v4.19H84.08V47.53h1l.17.79h0a1.56,1.56,0,0,1,1.38-.9,2.72,2.72,0,0,1,.69.09Z"/><path class="cls-1" d="M88.81,53.36V48.65l-.68-.15v-1h2.22v5.83Zm0-8.21h1.57v1.42H88.81Z"/><path class="cls-1" d="M96.92,49.76v3.6H95.37V49.9c0-.88-.32-1.3-1-1.3a1.75,1.75,0,0,0-1,.35v4.41H91.76V47.53h1l.26.68a2.18,2.18,0,0,1,1.73-.8,1.85,1.85,0,0,1,1.81.82,2.34,2.34,0,0,1,1.76-.82c1.67,0,2.16.87,2.16,2.35v3.6H99V49.9c0-.88-.38-1.3-1-1.3a1.85,1.85,0,0,0-1,.35A3.14,3.14,0,0,1,96.92,49.76Z"/><path class="cls-1" d="M107,50.43c0,2-1,3-2.74,3s-2.73-1-2.73-3A2.75,2.75,0,0,1,107,50,3.84,3.84,0,0,1,107,50.43Zm-1.6,0c0-1.4-.41-1.88-1.14-1.88s-1.13.49-1.13,1.88.38,1.91,1.13,1.91S105.42,51.83,105.42,50.43Z"/><path class="cls-1" d="M111.8,53.36V49.9c0-.88-.33-1.3-1-1.3a1.89,1.89,0,0,0-1,.35v4.41h-1.56V47.53h1l.24.67a2.39,2.39,0,0,1,1.84-.79c1.48,0,2.1.87,2.1,2.35v3.6Z"/><path class="cls-1" d="M115.13,53.36V48.65l-.68-.15v-1h2.23v5.83Zm0-8.21h1.56v1.42h-1.56Z"/><path class="cls-1" d="M123.33,50.43c0,2-1,3-2.74,3s-2.74-1-2.74-3a2.75,2.75,0,0,1,5.48-.48A3.84,3.84,0,0,1,123.33,50.43Zm-1.6,0c0-1.4-.42-1.88-1.14-1.88s-1.13.49-1.13,1.88.36,1.91,1.13,1.91S121.73,51.83,121.73,50.43Z"/><text class="cls-2" transform="translate(162.34 114.18)">P</text><text class="cls-3" transform="translate(168.77 114.18)">R</text><text class="cls-4" transform="translate(175.16 114.18)">O</text><text class="cls-2" transform="translate(182.7 114.18)">Y</text><text class="cls-3" transform="translate(188.9 114.18)">E</text><text class="cls-4" transform="translate(194.71 114.18)">C</text><text class="cls-5" transform="translate(201.51 114.18)">T</text><text class="cls-2" transform="translate(206.76 114.18)">O FINANCIADO POR EL </text><text class="cls-6" transform="translate(323.35 114.18)">F</text><text class="cls-2" transform="translate(328.68 114.18)">ONDO N</text><text class="cls-7" transform="translate(370.21 114.18)">A</text><text class="cls-2" transform="translate(376.97 114.18)">CIONAL DE </text><text class="cls-2" transform="translate(162.34 129.27)">D</text><text class="cls-4" transform="translate(170.07 129.27)">E</text><text class="cls-8" transform="translate(175.81 129.27)">S</text><text class="cls-2" transform="translate(182.04 129.27)">AR</text><text class="cls-3" transform="translate(195.68 129.27)">R</text><text class="cls-2" transform="translate(202.08 129.27)">OL</text><text class="cls-9" transform="translate(215.91 129.27)">L</text><text class="cls-2" transform="translate(221.02 129.27)">O CU</text><text class="cls-10" transform="translate(246.42 129.27)">L</text><text class="cls-2" transform="translate(251.02 129.27)">TU</text><text class="cls-3" transform="translate(264.59 129.27)">R</text><text class="cls-2" transform="translate(270.98 129.27)">AL Y L</text><text class="cls-8" transform="translate(301.45 129.27)">A</text><text class="cls-2" transform="translate(308.27 129.27)">S A</text><text class="cls-4" transform="translate(324.46 129.27)">R</text><text class="cls-2" transform="translate(330.72 129.27)">T</text><text class="cls-4" transform="translate(336.79 129.27)">E</text><text class="cls-2" transform="translate(342.54 129.27)">S (</text><text class="cls-6" transform="translate(355.11 129.27)">F</text><text class="cls-2" transform="translate(360.45 129.27)">ON</text><text class="cls-11" transform="translate(375.97 129.27)">D</text><text class="cls-2" transform="translate(383.32 129.27)">A</text><text class="cls-4" transform="translate(390.32 129.27)">R</text><text class="cls-2" transform="translate(396.59 129.27)">T) 2022</text></g></svg>