<svg xmlns="http://www.w3.org/2000/svg" viewBox="0 0 79.29 58.24"><defs><style>.cls-1{fill:#033ad3;}</style></defs><g id="Capa_6" data-name="Capa 6"><path class="cls-1" d="M39.21,0c9.07,0,17.07.4,25.06.87,1.82.11,3.64.16,5.44.4A9.88,9.88,0,0,1,78,9.85a139.49,139.49,0,0,1,1.3,20.83A138.54,138.54,0,0,1,78,47.45,11.12,11.12,0,0,1,72.52,56,8.14,8.14,0,0,1,68.7,57c-4.49.25-9,.54-13.48.76-6.87.35-13.74.56-20.62.36-5.07-.15-10.13-.41-15.2-.66q-4.57-.22-9.13-.56A9.31,9.31,0,0,1,3.21,52.7a11.85,11.85,0,0,1-2-5.55A142.16,142.16,0,0,1,0,26.84,130.13,130.13,0,0,1,1,12.6,34.8,34.8,0,0,1,1.6,8.49a9.61,9.61,0,0,1,8.77-7.34C20.32.47,30.29,0,39.21,0ZM30.67,40.57,52.12,28.7,30.67,16.84Z"/></g></svg>