<svg xmlns="http://www.w3.org/2000/svg" viewBox="0 0 117.37 146.96"><defs><style>.cls-1{fill:#033ad3;}</style></defs><g id="Capa_6" data-name="Capa 6"><polygon class="cls-1" points="0 0 44.06 0 0 109.89 0 0"/><polygon class="cls-1" points="54.48 8.5 32.48 63.77 76.48 63.69 54.48 8.5"/><path class="cls-1" d="M4.24,123H6.76l4.18,11.17H8.39l-.85-2.49H3.36l-.87,2.49H0ZM4,129.85H6.9l-1.41-4.1h0Z"/><path class="cls-1" d="M11.21,123h6a3.7,3.7,0,0,1,1.36.24,3.14,3.14,0,0,1,1,.66,2.87,2.87,0,0,1,.66,1,3.18,3.18,0,0,1,.22,1.19,3.33,3.33,0,0,1-.41,1.71,2.62,2.62,0,0,1-1.35,1.09v0a1.91,1.91,0,0,1,.75.39,2.06,2.06,0,0,1,.48.61,2.9,2.9,0,0,1,.28.78,7.71,7.71,0,0,1,.11.84c0,.17,0,.38,0,.62s0,.49.06.73a5.26,5.26,0,0,0,.12.71,1.73,1.73,0,0,0,.26.58H18.37a3.28,3.28,0,0,1-.16-.58c0-.22-.07-.44-.09-.68s-.05-.47-.07-.72,0-.48-.07-.69a2.21,2.21,0,0,0-.53-1.29,1.82,1.82,0,0,0-1.33-.41H13.66v4.37H11.21Zm2.45,5.05h2.7a1.88,1.88,0,0,0,1.26-.37,1.57,1.57,0,0,0,.43-1.22,1.51,1.51,0,0,0-.43-1.19,1.93,1.93,0,0,0-1.26-.36h-2.7Z"/><path class="cls-1" d="M31.1,135.22l-1.58-1.44a5.18,5.18,0,0,1-1.23.49,6.26,6.26,0,0,1-1.48.17,5.52,5.52,0,0,1-2.32-.46,5.1,5.1,0,0,1-1.72-1.23,5.4,5.4,0,0,1-1.08-1.85,6.8,6.8,0,0,1-.37-2.27,7.05,7.05,0,0,1,.37-2.32,5.5,5.5,0,0,1,1.08-1.87,5,5,0,0,1,1.72-1.26,6.21,6.21,0,0,1,4.64,0,5,5,0,0,1,1.72,1.26,5.5,5.5,0,0,1,1.08,1.87,7.05,7.05,0,0,1,.37,2.32,6.71,6.71,0,0,1-.37,2.27,5.6,5.6,0,0,1-1.08,1.85L32.24,134ZM27.89,130l1.27,1.16a3.48,3.48,0,0,0,.5-1.06,5.5,5.5,0,0,0,.19-1.51,6.07,6.07,0,0,0-.17-1.42,3.77,3.77,0,0,0-.52-1.23,2.59,2.59,0,0,0-.94-.86,3.27,3.27,0,0,0-2.82,0,2.68,2.68,0,0,0-.94.86,3.77,3.77,0,0,0-.52,1.23,6.07,6.07,0,0,0-.17,1.42,5.65,5.65,0,0,0,.17,1.37,3.8,3.8,0,0,0,.52,1.2,2.74,2.74,0,0,0,.94.85,2.94,2.94,0,0,0,1.41.32h.56a.68.68,0,0,0,.43-.14l-1.05-1Z"/><path class="cls-1" d="M42.76,130a4.25,4.25,0,0,1-1.27,3.38,5.12,5.12,0,0,1-3.5,1.11,5.11,5.11,0,0,1-3.52-1.11A4.27,4.27,0,0,1,33.23,130V123h2.46V130a5.26,5.26,0,0,0,.07.89,2.09,2.09,0,0,0,.33.78,1.77,1.77,0,0,0,.7.55,3.06,3.06,0,0,0,1.2.2,2.26,2.26,0,0,0,1.81-.59,2.74,2.74,0,0,0,.5-1.83V123h2.46Z"/><rect class="cls-1" x="44.17" y="123" width="2.46" height="11.18"/><polygon class="cls-1" points="50.55 125.06 47.2 125.06 47.2 123 56.36 123 56.36 125.06 53.01 125.06 53.01 134.17 50.55 134.17 50.55 125.06"/><polygon class="cls-1" points="56.94 123 65.3 123 65.3 125.06 59.4 125.06 59.4 127.46 64.81 127.46 64.81 129.37 59.4 129.37 59.4 132.11 65.42 132.11 65.42 134.17 56.94 134.17 56.94 123"/><path class="cls-1" d="M73.83,126.75a2,2,0,0,0-.28-.77,2.5,2.5,0,0,0-.55-.62,2.34,2.34,0,0,0-.74-.41,2.57,2.57,0,0,0-.87-.15,2.78,2.78,0,0,0-1.41.32A2.59,2.59,0,0,0,69,126a3.79,3.79,0,0,0-.53,1.23,6.64,6.64,0,0,0-.16,1.42,6.19,6.19,0,0,0,.16,1.37,3.82,3.82,0,0,0,.53,1.2,2.66,2.66,0,0,0,.94.85,2.88,2.88,0,0,0,1.41.32,2.27,2.27,0,0,0,1.76-.69,3.22,3.22,0,0,0,.77-1.81H76.3a5.59,5.59,0,0,1-.48,1.89,4.5,4.5,0,0,1-2.54,2.36,5.43,5.43,0,0,1-1.89.32,5.52,5.52,0,0,1-2.32-.46,5,5,0,0,1-1.72-1.23,5.4,5.4,0,0,1-1.08-1.85,6.8,6.8,0,0,1-.38-2.27,7.06,7.06,0,0,1,.38-2.32,5.5,5.5,0,0,1,1.08-1.87,5,5,0,0,1,1.72-1.26,5.68,5.68,0,0,1,2.32-.45,5.56,5.56,0,0,1,1.74.27,4.49,4.49,0,0,1,1.47.77A4.25,4.25,0,0,1,75.68,125a4.69,4.69,0,0,1,.53,1.72Z"/><polygon class="cls-1" points="79.75 125.06 76.39 125.06 76.39 123 85.55 123 85.55 125.06 82.2 125.06 82.2 134.17 79.75 134.17 79.75 125.06"/><path class="cls-1" d="M95.62,130a4.28,4.28,0,0,1-1.27,3.38,5.17,5.17,0,0,1-3.51,1.11,5.1,5.1,0,0,1-3.51-1.11A4.28,4.28,0,0,1,86.08,130V123h2.46V130a5.26,5.26,0,0,0,.08.89,1.76,1.76,0,0,0,1,1.33,3.06,3.06,0,0,0,1.2.2,2.29,2.29,0,0,0,1.82-.59,2.8,2.8,0,0,0,.5-1.83V123h2.46Z"/><path class="cls-1" d="M97,123h6a3.61,3.61,0,0,1,1.35.24,3.08,3.08,0,0,1,1,.66,3.09,3.09,0,0,1,.88,2.18,3.43,3.43,0,0,1-.41,1.71,2.61,2.61,0,0,1-1.36,1.09v0a1.78,1.78,0,0,1,.75.39,2.09,2.09,0,0,1,.49.61,2.88,2.88,0,0,1,.27.78,5.86,5.86,0,0,1,.12.84c0,.17,0,.38,0,.62s0,.49.06.73a4,4,0,0,0,.12.71,1.73,1.73,0,0,0,.26.58h-2.46a2.6,2.6,0,0,1-.16-.58c0-.22-.07-.44-.1-.68s0-.47-.06-.72,0-.48-.07-.69a2.21,2.21,0,0,0-.53-1.29,1.84,1.84,0,0,0-1.33-.41H99.48v4.37H97Zm2.46,5.05h2.69a1.84,1.84,0,0,0,1.26-.37,1.53,1.53,0,0,0,.43-1.22,1.48,1.48,0,0,0-.43-1.19,1.89,1.89,0,0,0-1.26-.36H99.48Z"/><path class="cls-1" d="M110.67,123h2.52l4.18,11.17h-2.55l-.85-2.49H109.8l-.88,2.49h-2.49Zm-.23,6.85h2.89l-1.41-4.1h0Z"/><path class="cls-1" d="M10.67,142.47a4.28,4.28,0,0,1-1.26,3.38A5.17,5.17,0,0,1,5.9,147a5.14,5.14,0,0,1-3.51-1.1,4.31,4.31,0,0,1-1.25-3.39v-6.95H3.6v6.95a5.26,5.26,0,0,0,.08.89,1.81,1.81,0,0,0,.33.78,1.74,1.74,0,0,0,.69.55,2.88,2.88,0,0,0,1.2.2,2.32,2.32,0,0,0,1.82-.58,2.85,2.85,0,0,0,.5-1.84v-6.95h2.45Z"/><path class="cls-1" d="M13.76,143a2.13,2.13,0,0,0,.2,1,1.85,1.85,0,0,0,.54.63,2.53,2.53,0,0,0,.78.36,3.69,3.69,0,0,0,1,.12,6.22,6.22,0,0,0,.71-.05,2.38,2.38,0,0,0,.7-.22,1.45,1.45,0,0,0,.55-.43,1.1,1.1,0,0,0,.22-.69,1,1,0,0,0-.29-.74,2.47,2.47,0,0,0-.76-.48,5.87,5.87,0,0,0-1.07-.32c-.39-.09-.8-.2-1.2-.31a9.62,9.62,0,0,1-1.22-.38,4.26,4.26,0,0,1-1.07-.59A3,3,0,0,1,12,140a2.8,2.8,0,0,1-.29-1.32,3,3,0,0,1,.37-1.49,3.48,3.48,0,0,1,1-1.06,4.16,4.16,0,0,1,1.35-.62,5.54,5.54,0,0,1,1.5-.21,7.18,7.18,0,0,1,1.69.2,4.3,4.3,0,0,1,1.43.63,3.14,3.14,0,0,1,1,1.12,3.35,3.35,0,0,1,.37,1.65H18a2,2,0,0,0-.21-.83,1.31,1.31,0,0,0-.48-.51,1.92,1.92,0,0,0-.69-.27,4.33,4.33,0,0,0-.83-.08,3,3,0,0,0-.59.06,1.86,1.86,0,0,0-.54.22,1.39,1.39,0,0,0-.4.4,1.1,1.1,0,0,0-.16.59.93.93,0,0,0,.13.53,1,1,0,0,0,.49.37,8,8,0,0,0,1,.34l1.7.45.53.13a6.49,6.49,0,0,1,.7.24,4.25,4.25,0,0,1,.73.38,3.07,3.07,0,0,1,.67.58,2.69,2.69,0,0,1,.5.82,3.14,3.14,0,0,1,.19,1.11,3.38,3.38,0,0,1-.3,1.42,3,3,0,0,1-.89,1.13,4.42,4.42,0,0,1-1.45.76,7.24,7.24,0,0,1-3.81,0,4.36,4.36,0,0,1-1.52-.72,3.61,3.61,0,0,1-1.06-1.23,3.72,3.72,0,0,1-.38-1.79Z"/><polygon class="cls-1" points="21.54 135.52 25 135.52 27.61 143.2 27.64 143.2 30.11 135.52 33.57 135.52 33.57 146.69 31.27 146.69 31.27 138.77 31.24 138.77 28.5 146.69 26.61 146.69 23.87 138.85 23.84 138.85 23.84 146.69 21.54 146.69 21.54 135.52"/><polygon class="cls-1" points="101.72 100.16 95.48 106.39 95.49 76.55 116.59 97.61 116.59 76.5 116.59 76.5 116.41 0 64.91 0 95.48 76.55 27.41 76.69 14.19 109.89 105.6 109.89 101.72 100.16"/><polygon class="cls-1" points="107.25 97.86 112.07 109.89 116.59 109.89 116.59 97.86 107.25 97.86"/></g></svg>