<svg xmlns="http://www.w3.org/2000/svg" xmlns:xlink="http://www.w3.org/1999/xlink" viewBox="0 0 65.97 66.46"><defs><style>.cls-1{fill:none;}.cls-2{clip-path:url(#clip-path);}.cls-3{fill:#ffbe00;}.cls-4{fill:#fff;}.cls-5{fill:#f5b5cd;}</style><clipPath id="clip-path"><rect class="cls-1" x="334.14" y="-1036.88" width="1366" height="2853.96"/></clipPath></defs><title>web-E1 activaciones-2</title><g id="fondos"><g class="cls-2"><path class="cls-3" d="M977.49,779.88c-22,8.31-57.59,8.31-79.56,0L264.29,541.31c-22-8.12-49-31.53-60.48-52L-134.25-116.26c-11.43-20.59-17.51-56-13.56-79L-30.32-884.56c4-23.08,21.53-54.29,39.25-69.72l517.2-448.9c17.74-15.28,51.13-27.73,74.61-27.73h674c23.46,0,56.86,12.45,74.59,27.73l517.2,448.9c17.74,15.43,35.29,46.64,39.25,69.72l117.51,689.27c4,23.08-2.12,58.44-13.58,79l-338,605.62c-11.45,20.42-38.53,43.84-60.5,52Z"/><path class="cls-4" d="M1840.3-50.88c-47.23-29.33-130.15-46.55-185.15-38.45L402.55,94.45c-55,8-128.9,47.32-165.1,88.18L-608.9,1134.89c-36.14,40.82-66.83,117.53-68.47,171.4l-39.47,1276.23c-1.64,53.88,24.51,133,58.5,176.35l784.52,998.36c34,43.35,105.85,87.53,160.52,98.89l1238.05,257.09c54.68,11.35,138.23-.55,186.67-26.79l1117.1-603.48c48.44-26.24,103.93-88.4,123.88-138.48L3424.31,2158c19.95-50.08,22.38-132.65,5.44-184.49L3032.5,763c-16.94-51.9-69.05-117.34-116.29-146.61Z"/></g></g><g id="figuras"><path class="cls-5" d="M33,3.79c-4.18,0-5.63-5.4-9.25-3.31s.39,9-3.23,11.13S12.88,6.75,9.25,8.84s.33,6-1.76,9.67S0,20.68,0,24.87,8,29,8,33.23s-8,4.18-8,8.37S5.4,44.33,7.49,48s-1.86,7.57,1.76,9.66,7.63-4.86,11.25-2.77-.39,9,3.23,11.14,5.07-3.31,9.25-3.31,5.63,5.4,9.25,3.31-.39-9,3.23-11.13,7.64,4.86,11.26,2.77-.33-6,1.76-9.67S66,45.78,66,41.6s-8-4.18-8-8.36,8-4.18,8-8.37-5.4-2.74-7.49-6.36,1.86-7.57-1.76-9.67-7.63,4.86-11.25,2.77S45.65,1.89,41.79.26C38.45-1.15,37.17,3.79,33,3.79"/></g></svg>