<svg xmlns="http://www.w3.org/2000/svg" viewBox="0 0 294.23 293.25"><defs><style>.cls-1{fill:#033ad3;}</style></defs><title>web-locus-1</title><g id="figuras"><path class="cls-1" d="M294.23,146.62c0,3.65-31.62,6-31.91,9.57s30.52,11.09,29.93,14.64-32.17.71-33.05,4.2,28.27,16,27.1,19.39-31.84-4.65-33.29-1.35,25.23,20.43,23.51,23.61-30.63-9.85-32.61-6.83,21.53,24.3,19.3,27.16-28.6-14.75-31-12.09,17.26,27.5,14.6,30-25.79-19.23-28.65-17,12.53,30,9.49,31.93-22.28-23.21-25.47-21.48,7.43,31.6,4.1,33.06S188.1,254.81,184.66,256s2.1,32.39-1.43,33.28-13.47-29.21-17.06-28.62-3.28,32.29-6.92,32.59-8.48-31-12.13-31-8.56,31.32-12.13,31-3.37-32-6.92-32.59-13.57,29.5-17.07,28.62,2-32.12-1.43-33.29S91.3,282.83,88,281.37s7.28-31.34,4.1-33.06-22.45,23.45-25.47,21.48S79,240.07,76.12,237.85s-26,19.46-28.65,17,17-27.29,14.6-30S33.25,239.85,31,237s21.29-24.12,19.31-27.15-30.88,10-32.61,6.83,25-20.28,23.51-23.6S9.12,197.84,7.94,194.4,35.93,178.55,35,175,2.58,174.42,2,170.83s30.23-11,29.93-14.64S0,150.28,0,146.62s31.62-6,31.91-9.57S1.4,126,2,122.42s32.17-.71,33.05-4.2-28.27-16-27.1-19.39,31.84,4.65,33.29,1.35S16,79.75,17.72,76.58s30.63,9.85,32.61,6.83S28.8,59.1,31,56.25s28.6,14.75,31,12.09-17.26-27.5-14.6-30,25.79,19.23,28.65,17-12.53-30-9.49-31.93S88.92,46.66,92.1,44.94,84.68,13.33,88,11.87s18.13,26.57,21.57,25.39S107.47,4.87,111,4s13.47,29.21,17.06,28.62S131.35.3,135,0s8.48,31,12.13,31S155.67-.29,159.25,0s3.37,32,6.92,32.59S179.74,3.1,183.23,4s-2,32.12,1.43,33.29,18.27-26.84,21.57-25.39-7.28,31.34-4.1,33.06,22.45-23.46,25.47-21.48-12.34,29.71-9.49,31.94,26-19.46,28.65-17-17,27.29-14.6,30,28.82-14.94,31-12.09-21.29,24.12-19.31,27.15,30.88-10,32.61-6.83-25,20.28-23.51,23.6,32.11-4.78,33.29-1.34-28,15.85-27.1,19.38,32.45.6,33.05,4.19-30.23,11-29.93,14.64,31.91,5.91,31.91,9.57"/></g></svg>