<svg xmlns="http://www.w3.org/2000/svg" xmlns:xlink="http://www.w3.org/1999/xlink" viewBox="0 0 294.52 70.33"><defs><style>.cls-1{fill:none;}.cls-2{clip-path:url(#clip-path);}.cls-3{fill:#fff;}</style><clipPath id="clip-path"><rect class="cls-1" x="1770.23" y="-5232.93" width="1366" height="5518.05"/></clipPath></defs><g id="fondos"><g class="cls-2"><path class="cls-3" d="M1725.51-1501.84c-60.37-8.78-150.75,11.19-201.79,44.59L360.77-697.4C309.65-664,254-589.89,236.63-531.23L-171.83,836.94c-17.37,58.58-13,151.73,10,208.09L380.35,2380.32c22.92,56.36,85,126.13,138.58,155.41l1235.71,673.41c53.59,29.28,145.23,42.17,204.82,29L3308.81,2940c59.59-13.17,137.33-63.49,173.59-112.62L4319.25,1696c36.25-49.13,63.15-138.56,60.19-199.33L4308.53,57.2c-3-60.77-38.16-147.11-78.65-192.91L3283-1204.37c-40.51-45.86-122.19-89.69-182.55-98.41Z"/></g></g><g id="figuras"><path class="cls-3" d="M35.81,22.14C38,17,37.39,11.81,31.74,11.81s-12.17,3.58-17.58,15.5-2.53,21,3.82,21,14.6-5.89,24.42-26.13H35.81M85,56.91c-5.61,0-9-4.39-7.23-9.81a75.71,75.71,0,0,1,4.77-11.22c1.12-2.23-1.42-2.07-3.47-.59L69.42,55.5H59s8.39-16.85,9.81-19.61-3.78-1.71-4.43-.58L53.69,55.53H44.84c-.48-.54-1.29-.22-1-1.56-6.68,4.86-11.06,1.58-12.64-3-4.52,4.63-8.07,6.33-17,6.33C-1.67,57.26-2.95,38,4.06,24.43,12,9.12,23,1.59,34.19,1.59c6,0,11.68,5.59,12.41,11.9C47.69,11.42,50,5.84,50,5.84H60.45S44,40.09,42.34,43.52c-.49,5.22,5.35,2.31,6.69.61S59.1,25.62,59.1,25.62h7.34a1.92,1.92,0,0,1,1.06,2.63,19.58,19.58,0,0,1,2.13-1.65c3.78-2.23,9.46-2.32,9.89,2.34,8.33-8.34,15.62-1.32,12.84,5.19-1.19,2.77-3,6.85-4,8.91-1.12,2.49-1.85,4.88-.38,5.31s4.39-1.18,7.12-6.34h0s13.2-25.1,17-32.29S122,.78,126.2.78s10,3.45,8.43,11.42-9.41,14.51-21.31,14.91c0,0-5.74,12-7.71,15.94s-.91,5.76.92,5.76c4.45,0,7.58-6.16,7.32-9.8-.27-.66-.91.38-2-.54-2.48-4.18,2.75-9.4,6.4-9.4s6.81,1.57,6.67,7.84c7.18-.66,8.89-7.2,11.16-11.27h9s.22.82-.95,3.16a6.26,6.26,0,0,1,6.54-1.69c2.76.8,2.62,6.15,1.3,8.89a13.76,13.76,0,0,0,2.2.33c5.06-11.06,13.94-13.12,18.69-13.12,1.85,0,8.41,1.51,10.36,7.71a66,66,0,0,0,7.3-2.34c4.27-18.06,15.72-25.24,32.33-20,0,0-2.89,4.07-5.65,8.76-8-1.95-17.62,1.15-18.67,23.26,2.45-1,4.82-1.68,7.16-2.76,5-12.34,14.37-14.58,19.34-14.58,1.93,0,9.1,1.67,10.61,8.71a43.66,43.66,0,0,0,10.86-4.1C250.93,18.23,256,8.11,257.61,5.4c2.62-4.35,7-5.4,11.37-5.4s10.6,5.92,7.29,13.06C271,24.48,262.15,25.44,257.78,25.79c-1.56,3.66-6.61,13.6-8.36,18.14s5.41,5.75,9.59.53c1.91-2.1,8-11.51,11.58-18.82h10.3s-7.23,13.06-8.8,16.2-.88,6.62,1.57,6.62,9.76-3.14,11.34-10.28c0,0,5.21,2.44,6.79,3.48-13.59,25.1-27,15-30,10.81-4.19,3.66-5.06,4.88-12,4.88s-12.55-4.53-9.77-13.6c.39-1.27,1-2.84,1.67-4.62-2.11.58-4.84,1.14-6.71,1.63C231.81,51.34,222.77,57,215.17,57a11.88,11.88,0,0,1-10.73-9c-2.31,1-5.89,2.86-7.77,3.69-5.32,15.69-19.41,22.78-33.93,16.23l5.09-7.32c13.59,2.59,18.1-7,21-22.34-1.83.48-4,.95-5.68,1.37C180.29,50.92,170.89,57,163,57a11.9,11.9,0,0,1-11.08-11.29l-.17.07c-9.68,3.14-10.6-5.62-8.9-8-.78.13-1.57-.13-2.48,0-3,3.39-9.55,17.65-9.55,17.65H120.65c.65-2.36,4.57-9.41,5.88-11.77a23.34,23.34,0,0,1-3.4.26C114.9,57.7,107.45,57.05,105,57.05s-6.59-.19-9.71-5c-3.7,3.56-6.56,4.83-10.24,4.83m32.65-38.37c6.63-.67,9.79-7.27,8.29-8.3-2.72-1.87-4.89,1.57-8.29,8.3M261,16.6c6.62-.67,9.79-7.27,8.31-8.31-2.74-1.87-4.92,1.57-8.31,8.31m-88.8,15.9c-3.75-1.4-8.34,2.86-9.62,6.78s-.43,8.56,2.15,9,7.59-2,9.3-7.63-.1-7.5-1.83-8.14m52.21,0c-3.76-1.4-8.34,2.86-9.63,6.78s-.42,8.56,2.16,9,7.58-2,9.3-7.63-.12-7.5-1.83-8.14m63.4-19.26a5.91,5.91,0,0,1-6.09,5.06c-2.87,0-4.6-3.52-3.48-6.11A6.17,6.17,0,0,1,284,8.33C286.37,8.33,288.15,10.29,287.77,13.24Z"/><path class="cls-3" d="M290.21,27a4.41,4.41,0,1,1-4.38,4.4,4.34,4.34,0,0,1,4.38-4.4Zm0,.69a3.73,3.73,0,0,0,0,7.44,3.73,3.73,0,0,0,0-7.44ZM289.37,34h-.78V29.07A10,10,0,0,1,290,29a2.58,2.58,0,0,1,1.53.37,1.16,1.16,0,0,1,.44,1,1.21,1.21,0,0,1-.95,1.19v0c.43.08.72.47.82,1.19a4.16,4.16,0,0,0,.31,1.22h-.82a3.68,3.68,0,0,1-.33-1.25.92.92,0,0,0-1.06-.86h-.54Zm0-2.72h.56c.65,0,1.19-.23,1.19-.84,0-.43-.31-.86-1.19-.86a3.6,3.6,0,0,0-.56,0Z"/></g></svg>