<svg xmlns="http://www.w3.org/2000/svg" xmlns:xlink="http://www.w3.org/1999/xlink" viewBox="0 0 525.89 164.59"><defs><style>.cls-1{fill:none;}.cls-2{clip-path:url(#clip-path);}.cls-3{fill:#fff;}</style><clipPath id="clip-path"><rect class="cls-1" x="1330.71" y="-3432.07" width="1366" height="1284.16"/></clipPath></defs><g id="fondos"><g class="cls-2"><path class="cls-3" d="M1497-2835.1c-50.5-6.7-125.75,10.9-168,39.31L365.8-2149.36c-42.33,28.37-88,90.87-101.93,140L-63-862.79C-76.95-813.7-72.31-736-52.59-689.16L413.91,420.13C433.63,467,486.18,524.56,531.22,548.45L1569.91,1098c45,23.89,121.69,33.71,171.31,22.1L2864.76,857.19c49.62-11.61,114-54.43,143.77-95.83l687-953.27c29.77-41.39,51.31-116.33,48.2-167L3669.7-1560.06c-3.1-50.71-33.38-122.43-67.66-160.25l-801.65-882.5c-34.29-37.87-102.95-73.62-153.43-80.27Z"/><path class="cls-3" d="M1286-977c-60.37-8.77-150.75,11.2-201.8,44.59L-78.75-172.53C-129.87-139.18-185.48-65-202.89-6.36L-611.35,1361.81c-17.37,58.58-13,151.72,10,208.08l542.23,1335.3c22.92,56.36,85,126.13,138.57,155.4L1315.12,3734c53.59,29.28,145.23,42.17,204.82,29l1349.35-298.16c59.59-13.17,137.33-63.49,173.59-112.62l836.85-1131.39c36.25-49.13,63.15-138.56,60.19-199.33L3869,582.07c-3-60.77-38.16-147.11-78.65-192.91L2843.43-679.51c-40.51-45.86-122.2-89.68-182.55-98.4Z"/></g></g><g id="figuras"><path class="cls-3" d="M400.35,79.29a7.92,7.92,0,0,0-8,7.86,8,8,0,1,0,15.89-.67,8,8,0,0,0-7.93-7.19M407.53,101H393v44.16h14.58ZM264.78,145.17v-1.41c0-7.12,0-14.24,0-21.35a14.75,14.75,0,0,1,.41-3.38,6.39,6.39,0,0,1,7.53-5.17,18.7,18.7,0,0,1,2.89.86c0-4.45,0-8.82,0-13.18a1.37,1.37,0,0,0-.71-.93,6.55,6.55,0,0,0-8,1.59,45.31,45.31,0,0,0-2.86,4.23c-.47-1.8-.94-3.63-1.42-5.44H249.88v44.18ZM287,110.72v1.44c.08,7.45.07,14.89.27,22.33a10.58,10.58,0,0,0,3.37,7.8,11.47,11.47,0,0,0,6.59,2.75,24.75,24.75,0,0,0,11-1,.92.92,0,0,0,.54-.65c0-3.77,0-7.54,0-11.39-.72.34-1.32.69-2,.92-2.25.75-4.14-.12-4.65-2.16a8.5,8.5,0,0,1-.22-2.08q0-8.4,0-16.79v-1.18h6.78V99.81h-7.47V86.47c-3.95,0-7.77,0-11.58,0-.23,0-.64.45-.66.73-.27,2.86-.47,5.73-.71,8.6-.12,1.33-.32,2.66-.48,4h-6.09v10.84Zm76.55,0c0,.61,0,1,0,1.48.07,7.44.06,14.89.26,22.32a10.55,10.55,0,0,0,3.29,7.73,11.54,11.54,0,0,0,6.67,2.82,24.51,24.51,0,0,0,11-1.06,1,1,0,0,0,.54-.64c0-3.77,0-7.54,0-11.4a18,18,0,0,1-2,.93c-2.26.76-4.12-.1-4.63-2.17a9.33,9.33,0,0,1-.23-2.18c0-5.53,0-11.05,0-16.57v-1.29h6.78V99.81h-7.47V86.47c-3.95,0-7.76,0-11.58,0a.93.93,0,0,0-.66.63c-.2,1.9-.31,3.82-.48,5.73-.21,2.3-.44,4.6-.68,7h-6.16v10.83ZM244.05,144.31c-.14-.41-.24-.72-.36-1a35.46,35.46,0,0,1-2.34-12.83c0-4.78,0-9.56,0-14.35a31.25,31.25,0,0,0-.21-3.2c-.87-7.32-6.35-13.36-15.09-14A32.32,32.32,0,0,0,210.31,102a1.18,1.18,0,0,0-.85,1.3c0,3.26,0,6.53,0,9.79a8.64,8.64,0,0,0,.1.89c.68-.46,1.25-.88,1.84-1.25A15.27,15.27,0,0,1,223,110.28c2.21.44,4.44,1.68,4.91,4.57-1.47.26-3,.48-4.42.77a35.66,35.66,0,0,0-11.39,3.92c-5.27,3-7.7,7.6-7,13.67a13.76,13.76,0,0,0,5.54,9.37,11.39,11.39,0,0,0,13.65.77,47.72,47.72,0,0,0,3.65-3.11c.33,1.06.69,2.15,1,3.25a1.06,1.06,0,0,0,1.2.85c2.56-.06,5.12,0,7.68,0h6.19m258.57-22.5c-.32-2.37-.47-4.77-1-7.09-2.61-12-13.18-17.45-24.33-15.45-6.86,1.22-11.47,5.48-14.12,11.78a29,29,0,0,0-.94,19.83c1.6,5.51,4.73,9.91,10,12.47A22,22,0,0,0,484.89,145c6.87-.85,11.66-4.56,14.81-10.6a29.11,29.11,0,0,0,2.92-12.6m-71.09-16.29c-.43-1.35-.84-2.48-1.13-3.64a1.1,1.1,0,0,0-1.29-1c-3.63.06-7.27,0-10.9,0-.28,0-.56.06-.8.08v44.12H432V144c0-8.34,0-16.68,0-25a7.49,7.49,0,0,1,1.92-5.39,2.93,2.93,0,0,1,3.1-.91A2.54,2.54,0,0,1,439,115a11.42,11.42,0,0,1,.18,1.64q0,13.62,0,27.24v1.29h14.67v-1.42c0-10.19,0-20.39,0-30.58a15.13,15.13,0,0,0-.46-3.92c-2-7.24-8.69-10.87-15.59-8.7a12.26,12.26,0,0,0-6.24,5M316.11,99.88c0,.29-.05.54-.05.79q0,14.73,0,29.47a18.68,18.68,0,0,0,1.61,7.93c3.55,7.75,12.32,9.59,18.55,3.83a27.1,27.1,0,0,0,2-2.28c.51,1.56.94,2.7,1.24,3.87.17.68.5.85,1.15.84,3.6,0,7.2,0,10.79,0,.32,0,.64,0,.95-.06V99.88H337.47v1.35q0,12.92,0,25.81a6.06,6.06,0,0,1-1.55,4.37c-1.76,1.85-4.21,1.3-4.86-1.16a12.85,12.85,0,0,1-.41-3.27c0-8.6,0-17.2,0-25.8v-1.3ZM197.89,145.16V80.24c-5.19,0-10.31,0-15.42,0a1.39,1.39,0,0,0-1.57,1.08c-2.45,6.84-4.94,13.66-7.42,20.49-.39,1-.8,2.11-1.29,3.39-.23-.58-.36-.87-.47-1.18q-4.12-11.33-8.23-22.65a1.38,1.38,0,0,0-1.55-1.13c-4.74.06-9.49,0-14.23,0-.36,0-.71,0-1.06.05v64.86h14.64c-.25-14.32.48-28.59-.75-42.8,1-.21,1.27,0,1.43.87a31,31,0,0,0,1.2,4.44q4,11.78,8,23.5c.3.89.62,1.76,1,2.94,3.55-10.82,7.82-21,10.53-31.84l1.12.07c-1.13,14.3-.74,28.54-.81,42.83ZM223.05,42.55a8.26,8.26,0,0,0,6.44,3,6.13,6.13,0,0,0,6-4.38A6,6,0,0,0,233,34.3a11,11,0,0,0-8.9-1.4c-6.66,1.54-11.46,5.35-13.39,12.09-2.17,7.59.38,14.73,7.56,19.52a29.52,29.52,0,0,0,11.89,4.38,67.72,67.72,0,0,0,13.11.91,30.44,30.44,0,0,0,11.18-2.71,33.21,33.21,0,0,0,12.54-9,28.64,28.64,0,0,0,4.65-8.48c.38-1,.73-2,1.18-3.34.36,1.17.63,2.1.91,3C276,56.78,281.06,62,287.77,65.73a34,34,0,0,0,14.07,4.09,34.63,34.63,0,0,0,23.74-6.45,26.45,26.45,0,0,0,11-16.66A3.56,3.56,0,0,1,337,46a26.73,26.73,0,0,0,5.1,11.51,31.52,31.52,0,0,0,16.13,10.92,33.89,33.89,0,0,0,12,1.53c9.87-.59,18.41-4.13,24.88-11.85a24.55,24.55,0,0,0,5.39-11.23,10,10,0,0,1,.34-1,26.29,26.29,0,0,0,3.87,9.7c4.71,7,11.39,11.18,19.46,13.26A32.43,32.43,0,0,0,434.29,70c11.89-.77,21.67-5.37,27.84-16,1.38-2.38,2.12-5.12,3.08-7.51.2.73.44,1.78.78,2.81,3,9,9.34,14.73,17.9,18.23a27.52,27.52,0,0,0,9.71,2.25c6.08.18,12.15.2,18.22.24,4.23,0,8.46,0,12.68,0h1.3c0,.51.07.9.07,1.29q0,46,0,92c0,1.06-.31,1.3-1.32,1.3q-219.38,0-438.75,0-42.16,0-84.32-.05c-1.5,0-1.5,0-1.5-1.51v-6.22H1.53q42.95,0,85.88,0a2.22,2.22,0,0,0,2.08-1.07,90.38,90.38,0,0,0,9-17.08c3.87-9.28,7.49-18.67,11.32-28,4.4-10.63,9-21.15,13.33-31.81a294.92,294.92,0,0,1,14.09-30.67c4.38-8.05,9.07-15.94,15.27-22.76,10.61-11.69,23.2-20.33,38.84-23.89A62.27,62.27,0,0,1,201.13.19a73.9,73.9,0,0,1,10.73,0,47.71,47.71,0,0,1,21.79,7.44c4.76,3,9.13,6.44,12.37,11.11a22.72,22.72,0,0,1,4.37,14,22.42,22.42,0,0,1-6.74,16,16.07,16.07,0,0,1-9.06,4.19,13.71,13.71,0,0,1-6.55-.37,8.06,8.06,0,0,1-5.37-8.76,9.61,9.61,0,0,1,.38-1.2"/><path class="cls-3" d="M16.73,80.28H54V92.06c0,1.47,0,1.47-1.42,1.47H32v11.68H52.39V118H32.06v13.9h1.28c6.45,0,12.9,0,19.35,0,1.06,0,1.31.33,1.29,1.33-.06,3.67,0,7.34,0,11,0,.36,0,.72-.05,1.14H16.73Z"/><rect class="cls-3" x="61.74" y="80.28" width="14.91" height="65.09"/><path class="cls-3" d="M487.5,122.11c-.4,2.53-.63,5.1-1.24,7.58-.48,2-1.57,3.65-3.9,4a4.07,4.07,0,0,1-4.22-1.78,10.87,10.87,0,0,1-1.8-5.82,77,77,0,0,1,0-8.18,10.53,10.53,0,0,1,1.92-6,4.11,4.11,0,0,1,7,.32,18.38,18.38,0,0,1,1.65,5.07,35.37,35.37,0,0,1,.35,4.74l.21,0"/><path class="cls-3" d="M228.21,122.4c-.23,2.93-.3,5.81-.71,8.64a4.08,4.08,0,0,1-2.9,3.47,4.58,4.58,0,0,1-5.68-3.28c-.81-2.8-.24-5.5,2.56-7.21a11.79,11.79,0,0,1,6.73-1.62"/></g></svg>