<svg xmlns="http://www.w3.org/2000/svg" xmlns:xlink="http://www.w3.org/1999/xlink" viewBox="0 0 567.94 564.4"><defs><style>.cls-1{fill:none;}.cls-2{clip-path:url(#clip-path);}.cls-3{fill:#ffbe00;}.cls-4{fill:#fff;}.cls-5{clip-path:url(#clip-path-2);}</style><clipPath id="clip-path"><rect class="cls-1" x="278.02" y="-1492.53" width="1366" height="1284.16"/></clipPath><clipPath id="clip-path-2"><rect class="cls-1" x="278.02" y="-7176.58" width="1366" height="5518.05"/></clipPath></defs><g id="fondos"><g class="cls-2"><path class="cls-3" d="M1591.55,731c-45.08,17.05-118.14,17.05-163.21,0L128.49,241.62C83.46,225,27.88,176.93,4.43,135L-689.06-1107.31c-23.45-42.24-35.92-114.77-27.81-162.11l241-1414c8.11-47.34,44.16-111.38,80.52-143l1061-920.87c36.4-31.34,104.88-56.88,153-56.88H2201.26c48.12,0,116.65,25.54,153,56.88l1061,920.87c36.4,31.64,72.4,95.68,80.51,143l241.06,1414c8.11,47.34-4.36,119.87-27.85,162.11L3015.5,135c-23.5,41.89-79,89.93-124.11,106.58Z"/><path class="cls-4" d="M444.27-895.56c-50.49-6.7-125.75,10.9-168,39.31L-686.89-209.82c-42.33,28.37-88,90.87-101.93,140l-326.92,1146.55c-13.9,49.09-9.26,126.81,10.46,173.63l466.5,1109.29c19.72,46.82,72.27,104.43,117.31,128.32L517.22,3037.5c45,23.89,121.69,33.71,171.31,22.1l1123.54-262.87c49.62-11.61,114-54.43,143.77-95.83l687-953.27c29.77-41.39,51.3-116.33,48.2-167L2617,379.48c-3.1-50.71-33.38-122.43-67.66-160.25L1747.7-663.26c-34.29-37.88-103-73.62-153.43-80.28Z"/></g><g class="cls-5"><path class="cls-4" d="M233.3-3445.5c-60.37-8.77-150.75,11.2-201.8,44.6L-1131.44-2641c-51.12,33.35-106.73,107.51-124.14,166.17L-1664-1106.71c-17.37,58.58-13,151.73,10,208.09l542.23,1335.29c22.91,56.36,85,126.13,138.57,155.41L262.43,1265.49c53.58,29.28,145.23,42.17,204.82,29L1816.6,996.33c59.59-13.17,137.33-63.49,173.59-112.62L2827-247.68c36.26-49.13,63.16-138.56,60.2-199.33l-70.91-1439.44c-3-60.77-38.16-147.11-78.66-192.91L1790.73-3148c-40.5-45.85-122.19-89.68-182.54-98.4Z"/></g></g><g id="figuras"><path class="cls-4" d="M463.93,60.23c5.71,2,12.7,8,15.64,13.26L564.31,226c3,5.26,4.38,14.37,3.23,20.29L533,421.59c-1.18,6-5.88,13.91-10.51,17.79L384.57,555.23c-4.63,3.88-13.28,7.08-19.34,7.16l-176.43,2c-6,0-14.67-3.07-19.28-7L37.09,445.09c-4.61-3.91-9.1-11.92-10-17.88L.24,252.81c-.91-6,.84-15,3.91-20.24l91.78-155c3.07-5.19,10.16-11.12,15.84-13.26L279.12,1.63C284.78-.48,294-.57,299.67,1.5Z"/></g></svg>