<svg xmlns="http://www.w3.org/2000/svg" xmlns:xlink="http://www.w3.org/1999/xlink" viewBox="0 0 44.98 45.06"><defs><style>.cls-1{fill:none;}.cls-2{clip-path:url(#clip-path);}.cls-3{fill:#ffbe00;}.cls-4{fill:#fff;}.cls-5{clip-path:url(#clip-path-2);}.cls-6{fill:#033ad3;}</style><clipPath id="clip-path"><rect class="cls-1" x="-376.34" y="-1741.27" width="1366" height="1284.16"/></clipPath><clipPath id="clip-path-2"><rect class="cls-1" x="-376.34" y="-7425.32" width="1366" height="5518.05"/></clipPath></defs><g id="fondos"><g class="cls-2"><path class="cls-3" d="M937.19,482.29c-45.08,17-118.14,17-163.21,0L-525.87-7.11c-45-16.65-100.61-64.69-124.06-106.58L-1343.42-1356c-23.45-42.24-35.92-114.78-27.81-162.12l241-1414c8.11-47.34,44.16-111.37,80.52-143L11.26-3996c36.4-31.35,104.88-56.89,153.05-56.89H1546.9c48.12,0,116.64,25.54,153,56.89l1061,920.86c36.4,31.65,72.4,95.68,80.51,143l241.06,1414c8.11,47.34-4.36,119.88-27.85,162.12L2361.13-113.69c-23.49,41.89-79,89.93-124.1,106.58Z"/><path class="cls-4" d="M-210.09-1144.3c-50.49-6.7-125.75,10.91-168,39.32l-963.14,646.42c-42.33,28.38-88,90.87-101.93,140L-1770.1,828c-13.9,49.1-9.26,126.82,10.46,173.64l466.5,1109.29c19.71,46.82,72.27,104.42,117.3,128.32l1038.69,549.5c45.05,23.89,121.7,33.71,171.32,22.1L1157.71,2548c49.61-11.61,114-54.43,143.76-95.82l687-953.27c29.77-41.4,51.3-116.34,48.2-167.05L1962.65,130.74C1959.55,80,1929.27,8.31,1895-29.51L1093.34-912c-34.29-37.87-102.95-73.62-153.43-80.28Z"/></g><g class="cls-5"><path class="cls-4" d="M-421.06-3694.23c-60.37-8.78-150.75,11.19-201.8,44.59l-1162.95,759.85c-51.11,33.35-106.72,107.52-124.13,166.17l-408.47,1368.17c-17.37,58.59-13,151.73,10,208.09l542.23,1335.3c22.91,56.36,85,126.12,138.57,155.4l1235.72,673.41c53.58,29.28,145.23,42.18,204.82,29L1162.24,747.59c59.59-13.17,137.33-63.49,173.58-112.62L2172.67-496.42c36.26-49.13,63.16-138.55,60.2-199.32L2162-2135.19c-3-60.77-38.16-147.1-78.66-192.91L1136.37-3396.76c-40.5-45.86-122.19-89.69-182.54-98.41Z"/></g></g><g id="figuras"><path class="cls-6" d="M23.76,10.12a3.33,3.33,0,0,0,.38-1.86V8a3.26,3.26,0,0,0-.38-1.79,1.44,1.44,0,0,0-1.29-.57,1.5,1.5,0,0,0-1.27.55A3.26,3.26,0,0,0,20.85,8v.25a3.23,3.23,0,0,0,.38,1.8,1.46,1.46,0,0,0,1.23.55,1.51,1.51,0,0,0,1.3-.49m17.1,24-1.25,1a.56.56,0,0,1-.69,0,4.1,4.1,0,0,0-2.55-.9c-.87,0-1.29.28-1.29.74s.74.77,1.93,1c2.19.45,3.71,1.29,3.71,2.77,0,1.63-1.42,2.84-4,2.84a7.59,7.59,0,0,1-4.17-1.08.56.56,0,0,1-.09-.86l.67-.71a.56.56,0,0,1,.76-.06,4.54,4.54,0,0,0,2.68,1c1.09,0,1.42-.35,1.42-.76s-.67-.83-2.14-1.15c-2.16-.47-3.44-1.21-3.44-2.68,0-1.65,1.63-2.71,4-2.71a6.44,6.44,0,0,1,4.46,1.48m-.17-7.2H38.38a.56.56,0,0,1-.56-.46v0a.57.57,0,0,0-1-.27,2.76,2.76,0,0,1-2.12,1.05,2.36,2.36,0,0,1-1.9-.77c-.48-.52-.67-1.53-.67-3.17V19.06a.58.58,0,0,1,.57-.57h1.88a.57.57,0,0,1,.56.57v3.86a4.08,4.08,0,0,0,.21,1.89,1,1,0,0,0,.91.41,2,2,0,0,0,1-.26.58.58,0,0,0,.28-.49V19.06a.57.57,0,0,1,.57-.57H40a.58.58,0,0,1,.57.57v5.25c0,.47,0,2.44.08,2.6M27.18,8.14c0,2.71-1.65,4.47-4.72,4.47s-4.67-1.76-4.67-4.47,1.75-4.46,4.71-4.46,4.68,1.73,4.68,4.46M18,22.72a4.28,4.28,0,0,1,4.6-4.46A4.3,4.3,0,0,1,26.55,20a.57.57,0,0,1-.32.86l-1.53.43a.56.56,0,0,1-.64-.25,1.38,1.38,0,0,0-1.34-.69,1.44,1.44,0,0,0-1.18.47,2.72,2.72,0,0,0-.47,1.78v.17a2.8,2.8,0,0,0,.47,1.78,1.55,1.55,0,0,0,1.22.48c.77,0,1.2-.22,1.43-.74a.56.56,0,0,1,.63-.34l1.49.32a.58.58,0,0,1,.39.82c-.63,1.3-1.95,2.06-4.09,2.06-3.05,0-4.58-1.68-4.58-4.47m-6.7-10.1H5.8a.57.57,0,0,1-.57-.56V4.24a.57.57,0,0,1,.57-.57H8.17a.57.57,0,0,1,.57.57V9.11a.71.71,0,0,1,0,.2l-.41,1.06.12.12,1-.46a.59.59,0,0,1,.23,0h1.69a.56.56,0,0,1,.56.57v1.51a.56.56,0,0,1-.56.56m33.33,12.8a1.49,1.49,0,0,0,.28-1.24L43.54,18a1.52,1.52,0,0,0-.8-1l-5.69-2.73a1.42,1.42,0,0,0-1.27,0l-5.45,2.62a2,2,0,0,1-1.75,0l-.44-.21A1.1,1.1,0,0,1,27.76,15l3-3.73A1.47,1.47,0,0,0,31,10l-1.4-6.15a1.47,1.47,0,0,0-.8-1L23.13.15a1.44,1.44,0,0,0-1.28,0L16.4,2.77a2,2,0,0,1-1.75,0L9.2.15a1.44,1.44,0,0,0-1.28,0L2.24,2.88a1.49,1.49,0,0,0-.8,1L0,10a1.47,1.47,0,0,0,.28,1.25l3.94,4.93a1.47,1.47,0,0,0,1.15.56h6.31a1.47,1.47,0,0,0,1.15-.56L14.66,14a1.1,1.1,0,0,1,1.73,0l.83,1a1.1,1.1,0,0,1-.38,1.69l-.68.32a1.5,1.5,0,0,0-.79,1L14,24.18a1.47,1.47,0,0,0,.29,1.24l3.93,4.93a1.47,1.47,0,0,0,1.15.56h6.31a1.47,1.47,0,0,0,1.15-.56l1.79-2.24a1.11,1.11,0,0,1,1.74,0l.83,1a1.11,1.11,0,0,1-.38,1.7l-.68.32a1.49,1.49,0,0,0-.8,1l-1.4,6.15a1.47,1.47,0,0,0,.28,1.25l3.94,4.93a1.47,1.47,0,0,0,1.15.56h6.31a1.47,1.47,0,0,0,1.15-.56l3.94-4.93a1.51,1.51,0,0,0,.28-1.25l-1.4-6.15a1.49,1.49,0,0,0-.8-1l-.68-.32a1.11,1.11,0,0,1-.38-1.7Z"/></g></svg>