<svg xmlns="http://www.w3.org/2000/svg" xmlns:xlink="http://www.w3.org/1999/xlink" viewBox="0 0 309.47 87.19"><defs><style>.cls-1{fill:none;}.cls-2{clip-path:url(#clip-path);}.cls-3,.cls-6{fill:#fff;}.cls-4{clip-path:url(#clip-path-2);}.cls-5{fill:#fecd00;}.cls-6{fill-rule:evenodd;}</style><clipPath id="clip-path"><rect class="cls-1" x="1767.39" y="-4700.71" width="1366" height="5518.05"/></clipPath><clipPath id="clip-path-2"><rect class="cls-1" x="16.59" y="-1703.75" width="1366" height="695.97"/></clipPath></defs><g id="fondos"><g class="cls-2"><path class="cls-3" d="M1722.67-969.63c-60.37-8.77-150.75,11.2-201.8,44.59L357.93-165.18C306.81-131.83,251.2-57.67,233.79,1L-174.67,1369.16c-17.37,58.58-13,151.72,9.95,208.08l542.23,1335.3c22.92,56.36,85,126.13,138.58,155.4L1751.8,3741.36c53.59,29.28,145.23,42.17,204.82,29L3306,3472.2c59.59-13.17,137.33-63.49,173.59-112.62l836.85-1131.39c36.25-49.13,63.15-138.56,60.19-199.33L4305.69,589.42c-3-60.77-38.16-147.11-78.65-192.91L3280.11-672.16c-40.51-45.86-122.2-89.68-182.55-98.4Z"/></g></g><g id="figuras"><g class="cls-4"><path class="cls-5" d="M481.17,115.06c44.33,34,116.21,34,160.54,0l924.61-711.5c44.33-34.25,67-105.25,50.57-158.75l-355.08-1157.5c-16.41-53.5-75.06-96.75-131-96.75H-7.93c-55.94,0-114.59,43.25-131,96.75L-494-755.19c-16.4,53.5,6.24,124.5,50.57,158.75Z"/></g><path class="cls-3" d="M0,2.56H39.65V16.39H13.84V30.23H39.65V44.07H13.84V71.74H0Z"/><circle class="cls-3" cx="59.41" cy="52.81" r="12.1"/><path class="cls-3" d="M79.28,52.67a20.27,20.27,0,0,1-40.53,0H24.39a34.63,34.63,0,0,0,69.25,0Z"/><path class="cls-3" d="M116.38,2.72h17.91V7.35H121v7.27h13.28v4.63H121v11.9h-4.63Z"/><path class="cls-3" d="M156.68,31.15h-4.23v-3A7.23,7.23,0,0,1,146,31.64c-5.24,0-7.36-3.45-7.36-8.49V10.85h4.51V22.54c0,3.05,1,4.92,4,4.92,3.86,0,5.12-3.13,5.12-7V10.85h4.39Z"/><path class="cls-3" d="M162.77,10.85H167v3.08a7.62,7.62,0,0,1,6.7-3.57c4.67,0,7.35,3,7.35,8.32V31.15h-4.47V19.46c0-3.21-1.54-5-4.42-5-3.29,0-5,2.44-5,7.07v9.58h-4.39Z"/><path class="cls-3" d="M206.64,31.15h-4.42V28.27a8.26,8.26,0,0,1-6.95,3.37c-5.6,0-9.5-4.35-9.5-10.64s3.86-10.64,9.46-10.64a8.59,8.59,0,0,1,7,3.41v-11h4.42ZM190.28,21c0,3.86,2.43,6.46,6.09,6.46s6-2.56,6-6.46-2.44-6.46-6-6.46S190.28,17.14,190.28,21Z"/><path class="cls-3" d="M220.82,10.36c5.69,0,8.49,2.64,8.49,7.92V31.15h-4.38v-2.8a7.45,7.45,0,0,1-6.46,3.21c-4.1,0-6.87-2.56-6.87-6.3,0-3.49,2.48-5.93,6.5-6.29l5.65-.57c.85-.08,1.18-.37,1.18-.94V17c0-1.71-1.47-2.68-4-2.68-2.8,0-4.67,1.14-5.15,3.12l-3.54-2.23C213.27,12.06,216.27,10.36,220.82,10.36ZM219.08,22.5c-1.87.2-2.93,1.18-2.93,2.64,0,1.63,1.26,2.6,3.33,2.6,3.09,0,5.45-2.11,5.45-4.79V21.77Z"/><path class="cls-3" d="M244.18,10.36a10.29,10.29,0,0,1,7.52,3l-2.64,3.46a7.2,7.2,0,0,0-5-2.16c-3.66,0-6.13,2.6-6.13,6.38s2.52,6.38,6.09,6.38a7.55,7.55,0,0,0,5.24-2.24l2.52,3.5a10.8,10.8,0,0,1-7.76,3c-6.3,0-10.6-4.3-10.6-10.6S237.85,10.36,244.18,10.36Z"/><path class="cls-3" d="M255.36,5a3.09,3.09,0,1,1,6.17,0,3.09,3.09,0,0,1-6.17,0Zm5.28,26.15h-4.39V10.85h4.39Z"/><path class="cls-3" d="M275.79,10.36A10.35,10.35,0,0,1,286.55,21,10.76,10.76,0,0,1,265,21,10.35,10.35,0,0,1,275.79,10.36Zm0,4.26A6,6,0,0,0,269.53,21a6.26,6.26,0,1,0,12.52,0A6,6,0,0,0,275.79,14.62Zm5.57-11.49-8.9,5.48-1.95-3.09L279.36,0Z"/><path class="cls-3" d="M291.15,10.85h4.27v3.08a7.61,7.61,0,0,1,6.7-3.57c4.67,0,7.35,3,7.35,8.32V31.15H305V19.46c0-3.21-1.54-5-4.43-5-3.29,0-5,2.44-5,7.07v9.58h-4.39Z"/><path class="cls-6" d="M135.73,43.87H114a.23.23,0,0,0-.21.21c0,.11.1.21.21.32s.31,0,.52.1.32.22.53.32a3.5,3.5,0,0,1,.53.63,1,1,0,0,1,.31.74,3.55,3.55,0,0,1,.21.63V71.49h12.23a.29.29,0,0,0,.32-.32c-.11-.21-.21-.21-.42-.31a3.83,3.83,0,0,1-.74-.32L127,70a1.75,1.75,0,0,1-.42-.52,1.51,1.51,0,0,1-.21-.64,2.19,2.19,0,0,1-.11-.84V58.42h3.06a5.84,5.84,0,0,0,1.26.1c.32.11.53.11.74.21a3.3,3.3,0,0,1,1.06.32c.42.11.52.21,1,.32a4.73,4.73,0,0,1,.74.52,1.25,1.25,0,0,1,.74.53c.31.11.42.32.63.53a1.92,1.92,0,0,1,.42.52,2.67,2.67,0,0,1,.42.74c.11.21.11.42.21.63s.11.22.32.22.31-.11.21-.22c-.95-4.32-.84-3.68-2-9a.24.24,0,0,0-.21-.22h-.32c-.21.11-.11.53-.11.95a2.66,2.66,0,0,1-.31.85,1.23,1.23,0,0,1-.53.52,2.83,2.83,0,0,1-.74.43,1,1,0,0,1-.52.1h-6.12V45.66h3.27a6.5,6.5,0,0,1,1.37.21,5.91,5.91,0,0,1,1.27.32,4.61,4.61,0,0,1,1,.42c.42.21.74.32,1.16.53.21.21.42.32.74.63a3.49,3.49,0,0,1,.52.63,1.84,1.84,0,0,1,.64.85,7.68,7.68,0,0,0,.31.84c0,.11.21.11.32.11s.21,0,.21-.11c-.63-3.06-.63-3.16-1.37-6.22Z"/><path class="cls-6" d="M150,68V58.42H153a5.32,5.32,0,0,0,1.26.1c.32.11.42.11.74.21a4.21,4.21,0,0,1,1,.32c.42.11.53.21,1,.32a5.6,5.6,0,0,1,.84.52,1.58,1.58,0,0,1,.74.53c.21.11.32.32.53.53l.53.52c.1.32.21.43.31.74a1.43,1.43,0,0,1,.21.63c0,.11.11.22.42.22a.23.23,0,0,0,.21-.22c-.94-4.32-.84-3.68-2-9-.1-.11-.1-.22-.31-.22h-.21c-.22.11-.11.53-.22.95a2.41,2.41,0,0,1-.21.85,1,1,0,0,1-.63.52,2.36,2.36,0,0,1-.63.43,1.39,1.39,0,0,1-.63.1h-6.12V45.66h3.38a6.6,6.6,0,0,1,1.37.21,5.16,5.16,0,0,1,1.16.32,4.61,4.61,0,0,1,1.05.42,11.83,11.83,0,0,1,1.16.53,2.16,2.16,0,0,1,.74.63,1.9,1.9,0,0,1,.63.63,3.12,3.12,0,0,1,.63.85,7.53,7.53,0,0,0,.32.84c0,.11.1.11.21.11s.31,0,.31-.11c-.63-3.06-.63-3.16-1.37-6.22H137.73a.23.23,0,0,0-.21.21c0,.11.11.21.21.32s.32,0,.53.1a1.75,1.75,0,0,1,.42.32,1.81,1.81,0,0,1,.63.63c.21.21.21.42.32.74a6.56,6.56,0,0,1,.21.63V71.49h19.6l1.37-6.22-.1-.21h-.21c-.21,0-.21.21-.32.42a4.17,4.17,0,0,1-.42,1c-.32.42-.42.53-.63.84s-.53.42-.84.63a7.59,7.59,0,0,1-1.27.74,3.7,3.7,0,0,1-1.37.53,8.86,8.86,0,0,1-1.58.32,2.45,2.45,0,0,1-.84.1c-1.37.11-3.27.11-3.27.11V68Z"/><path class="cls-6" d="M167.35,52.41V67.9a2.78,2.78,0,0,0,.11.95,2.49,2.49,0,0,0,.52,1.06,1.26,1.26,0,0,0,.53.52,1.6,1.6,0,0,0,1,.43c.21.1.31.21.31.31a.28.28,0,0,1-.31.32h-5.9V47.25a3.22,3.22,0,0,0-.32-1.06,2,2,0,0,0-.53-1,1.58,1.58,0,0,0-.74-.53,1.43,1.43,0,0,0-.63-.21c-.21,0-.21,0-.21-.32,0-.1.11-.21.32-.21h11.17a1.72,1.72,0,0,1,1,.21,3,3,0,0,1,.85.32c.31.21.42.32.74.53s.31.52.52.84c2,3.48,2.85,5.06,4.64,8.43.11.21.32.32.53.53a1.57,1.57,0,0,0,.73.21c.32,0,.53.11.85-.11a1,1,0,0,0,.63-.52,2.07,2.07,0,0,0,.32-1.06c.52-3.48.73-4.32,1.47-9.06.11-.32.21-.32.32-.32h11V67.59a4.11,4.11,0,0,0,.21,1.58c.21.42.32.53.63,1a4.3,4.3,0,0,0,.74.53,1.28,1.28,0,0,0,.63.11c.11.1.21.21.21.31a.34.34,0,0,1-.31.32H186.22V52.62l-7.76,19.61h-.1l-11-19.82Z"/><path class="cls-6" d="M217.63,51.88l-.53-7.06a4.54,4.54,0,0,0-.63-.32,9.68,9.68,0,0,0-1.79-.63,7,7,0,0,0-2.11-.52,20.26,20.26,0,0,0-2.53-.43h-2.11a16.81,16.81,0,0,0-2.21.32,11.17,11.17,0,0,0-1.69.63,4.13,4.13,0,0,0-1.37.74,6,6,0,0,0-1.58,1.26,8,8,0,0,0-1.16,1.48,6,6,0,0,0-.63,1.48,4.34,4.34,0,0,0-.32,1.68,5.37,5.37,0,0,0,0,1.79,5.9,5.9,0,0,0,.32,1.8c.21.52.31.84.52,1.37a12.12,12.12,0,0,0,.95,1.37,11.24,11.24,0,0,0,1,1.26,9.77,9.77,0,0,0,1.58,1.27,7.49,7.49,0,0,0,1.48,1c.63.31.95.52,1.68.84s1.16.63,1.8,1.05a8.33,8.33,0,0,1,1.16.85A3,3,0,0,1,210,64a2.48,2.48,0,0,1,.1.85,1.72,1.72,0,0,1-.21,1.05,2.38,2.38,0,0,1-.74.74,3,3,0,0,1-1.05.42,2.65,2.65,0,0,1-1.58,0,3,3,0,0,1-1.27-.42,4.16,4.16,0,0,1-1.47-.84c-.42-.32-.95-.85-1.58-1.37-.63-.74-.85-1.16-1.48-1.8-.21-.31-.42-.73-.63-.84s-.32.11-.32.21v7.17a7.27,7.27,0,0,0,.95.84,10.15,10.15,0,0,0,1.79.95c.74.32,1.16.42,2,.74a12.82,12.82,0,0,0,1.89.42,5.73,5.73,0,0,0,1,.11H210a9.94,9.94,0,0,0,1.68-.32,5.91,5.91,0,0,0,1.27-.32,5.15,5.15,0,0,0,1.69-.84,8.69,8.69,0,0,0,1.58-1.16,5.68,5.68,0,0,0,1.37-1.69,6.06,6.06,0,0,0,1.16-2.53A8.65,8.65,0,0,0,219,63.9a8.79,8.79,0,0,0,.1-2.32,8,8,0,0,0-.63-2.32,9.69,9.69,0,0,0-1.16-2.32,7.66,7.66,0,0,0-1.79-1.89,8.68,8.68,0,0,0-1.9-1.38,22.11,22.11,0,0,0-2.21-1.05,21.46,21.46,0,0,1-2.22-1.16,3.43,3.43,0,0,1-1.15-1,1.86,1.86,0,0,1-.64-.95v-.84a1.55,1.55,0,0,1,.64-.95,2.18,2.18,0,0,1,1.37-.52,6.37,6.37,0,0,1,1.37.1,4.76,4.76,0,0,1,1.58.53,6.14,6.14,0,0,1,1.47.74,12.91,12.91,0,0,1,1.27,1.05,12.78,12.78,0,0,1,1.68,1.69c.21.21.21.52.53.52.11,0,.32.11.32,0Z"/><path class="cls-6" d="M228.27,43.13l14.34,26.25.21.21a3.19,3.19,0,0,0,.63.53,6.17,6.17,0,0,0,.84.52,6.28,6.28,0,0,1,.74.22c.21,0,.32,0,.42.21s-.1.42-.21.42H233.86c-.32,0-.42-.11-.74-.11a4.19,4.19,0,0,1-1.05-.42,8.19,8.19,0,0,1-.95-.84c-.32-.42-.42-.63-.74-1.06-2.11-3.79-2.21-4.11-4.43-8.32a2.25,2.25,0,0,0-.73-.64,2.66,2.66,0,0,0-.85-.31,2.77,2.77,0,0,0-1,.1,1.55,1.55,0,0,0-.94.43,1.63,1.63,0,0,0-.74.73c-.21.32-.32.74-.53,1.06a.31.31,0,0,1-.42.1.2.2,0,0,1-.11-.31c2.64-6.75,2.53-6.54,7.38-18.77Z"/></g></svg>