<svg xmlns="http://www.w3.org/2000/svg" xmlns:xlink="http://www.w3.org/1999/xlink" viewBox="0 0 49.98 49.97"><defs><style>.cls-1{fill:none;}.cls-2{clip-path:url(#clip-path);}.cls-3{fill:#fff;}.cls-4{clip-path:url(#clip-path-2);}.cls-5{fill:#f5b5cd;}.cls-6{fill:#ff6c11;}</style><clipPath id="clip-path"><rect class="cls-1" x="1458.24" y="-4026.5" width="374.87" height="6848.31"/></clipPath><clipPath id="clip-path-2"><rect class="cls-1" x="235.31" y="-4337.87" width="374.99" height="5883.9"/></clipPath></defs><g id="colores_de_fondo" data-name="colores de fondo"><g class="cls-2"><path class="cls-3" d="M3231.11-3343.54c-60.16-37.29-165.76-59.21-235.78-49L1400.5-3159.94c-70.07,10.17-164.09,60-210.16,111.89l-1077,1208.91c-46,51.83-85,149.23-87.07,217.66L-23.12-.52c-2.05,68.43,31.31,168.94,74.61,224L1051.12,1492.1c43.31,55.09,134.83,111.25,204.46,125.71l1576.61,327.4c69.62,14.45,176-.61,237.67-33.9l1422-765.73c61.66-33.29,132.27-112.21,157.63-175.8L5249.57-536.83c25.37-63.59,28.41-168.46,6.79-234.32L4749.71-2308.93c-21.6-65.93-88-149.08-148.17-186.3Z"/></g><g class="cls-4"><path class="cls-5" d="M1733.82-1619.1c-10-34.94-42.69-79.69-72.91-99.89L972.85-2179.57c-30.21-20.25-83.27-33.62-118.75-29.69L25.8-2118.91c-35.44,3.93-84,27.66-108.42,53.07L-661.83-1464.3c-24.43,25.41-46.47,75.25-49,111.19l-57.69,828.4c-2.55,35.94,12.91,88.89,34.44,118.39l487.53,668c21.53,29.5,67.27,60.39,102.27,68.92l806.53,197.6c35,8.53,89.19,2.74,120.84-12.79l749.49-368.22c31.65-15.53,69.07-54.5,83.6-87.08l338.59-761.32c14.56-32.6,18-87.2,8-122.13Z"/><path class="cls-3" d="M221.08-239.74c-31.34-4.56-78.27,5.81-104.78,23.15L-487.58,178C-514.12,195.29-543,233.8-552,264.26L-764.14,974.7c-9,30.42-6.73,78.79,5.17,108.06l281.56,693.37c11.9,29.26,44.14,65.49,72,80.69L236.21,2206.5c27.83,15.21,75.41,21.9,106.36,15.06l700.67-154.82c30.94-6.84,71.31-33,90.13-58.48l434.55-587.49c18.83-25.51,32.79-72,31.25-103.5l-36.82-747.46c-1.53-31.55-19.81-76.38-40.84-100.17L1029.8-85.28c-21-23.81-63.44-46.57-94.78-51.1Z"/></g></g><g id="elementos"><path class="cls-6" d="M0,25.28A25,25,0,0,1,23.8,0C38.05-.46,49.6,10.25,50,24.28A24.94,24.94,0,0,1,26,50C11.72,50.37.44,39.66,0,25.28Zm33.5,11.56h5.88c0-4,.21-7.77-.06-11.53-.31-4.38-3.71-6.91-7.89-6.06A17.06,17.06,0,0,0,27.76,21l-.4-1.33H21.85V36.84h5.74V33.49c0-2.2,0-4.4.06-6.59a3,3,0,0,1,3-3.1c1.6,0,2.62,1.05,2.79,3,.07.86,0,1.73,0,2.6C33.51,31.85,33.51,34.3,33.51,36.84ZM12.77,19.63v17.2h5.75V19.63Zm2.93-8.5a3.07,3.07,0,1,0,0,6.11,3.06,3.06,0,1,0,0-6.11Z"/></g></svg>