<svg xmlns="http://www.w3.org/2000/svg" xmlns:xlink="http://www.w3.org/1999/xlink" viewBox="0 0 49.92 50"><defs><style>.cls-1{fill:none;}.cls-2{clip-path:url(#clip-path);}.cls-3{fill:#fff;}.cls-4{clip-path:url(#clip-path-2);}.cls-5{fill:#f5b5cd;}.cls-6{fill:#ff6c11;}</style><clipPath id="clip-path"><rect class="cls-1" x="1526.2" y="-4027.02" width="374.87" height="6848.31"/></clipPath><clipPath id="clip-path-2"><rect class="cls-1" x="303.27" y="-4338.4" width="374.99" height="5883.9"/></clipPath></defs><g id="colores_de_fondo" data-name="colores de fondo"><g class="cls-2"><path class="cls-3" d="M3299.07-3344.07c-60.15-37.28-165.76-59.21-235.78-49L1468.47-3160.47c-70.08,10.17-164.1,60-210.16,111.89l-1077,1208.92c-46,51.82-85,149.22-87.06,217.65L44.85-1C42.8,67.39,76.15,167.9,119.46,223l999.62,1268.6c43.31,55.09,134.84,111.25,204.46,125.71l1576.61,327.39c69.63,14.46,176-.61,237.67-33.9l1422-765.73c61.66-33.29,132.27-112.21,157.64-175.8l600.07-1506.6c25.37-63.59,28.41-168.47,6.8-234.33L4817.68-2309.45c-21.61-65.93-88-149.09-148.18-186.3Z"/></g><g class="cls-4"><path class="cls-5" d="M1801.78-1619.62c-10-35-42.69-79.69-72.91-99.9l-688-460.57c-30.22-20.26-83.27-33.62-118.76-29.69l-828.3,90.34c-35.44,3.94-84,27.67-108.42,53.07l-579.2,601.54c-24.44,25.41-46.48,75.25-49,111.19l-57.7,828.4c-2.54,35.94,12.91,88.89,34.44,118.39l487.53,668c21.53,29.5,67.27,60.39,102.28,68.93L730.2,527.65c35,8.54,89.19,2.74,120.83-12.79l749.5-368.22c31.65-15.53,69.06-54.5,83.6-87.08l338.58-761.31c14.57-32.6,18-87.2,8-122.13Z"/><path class="cls-3" d="M289.05-240.27c-31.35-4.56-78.28,5.82-104.79,23.16L-419.61,177.45c-26.55,17.32-55.42,55.83-64.46,86.29l-212.1,710.44c-9,30.42-6.74,78.78,5.16,108.05l281.56,693.37c11.9,29.27,44.14,65.49,72,80.7L304.17,2206c27.83,15.2,75.42,21.9,106.36,15.06l700.67-154.83c30.94-6.84,71.31-33,90.14-58.48l434.54-587.49c18.83-25.51,32.8-72,31.26-103.5l-36.82-747.45c-1.54-31.56-19.82-76.39-40.84-100.17L1097.77-85.8c-21-23.82-63.45-46.57-94.79-51.1Z"/></g></g><g id="elementos"><path class="cls-6" d="M49.88,24.57C50.67,37.42,39.83,49.21,26.53,50A25,25,0,0,1,23.24.05C38.64-.9,50.17,11.55,49.88,24.57Zm-25.11,11h10c3.44,0,5.18-1.62,5.27-5.08.09-3.79.09-7.59,0-11.38-.06-2.91-1.91-4.67-4.86-4.69q-10.19,0-20.38,0c-3,0-4.81,1.83-4.85,4.89,0,3.79-.07,7.58,0,11.38a4.55,4.55,0,0,0,4.88,4.85C18.12,35.63,21.45,35.58,24.77,35.59Z"/><path class="cls-6" d="M22.29,19.09l8.09,5.34-8.09,5.33Z"/></g></svg>