<svg xmlns="http://www.w3.org/2000/svg" xmlns:xlink="http://www.w3.org/1999/xlink" viewBox="0 0 50 49.99"><defs><style>.cls-1{fill:none;}.cls-2{clip-path:url(#clip-path);}.cls-3{fill:#f5b5cd;}.cls-4{fill:#fff;}.cls-5{fill:#ff6c11;}</style><clipPath id="clip-path"><rect class="cls-1" x="371.3" y="-4338.4" width="374.99" height="5883.9"/></clipPath></defs><g id="colores_de_fondo" data-name="colores de fondo"><g class="cls-2"><path class="cls-3" d="M1869.81-1619.63c-10-34.94-42.68-79.69-72.91-99.89L1108.85-2180.1c-30.22-20.25-83.27-33.62-118.76-29.69l-828.3,90.35c-35.44,3.94-84,27.66-108.42,53.07l-579.2,601.54c-24.44,25.41-46.48,75.25-49,111.19l-57.7,828.4c-2.54,35.94,12.91,88.89,34.44,118.39l487.53,668C-89,290.63-43.3,321.52-8.3,330.06L798.23,527.65c35,8.53,89.19,2.74,120.84-12.79l749.49-368.22c31.65-15.53,69.07-54.5,83.6-87.08l338.59-761.32c14.56-32.6,18-87.2,7.95-122.12Z"/><path class="cls-4" d="M357.08-240.27c-31.35-4.56-78.28,5.81-104.79,23.15L-351.58,177.45C-378.12,194.76-407,233.27-416,263.73l-212.1,710.44c-9,30.43-6.73,78.79,5.17,108.06l281.56,693.37c11.9,29.26,44.13,65.49,72,80.69L372.21,2206c27.82,15.21,75.41,21.9,106.35,15.07l700.67-154.83c31-6.84,71.31-33,90.14-58.48l434.54-587.49c18.83-25.51,32.8-72,31.26-103.5l-36.82-747.46c-1.54-31.55-19.82-76.38-40.84-100.17L1165.8-85.81c-21-23.81-63.45-46.57-94.79-51.09Z"/></g></g><g id="elementos"><path class="cls-5" d="M32.7,16.53A1.7,1.7,0,1,1,31,18.2,1.71,1.71,0,0,1,32.7,16.53Z"/><path class="cls-5" d="M25.05,0A25,25,0,1,0,50,24.94,25,25,0,0,0,25.05,0ZM37.77,31.47a6.36,6.36,0,0,1-6.35,6.35h-13a6.35,6.35,0,0,1-6.34-6.35v-13a6.34,6.34,0,0,1,6.34-6.34h13a6.35,6.35,0,0,1,6.35,6.34Z"/><path class="cls-5" d="M24.94,18.12A6.87,6.87,0,1,0,31.8,25,6.88,6.88,0,0,0,24.94,18.12Zm0,11.94A5.08,5.08,0,1,1,30,25,5.08,5.08,0,0,1,24.94,30.06Z"/></g></svg>