<svg id="Capa_1" data-name="Capa 1" xmlns="http://www.w3.org/2000/svg" viewBox="0 0 726.52 313.63"><defs><style>.cls-1{fill:#fff;}</style></defs><polygon class="cls-1" points="223.54 248.22 216.87 248.22 216.87 219.34 206.63 244.19 199.25 244.19 189 219.34 189 248.22 182.33 248.22 182.33 211.06 192.26 211.06 202.94 237.18 213.62 211.06 223.54 211.06 223.54 248.22"/><path class="cls-1" d="M253.58,221.52v26.7h-5.64l-.33-3.56a9.6,9.6,0,0,1-8.29,4.25c-6,0-10.58-4.19-10.58-10.51V221.52h6.35V237.6c0,3.61,2.76,5.52,5.85,5.52a6.09,6.09,0,0,0,6.35-6.1v-15.5Z"/><path class="cls-1" d="M283.78,231.34v16.88h-6.29V232.51a5.66,5.66,0,0,0-6-5.9c-3.41,0-7.1,2.07-7.1,6.11v15.5h-6.34v-26.7h5.58l.38,3.61a10.56,10.56,0,0,1,8.89-4.3c6.18,0,10.85,4.19,10.85,10.51"/><path class="cls-1" d="M288.28,213.93a4,4,0,1,1,4,3.92,4,4,0,0,1-4-3.92m7.15,34.29h-6.29v-26.7h6.29Z"/><path class="cls-1" d="M299.34,234.84c0-8.23,6.12-14,14.37-14a14.3,14.3,0,0,1,10.57,4.24l-4.56,4.15a7.55,7.55,0,0,0-6-2.61c-4.61,0-7.81,3.35-7.81,8.23s3.14,8.23,7.91,8.23a7.48,7.48,0,0,0,6.13-2.87l4.56,4.14a14,14,0,0,1-10.79,4.57c-8.3,0-14.37-5.79-14.37-14.07"/><path class="cls-1" d="M327.53,213.93a4,4,0,1,1,4,3.92,4,4,0,0,1-4-3.92m7.16,34.29H328.4v-26.7h6.29Z"/><path class="cls-1" d="M368.63,234.9c0,8.22-6,14-13.56,14a10.7,10.7,0,0,1-8.4-3.5v16.08h-6.34v-40H346l.33,3.71a10.73,10.73,0,0,1,9-4.4c7.32,0,13.34,5.84,13.34,14.07m-6.51,0c0-4.89-3.2-8.29-8-8.29s-8,3.3-8,8.23,3.25,8.28,8,8.28,8-3.39,8-8.22"/><path class="cls-1" d="M371.61,213.93a4,4,0,1,1,4,3.92,4,4,0,0,1-4-3.92m7.16,34.29h-6.29v-26.7h6.29Z"/><path class="cls-1" d="M382.67,234.84c0-8.23,6.18-14,14.53-14s14.53,5.73,14.53,14-6.18,14.07-14.53,14.07-14.53-5.79-14.53-14.07m22.56,0c0-4.88-3.26-8.23-8-8.23s-8,3.35-8,8.23,3.2,8.23,8,8.23,8-3.29,8-8.23"/><path class="cls-1" d="M454.08,208.41v39.81h-5.64l-.33-3.77a10.71,10.71,0,0,1-9.05,4.46c-7.27,0-13.34-5.79-13.34-14.12s6-14,13.55-14a10.81,10.81,0,0,1,8.46,3.5V208.41Zm-5.81,26.43c0-4.93-3.25-8.23-8-8.23s-8,3.35-8,8.23,3.2,8.23,8,8.23,8-3.18,8-8.23"/><path class="cls-1" d="M472,243.44a10.18,10.18,0,0,0,7.16-2.81l4.06,4.09a15.8,15.8,0,0,1-11.06,4.19c-8.4,0-14.64-5.68-14.64-14.17,0-8.13,5.75-13.91,14.21-13.91,8.84,0,13.12,6.15,13.12,12.47a25.39,25.39,0,0,1-.38,3.82H464.1c.82,4,3.69,6.32,7.92,6.32m-7.92-11h14.48c-.16-3.45-2.55-6.05-6.94-6.05a7.28,7.28,0,0,0-7.54,6.05"/><path class="cls-1" d="M499.13,229.64c0-11.41,8.4-19.27,19.57-19.27,7.16,0,12.8,3.19,15.89,7.32l-5.69,3.72a12.59,12.59,0,0,0-10.2-4.67c-7.27,0-12.58,5.2-12.58,12.9s5.15,12.9,12.58,12.9a12.16,12.16,0,0,0,10.52-5.31l5.59,3.93c-3.53,5.1-9.66,7.75-16.16,7.75-11.23,0-19.52-8-19.52-19.27"/><path class="cls-1" d="M563.16,221.52v26.7h-5.64l-.32-3.56a9.63,9.63,0,0,1-8.3,4.25c-6,0-10.57-4.19-10.57-10.51V221.52h6.34V237.6c0,3.61,2.77,5.52,5.86,5.52a6.08,6.08,0,0,0,6.34-6.1v-15.5Z"/><path class="cls-1" d="M567.66,213.93a4,4,0,1,1,4,3.92,4,4,0,0,1-4-3.92m7.16,34.29h-6.29v-26.7h6.29Z"/><path class="cls-1" d="M607.08,208.41v39.81h-5.64l-.33-3.77a10.7,10.7,0,0,1-9.05,4.46c-7.27,0-13.34-5.79-13.34-14.12s6-14,13.56-14a10.79,10.79,0,0,1,8.45,3.5V208.41Zm-5.8,26.43c0-4.93-3.26-8.23-8-8.23s-8,3.35-8,8.23,3.2,8.23,8,8.23,8-3.18,8-8.23"/><path class="cls-1" d="M636.14,232v16.19h-5.59l-.37-3.82a12,12,0,0,1-9.6,4.51c-4.88,0-9.55-2.92-9.55-8.44,0-6.1,5.7-8.49,11-8.49a29.39,29.39,0,0,1,7.81,1.06v-.85c0-3.88-2.17-5.79-6.4-5.79a14.06,14.06,0,0,0-8.24,2.66l-2.5-4.51a19.88,19.88,0,0,1,11.88-3.72c7.48,0,11.55,3.72,11.55,11.2m-6.29,5.31a24.94,24.94,0,0,0-6.67-1c-3.2,0-5.69,1.06-5.69,3.77,0,2.28,1.84,3.51,4.61,3.51,3.79,0,7.75-2.45,7.75-6.32"/><path class="cls-1" d="M667.91,208.41v39.81h-5.64l-.32-3.77a10.73,10.73,0,0,1-9.06,4.46c-7.27,0-13.34-5.79-13.34-14.12s6-14,13.56-14a10.79,10.79,0,0,1,8.45,3.5V208.41Zm-5.8,26.43c0-4.93-3.26-8.23-8-8.23s-8,3.35-8,8.23,3.2,8.23,8,8.23,8-3.18,8-8.23"/><path class="cls-1" d="M671.38,234.84c0-8.23,6.18-14,14.53-14s14.53,5.73,14.53,14-6.18,14.07-14.53,14.07-14.53-5.79-14.53-14.07m22.55,0c0-4.88-3.25-8.23-8-8.23s-8,3.35-8,8.23,3.2,8.23,8,8.23,8-3.29,8-8.23"/><path class="cls-1" d="M702.06,245.36l2.28-4.68c2.17,1.75,6.56,2.87,10.19,2.87,2.66,0,5.59-.64,5.59-3.08,0-2-2.49-2.44-6.07-3.08-6.73-1.17-10.79-2.55-10.79-7.85,0-6.75,6.34-8.71,11.82-8.71a19.73,19.73,0,0,1,10.68,3l-2.33,4.73a15,15,0,0,0-8.41-2.34c-3.52,0-5.26,1.06-5.26,3,0,1.48,1,2,5,2.65,6.51,1.22,11.77,2.33,11.77,8.18s-5.1,8.91-12.26,8.91c-4.06,0-9.32-1.38-12.2-3.6"/><polygon class="cls-1" points="230.38 114.79 200.04 195.39 180.42 195.39 150.09 114.79 167.97 114.79 190.23 177.31 212.5 114.79 230.38 114.79"/><path class="cls-1" d="M234.77,122.79a8,8,0,1,1,8,7.91,8.05,8.05,0,0,1-8-7.91"/><rect class="cls-1" x="234.82" y="137.25" width="15.92" height="58.14"/><path class="cls-1" d="M315.52,158.08v37.31h-15.8V161.54c0-6.56-4.39-11-11.19-11-6.35,0-13.27,3.8-13.27,11.28v33.62H259.34V137.25h14.31l.69,7.13c4-5.41,10.73-8.63,18.45-8.63,12.93,0,22.73,8.75,22.73,22.33"/><path class="cls-1" d="M277.24,129.7l-7.42-3c1.64-8.17,5.4-11.83,10.41-11.83,2.41,0,4.82.87,7.81,2.41l2.21,1.15c2.12,1.06,3.38,1.54,4.34,1.54,2.22,0,3.08-2.31,3.66-5.2l7.71,3c-1.35,6.92-4.72,12.21-10.89,12.21-2.12,0-4.43-.67-7.71-2.4l-2.21-1.25a9.82,9.82,0,0,0-4.15-1.45c-2.21,0-3.08,1.93-3.76,4.81"/><path class="cls-1" d="M377.19,160.73v34.66H362.88l-.69-7.72c-4.5,6.1-12.23,9.21-19.5,9.21-10.38,0-20.3-6.21-20.3-18.19,0-13.12,12.11-18.3,23.53-18.3a58.4,58.4,0,0,1,15.46,2.18v-1.26c0-7.95-4.15-11.63-12.69-11.63A27.83,27.83,0,0,0,332,155.09l-6-11.28c6.11-4.61,15.11-8.06,25.95-8.06,16.61,0,25.27,8.17,25.27,25m-15.81,11.75a44,44,0,0,0-12.46-1.85c-5.88,0-10.49,2.08-10.49,7,0,4.26,3.46,6.56,8.53,6.56,7,0,14.31-4.61,14.42-11.74"/><path class="cls-1" d="M440.75,115v80.36h-5.53l-.58-12c-4.16,8.29-12.23,13.47-22.61,13.47-15.92,0-28.5-12.43-28.5-30.39s12.46-30.16,28.73-30.16c9.92,0,17.88,4.6,22.15,12.31V115ZM435,166.6c0-14.27-9.22-24.17-22.38-24.17s-22.37,9.9-22.37,24.17,9.11,24.18,22.37,24.18S435,180.88,435,166.6"/><path class="cls-1" d="M478.25,190.9a25.11,25.11,0,0,0,18.34-7.6l3.92,4.72a31,31,0,0,1-22.26,8.86c-17,0-29.42-12.31-29.42-30.62,0-17.62,11.65-29.94,28.84-29.94,17.54,0,26.3,13,26.3,26.37a33.63,33.63,0,0,1-.58,6.22h-48c1,13.12,9.92,22,22.84,22m18.92-27.75v-1c0-11.16-7.27-19.8-19.62-19.8s-20.88,8.29-22.14,20.84Z"/><rect class="cls-1" x="512.05" y="115.03" width="6.35" height="80.36"/><polygon class="cls-1" points="618.41 195.39 601.8 195.39 601.8 136.21 583 186.64 564.65 186.64 545.85 136.21 545.85 195.39 529.24 195.39 529.24 114.79 553.81 114.79 573.88 169.71 593.84 114.79 618.41 114.79 618.41 195.39"/><path class="cls-1" d="M679.5,160.73v34.66H665.2l-.69-7.72c-4.5,6.1-12.23,9.21-19.5,9.21-10.38,0-20.3-6.21-20.3-18.19,0-13.12,12.11-18.3,23.53-18.3a58.4,58.4,0,0,1,15.46,2.18v-1.26c0-7.95-4.15-11.63-12.69-11.63a27.88,27.88,0,0,0-16.73,5.41l-6-11.28c6.12-4.61,15.12-8.06,26-8.06,16.61,0,25.26,8.17,25.26,25m-15.8,11.75a44,44,0,0,0-12.46-1.85c-5.88,0-10.5,2.08-10.5,7,0,4.26,3.46,6.56,8.54,6.56,7,0,14.3-4.61,14.42-11.74"/><path class="cls-1" d="M726.52,137l-4,15.08a19.61,19.61,0,0,0-7-1.38c-7.15,0-13.49,4.48-13.49,12.78v31.89H686V137.25h14.42l.69,8.05a20.73,20.73,0,0,1,17.65-9.55,23.55,23.55,0,0,1,7.73,1.27"/><path class="cls-1" d="M186.89,20.27a4,4,0,0,0-2-5.29L152.33.35a4,4,0,0,0-3.06-.09L115.9,12.93a4,4,0,0,0-2.32,5.17l33.87,88.59Z"/><path class="cls-1" d="M23.28,100.5a4.53,4.53,0,0,0-6,2.23L.41,139.47a4.54,4.54,0,0,0-.13,3.47l14.06,37.9a4.53,4.53,0,0,0,5.83,2.67l100.64-37.58Z"/><path class="cls-1" d="M107.25,269.41a3.75,3.75,0,0,0,1.89,5l30.5,13.71a3.76,3.76,0,0,0,2.87.09l31.27-11.88a3.75,3.75,0,0,0,2.17-4.84l-31.74-83Z"/><path class="cls-1" d="M97.31,39.27a4,4,0,0,0-5.16-2.39L58.5,49.25a4,4,0,0,0-2.27,2.08l-15,32.54a4,4,0,0,0,2,5.34L129.69,129Z"/><path class="cls-1" d="M53.23,191.32a3.33,3.33,0,0,0-2,4.28l10.37,27.86a3.36,3.36,0,0,0,1.74,1.87l27,12.37a3.34,3.34,0,0,0,4.42-1.65l32.7-71.91Z"/><path class="cls-1" d="M210.93,61.76a2.05,2.05,0,0,1,2.7-1l16.56,7.53a2,2,0,0,1,1.07,1.14l6.38,17a2,2,0,0,1-1.19,2.62L191.16,106Z"/><path class="cls-1" d="M203.77,312.79l-.27,0h0a4.27,4.27,0,0,1-3.4-4.34l2.54-53L239,294.24a4.24,4.24,0,0,1-.26,6l-13.41,12.28a4.19,4.19,0,0,1-3.05,1.11l-18.17-.79Z"/><path class="cls-1" d="M264.08,269a1.2,1.2,0,0,1,.89,1.44l-2.5,10.38a1.22,1.22,0,0,1-.54.74l-9.1,5.56a1.19,1.19,0,0,1-1.64-.39l-14.75-24.21Z"/></svg>