<svg xmlns="http://www.w3.org/2000/svg" xmlns:xlink="http://www.w3.org/1999/xlink" viewBox="0 0 313.32 78.98"><defs><style>.cls-1{fill:none;}.cls-2{clip-path:url(#clip-path);}.cls-3{fill:#fff;}</style><clipPath id="clip-path"><rect class="cls-1" x="1779.33" y="-4880.95" width="1366" height="5518.05"/></clipPath></defs><g id="fondos"><g class="cls-2"><path class="cls-3" d="M1734.61-1149.86c-60.37-8.78-150.75,11.19-201.8,44.59L369.87-345.42C318.75-312.07,263.14-237.9,245.73-179.25L-162.73,1188.92c-17.37,58.59-13,151.73,9.95,208.09l542.23,1335.3c22.91,56.36,85,126.12,138.57,155.4l1235.72,673.41c53.58,29.28,145.23,42.18,204.82,29L3317.91,3292c59.59-13.17,137.33-63.49,173.59-112.62L4328.34,2048c36.26-49.13,63.16-138.55,60.2-199.32L4317.63,409.18c-3-60.77-38.16-147.11-78.65-192.91L3292-852.39c-40.5-45.86-122.19-89.69-182.54-98.41Z"/></g></g><g id="figuras"><g id="nL3XJi"><path class="cls-3" d="M302.46,42.43c-.1-2.27-.35-4.56-.27-6.83q.44-13.92,1.06-27.83a4.7,4.7,0,0,1,5.14-4.48c3.12.06,5,1.74,4.93,4.74-.2,7.19-.51,14.39-.86,21.58q-.68,14-1.5,28c-.33,5.45-.82,10.88-1.28,16.32a5.07,5.07,0,0,1-9.89,1c-1-4-1.74-8-2.73-12-1.83-7.37-3.77-14.71-5.66-22.06,0-.19-.12-.38-.52-.53-.1,3.06-.17,6.13-.31,9.19q-.6,12.32-1.27,24.61a5,5,0,0,1-9.88-.52c.07-3.71.3-7.42.46-11.13.44-10.06,1-20.12,1.28-30.19.23-7.25.16-14.52.27-21.78,0-2.84,1.53-4.6,4.06-5a5.32,5.32,0,0,1,5.82,3.36,259.23,259.23,0,0,1,9.86,30.29c.31,1.11.65,2.22,1,3.33Z"/><path class="cls-3" d="M173.4,41.85c-.3-3.13-.75-6.25-.86-9.39-.29-8.21-.48-16.43-.62-24.64,0-2.51,2-4.37,4.76-4.53,2.92-.16,5,1.21,5.16,3.87.34,5.56.49,11.13.61,16.7q.38,17.05.62,34.11c.07,4.78-.06,9.57-.1,14.35,0,2.82-1.54,4.74-4.11,5.16A4.92,4.92,0,0,1,172.92,74c-1.07-3.31-1.94-6.7-3-10C167.51,56.63,165,49.33,162.58,42a2.06,2.06,0,0,0-.82-1.11c.17,4,.41,7.93.5,11.89.14,5.69.17,11.37.25,17.06,0,1.4.13,2.81.1,4.22a5,5,0,0,1-10,.13c-.12-2.76-.17-5.52-.19-8.28-.09-16.95-.71-33.87-2.09-50.77-.07-.84-.07-1.68-.1-2.53-.11-3,1.11-4.88,3.64-5.5a5.12,5.12,0,0,1,6.22,3.08q5,11.55,9.79,23.15C171.07,36.16,172,39,173,41.89Z"/><path class="cls-3" d="M205.82,24.19l-15,2.75a4.78,4.78,0,0,1-4.95-2.16,4.19,4.19,0,0,1,.41-5.18,7.37,7.37,0,0,1,3.49-1.83c4.64-.95,9.32-1.68,14-2.5l1.68-.31c.25-2.23.5-4.4.75-6.58,0-.16,0-.33.06-.5C207.06,3.6,210,.38,213.37,0a9.84,9.84,0,0,1,10,6.26c.76,2,1.25,4.08,1.93,6.36l7.74-.89c.56-.07,1.11-.19,1.67-.22a4.55,4.55,0,0,1,5.12,4.06,4.48,4.48,0,0,1-4,5c-2,.34-4,.54-6,.79-1.49.19-3,.36-4.49.54a100.94,100.94,0,0,1-5.13,23.71,4.13,4.13,0,0,0,.32,2.41,34.57,34.57,0,0,0,13.52,17.46,4.48,4.48,0,1,1-5,7.41c-5.57-4-10.61-8.59-13.83-14.83a6.09,6.09,0,0,0-.44-.69c-2.57,3.25-5,6.56-7.67,9.65-4.15,4.8-9.53,8.07-14.92,11.27a4.46,4.46,0,0,1-4.51-7.66c1.62-1.13,3.31-2.16,5-3.2,8-5,13.17-12.33,17.22-20.6a2,2,0,0,0,.14-1.41A95.35,95.35,0,0,1,205.82,24.19Zm10.34-.93-.37-.37c-.34.23-1,.47-1,.68,0,1.36.24,2.71.39,4.06h.4Zm-1.53-9.54c1.73-.19,1.81-1.17.3-3.67C214.82,11.42,214.73,12.55,214.63,13.72Z"/><path class="cls-3" d="M116.39,39.94h-13.2c0,2.38-.16,4.94,0,7.49.62,8.58,1.35,17.16,2.06,25.73.23,2.85-1.2,5-3.79,5.59s-5.06-.48-5.88-3.22a33.16,33.16,0,0,1-1.21-7.29q-1-16.57-1.83-33.19C92.23,28,92.08,20.88,92,13.79a31.47,31.47,0,0,1,.53-6,5.58,5.58,0,0,1,7.83-4.06c1.66.73,1.92,2.24,2,3.81.09,5.06.13,10.13.24,15.19,0,2.08.19,4.15.31,6.52h13.53V27.6q0-9,0-17.91a5.16,5.16,0,0,1,10.26-.64c.21,2.86.19,5.74.2,8.61q.06,17.15.06,34.28,0,10.05-.06,20.11c0,3.45-1.33,5.25-4.16,5.87a5,5,0,0,1-6.28-5q0-13.7,0-27.37C116.4,43.77,116.39,42,116.39,39.94Z"/><path class="cls-3" d="M8.11,33.32c.25-4.32.27-8.48.8-12.59a39.75,39.75,0,0,1,2.23-8.62C14,4.38,19.87.4,28.15.44c7,0,12.91,2.74,17.07,8.46a19.34,19.34,0,0,1-.77,23.82c-5.41,6.75-12.74,10.19-21,12l-1.75.39c1.22,5.3,2.35,10.51,3.63,15.67.8,3.22,1.85,6.37,2.77,9.56,1,3.47-.61,6.63-3.77,7.55a5.6,5.6,0,0,1-7.24-4.28q-3.4-13.14-6.5-26.35C10.21,45.73,9.76,45,8.13,45a14.07,14.07,0,0,1-3-.28A5.75,5.75,0,0,1,0,38.3a5.63,5.63,0,0,1,6.06-5.1C6.82,33.22,7.55,33.29,8.11,33.32Zm11.94-.07c5-.33,11.58-3.51,14.7-7,4.83-5.43,2.83-12.75-4-14.49-3.75-1-7.27.11-8.37,2.87A37.59,37.59,0,0,0,20.05,33.25Z"/><path class="cls-3" d="M239.48,44.22c.75-9.24,1.44-18.5,2.3-27.74.25-2.68,3-4.32,5.8-3.85a4.63,4.63,0,0,1,4,5.3c-.6,7.29-1,14.59-1.68,21.87-.75,8.51.41,16.83,2.18,25.11.79,3.72,1.72,4.8,4.41,5.13,2.2.26,2.93-.11,3.84-2.16a42.51,42.51,0,0,0,3.74-14.13c.61-8.24,1.1-16.5,1.4-24.76a71.1,71.1,0,0,0-.64-9.76c-.47-4.54,4.4-6.31,7.43-4.74,2,1,2.55,2.7,2.71,4.72a195.64,195.64,0,0,1-1,35.89c-.65,6.13-2.11,12.1-5.47,17.39-1.85,2.92-4.23,5.27-7.76,6.13-5.65,1.37-13.56-1.32-16.18-6A30,30,0,0,1,242,64.83,95,95,0,0,1,239.48,44.22Z"/><path class="cls-3" d="M65.69,38.28a48.71,48.71,0,0,1,4.14-21.19,20,20,0,0,1,7.14-9c3.1-2,6.75-1.39,8.65,1.48,1.59,2.39,1.46,6.78-1.79,8.77a10.84,10.84,0,0,0-3.76,4.36C77,29.06,76.52,35.91,77.16,42.82a72.88,72.88,0,0,0,1.7,10.29,24.24,24.24,0,0,0,10,14.79c2.83,2,3.39,4.66,2,7.72A5.15,5.15,0,0,1,84,78.4c-3.28-1.3-5.75-3.73-8-6.3-4.72-5.27-7.24-11.66-8.63-18.43-1-5.05-1.41-10.23-2.08-15.35Z"/><path class="cls-3" d="M45.72,78.88A5.87,5.87,0,0,1,40,72,89.61,89.61,0,0,1,42,61.64c2.54-10.14,5.2-20.24,7.81-30.35.36-1.36.72-2.71,1.11-4.06,1.06-3.56,3.87-5.44,6.91-4.63a6.44,6.44,0,0,1,4.32,7.88q-4,15.85-7.93,31.71c-.83,3.33-1.5,6.69-2.38,10a18.79,18.79,0,0,1-1.75,4.34A4.82,4.82,0,0,1,45.72,78.88Z"/><path class="cls-3" d="M135.24,58.42C134.66,51,134.07,43.5,133.53,36c-.16-2.24-.26-4.49-.28-6.74a5.54,5.54,0,0,1,5.5-5.85,6.07,6.07,0,0,1,6.38,5.5c.72,11.45,1.37,22.9,2.07,34.35.2,3.2.6,6.39.68,9.59a5.83,5.83,0,0,1-11.4,1.78,74.15,74.15,0,0,1-1.4-10.33c-.19-2,0-3.93,0-5.9Z"/><path class="cls-3" d="M144,12.75a5.7,5.7,0,0,1-5.64,5.73A5.78,5.78,0,1,1,144,12.75Z"/><path class="cls-3" d="M65.19,12.75A5.77,5.77,0,1,1,59.56,7,5.71,5.71,0,0,1,65.19,12.75Z"/><path class="cls-3" d="M258,17.67c-2.1,0-3.36-.72-4-2.33a3.1,3.1,0,0,1,1.3-3.83c1.8-1.37,3.59-2.73,5.43-4a4,4,0,0,1,5.47.63c1.2,1.57.85,3.44-1.09,5-1.77,1.4-3.62,2.69-5.49,4A6.33,6.33,0,0,1,258,17.67Z"/></g></g></svg>