<svg xmlns="http://www.w3.org/2000/svg" xmlns:xlink="http://www.w3.org/1999/xlink" viewBox="0 0 427.63 249.77"><defs><style>.cls-1{fill:none;}.cls-2{clip-path:url(#clip-path);}.cls-3{fill:#fff;}</style><clipPath id="clip-path"><rect class="cls-1" x="1357.05" y="-2985.29" width="1366" height="1284.16"/></clipPath></defs><g id="fondos"><g class="cls-2"><path class="cls-3" d="M1523.31-2388.32c-50.49-6.71-125.75,10.9-168,39.31L392.14-1702.58c-42.33,28.37-88,90.87-101.93,140L-36.71-416C-50.61-366.92-46-289.2-26.25-242.38L440.25,866.91C460,913.73,512.52,971.34,557.56,995.23l1038.69,549.51c45,23.89,121.69,33.71,171.31,22.1L2891.1,1304c49.62-11.6,114-54.42,143.77-95.82l687-953.27c29.76-41.39,51.3-116.34,48.2-167l-74.06-1201.11c-3.1-50.71-33.38-122.43-67.66-160.25L2826.73-2156c-34.29-37.87-102.94-73.62-153.43-80.27Z"/><path class="cls-3" d="M1312.33-530.2C1252-539,1161.58-519,1110.54-485.61L-52.41,274.25c-51.11,33.35-106.73,107.51-124.14,166.17L-585,1808.58c-17.37,58.59-13,151.73,10,208.09L-32.83,3352c22.92,56.36,85,126.13,138.58,155.4l1235.71,673.42c53.59,29.28,145.23,42.17,204.82,29l1349.35-298.16c59.6-13.17,137.33-63.49,173.59-112.62l836.85-1131.39c36.26-49.13,63.15-138.56,60.19-199.33l-70.91-1439.44c-3-60.77-38.16-147.11-78.65-192.91L2869.77-232.73c-40.51-45.86-122.19-89.68-182.55-98.4Z"/></g></g><g id="figuras"><path class="cls-3" d="M104.81,145.52c2.7-3.85,4.9-7.08,7.19-10.25q27.76-38.46,55.57-76.91c11.9-16.47,23.86-32.89,35.63-49.44,1.9-2.68,3.43-3,6.29-1.58,21.42,10.53,28.36,30.94,18.41,52.72-8,17.59-20.73,31.05-35.49,43-24.37,19.66-52,32.8-82,41.19-1.57.44-3.18.74-5.62,1.29"/><path class="cls-3" d="M56.71,35.89c1.8,38.79,3.57,76.67,5.37,115.38-5.45-.36-10.8-.42-16.07-1.15-11.39-1.56-22.32-4.63-31.66-11.78-12.53-9.58-17.09-23.8-12.74-39,5.12-18,16.39-31.82,29.88-44,6.65-6,14.06-11.18,21.15-16.7,1.07-.84,2.26-1.52,4.07-2.7"/><path class="cls-3" d="M166.87.67,98.43,100.93l-1-.33A31.26,31.26,0,0,1,97,97.41c-.54-26-1-52-1.63-78-.07-2.8.87-4,3.43-4.95,20.4-7.66,41.31-13,63.11-14.39,1.28-.08,2.57,0,3.86,0,.21,0,.41.22,1.12.63"/><path class="cls-3" d="M146.28,206.91c.31,2.37.55,4.79,1,7.19.7,3.93,3.37,6.17,7.19,6.18s7.07-2.43,7.37-6.42a85.25,85.25,0,0,0,0-13.37c-.34-4.16-3.15-6.31-7.25-6.31-4.5,0-6.5,1.63-7.32,6.17-.39,2.14-.63,4.31-1,6.56m.19,21.38c0,6.06-.2,11.56.07,17,.16,3.31-.72,4.49-4.23,4.46-10.55-.1-10.55,0-10.55-10.58,0-17.24.12-34.49-.09-51.73-.06-4,1.3-5.3,5.09-4.9,2.16.24,4.4-.19,6.54.14,1.34.2,2.55,1.24,3.82,1.91,3.47-.85,7.54-2.52,11.67-2.7,9.58-.44,15.94,4.33,17.29,13.89a75.49,75.49,0,0,1,0,22.56c-2.18,13.14-15.86,18.48-27.26,11.43l-2.36-1.5"/><path class="cls-3" d="M59.32,163.17c-.67,2.34-1.07,3.92-1.57,5.46q-9.86,30.08-19.7,60.17c-.6,1.82-1.46,2.72-3.53,2.64-14.16-.52-10.36,2.82-14.83-10.51-6-17.7-11.62-35.49-17.4-53.24-.39-1.19-.75-2.39-1.37-4.43,5.23,0,10-.09,14.82.12.6,0,1.33,1.67,1.64,2.67,4.28,13.53,8.48,27.07,13,41.59,1-2.6,1.75-4.35,2.28-6.16,3.39-11.68,6.8-23.35,10-35.07.66-2.37,1.68-3.42,4.23-3.3,3.92.2,7.86.06,12.37.06"/><path class="cls-3" d="M85.07,212c-4.92,0-8.2-.43-11.27.18A7,7,0,0,0,69.35,216c-.45,1.13,1.09,4.37,2,4.5,3.28.46,7.1.83,9.91-.48,1.85-.87,2.33-4.67,3.77-8M83.7,201.93c.4-6.46-1.07-8.48-7-8.28-4,.14-7.91,1.56-11.9,2.22-1,.16-2.56-.05-3-.69-1.66-2.41-3-5.06-4.58-8a32,32,0,0,1,4.63-2.83,39.91,39.91,0,0,1,27.21-.81,11.74,11.74,0,0,1,8.47,10.58c.63,12,.39,23.94.47,35.91,0,.35-.29.69-.59,1.4-4.6-1.05-9.85,2.13-14.23-2.34-5.72,3.86-12,4.93-18.77,2.41-6.49-2.41-9.56-7-9.44-14.28.11-6.77,3.53-11.88,9.81-13.69A56.38,56.38,0,0,1,75.37,202c2.66-.23,5.37,0,8.33,0"/><path class="cls-3" d="M209.69,212.05c-3.65,0-7.18-.45-10.49.18a7,7,0,0,0-4.35,4c-.39,1.09,1.14,3.75,2.47,4.46,6.58,3.5,12.76-.7,12.37-8.66m14.06,19.51c-5.15-1.06-10.3,1.67-15-2.29a19.69,19.69,0,0,1-19.43,1.93c-5.85-2.42-9-7.6-8.76-14.09s4.1-12,10.07-13.61A57.52,57.52,0,0,1,201.19,202c2.78-.24,5.6,0,8.36,0,.52-5.83-1.1-8.33-6.2-8.23-4.24.08-8.44,1.38-12.66,2.17-.36.07-.74.55-1,.48-3.91-.9-3.68-5-5.63-7.5-.38-.47.49-2.82,1.27-3.16,3.27-1.4,6.67-3.08,10.12-3.34a72.39,72.39,0,0,1,16.84.51c6.78,1.1,11.19,6.28,11.39,13.21.34,11.57.09,23.16.09,35.49"/><path class="cls-3" d="M294,212.08c-3.58,0-7-.46-10.18.18-1.64.33-3.58,2.41-4.07,4.08-.35,1.22,1.08,3.85,2.38,4.49,6.79,3.33,12.66-1,11.87-8.75m-.56,17.14A19.72,19.72,0,0,1,275,231.6c-6.38-2.29-9.73-7.08-9.68-14.1,0-6.81,3.66-12.23,9.94-14A58.18,58.18,0,0,1,285.82,202c2.66-.24,5.35,0,8,0,.9-6.06-.74-8.45-6.49-8.27-4.1.13-8.16,1.59-12.27,2.26-1,.15-2.53-.15-3-.82-1.57-2.32-2.78-4.9-4.46-8,2.2-1.22,4.22-2.85,6.54-3.55a41.91,41.91,0,0,1,23.95-.43C304,184.81,307.74,189,308,195c.49,11.31.38,22.65.32,34,0,.81-1.55,2.2-2.49,2.31a44.38,44.38,0,0,1-8.47,0c-1.14-.11-2.19-1.14-4-2.11"/><path class="cls-3" d="M413.53,207.18c-.34-2.44-.53-4.88-1.07-7.23-1-4.36-3.42-6-8.15-5.75-3.67.18-6.08,2.21-6.42,6.33a85.64,85.64,0,0,0,0,13.4c.32,3.91,3.19,6.17,7,6.34a7.1,7.1,0,0,0,7.52-5.83c.53-2.37.72-4.8,1.07-7.26m-31.52,0c.4-3.18.49-6.44,1.28-9.52,2.22-8.64,7.77-13.86,16.64-15.58,12.57-2.45,24.12,3.35,26.66,14.32,1.22,5.26,1.06,10.92,1,16.4-.23,17.67-20.34,24.47-34.46,17.07-7.88-4.13-10.14-11.43-10.8-19.57-.08-1,0-2.05,0-3.08l-.3,0"/><path class="cls-3" d="M335.06,224.38a8.5,8.5,0,0,1,.7-1.18c2.05-2.31,3.74-5.7,6.29-6.56,2.08-.7,5.12,2,7.85,2.53a49.53,49.53,0,0,0,11.53,1.33c1.33,0,2.61-2.42,3.91-3.72-1.5-1.1-2.85-2.7-4.52-3.16-2.81-.8-5.86-.71-8.75-1.27-11.49-2.23-14.39-7.37-14.42-15,0-8.09,4.39-13.8,14.76-15.28,8.06-1.14,15.88-.09,23.06,4.21,2.46,1.47,3.07,3,.84,5.08a7.46,7.46,0,0,0-.51.59c-4.11,4.71-4,4.42-10,2.62a34.17,34.17,0,0,0-10.59-1.1c-1.27,0-2.49,2-3.73,3,1.12,1,2.08,2.7,3.38,3,4.46,1,9.06,1.46,13.55,2.45,5.7,1.26,9.85,4.45,10.79,10.59,1.17,7.61-1.48,13.4-7.45,16.82-10.48,6-28.65,3.6-36.69-5"/><path class="cls-3" d="M127.3,232.06c-3.93,0-7.28.31-10.56-.07-6.87-.77-11.2-5.73-11.24-12.9-.11-17.52,0-35-.11-52.57,0-2.46.65-3.56,3.25-3.39a59.47,59.47,0,0,0,8.12,0c2.82-.19,3.46,1.06,3.45,3.65-.09,15.59,0,31.19-.09,46.78,0,3.73.5,6.42,5.12,6.24.66,0,1.91,1.32,2,2.1.23,3.19.1,6.41.1,10.17"/><path class="cls-3" d="M246.07,186.51c6-5.17,12-6,18.52-3.43,2.57,1,3.39,2.53,1.86,5.07-1.78,3-3.46,6-5.31,9.18l-2.88-1.39c-6.59-3.19-11.77-.37-12,6.9-.29,8.11-.29,16.25-.06,24.36.1,3.51-1.07,4.54-4.41,4.26-3.19-.26-6.43-.05-10-.05-.11-1.26-.28-2.36-.28-3.45,0-13.79.06-27.59-.07-41.39,0-3,.77-4.3,3.92-4a48.85,48.85,0,0,0,7,0c2.42-.11,4.19.38,3.83,3.93"/><path class="cls-3" d="M330.55,231.39c-4.58,0-8.56.13-12.52-.11a3.21,3.21,0,0,1-2.11-2.33q-.19-21.85,0-43.71c0-.88,1.6-1.75,2.47-2.61.06-.07.24,0,.37,0,11.78-1,11.78-1,11.78,10.75v38Z"/><path class="cls-3" d="M137.39,160.18c3-.24,5.76-.37,8.5-.7,3-.37,4-2.46,3.8-5.23s-2.14-4-4.67-4.09-5.06,0-7.63,0Zm11.34,3.71,6.59,12.92c-3.09,1.6-5.07,1.12-6.38-1.92-.86-2-2-3.9-2.92-5.86-2.48-5.14-2.47-5.14-8.85-4.39,0,3.34-.07,6.76,0,10.18.05,1.87-.48,3.27-2.5,2.73a3.7,3.7,0,0,1-2.28-2.58c-.17-9-.14-18,0-27,0-.83,1.06-2.34,1.65-2.35a104.87,104.87,0,0,1,13,.38c4.09.44,6.72,3,7.49,7.14s-.88,7.25-4.22,9.6c-.42.29-.83.6-1.62,1.17"/><path class="cls-3" d="M201.45,166c0-5.33-1-7-4.17-7.29-4-.36-5.82,1.74-5.92,6.94s1.83,8.36,5.21,8.42,4.9-2.48,4.88-8.07m0-10.24c0-2.37.13-4.43,0-6.46-.25-3.3.94-4.56,4.57-3.34,0,9.82.05,19.7-.1,29.58,0,.73-1.83,2.21-2.18,2-2.17-1-4-.17-6,.32-5.39,1.28-9.64-1.87-10.4-7.45a30.87,30.87,0,0,1-.3-5.76c.46-9.15,5.37-12.35,14.48-8.93"/><path class="cls-3" d="M175,167.89c-2.14,0-4.15-.38-5.88.13-1.27.37-2.18,1.93-3.26,3,1.11,1,2.09,2.67,3.37,3,3.91.88,5.87-1.22,5.77-6.06m-.29-3.9c.66-5.14-1.92-6.71-7.66-5.17-2.76.74-2.76.74-4.16-1.75,4.85-4.32,14.83-3.94,15.87,1.06,1.23,5.92.72,12.21.84,18.36,0,.37-1.06,1.07-1.67,1.11-2.9.24-5.83.38-8.74.4-4.55.05-7.71-2.69-7.92-6.71s2.87-7,7.41-7.28c2-.12,4.07,0,6,0"/><path class="cls-3" d="M241.71,166.13c0-.6-.12-1.36-.1-2.13.07-3.17-1.28-5.07-4.61-5.35-3.73-.33-5.08,1.91-5.31,5-.15,2.14-.44,4.64.47,6.38s3.34,3.76,4.9,3.6,3.17-2.66,4.44-4.37c.5-.68.16-2,.21-3.18m4.64.19c0,7.76-3.56,11.85-10.09,11.7-5-.12-7.66-2.58-9-8.25-1.59-6.6.88-13.17,5.6-14.91,7.73-2.83,13.55,2.09,13.52,11.46"/><path class="cls-3" d="M340.6,161.13c-4.29,5.58-7.22,11-11.62,14.5-2.49,2-7.4,1-11.22,1.38l-.57-1.2c2.65-4.45,5.29-8.91,8-13.33a2.79,2.79,0,0,1,1.78-1.29c4.15-.11,8.3-.06,13.63-.06"/><path class="cls-3" d="M219.2,154.64c0,7.36.06,14.17-.09,21,0,.69-1.37,1.95-2,1.88-.78-.08-2.07-1.23-2.09-1.95-.16-6.81-.1-13.61-.1-20.64l4.28-.27"/><path class="cls-3" d="M215.43,145.62H219v4.32c-4.19.91-4.72.29-3.52-4.32"/></g></svg>