<svg xmlns="http://www.w3.org/2000/svg" viewBox="0 0 40.03 40.02"><defs><style>.cls-1{fill:#fff;}</style></defs><title>web-logo-instagram</title><g id="figuras"><path class="cls-1" d="M26.18,13.23a1.36,1.36,0,1,1-1.4,1.34A1.37,1.37,0,0,1,26.18,13.23Z"/><path class="cls-1" d="M20.06,0A20,20,0,1,0,40,20,20,20,0,0,0,20.06,0ZM30.24,25.2a5.09,5.09,0,0,1-5.08,5.08H14.77A5.09,5.09,0,0,1,9.69,25.2V14.81a5.09,5.09,0,0,1,5.08-5.08H25.16a5.09,5.09,0,0,1,5.08,5.08Z"/><path class="cls-1" d="M20,14.51A5.49,5.49,0,1,0,25.46,20,5.5,5.5,0,0,0,20,14.51Zm0,9.55A4.06,4.06,0,1,1,24,20,4.07,4.07,0,0,1,20,24.07Z"/></g></svg>