<svg xmlns="http://www.w3.org/2000/svg" viewBox="0 0 149.96 37.05"><defs><style>.cls-1{fill:#fff;}</style></defs><title>web-logo-escuela-arq-diseño-valparaiso</title><g id="figuras"><path class="cls-1" d="M1,11.35A3.77,3.77,0,0,1,0,8.59,4.45,4.45,0,0,1,.52,6.46,3.88,3.88,0,0,1,1.91,5a3.66,3.66,0,0,1,2-.55A2.45,2.45,0,0,1,6.63,7.2a3.52,3.52,0,0,1-.11.92l-.2.2H2.08a2.76,2.76,0,0,0,.57,1.83,1.92,1.92,0,0,0,1.53.63,4.87,4.87,0,0,0,2-.49l.11.07.26.8A7.93,7.93,0,0,1,5.1,12a3.32,3.32,0,0,1-1.38.38A3.63,3.63,0,0,1,1,11.35ZM4.32,7.28a.39.39,0,0,0,.25-.08.5.5,0,0,0,.06-.29q0-1.21-1-1.21a1.34,1.34,0,0,0-1,.44,2.17,2.17,0,0,0-.48,1.28Z"/><path class="cls-1" d="M8.58,14.14q0-.74.11-2.94T8.76,8q0-1-.07-3.25t-.11-3l3.54-.18.06.13-.11.9L10.37,3V13l1.75.34.06.15-.11.87Z"/><path class="cls-1" d="M17.64,12a1.35,1.35,0,0,1-.5-.94L17,11a7.63,7.63,0,0,1-1,.89,1.52,1.52,0,0,1-.79.35,2.11,2.11,0,0,1-1.61-.68A2.38,2.38,0,0,1,13,9.92,1.47,1.47,0,0,1,13.22,9a1.2,1.2,0,0,1,.69-.48l3.16-.74,0-.39a1.53,1.53,0,0,0-.38-1.1,1.37,1.37,0,0,0-1-.39,2.46,2.46,0,0,0-1,.22,4.77,4.77,0,0,0-1,.55l-.15-.07-.28-1q.82-.46,1.72-.85a3.85,3.85,0,0,1,1.28-.39,3,3,0,0,1,2,.61,2.07,2.07,0,0,1,.68,1.61,14.2,14.2,0,0,1-.15,1.48q-.18,1.59-.18,1.9a.7.7,0,0,0,.16.49.55.55,0,0,0,.43.18,1.1,1.1,0,0,0,.42-.09,2.08,2.08,0,0,0,.37-.19l.25.34a5.63,5.63,0,0,1-.73,1,1.88,1.88,0,0,1-.84.6A1.83,1.83,0,0,1,17.64,12ZM16.39,10.6a2.23,2.23,0,0,0,.6-.34L17,8.7l-1.75.49a.49.49,0,0,0-.39.54,1,1,0,0,0,.25.71.85.85,0,0,0,.66.29A1.64,1.64,0,0,0,16.39,10.6Z"/><path class="cls-1" d="M26.07,11.18l-.1,0a6.43,6.43,0,0,1-1.92,1.15,2.86,2.86,0,0,1-2.27-1,3.85,3.85,0,0,1-.84-2.62,4.49,4.49,0,0,1,.53-2.19A3.88,3.88,0,0,1,22.95,5a4.14,4.14,0,0,1,2.12-.55,8,8,0,0,1,.85,0V2.38a1.21,1.21,0,0,0-.16-.71.63.63,0,0,0-.53-.2l-.25,0-.15,0,.1-1q1-.11,2-.29L28.17,0l.15.28A12.38,12.38,0,0,0,28,3.47q-.15,2.89-.15,6.54a.78.78,0,0,0,.14.49.46.46,0,0,0,.39.18.92.92,0,0,0,.34-.07l.27-.13.14-.08.26.34a4.93,4.93,0,0,1-.28.43,5,5,0,0,1-.6.69,2,2,0,0,1-.76.49Q26.25,12.36,26.07,11.18Zm-.86-.52a2.67,2.67,0,0,0,.47-.25l.24-.18V6.08L25.73,6l-.43-.13a2.45,2.45,0,0,0-.59-.07,1.46,1.46,0,0,0-1.25.6A2.81,2.81,0,0,0,23,8.1a3.71,3.71,0,0,0,.45,2,1.35,1.35,0,0,0,1.19.74A1.4,1.4,0,0,0,25.21,10.66Z"/><path class="cls-1" d="M29.64,14.21l.12-.9,1.7-.34V3l-1.75-.34-.07-.15.12-.88,3.49.18q0,.74-.11,2.93t-.07,3.23q0,1,.07,3.25t.11,3l-3.54.18Z"/><path class="cls-1" d="M5.67,23.21q-.17.85-.29,2l-.11.12q-2.09-.08-3.4-.08A16.34,16.34,0,0,0,0,25.38l.08-.73a1,1,0,0,0,.62-.26,1.07,1.07,0,0,0,.16-.68V19.55a1.12,1.12,0,0,0-.07-.48C.76,19,.67,19,.52,19L.19,19l-.07-.1.09-.66H.43q.78,0,1.76,0a27.17,27.17,0,0,0,3.32-.13l.09.12q-.09.4-.16,1t-.09,1l-1,.06,0-.44a.86.86,0,0,0-.09-.46.54.54,0,0,0-.37-.19,6.06,6.06,0,0,0-.93,0,2.38,2.38,0,0,0-.39,0,.19.19,0,0,0-.15.1.68.68,0,0,0,0,.25l-.08,1.72h1l.57,0,.69-.07.09.1-.15.93H4.34l-1.21,0a6.74,6.74,0,0,0-.84.07l0,1.56a1.37,1.37,0,0,0,0,.44.28.28,0,0,0,.19.17,1.74,1.74,0,0,0,.47,0,4.66,4.66,0,0,0,1-.08A.7.7,0,0,0,4.48,24a2.48,2.48,0,0,0,.22-.83l.9-.08Z"/><path class="cls-1" d="M7.29,25.34a3.35,3.35,0,0,1-.51-.14l-.23-.09L6.49,25c0-.2.06-.43.08-.69s0-.51.06-.75l.6-.06q0,1.1,1,1.1a.94.94,0,0,0,.52-.14.4.4,0,0,0,.21-.34.52.52,0,0,0-.22-.4,5,5,0,0,0-.87-.5,2.8,2.8,0,0,1-1-.65,1.19,1.19,0,0,1-.3-.8,1.4,1.4,0,0,1,.28-.87,1.87,1.87,0,0,1,.8-.59,3,3,0,0,1,1.17-.21,3.72,3.72,0,0,1,.59,0,3.31,3.31,0,0,1,.43.09l.2.06.06.11L10,21q-.07.42-.11.87l-.61,0v-.2a.75.75,0,0,0-.19-.56.81.81,0,0,0-.58-.18.82.82,0,0,0-.48.14.4.4,0,0,0-.2.34.53.53,0,0,0,.17.38,2.22,2.22,0,0,0,.58.37,7.1,7.1,0,0,1,1,.55,1.55,1.55,0,0,1,.48.49,1.19,1.19,0,0,1,.14.58,1.29,1.29,0,0,1-.3.82,2,2,0,0,1-.81.59A2.85,2.85,0,0,1,8,25.4,3.55,3.55,0,0,1,7.29,25.34Z"/><path class="cls-1" d="M11.59,24.73a2.55,2.55,0,0,1-.64-1.84,3,3,0,0,1,.34-1.44,2.48,2.48,0,0,1,.95-1,2.67,2.67,0,0,1,1.37-.35,4.3,4.3,0,0,1,.67,0l.49.1.22.07,0,.1-.06.3q0,.23-.1.61t-.08.78l-.7,0v-.36a.83.83,0,0,0-.18-.57.65.65,0,0,0-.51-.2.9.9,0,0,0-.78.38,1.84,1.84,0,0,0-.27,1.08,2.49,2.49,0,0,0,.32,1.38,1,1,0,0,0,.9.48,2,2,0,0,0,.53-.07,3,3,0,0,0,.43-.15l.21-.1.08,0,.18.56-.35.26a5.09,5.09,0,0,1-.63.37,1.48,1.48,0,0,1-.66.18A2.32,2.32,0,0,1,11.59,24.73Z"/><path class="cls-1" d="M16.16,21.18a.32.32,0,0,0-.28-.13H15.7l-.1,0,.06-.63q.57-.08,1.18-.19l.8-.16.1.17a4.81,4.81,0,0,0-.21,1.2q-.09.92-.09,1.91a1.08,1.08,0,0,0,.17.67.61.61,0,0,0,.52.22,1,1,0,0,0,.43-.1,4.35,4.35,0,0,0,.52-.31V21.6a.67.67,0,0,0-.09-.42.52.52,0,0,0-.38-.12h-.2l.09-.62,1.22-.19.81-.14.1.18a4.89,4.89,0,0,0-.21,1.28q-.09,1-.09,2.26a.47.47,0,0,0,.11.33.37.37,0,0,0,.28.12.65.65,0,0,0,.23,0l.19-.09.1-.05.16.22-.22.31a3.84,3.84,0,0,1-.43.47,1.08,1.08,0,0,1-.48.3q-1,0-1.11-.84l-.09,0a8.06,8.06,0,0,1-.76.63,1.13,1.13,0,0,1-.46.25A2,2,0,0,1,16.61,25a1.22,1.22,0,0,1-.44-1l.08-2.44A.73.73,0,0,0,16.16,21.18Z"/><path class="cls-1" d="M22.39,24.73a2.51,2.51,0,0,1-.66-1.84,3,3,0,0,1,.34-1.42,2.6,2.6,0,0,1,.93-1,2.44,2.44,0,0,1,1.31-.37A1.63,1.63,0,0,1,26.15,22a2.36,2.36,0,0,1-.08.61l-.13.13H23.11a1.84,1.84,0,0,0,.38,1.22,1.28,1.28,0,0,0,1,.42,3.26,3.26,0,0,0,1.3-.33l.08,0,.18.54a5.42,5.42,0,0,1-.93.56,2.23,2.23,0,0,1-.92.25A2.42,2.42,0,0,1,22.39,24.73ZM24.61,22a.26.26,0,0,0,.17-.06.33.33,0,0,0,0-.2q0-.81-.69-.81a.9.9,0,0,0-.69.3,1.44,1.44,0,0,0-.32.85Z"/><path class="cls-1" d="M26.75,24.71a.8.8,0,0,0,.37-.16.47.47,0,0,0,.15-.26,2.51,2.51,0,0,0,0-.48V18.74a1.27,1.27,0,0,0,0-.42.27.27,0,0,0-.19-.16,1.61,1.61,0,0,0-.47,0l0,0,.07-.58q1.32-.17,2.21-.35l.08.21a9.92,9.92,0,0,0-.25,2.23q-.09,1.87-.09,4.52a.7.7,0,0,0,.08.38.28.28,0,0,0,.25.11l.36,0,0,.07-.12.64h-.36l-.87,0a11.74,11.74,0,0,0-1.24.1Z"/><path class="cls-1" d="M32.84,25.19a.9.9,0,0,1-.33-.63l-.09,0a5,5,0,0,1-.68.6,1,1,0,0,1-.52.23,1.41,1.41,0,0,1-1.07-.45,1.59,1.59,0,0,1-.43-1.13,1,1,0,0,1,.17-.58.81.81,0,0,1,.46-.32l2.11-.49v-.26a1,1,0,0,0-.25-.73.91.91,0,0,0-.69-.26,1.64,1.64,0,0,0-.64.15,3.17,3.17,0,0,0-.64.37l-.1,0L30,20.94q.55-.31,1.15-.57a2.57,2.57,0,0,1,.85-.26,2,2,0,0,1,1.36.41,1.38,1.38,0,0,1,.45,1.08,9.51,9.51,0,0,1-.1,1c-.08.71-.12,1.13-.12,1.27a.47.47,0,0,0,.11.33.37.37,0,0,0,.28.12.74.74,0,0,0,.28-.06,1.39,1.39,0,0,0,.25-.13l.16.23a3.83,3.83,0,0,1-.49.67,1.25,1.25,0,0,1-.56.4A1.22,1.22,0,0,1,32.84,25.19Zm-.83-1a1.47,1.47,0,0,0,.4-.23l0-1-1.17.33a.33.33,0,0,0-.26.36.69.69,0,0,0,.17.48.56.56,0,0,0,.44.19A1.09,1.09,0,0,0,32,24.24Z"/><path class="cls-1" d="M40.42,24.62l-.07,0a4.3,4.3,0,0,1-1.28.76,1.91,1.91,0,0,1-1.51-.64A2.56,2.56,0,0,1,37,23a3,3,0,0,1,.36-1.46,2.58,2.58,0,0,1,1-1,2.75,2.75,0,0,1,1.41-.37,5.25,5.25,0,0,1,.57,0V18.75a.81.81,0,0,0-.1-.48.42.42,0,0,0-.35-.14H39.7l-.1,0,.07-.64q.64-.08,1.3-.2l.85-.16.1.19a8.26,8.26,0,0,0-.24,2.13q-.1,1.92-.1,4.36a.52.52,0,0,0,.09.33.3.3,0,0,0,.26.12.61.61,0,0,0,.23,0l.18-.09.09-.05.17.23a2.9,2.9,0,0,1-.19.28,3.31,3.31,0,0,1-.4.46,1.33,1.33,0,0,1-.51.33Q40.54,25.4,40.42,24.62Zm-.57-.34a1.75,1.75,0,0,0,.32-.17l.16-.12V21.22l-.13-.06-.28-.09a1.66,1.66,0,0,0-.39,0,1,1,0,0,0-.83.4,1.87,1.87,0,0,0-.3,1.13,2.48,2.48,0,0,0,.3,1.3.9.9,0,0,0,.79.49A.93.93,0,0,0,39.85,24.27Z"/><path class="cls-1" d="M43.58,24.73a2.51,2.51,0,0,1-.66-1.84,3,3,0,0,1,.34-1.42,2.6,2.6,0,0,1,.93-1,2.44,2.44,0,0,1,1.31-.37A1.63,1.63,0,0,1,47.33,22a2.36,2.36,0,0,1-.08.61l-.13.13H44.3a1.84,1.84,0,0,0,.38,1.22,1.28,1.28,0,0,0,1,.42A3.26,3.26,0,0,0,47,24l.08,0,.18.54a5.42,5.42,0,0,1-.93.56,2.23,2.23,0,0,1-.92.25A2.42,2.42,0,0,1,43.58,24.73ZM45.79,22A.26.26,0,0,0,46,22a.33.33,0,0,0,0-.2q0-.81-.69-.81a.9.9,0,0,0-.69.3,1.44,1.44,0,0,0-.32.85Z"/><path class="cls-1" d="M53.31,25.27l.06-.64a4.56,4.56,0,0,0,.54-.07.46.46,0,0,0,.23-.11.31.31,0,0,0,.07-.21,2,2,0,0,0-.05-.38L53.92,23l-1,0L52.1,23l-.23,0-.27.84a1.53,1.53,0,0,0-.07.34.3.3,0,0,0,.11.27.76.76,0,0,0,.4.08h.47l.06.08-.08.67-.66,0-.94,0h-.83l-.49,0,.08-.71a.76.76,0,0,0,.42-.21,1.52,1.52,0,0,0,.31-.54l2-5.54L54,18.14l.12.05.68,2.55q.52,1.93.89,3.1a1.21,1.21,0,0,0,.31.56,1,1,0,0,0,.56.2l0,.08-.08.63-.54,0h-.8q-.58,0-1.13,0l-.7,0Zm-.39-3.13.81,0-.64-2.44h-.14l-.81,2.47Z"/><path class="cls-1" d="M57.28,24.48a1,1,0,0,0,.11-.58V21.72a.93.93,0,0,0-.1-.51.43.43,0,0,0-.37-.14h-.21L56.67,21l.07-.55,1.19-.22.78-.15.1.1c0,.07,0,.2-.06.42s0,.42,0,.61l.07,0a2.89,2.89,0,0,1,.75-.8,1.38,1.38,0,0,1,.78-.28h.25l.13,0,0,.09q0,.19-.11.8t-.11,1.17l-.7,0a2.53,2.53,0,0,0-.06-.69.24.24,0,0,0-.25-.17.67.67,0,0,0-.37.13,1.55,1.55,0,0,0-.37.36c0,.2,0,.54,0,1s0,.83,0,1.11a.62.62,0,0,0,.09.39.42.42,0,0,0,.33.11h.33l.22,0,0,.07-.12.72-.56,0-.85,0-.83,0-.54,0,.09-.67A.57.57,0,0,0,57.28,24.48Z"/><path class="cls-1" d="M63.57,27.17a2.09,2.09,0,0,0,.5-.08.35.35,0,0,0,.22-.19,1.17,1.17,0,0,0,.07-.42l0-1.87a4.72,4.72,0,0,1-1.25.75,1.9,1.9,0,0,1-1.51-.65A2.6,2.6,0,0,1,61.08,23a3,3,0,0,1,.36-1.46,2.58,2.58,0,0,1,1-1,2.75,2.75,0,0,1,1.41-.37,8.64,8.64,0,0,1,1.2.11l.47-.19.25-.1.12.12A9.18,9.18,0,0,0,65.71,22q-.06,1.72-.06,4.36a2.87,2.87,0,0,0,0,.47.33.33,0,0,0,.1.21.35.35,0,0,0,.21.05h.28l0,0-.08.66H64.85l-.78,0-.57,0Zm.36-2.9a2.06,2.06,0,0,0,.32-.18L64.4,24V21.22l-.13-.06L64,21.08a1.66,1.66,0,0,0-.39,0,1,1,0,0,0-.83.4,1.87,1.87,0,0,0-.3,1.13,2.5,2.5,0,0,0,.3,1.31.9.9,0,0,0,.79.49A.89.89,0,0,0,63.93,24.28Z"/><path class="cls-1" d="M67.23,21.18a.32.32,0,0,0-.28-.13h-.18l-.1,0,.06-.63q.57-.08,1.18-.19l.8-.16.1.17a4.81,4.81,0,0,0-.21,1.2q-.09.92-.09,1.91a1.08,1.08,0,0,0,.17.67.61.61,0,0,0,.52.22,1,1,0,0,0,.43-.1,4.35,4.35,0,0,0,.52-.31V21.6a.67.67,0,0,0-.09-.42.52.52,0,0,0-.38-.12h-.2l.09-.62,1.22-.19.81-.14.1.18a4.89,4.89,0,0,0-.21,1.28q-.09,1-.09,2.26a.47.47,0,0,0,.11.33.37.37,0,0,0,.28.12.65.65,0,0,0,.23,0l.19-.09.1-.05.16.22-.22.31a3.84,3.84,0,0,1-.43.47,1.08,1.08,0,0,1-.48.3q-1,0-1.11-.84l-.09,0a8.06,8.06,0,0,1-.76.63,1.13,1.13,0,0,1-.46.25A2,2,0,0,1,67.68,25a1.22,1.22,0,0,1-.44-1l.08-2.44A.73.73,0,0,0,67.23,21.18Z"/><path class="cls-1" d="M72.9,24.71a.8.8,0,0,0,.46-.21.66.66,0,0,0,.15-.46V21.67a.85.85,0,0,0-.1-.48.43.43,0,0,0-.36-.13H72.9l-.1,0,.07-.62,1.25-.2.82-.16.1.17a4.77,4.77,0,0,0-.19,1.32q-.07,1.08-.07,2.53a.67.67,0,0,0,.08.37.3.3,0,0,0,.26.11h.32l0,.05-.11.67-.48,0h-.73a6.84,6.84,0,0,0-.77,0l-.56.07ZM73.49,19a.77.77,0,0,1-.2-.56.87.87,0,0,1,.24-.63.84.84,0,0,1,.63-.24.71.71,0,0,1,.55.21.8.8,0,0,1,.2.56.85.85,0,0,1-.23.62.82.82,0,0,1-.62.24A.73.73,0,0,1,73.49,19Z"/><path class="cls-1" d="M76.88,25.08a1.31,1.31,0,0,1-.36-1V21.62a.65.65,0,0,0-.12-.47.74.74,0,0,0-.47-.13L75.82,21l.08-.54a7.53,7.53,0,0,0,.82-.45c.27-.17.49-.32.67-.45l.33-.25.31.15,0,.32c0,.17,0,.38-.07.62l1.29,0,0,.06-.11.73-1.29,0q-.07,1-.07,2.38a1.1,1.1,0,0,0,.16.68.64.64,0,0,0,.54.21,1.29,1.29,0,0,0,.4-.06l.26-.09.14.35-.31.27c-.16.14-.34.27-.52.4a.88.88,0,0,1-.42.19A1.68,1.68,0,0,1,76.88,25.08Z"/><path class="cls-1" d="M80.39,24.73a2.51,2.51,0,0,1-.66-1.84,3,3,0,0,1,.34-1.42,2.6,2.6,0,0,1,.93-1,2.44,2.44,0,0,1,1.31-.37A1.63,1.63,0,0,1,84.14,22a2.36,2.36,0,0,1-.08.61l-.13.13H81.11a1.84,1.84,0,0,0,.38,1.22,1.28,1.28,0,0,0,1,.42,3.26,3.26,0,0,0,1.3-.33l.08,0,.18.54a5.42,5.42,0,0,1-.93.56,2.23,2.23,0,0,1-.92.25A2.42,2.42,0,0,1,80.39,24.73ZM82.6,22a.26.26,0,0,0,.17-.06.33.33,0,0,0,0-.2q0-.81-.69-.81a.9.9,0,0,0-.69.3,1.44,1.44,0,0,0-.32.85Z"/><path class="cls-1" d="M85.48,24.73a2.55,2.55,0,0,1-.64-1.84,3,3,0,0,1,.34-1.44,2.48,2.48,0,0,1,.95-1,2.67,2.67,0,0,1,1.37-.35,4.3,4.3,0,0,1,.67,0l.49.1.22.07,0,.1-.06.3q0,.23-.1.61t-.08.78l-.7,0v-.36a.83.83,0,0,0-.18-.57.65.65,0,0,0-.51-.2.9.9,0,0,0-.78.38,1.84,1.84,0,0,0-.27,1.08,2.49,2.49,0,0,0,.32,1.38,1,1,0,0,0,.9.48,2,2,0,0,0,.53-.07,3,3,0,0,0,.43-.15l.21-.1.08,0,.18.56-.35.26a5.09,5.09,0,0,1-.63.37,1.48,1.48,0,0,1-.66.18A2.32,2.32,0,0,1,85.48,24.73Z"/><path class="cls-1" d="M90.43,25.08a1.31,1.31,0,0,1-.36-1V21.62a.65.65,0,0,0-.12-.47.74.74,0,0,0-.47-.13L89.37,21l.08-.54a7.53,7.53,0,0,0,.82-.45c.27-.17.49-.32.67-.45l.33-.25.31.15,0,.32c0,.17,0,.38-.07.62l1.29,0,0,.06-.11.73-1.29,0q-.07,1-.07,2.38a1.1,1.1,0,0,0,.16.68.64.64,0,0,0,.54.21,1.29,1.29,0,0,0,.4-.06l.26-.09.14.35-.31.27c-.16.14-.34.27-.52.4a.88.88,0,0,1-.42.19A1.68,1.68,0,0,1,90.43,25.08Z"/><path class="cls-1" d="M93.73,21.18a.32.32,0,0,0-.28-.13h-.18l-.1,0,.06-.63q.57-.08,1.18-.19l.8-.16.1.17a4.81,4.81,0,0,0-.21,1.2Q95,22.4,95,23.38a1.08,1.08,0,0,0,.17.67.61.61,0,0,0,.52.22,1,1,0,0,0,.43-.1,4.35,4.35,0,0,0,.52-.31V21.6a.67.67,0,0,0-.09-.42.52.52,0,0,0-.38-.12H96l.09-.62,1.22-.19.81-.14.1.18A4.89,4.89,0,0,0,98,21.58q-.09,1-.09,2.26a.47.47,0,0,0,.11.33.37.37,0,0,0,.28.12.65.65,0,0,0,.23,0l.19-.09.1-.05.16.22-.22.31a3.84,3.84,0,0,1-.43.47,1.08,1.08,0,0,1-.48.3q-1,0-1.11-.84l-.09,0a8.06,8.06,0,0,1-.76.63,1.13,1.13,0,0,1-.46.25A2,2,0,0,1,94.18,25a1.22,1.22,0,0,1-.44-1l.08-2.44A.73.73,0,0,0,93.73,21.18Z"/><path class="cls-1" d="M99.94,24.48a1,1,0,0,0,.11-.58V21.72a.93.93,0,0,0-.1-.51.43.43,0,0,0-.37-.14h-.21L99.32,21l.07-.55,1.19-.22.78-.15.1.1c0,.07,0,.2-.06.42s0,.42,0,.61l.07,0a2.89,2.89,0,0,1,.75-.8,1.38,1.38,0,0,1,.78-.28h.25l.13,0,0,.09q0,.19-.11.8t-.11,1.17l-.7,0a2.53,2.53,0,0,0-.06-.69.24.24,0,0,0-.25-.17.67.67,0,0,0-.37.13,1.55,1.55,0,0,0-.37.36c0,.2,0,.54,0,1s0,.83,0,1.11a.62.62,0,0,0,.09.39.42.42,0,0,0,.33.11h.33l.22,0,0,.07-.12.72-.56,0-.85,0-.83,0-.54,0,.09-.67A.57.57,0,0,0,99.94,24.48Z"/><path class="cls-1" d="M106.87,25.19a.9.9,0,0,1-.33-.63l-.09,0a5,5,0,0,1-.68.6,1,1,0,0,1-.52.23,1.41,1.41,0,0,1-1.07-.45,1.59,1.59,0,0,1-.43-1.13,1,1,0,0,1,.17-.58.81.81,0,0,1,.46-.32l2.11-.49v-.26a1,1,0,0,0-.25-.73.91.91,0,0,0-.69-.26,1.64,1.64,0,0,0-.64.15,3.17,3.17,0,0,0-.64.37l-.1,0-.19-.66q.55-.31,1.15-.57a2.57,2.57,0,0,1,.85-.26,2,2,0,0,1,1.36.41,1.38,1.38,0,0,1,.45,1.08,9.51,9.51,0,0,1-.1,1c-.08.71-.12,1.13-.12,1.27a.47.47,0,0,0,.11.33.37.37,0,0,0,.28.12.74.74,0,0,0,.28-.06,1.39,1.39,0,0,0,.25-.13l.16.23a3.83,3.83,0,0,1-.49.67,1.25,1.25,0,0,1-.56.4A1.22,1.22,0,0,1,106.87,25.19Zm-.83-1a1.47,1.47,0,0,0,.4-.23l0-1-1.17.33a.33.33,0,0,0-.26.36.69.69,0,0,0,.17.48.56.56,0,0,0,.44.19A1.09,1.09,0,0,0,106,24.24Z"/><path class="cls-1" d="M111,27.74a2.38,2.38,0,0,1-.35-.38.65.65,0,0,1-.16-.32l.08-.13a2.39,2.39,0,0,0,1.25-.45,3.21,3.21,0,0,0,.92-1.09.66.66,0,0,1,0-.13.84.84,0,0,0,0-.12q-.14-.38-.63-1.75t-.75-2A.78.78,0,0,0,111,21a.79.79,0,0,0-.4-.11l0-.05.08-.61h.85q.49,0,1.07,0l.58,0,0,.05-.09.62a1,1,0,0,0-.42.07.2.2,0,0,0-.1.19,4.06,4.06,0,0,0,.17.77q.17.61.35,1.2l.23.77h.11a23.36,23.36,0,0,0,1-2.74.2.2,0,0,0-.08-.18.44.44,0,0,0-.25-.05h-.35l0-.06.09-.61.44,0H116l-.09.66a.74.74,0,0,0-.35.16,1,1,0,0,0-.21.38l-1.39,3.38a9.55,9.55,0,0,1-1.31,2.41,1.7,1.7,0,0,1-1.33.7A.57.57,0,0,1,111,27.74Z"/><path class="cls-1" d="M120.58,25.33q-.54-.05-.93-.05t-.81,0l-.58.07.06-.73a.77.77,0,0,0,.8-.93V19.56a1.12,1.12,0,0,0-.06-.47.28.28,0,0,0-.27-.12h-.37l-.06-.1.09-.67.57,0,.81,0,1,0,.72,0a4.23,4.23,0,0,1,1.89.39,2.82,2.82,0,0,1,1.22,1.13,3.41,3.41,0,0,1,.43,1.75,4.19,4.19,0,0,1-.49,2,3.5,3.5,0,0,1-1.35,1.39,3.84,3.84,0,0,1-2,.5Zm.14-6.14a.29.29,0,0,0-.08.21q-.14,3-.14,4.29a1.24,1.24,0,0,0,.08.5.43.43,0,0,0,.28.23,2,2,0,0,0,.58.07,1.73,1.73,0,0,0,1.47-.68,3.28,3.28,0,0,0,.51-2,2.91,2.91,0,0,0-.61-2,2.42,2.42,0,0,0-1.85-.65A.39.39,0,0,0,120.72,19.19Z"/><path class="cls-1" d="M125.79,24.71a.8.8,0,0,0,.46-.21.66.66,0,0,0,.15-.46V21.67a.85.85,0,0,0-.1-.48.43.43,0,0,0-.36-.13h-.15l-.1,0,.07-.62,1.25-.2.82-.16.1.17a4.77,4.77,0,0,0-.19,1.32q-.07,1.08-.07,2.53a.67.67,0,0,0,.08.37.3.3,0,0,0,.26.11h.32l0,.05-.11.67-.48,0H127a6.84,6.84,0,0,0-.77,0l-.56.07Zm.59-5.75a.77.77,0,0,1-.2-.56.87.87,0,0,1,.24-.63.84.84,0,0,1,.63-.24.71.71,0,0,1,.55.21.8.8,0,0,1,.2.56.85.85,0,0,1-.23.62.82.82,0,0,1-.62.24A.73.73,0,0,1,126.38,19Z"/><path class="cls-1" d="M129.79,25.34a3.35,3.35,0,0,1-.51-.14l-.23-.09L129,25c0-.2.06-.43.08-.69s0-.51.06-.75l.6-.06q0,1.1,1,1.1a.94.94,0,0,0,.52-.14.4.4,0,0,0,.21-.34.52.52,0,0,0-.22-.4,5,5,0,0,0-.87-.5,2.8,2.8,0,0,1-1-.65,1.19,1.19,0,0,1-.3-.8,1.4,1.4,0,0,1,.28-.87,1.87,1.87,0,0,1,.8-.59,3,3,0,0,1,1.17-.21,3.72,3.72,0,0,1,.59,0,3.31,3.31,0,0,1,.43.09l.2.06.06.11-.09.54q-.07.42-.11.87l-.61,0v-.2a.75.75,0,0,0-.19-.56,1,1,0,0,0-1.06,0,.4.4,0,0,0-.2.34.53.53,0,0,0,.17.38,2.22,2.22,0,0,0,.58.37,7.1,7.1,0,0,1,1,.55,1.55,1.55,0,0,1,.48.49,1.19,1.19,0,0,1,.14.58,1.29,1.29,0,0,1-.3.82,2,2,0,0,1-.81.59,2.85,2.85,0,0,1-1.13.22A3.55,3.55,0,0,1,129.79,25.34Z"/><path class="cls-1" d="M134.11,24.73a2.51,2.51,0,0,1-.66-1.84,3,3,0,0,1,.34-1.42,2.6,2.6,0,0,1,.93-1,2.44,2.44,0,0,1,1.31-.37A1.63,1.63,0,0,1,137.86,22a2.36,2.36,0,0,1-.08.61l-.13.13h-2.83a1.84,1.84,0,0,0,.38,1.22,1.28,1.28,0,0,0,1,.42,3.26,3.26,0,0,0,1.3-.33l.08,0,.18.54a5.42,5.42,0,0,1-.93.56,2.23,2.23,0,0,1-.92.25A2.42,2.42,0,0,1,134.11,24.73ZM136.32,22a.26.26,0,0,0,.17-.06.33.33,0,0,0,0-.2q0-.81-.69-.81a.9.9,0,0,0-.69.3,1.44,1.44,0,0,0-.32.85Z"/><path class="cls-1" d="M142.14,24.49a.69.69,0,0,0,.13-.42l0-1.89a1.2,1.2,0,0,0-.17-.72.62.62,0,0,0-.54-.23,1.68,1.68,0,0,0-1,.42q-.11,2-.11,2.46a.75.75,0,0,0,.07.38.28.28,0,0,0,.26.11h.3l0,0-.11.68-.45,0h-.69l-.76,0-.53,0,.09-.68a.68.68,0,0,0,.44-.17.64.64,0,0,0,.13-.44V21.73a.84.84,0,0,0-.11-.52.53.53,0,0,0-.42-.14h-.14l0-.05.06-.57c.42-.06.83-.13,1.23-.21l.78-.15.09.11s0,.14-.07.3a3.36,3.36,0,0,0-.05.46l0,0a8.35,8.35,0,0,1,.78-.6,1.42,1.42,0,0,1,.64-.3,1.79,1.79,0,0,1,1.21.37,1.3,1.3,0,0,1,.43,1q0,.16-.09,1.15t-.11,1.43a.74.74,0,0,0,.08.4.29.29,0,0,0,.26.12h.34l0,0-.1.67-.48,0h-.71q-.26,0-.67,0l-.54,0,.06-.68A.64.64,0,0,0,142.14,24.49ZM139.67,19v-.11l.84-1.1.18,0a3.29,3.29,0,0,1,.76.2,3.18,3.18,0,0,0,.64.17.43.43,0,0,0,.26-.14,2.25,2.25,0,0,0,.27-.29l.15-.2h.12l.43.39V18l-.84,1.1-.18,0a3,3,0,0,1-.75-.2l-.3-.1a1.34,1.34,0,0,0-.35-.08.46.46,0,0,0-.28.14,1.88,1.88,0,0,0-.27.29l-.15.2h-.11Z"/><path class="cls-1" d="M146,25.09a2.08,2.08,0,0,1-.81-.88,2.9,2.9,0,0,1-.28-1.31,3.07,3.07,0,0,1,.33-1.45,2.46,2.46,0,0,1,.93-1,2.63,2.63,0,0,1,1.37-.35,2.16,2.16,0,0,1,1.68.67,2.58,2.58,0,0,1,.62,1.82,3.15,3.15,0,0,1-.33,1.46,2.4,2.4,0,0,1-.92,1,2.63,2.63,0,0,1-1.37.35A2.33,2.33,0,0,1,146,25.09Zm2.15-.88a2,2,0,0,0,.25-1.11,3.34,3.34,0,0,0-.28-1.55.89.89,0,0,0-.82-.52.8.8,0,0,0-.72.38,2,2,0,0,0-.25,1.11,3.34,3.34,0,0,0,.28,1.55.89.89,0,0,0,.82.52A.8.8,0,0,0,148.14,24.21Z"/><path class="cls-1" d="M.16,34.8a.88.88,0,0,0,.48-.19.73.73,0,0,0,.11-.48V30.68a.69.69,0,0,0-.06-.35.27.27,0,0,0-.24-.09H.18l0,0,.06-.36.37,0H1.7l.46,0a2,2,0,0,1,1.3.38,1.33,1.33,0,0,1,.45,1.08,1.59,1.59,0,0,1-.27.87,2,2,0,0,1-.7.67,1.77,1.77,0,0,1-.91.25H1.35l0,.8a4.31,4.31,0,0,0,0,.56.33.33,0,0,0,.09.22.41.41,0,0,0,.24.05H2l.18,0,0,0-.07.38-.3,0H1.32l-.77,0-.45,0ZM3,32.35a1.39,1.39,0,0,0,.25-.88,1.1,1.1,0,0,0-.37-.92,1.9,1.9,0,0,0-1.17-.29l-.18,0s0,0,0,.1q-.07,1-.1,2.25l.87.12A1.14,1.14,0,0,0,3,32.35Z"/><path class="cls-1" d="M4.81,35a1.53,1.53,0,0,1-.56-.64,2.14,2.14,0,0,1-.2-.95,2.24,2.24,0,0,1,.25-1.05A1.93,1.93,0,0,1,5,31.58a1.77,1.77,0,0,1,1-.27,1.51,1.51,0,0,1,.82.23,1.53,1.53,0,0,1,.57.64,2.15,2.15,0,0,1,.2.95,2.25,2.25,0,0,1-.25,1.05,1.93,1.93,0,0,1-.68.75,1.78,1.78,0,0,1-1,.27A1.51,1.51,0,0,1,4.81,35Zm1.79-.55a1.69,1.69,0,0,0,.27-1,2.37,2.37,0,0,0-.15-.86A1.38,1.38,0,0,0,6.31,32a.94.94,0,0,0-.6-.21.85.85,0,0,0-.73.38,1.73,1.73,0,0,0-.27,1,2.34,2.34,0,0,0,.15.86,1.37,1.37,0,0,0,.41.59,1,1,0,0,0,.61.21A.85.85,0,0,0,6.6,34.43Z"/><path class="cls-1" d="M10.89,34.68a.51.51,0,0,0,.11-.34l0-1.62a1,1,0,0,0-.18-.63.61.61,0,0,0-.5-.22,1.19,1.19,0,0,0-.53.14,3.11,3.11,0,0,0-.48.29q-.07,1.7-.07,2a.7.7,0,0,0,.07.36.25.25,0,0,0,.23.1h.29l0,0-.07.35-.29,0H9l-.47,0-.34,0,0-.34a.58.58,0,0,0,.34-.15.48.48,0,0,0,.1-.34v-2a.63.63,0,0,0-.09-.39.38.38,0,0,0-.31-.11H8.22l0,0,0-.27.7-.14.45-.1,0,.07s0,.1,0,.21a2.1,2.1,0,0,0,0,.33l0,0a3.35,3.35,0,0,1,1.2-.62,1.14,1.14,0,0,1,.82.29,1,1,0,0,1,.3.77q0,.08,0,.75-.07.85-.07,1.19a.71.71,0,0,0,.07.35.24.24,0,0,0,.22.11h.29l0,0-.07.35-.28,0h-.45a3.3,3.3,0,0,0-.49,0l-.36.06,0-.34A.68.68,0,0,0,10.89,34.68Z"/><path class="cls-1" d="M13.28,35a1,1,0,0,1-.23-.77v-2a.41.41,0,0,0-.1-.31.58.58,0,0,0-.37-.1l0,0,0-.25a2.78,2.78,0,0,0,.46-.28l.37-.3.18-.17.16.07s0,.09,0,.2,0,.24,0,.42l1.2,0,0,0-.07.43-1.19,0q-.06.9-.06,2a.93.93,0,0,0,.14.59.61.61,0,0,0,.5.17,1,1,0,0,0,.25,0l.2-.07.11,0,.08.21-.21.16-.34.23a.62.62,0,0,1-.27.11A1.1,1.1,0,0,1,13.28,35Z"/><path class="cls-1" d="M15.5,34.87a.67.67,0,0,0,.35-.19.52.52,0,0,0,.11-.34V32.26c0-.3-.1-.44-.3-.44h-.12l-.08,0,0-.3q.34,0,.71-.13l.47-.11,0,.1a4.88,4.88,0,0,0-.13,1.05q-.06.88-.06,1.85a.71.71,0,0,0,.07.35.24.24,0,0,0,.22.11h.29l0,0-.07.35-.28,0h-.45a3.32,3.32,0,0,0-.49,0l-.36.06Zm.39-4.65a.44.44,0,0,1-.11-.3.47.47,0,0,1,.14-.34.46.46,0,0,1,.34-.14.37.37,0,0,1,.29.12.43.43,0,0,1,.11.29.47.47,0,0,1-.14.34.46.46,0,0,1-.34.14A.37.37,0,0,1,15.89,30.22Z"/><path class="cls-1" d="M20.33,34.87a.88.88,0,0,0,.3-.13.37.37,0,0,0,.13-.22,2.42,2.42,0,0,0,0-.47V32.26a.74.74,0,0,0,0-.29.23.23,0,0,0-.16-.12,1.46,1.46,0,0,0-.37,0H18.92q0,.41,0,1.25t0,1.25c0,.3.13.45.4.45h.51l0,0-.06.34H18.17l-.36,0,0-.32a.66.66,0,0,0,.3-.09.36.36,0,0,0,.14-.22,2,2,0,0,0,0-.44V32.14a.35.35,0,0,0-.12-.27.78.78,0,0,0-.4-.08l0,0,.06-.28.49-.09a2.91,2.91,0,0,1,.25-1.24,1.86,1.86,0,0,1,.7-.82A2,2,0,0,1,20.36,29a2.11,2.11,0,0,1,.52.06,3.2,3.2,0,0,1,.57.22l0,.07-.1.22a4.11,4.11,0,0,0-.15.39l-.09,0a.8.8,0,0,0-.17-.15,2.19,2.19,0,0,0-.43-.25,1.32,1.32,0,0,0-.55-.11.88.88,0,0,0-.77.37A2.06,2.06,0,0,0,18.93,31v.38l1.9,0a3.6,3.6,0,0,0,.68-.08l0,.1a4.84,4.84,0,0,0-.13,1.06q-.06.89-.06,1.84a.71.71,0,0,0,.07.35.24.24,0,0,0,.22.11h.29l0,0-.07.35-.28,0h-.45a3.32,3.32,0,0,0-.49,0l-.36.06Z"/><path class="cls-1" d="M23,34.71a1.84,1.84,0,0,1-.47-1.32,2.26,2.26,0,0,1,.25-1.06,1.93,1.93,0,0,1,.68-.75,1.75,1.75,0,0,1,1-.27,3,3,0,0,1,.44,0l.35.07.17.05,0,.06,0,.19c0,.1-.05.23-.08.4a4.14,4.14,0,0,0,0,.54l-.34,0v-.25a.63.63,0,0,0-.67-.67.91.91,0,0,0-.77.36,1.65,1.65,0,0,0-.27,1,1.89,1.89,0,0,0,.3,1.13,1,1,0,0,0,.82.41,1.42,1.42,0,0,0,.41-.06l.34-.12.17-.09,0,0,.09.25-.25.17a3.54,3.54,0,0,1-.44.25,1,1,0,0,1-.43.12A1.64,1.64,0,0,1,23,34.71Z"/><path class="cls-1" d="M26.17,34.87a.67.67,0,0,0,.35-.19.52.52,0,0,0,.11-.34V32.26c0-.3-.1-.44-.3-.44H26.2l-.08,0,0-.3q.34,0,.71-.13l.47-.11,0,.1a4.88,4.88,0,0,0-.13,1.05q-.06.88-.06,1.85a.71.71,0,0,0,.07.35.24.24,0,0,0,.22.11h.29l0,0-.07.35-.28,0H27a3.32,3.32,0,0,0-.49,0l-.36.06Zm.39-4.65a.44.44,0,0,1-.11-.3.47.47,0,0,1,.14-.34.46.46,0,0,1,.34-.14.37.37,0,0,1,.29.12.43.43,0,0,1,.11.29.47.47,0,0,1-.14.34.46.46,0,0,1-.34.14A.37.37,0,0,1,26.56,30.22Z"/><path class="cls-1" d="M30.43,34.54h0a4.37,4.37,0,0,1-.54.47.75.75,0,0,1-.36.17,1,1,0,0,1-.75-.29,1,1,0,0,1-.3-.73.74.74,0,0,1,.12-.42.56.56,0,0,1,.32-.24l1.56-.43v-.36a1,1,0,0,0-.19-.64.65.65,0,0,0-.53-.23,1.25,1.25,0,0,0-.48.11,2.08,2.08,0,0,0-.5.3l0,0-.1-.35q.39-.22.77-.4a1.61,1.61,0,0,1,.56-.18,1.19,1.19,0,0,1,.84.28,1,1,0,0,1,.3.78c0,.12,0,.37-.06.74q-.09.9-.09,1.15a.39.39,0,0,0,.09.28.31.31,0,0,0,.25.1.67.67,0,0,0,.27-.06.72.72,0,0,0,.22-.14l.11.13a2,2,0,0,1-.32.4,1,1,0,0,1-.4.26A.66.66,0,0,1,30.43,34.54Zm-.43,0a1.59,1.59,0,0,0,.38-.28l0-.84-1.11.34a.32.32,0,0,0-.24.34.53.53,0,0,0,.16.39.56.56,0,0,0,.41.16A.8.8,0,0,0,30,34.5Z"/><path class="cls-1" d="M35,34.73a1.82,1.82,0,0,1-.47-1.34V30.68a.69.69,0,0,0-.06-.35.27.27,0,0,0-.24-.09h-.28l0,0,.06-.36.37,0h.55l.5,0,.36,0,0,.37a.78.78,0,0,0-.41.14.49.49,0,0,0-.12.33l-.06,2.41a1.94,1.94,0,0,0,.35,1.25,1.23,1.23,0,0,0,1,.43,1.38,1.38,0,0,0,1-.36,1.4,1.4,0,0,0,.35-1q0-.66,0-1.5t0-1.18a.86.86,0,0,0-.07-.36c0-.05-.11-.08-.23-.08h-.35l0,0,.06-.36.37,0h.55l.47,0,.32,0,0,.37a1.84,1.84,0,0,0-.36.08.27.27,0,0,0-.16.13.62.62,0,0,0,0,.26V33.4a1.68,1.68,0,0,1-.53,1.33,2.18,2.18,0,0,1-1.5.47A1.78,1.78,0,0,1,35,34.73Z"/><path class="cls-1" d="M42.08,34.68a.51.51,0,0,0,.11-.34l0-1.62a1,1,0,0,0-.18-.63.61.61,0,0,0-.5-.22A1.19,1.19,0,0,0,41,32a3.11,3.11,0,0,0-.48.29q-.07,1.7-.07,2a.7.7,0,0,0,.07.36.25.25,0,0,0,.23.1H41l0,0-.07.35-.29,0h-.46l-.47,0-.34,0,0-.34a.58.58,0,0,0,.34-.15.48.48,0,0,0,.1-.34v-2a.63.63,0,0,0-.09-.39.38.38,0,0,0-.31-.11h-.09l0,0,0-.27.7-.14.45-.1,0,.07s0,.1,0,.21a2.1,2.1,0,0,0,0,.33l0,0a3.35,3.35,0,0,1,1.2-.62,1.14,1.14,0,0,1,.82.29,1,1,0,0,1,.3.77q0,.08,0,.75-.07.85-.07,1.19a.71.71,0,0,0,.07.35.24.24,0,0,0,.22.11h.29l0,0-.07.35-.28,0h-.45a3.3,3.3,0,0,0-.49,0l-.36.06,0-.34A.68.68,0,0,0,42.08,34.68Z"/><path class="cls-1" d="M44,34.87a.67.67,0,0,0,.35-.19.52.52,0,0,0,.11-.34V32.26c0-.3-.1-.44-.3-.44H44l-.08,0,0-.3q.34,0,.71-.13l.47-.11,0,.1A4.88,4.88,0,0,0,45,32.46Q45,33.34,45,34.3a.71.71,0,0,0,.07.35.24.24,0,0,0,.22.11h.29l0,0-.07.35-.28,0h-.45a3.32,3.32,0,0,0-.49,0l-.36.06Zm.39-4.65a.44.44,0,0,1-.11-.3.47.47,0,0,1,.14-.34.46.46,0,0,1,.34-.14.37.37,0,0,1,.29.12.43.43,0,0,1,.11.29.47.47,0,0,1-.14.34.46.46,0,0,1-.34.14A.37.37,0,0,1,44.35,30.22Z"/><path class="cls-1" d="M46.9,33.7q-.36-1.15-.51-1.59a.57.57,0,0,0-.56-.41l0,0,0-.27h.68l.61,0,.38,0,0,0,0,.25a1.2,1.2,0,0,0-.38.05.16.16,0,0,0-.1.16A8.63,8.63,0,0,0,47.3,33l.4,1.38h0l.45-1.1q.22-.54.37-.93a2,2,0,0,0,.15-.48.16.16,0,0,0-.08-.15.59.59,0,0,0-.27,0H48l0,0,0-.25H49.6l-.06.3a.42.42,0,0,0-.27.14,2.12,2.12,0,0,0-.25.47l-1.17,2.79-.46.14Z"/><path class="cls-1" d="M50.55,35a1.53,1.53,0,0,1-.61-.64,2,2,0,0,1-.21-.95,2.21,2.21,0,0,1,.25-1,2.07,2.07,0,0,1,.67-.77,1.55,1.55,0,0,1,.89-.29,1.25,1.25,0,0,1,.91.3,1.18,1.18,0,0,1,.31.88,1.4,1.4,0,0,1,0,.4l-.11.1H50.35a2,2,0,0,0,.32,1.23,1.07,1.07,0,0,0,.91.43,2.38,2.38,0,0,0,1-.25l0,0,.09.24a4.36,4.36,0,0,1-.65.39,1.45,1.45,0,0,1-.6.17A1.78,1.78,0,0,1,50.55,35Zm1.31-2.36a.3.3,0,0,0,.16-.06.24.24,0,0,0,0-.16.67.67,0,0,0-.18-.5.69.69,0,0,0-.5-.17.92.92,0,0,0-.66.26,1.22,1.22,0,0,0-.35.71Z"/><path class="cls-1" d="M53.94,34.65a1.11,1.11,0,0,0,.08-.52v-1.8a.75.75,0,0,0-.07-.39.26.26,0,0,0-.24-.11H53.6l-.06,0,0-.06,0-.25.66-.14.45-.11.06,0s0,.16,0,.34a3.2,3.2,0,0,0,0,.5l0,0a2.33,2.33,0,0,1,.58-.63,1,1,0,0,1,.58-.25H56l.08,0,0,0-.07.49a6,6,0,0,0-.06.68l-.32,0a1.41,1.41,0,0,0,0-.45.17.17,0,0,0-.18-.11.66.66,0,0,0-.39.15,1.64,1.64,0,0,0-.38.41q0,.24,0,.79c0,.37,0,.66,0,.89a.62.62,0,0,0,.08.38.4.4,0,0,0,.31.1h.36v0l-.07.36H53.89l-.31,0,0-.33A.4.4,0,0,0,53.94,34.65Z"/><path class="cls-1" d="M57.22,35.17l-.34-.08L56.72,35l0-.06q0-.12.06-.51t0-.59l.29,0a1.23,1.23,0,0,0,.18.76.75.75,0,0,0,.62.22.94.94,0,0,0,.52-.14.41.41,0,0,0,.21-.35.49.49,0,0,0-.19-.37,4.71,4.71,0,0,0-.76-.47A2.24,2.24,0,0,1,57,33a.81.81,0,0,1-.21-.54,1,1,0,0,1,.2-.59,1.31,1.31,0,0,1,.54-.42,1.89,1.89,0,0,1,.77-.15,2.34,2.34,0,0,1,.38,0l.3.06.15,0,0,0-.07.37a5.36,5.36,0,0,0-.08.63l-.3,0s0,0,0-.1a1.29,1.29,0,0,0,0-.14.53.53,0,0,0-.16-.43A.79.79,0,0,0,58,31.7a.82.82,0,0,0-.47.13.38.38,0,0,0-.19.32.52.52,0,0,0,.17.37,2.18,2.18,0,0,0,.55.37,4.1,4.1,0,0,1,.91.59.76.76,0,0,1,.24.55.94.94,0,0,1-.2.58,1.42,1.42,0,0,1-.55.43,1.77,1.77,0,0,1-.74.16A2.84,2.84,0,0,1,57.22,35.17Z"/><path class="cls-1" d="M60,34.87a.67.67,0,0,0,.35-.19.52.52,0,0,0,.11-.34V32.26c0-.3-.1-.44-.3-.44H60l-.08,0,0-.3q.34,0,.71-.13l.47-.11,0,.1a4.88,4.88,0,0,0-.13,1.05Q61,33.34,61,34.3a.71.71,0,0,0,.07.35.24.24,0,0,0,.22.11h.29l0,0-.07.35-.28,0h-.45a3.32,3.32,0,0,0-.49,0l-.36.06Zm.39-4.65a.44.44,0,0,1-.11-.3.47.47,0,0,1,.14-.34.46.46,0,0,1,.34-.14.37.37,0,0,1,.29.12.43.43,0,0,1,.11.29.47.47,0,0,1-.14.34.46.46,0,0,1-.34.14A.37.37,0,0,1,60.4,30.22Z"/><path class="cls-1" d="M64.91,34.62l-.06,0a3.53,3.53,0,0,1-1,.58A1.57,1.57,0,0,1,63,35a1.44,1.44,0,0,1-.56-.61,2,2,0,0,1-.2-.9,2.16,2.16,0,0,1,.27-1.07,2.11,2.11,0,0,1,.75-.78,1.91,1.91,0,0,1,1-.29l.56,0V30c0-.3-.1-.44-.3-.44h-.12l-.08,0,0-.3.73-.13.48-.11,0,.11a8.23,8.23,0,0,0-.16,1.73q-.07,1.59-.07,3.38a.39.39,0,0,0,.09.28.31.31,0,0,0,.25.1.58.58,0,0,0,.22,0l.18-.09.09-.06.11.13-.12.18A1.93,1.93,0,0,1,66,35a.82.82,0,0,1-.33.2A.65.65,0,0,1,64.91,34.62Zm-.58-.07a2.25,2.25,0,0,0,.34-.2l.18-.14V32l-.12-.06-.27-.09a1.74,1.74,0,0,0-.4,0,1.08,1.08,0,0,0-.87.37,1.53,1.53,0,0,0-.32,1,1.87,1.87,0,0,0,.14.75,1.32,1.32,0,0,0,.39.53.86.86,0,0,0,.55.2A.85.85,0,0,0,64.33,34.55Z"/><path class="cls-1" d="M68.69,34.54h0a4.37,4.37,0,0,1-.54.47.75.75,0,0,1-.36.17,1,1,0,0,1-.75-.29,1,1,0,0,1-.3-.73.74.74,0,0,1,.12-.42.56.56,0,0,1,.32-.24l1.56-.43v-.36a1,1,0,0,0-.19-.64.65.65,0,0,0-.53-.23,1.25,1.25,0,0,0-.48.11,2.08,2.08,0,0,0-.5.3l0,0-.1-.35q.39-.22.77-.4a1.61,1.61,0,0,1,.56-.18,1.19,1.19,0,0,1,.84.28,1,1,0,0,1,.3.78c0,.12,0,.37-.06.74q-.09.9-.09,1.15a.39.39,0,0,0,.09.28.31.31,0,0,0,.25.1.67.67,0,0,0,.27-.06.72.72,0,0,0,.22-.14l.11.13a2,2,0,0,1-.32.4,1,1,0,0,1-.4.26A.66.66,0,0,1,68.69,34.54Zm-.43,0a1.59,1.59,0,0,0,.38-.28l0-.84-1.11.34a.32.32,0,0,0-.24.34.53.53,0,0,0,.16.39.56.56,0,0,0,.41.16A.8.8,0,0,0,68.26,34.5Z"/><path class="cls-1" d="M73.18,34.62l-.06,0a3.53,3.53,0,0,1-1,.58,1.57,1.57,0,0,1-.83-.22,1.44,1.44,0,0,1-.56-.61,2,2,0,0,1-.2-.9,2.16,2.16,0,0,1,.27-1.07,2.11,2.11,0,0,1,.75-.78,1.91,1.91,0,0,1,1-.29l.56,0V30c0-.3-.1-.44-.3-.44h-.12l-.08,0,0-.3.73-.13.48-.11,0,.11a8.23,8.23,0,0,0-.16,1.73q-.07,1.59-.07,3.38a.39.39,0,0,0,.09.28.31.31,0,0,0,.25.1.58.58,0,0,0,.22,0l.18-.09.09-.06.11.13-.12.18a1.93,1.93,0,0,1-.26.28.82.82,0,0,1-.33.2A.65.65,0,0,1,73.18,34.62Zm-.58-.07a2.25,2.25,0,0,0,.34-.2l.18-.14V32L73,31.91l-.27-.09a1.74,1.74,0,0,0-.4,0,1.08,1.08,0,0,0-.87.37,1.53,1.53,0,0,0-.32,1,1.87,1.87,0,0,0,.14.75,1.32,1.32,0,0,0,.39.53.86.86,0,0,0,.55.2A.85.85,0,0,0,72.6,34.55Z"/><path class="cls-1" d="M77.78,34.89a2.1,2.1,0,0,1-.86-.88,2.84,2.84,0,0,1-.3-1.34A3,3,0,0,1,77,31.19a2.67,2.67,0,0,1,1-1,2.9,2.9,0,0,1,1.47-.37,4.49,4.49,0,0,1,.62,0l.53.09.27.06,0,0s0,.11-.05.24-.05.29-.08.49-.05.42-.07.64l-.39,0a1.53,1.53,0,0,0,0-.15c0-.07,0-.16,0-.25q0-.76-1.2-.76a1.73,1.73,0,0,0-1,.26,1.7,1.7,0,0,0-.63.74,2.67,2.67,0,0,0-.22,1.13,3.15,3.15,0,0,0,.23,1.25,1.93,1.93,0,0,0,.66.84,1.66,1.66,0,0,0,1,.3,1.27,1.27,0,0,0,.9-.32,1.9,1.9,0,0,0,.5-1l.39,0-.11.54a7.52,7.52,0,0,0-.11.79l0,.07L80.5,35a4.84,4.84,0,0,1-.62.16,4.12,4.12,0,0,1-.81.07A2.6,2.6,0,0,1,77.78,34.89Z"/><path class="cls-1" d="M83.77,34.54h0a4.37,4.37,0,0,1-.54.47.75.75,0,0,1-.36.17,1,1,0,0,1-.75-.29,1,1,0,0,1-.3-.73.74.74,0,0,1,.12-.42.56.56,0,0,1,.32-.24l1.56-.43v-.36a1,1,0,0,0-.19-.64.65.65,0,0,0-.53-.23,1.25,1.25,0,0,0-.48.11,2.08,2.08,0,0,0-.5.3l0,0-.1-.35q.39-.22.77-.4a1.61,1.61,0,0,1,.56-.18,1.19,1.19,0,0,1,.84.28,1,1,0,0,1,.3.78c0,.12,0,.37-.06.74q-.09.9-.09,1.15a.39.39,0,0,0,.09.28.31.31,0,0,0,.25.1.67.67,0,0,0,.27-.06.72.72,0,0,0,.22-.14l.11.13a2,2,0,0,1-.32.4,1,1,0,0,1-.4.26A.66.66,0,0,1,83.77,34.54Zm-.43,0a1.59,1.59,0,0,0,.38-.28l0-.84-1.11.34a.32.32,0,0,0-.24.34.53.53,0,0,0,.16.39.56.56,0,0,0,.41.16A.8.8,0,0,0,83.34,34.5Z"/><path class="cls-1" d="M86.19,35a1,1,0,0,1-.23-.77v-2a.41.41,0,0,0-.1-.31.58.58,0,0,0-.37-.1l0,0,0-.25a2.78,2.78,0,0,0,.46-.28l.37-.3.18-.17.16.07s0,.09,0,.2,0,.24,0,.42l1.2,0,0,0-.07.43-1.19,0q-.06.9-.06,2a.93.93,0,0,0,.14.59.61.61,0,0,0,.5.17,1,1,0,0,0,.25,0l.2-.07.11,0,.08.21-.21.16-.34.23a.62.62,0,0,1-.27.11A1.1,1.1,0,0,1,86.19,35Z"/><path class="cls-1" d="M89.08,35a1.53,1.53,0,0,1-.56-.64,2.14,2.14,0,0,1-.2-.95,2.24,2.24,0,0,1,.25-1.05,1.93,1.93,0,0,1,.68-.75,1.77,1.77,0,0,1,1-.27,1.51,1.51,0,0,1,.82.23,1.53,1.53,0,0,1,.57.64,2.15,2.15,0,0,1,.2.95,2.25,2.25,0,0,1-.25,1.05,1.93,1.93,0,0,1-.68.75,1.78,1.78,0,0,1-1,.27A1.51,1.51,0,0,1,89.08,35Zm1.79-.55a1.69,1.69,0,0,0,.27-1,2.37,2.37,0,0,0-.15-.86,1.38,1.38,0,0,0-.41-.59.94.94,0,0,0-.6-.21.85.85,0,0,0-.73.38,1.73,1.73,0,0,0-.27,1,2.34,2.34,0,0,0,.15.86,1.37,1.37,0,0,0,.41.59,1,1,0,0,0,.61.21A.85.85,0,0,0,90.86,34.43Zm-1.19-3.61-.16-.16q.37-.4.75-.84l.48-.57.08,0,.31.34v.09l-.53.42q-.41.33-.84.72Z"/><path class="cls-1" d="M92.38,34.87a.72.72,0,0,0,.32-.16.43.43,0,0,0,.11-.24,3.72,3.72,0,0,0,0-.47V30a.71.71,0,0,0-.06-.35.26.26,0,0,0-.24-.09l-.19,0,0,0,0-.28A10.55,10.55,0,0,0,93.58,29l0,.11a8.29,8.29,0,0,0-.16,1.75q-.07,1.61-.07,3.42a.71.71,0,0,0,.07.35.24.24,0,0,0,.22.11l.29,0,0,0-.07.35-.73,0a5.5,5.5,0,0,0-.84.1Z"/><path class="cls-1" d="M94.54,34.87a.67.67,0,0,0,.35-.19.52.52,0,0,0,.11-.34V32.26c0-.3-.1-.44-.3-.44h-.12l-.08,0,0-.3q.34,0,.71-.13l.47-.11,0,.1a4.88,4.88,0,0,0-.13,1.05q-.06.88-.06,1.85a.71.71,0,0,0,.07.35.24.24,0,0,0,.22.11h.29l0,0-.07.35-.28,0h-.45a3.32,3.32,0,0,0-.49,0l-.36.06Zm.39-4.65a.44.44,0,0,1-.11-.3.47.47,0,0,1,.14-.34.46.46,0,0,1,.34-.14.37.37,0,0,1,.29.12.43.43,0,0,1,.11.29.47.47,0,0,1-.14.34.46.46,0,0,1-.34.14A.37.37,0,0,1,94.94,30.22Z"/><path class="cls-1" d="M97.25,34.71a1.84,1.84,0,0,1-.47-1.32A2.26,2.26,0,0,1,97,32.33a1.93,1.93,0,0,1,.68-.75,1.75,1.75,0,0,1,1-.27,3,3,0,0,1,.44,0l.35.07.17.05,0,.06,0,.19c0,.1-.05.23-.08.4a4.14,4.14,0,0,0,0,.54l-.34,0v-.25a.63.63,0,0,0-.67-.67.91.91,0,0,0-.77.36,1.65,1.65,0,0,0-.27,1,1.89,1.89,0,0,0,.3,1.13,1,1,0,0,0,.82.41A1.42,1.42,0,0,0,99,34.6l.34-.12.17-.09,0,0,.09.25-.25.17a3.54,3.54,0,0,1-.44.25,1,1,0,0,1-.43.12A1.64,1.64,0,0,1,97.25,34.71Z"/><path class="cls-1" d="M102.22,34.54h0a4.37,4.37,0,0,1-.54.47.75.75,0,0,1-.36.17,1,1,0,0,1-.75-.29,1,1,0,0,1-.3-.73.74.74,0,0,1,.12-.42.56.56,0,0,1,.32-.24l1.56-.43v-.36a1,1,0,0,0-.19-.64.65.65,0,0,0-.53-.23A1.25,1.25,0,0,0,101,32a2.08,2.08,0,0,0-.5.3l0,0-.1-.35q.39-.22.77-.4a1.61,1.61,0,0,1,.56-.18,1.19,1.19,0,0,1,.84.28,1,1,0,0,1,.3.78c0,.12,0,.37-.06.74q-.09.9-.09,1.15a.39.39,0,0,0,.09.28.31.31,0,0,0,.25.1.67.67,0,0,0,.27-.06.72.72,0,0,0,.22-.14l.11.13a2,2,0,0,1-.32.4,1,1,0,0,1-.4.26A.66.66,0,0,1,102.22,34.54Zm-.43,0a1.59,1.59,0,0,0,.38-.28l0-.84-1.11.34a.32.32,0,0,0-.24.34.53.53,0,0,0,.16.39.56.56,0,0,0,.41.16A.8.8,0,0,0,101.79,34.5Z"/><path class="cls-1" d="M108.35,34.62l-.06,0a3.53,3.53,0,0,1-1,.58,1.57,1.57,0,0,1-.83-.22,1.44,1.44,0,0,1-.56-.61,2,2,0,0,1-.2-.9,2.16,2.16,0,0,1,.27-1.07,2.11,2.11,0,0,1,.75-.78,1.91,1.91,0,0,1,1-.29l.56,0V30c0-.3-.1-.44-.3-.44h-.12l-.08,0,0-.3.73-.13L109,29l0,.11a8.23,8.23,0,0,0-.16,1.73q-.07,1.59-.07,3.38a.39.39,0,0,0,.09.28.31.31,0,0,0,.25.1.58.58,0,0,0,.22,0l.18-.09.09-.06.11.13-.12.18a1.93,1.93,0,0,1-.26.28.82.82,0,0,1-.33.2A.65.65,0,0,1,108.35,34.62Zm-.58-.07a2.25,2.25,0,0,0,.34-.2l.18-.14V32l-.12-.06-.27-.09a1.74,1.74,0,0,0-.4,0,1.08,1.08,0,0,0-.87.37,1.53,1.53,0,0,0-.32,1,1.87,1.87,0,0,0,.14.75,1.32,1.32,0,0,0,.39.53.86.86,0,0,0,.55.2A.85.85,0,0,0,107.77,34.55Z"/><path class="cls-1" d="M110.93,35a1.53,1.53,0,0,1-.61-.64,2,2,0,0,1-.21-.95,2.21,2.21,0,0,1,.25-1,2.07,2.07,0,0,1,.67-.77,1.55,1.55,0,0,1,.89-.29,1.25,1.25,0,0,1,.91.3,1.18,1.18,0,0,1,.31.88,1.4,1.4,0,0,1,0,.4L113,33h-2.26a2,2,0,0,0,.32,1.23,1.07,1.07,0,0,0,.91.43,2.38,2.38,0,0,0,1-.25l0,0,.09.24a4.36,4.36,0,0,1-.65.39,1.45,1.45,0,0,1-.6.17A1.78,1.78,0,0,1,110.93,35Zm1.31-2.36a.3.3,0,0,0,.16-.06.24.24,0,0,0,0-.16.67.67,0,0,0-.18-.5.69.69,0,0,0-.5-.17.92.92,0,0,0-.66.26,1.22,1.22,0,0,0-.35.71Z"/><path class="cls-1" d="M116.72,33.44q-.43-1.39-.87-2.73a.6.6,0,0,0-.25-.35,1,1,0,0,0-.5-.12l0,0,.06-.35h1l.68,0,.55-.05,0,.06,0,.32a2,2,0,0,0-.59.1.25.25,0,0,0-.14.25,15.66,15.66,0,0,0,.43,1.7q.43,1.54.6,2.09h.07a36.44,36.44,0,0,0,1.36-3.77.27.27,0,0,0-.13-.25.9.9,0,0,0-.43-.08h-.43l0,0,0-.35.47,0,.7,0h.56l.34,0-.07.39a.65.65,0,0,0-.35.08.71.71,0,0,0-.19.31l-1.76,4.43-.52.18Z"/><path class="cls-1" d="M121.85,34.54h0a4.37,4.37,0,0,1-.54.47.75.75,0,0,1-.36.17,1,1,0,0,1-.75-.29,1,1,0,0,1-.3-.73.74.74,0,0,1,.12-.42.56.56,0,0,1,.32-.24l1.56-.43v-.36a1,1,0,0,0-.19-.64.65.65,0,0,0-.53-.23,1.25,1.25,0,0,0-.48.11,2.08,2.08,0,0,0-.5.3l0,0-.1-.35q.39-.22.77-.4a1.61,1.61,0,0,1,.56-.18,1.19,1.19,0,0,1,.84.28,1,1,0,0,1,.3.78c0,.12,0,.37-.06.74q-.09.9-.09,1.15a.39.39,0,0,0,.09.28.31.31,0,0,0,.25.1.67.67,0,0,0,.27-.06.72.72,0,0,0,.22-.14l.11.13a2,2,0,0,1-.32.4,1,1,0,0,1-.4.26A.66.66,0,0,1,121.85,34.54Zm-.43,0a1.59,1.59,0,0,0,.38-.28l0-.84-1.11.34a.32.32,0,0,0-.24.34.53.53,0,0,0,.16.39.56.56,0,0,0,.41.16A.8.8,0,0,0,121.42,34.5Z"/><path class="cls-1" d="M123.63,34.87a.72.72,0,0,0,.32-.16.43.43,0,0,0,.11-.24,3.72,3.72,0,0,0,0-.47V30a.71.71,0,0,0-.06-.35.26.26,0,0,0-.24-.09l-.19,0,0,0,0-.28a10.55,10.55,0,0,0,1.21-.24l0,.11a8.29,8.29,0,0,0-.16,1.75q-.07,1.61-.07,3.42a.71.71,0,0,0,.07.35.24.24,0,0,0,.22.11l.29,0,0,0-.07.35-.73,0a5.5,5.5,0,0,0-.84.1Z"/><path class="cls-1" d="M125.81,36.73a.79.79,0,0,0,.27-.07.26.26,0,0,0,.12-.16,1.41,1.41,0,0,0,0-.35q0-.34,0-.59V32.34a.64.64,0,0,0-.09-.39.38.38,0,0,0-.31-.11h-.09l0,0,0-.27.7-.14.45-.1,0,.07,0,.18c0,.09,0,.18,0,.27l0,.06a3,3,0,0,1,1-.53,1.58,1.58,0,0,1,.83.22,1.45,1.45,0,0,1,.56.61,2,2,0,0,1,.2.9,2.18,2.18,0,0,1-1,1.86,1.89,1.89,0,0,1-1,.29H127l-.24,0V36a1.15,1.15,0,0,0,.08.51.33.33,0,0,0,.31.14h.28l0,0-.07.31h-.78l-.55,0-.32,0Zm2.68-2.35a1.53,1.53,0,0,0,.32-1,1.88,1.88,0,0,0-.14-.75,1.32,1.32,0,0,0-.39-.53.86.86,0,0,0-.55-.2,1,1,0,0,0-.4.11,2,2,0,0,0-.45.29q-.07,1.07-.07,2.31a2.4,2.4,0,0,0,.82.16A1.07,1.07,0,0,0,128.48,34.38Z"/><path class="cls-1" d="M132.07,34.54h0a4.37,4.37,0,0,1-.54.47.75.75,0,0,1-.36.17,1,1,0,0,1-.75-.29,1,1,0,0,1-.3-.73.74.74,0,0,1,.12-.42.56.56,0,0,1,.32-.24l1.56-.43v-.36a1,1,0,0,0-.19-.64.65.65,0,0,0-.53-.23,1.25,1.25,0,0,0-.48.11,2.08,2.08,0,0,0-.5.3l0,0-.1-.35q.39-.22.77-.4a1.61,1.61,0,0,1,.56-.18,1.19,1.19,0,0,1,.84.28,1,1,0,0,1,.3.78c0,.12,0,.37-.06.74q-.09.9-.09,1.15a.39.39,0,0,0,.09.28.31.31,0,0,0,.25.1.67.67,0,0,0,.27-.06.72.72,0,0,0,.22-.14l.11.13a2,2,0,0,1-.32.4,1,1,0,0,1-.4.26A.66.66,0,0,1,132.07,34.54Zm-.43,0a1.59,1.59,0,0,0,.38-.28l0-.84-1.11.34a.32.32,0,0,0-.24.34.53.53,0,0,0,.16.39.56.56,0,0,0,.41.16A.8.8,0,0,0,131.64,34.5Z"/><path class="cls-1" d="M134.41,34.65a1.11,1.11,0,0,0,.08-.52v-1.8a.75.75,0,0,0-.07-.39.26.26,0,0,0-.24-.11h-.11l-.06,0,0-.06,0-.25.66-.14.45-.11.06,0s0,.16,0,.34a3.2,3.2,0,0,0,0,.5l0,0a2.33,2.33,0,0,1,.58-.63,1,1,0,0,1,.58-.25h.18l.08,0,0,0-.07.49a6,6,0,0,0-.06.68l-.32,0a1.41,1.41,0,0,0,0-.45.17.17,0,0,0-.18-.11.66.66,0,0,0-.39.15,1.64,1.64,0,0,0-.38.41q0,.24,0,.79c0,.37,0,.66,0,.89a.62.62,0,0,0,.08.38.4.4,0,0,0,.31.1h.36v0l-.07.36h-1.38l-.31,0,0-.33A.4.4,0,0,0,134.41,34.65Z"/><path class="cls-1" d="M139,34.54h0a4.37,4.37,0,0,1-.54.47.75.75,0,0,1-.36.17,1,1,0,0,1-.75-.29,1,1,0,0,1-.3-.73.74.74,0,0,1,.12-.42.56.56,0,0,1,.32-.24l1.56-.43v-.36a1,1,0,0,0-.19-.64.65.65,0,0,0-.53-.23,1.25,1.25,0,0,0-.48.11,2.08,2.08,0,0,0-.5.3l0,0-.1-.35q.39-.22.77-.4a1.61,1.61,0,0,1,.56-.18,1.19,1.19,0,0,1,.84.28,1,1,0,0,1,.3.78c0,.12,0,.37-.06.74q-.09.9-.09,1.15a.39.39,0,0,0,.09.28.31.31,0,0,0,.25.1.67.67,0,0,0,.27-.06.72.72,0,0,0,.22-.14l.11.13a2,2,0,0,1-.32.4,1,1,0,0,1-.4.26A.66.66,0,0,1,139,34.54Zm-.43,0a1.59,1.59,0,0,0,.38-.28l0-.84-1.11.34a.32.32,0,0,0-.24.34.53.53,0,0,0,.16.39.56.56,0,0,0,.41.16A.8.8,0,0,0,138.56,34.5Z"/><path class="cls-1" d="M141,30.82l-.16-.16q.37-.4.75-.84l.48-.57.08,0,.31.34v.09l-.53.42q-.41.33-.84.72Zm-.08,4a.67.67,0,0,0,.35-.19.52.52,0,0,0,.11-.34V32.26c0-.3-.1-.44-.3-.44h-.12l-.08,0,0-.3q.34,0,.71-.13l.47-.11,0,.1a4.88,4.88,0,0,0-.13,1.05q-.06.88-.06,1.85a.71.71,0,0,0,.07.35.24.24,0,0,0,.22.11h.29l0,0-.07.35-.28,0h-.45a3.32,3.32,0,0,0-.49,0l-.36.06Z"/><path class="cls-1" d="M143.78,35.17l-.34-.08-.16-.06,0-.06q0-.12.06-.51t0-.59l.29,0a1.23,1.23,0,0,0,.18.76.75.75,0,0,0,.62.22.94.94,0,0,0,.52-.14.41.41,0,0,0,.21-.35A.49.49,0,0,0,145,34a4.71,4.71,0,0,0-.76-.47,2.24,2.24,0,0,1-.68-.48.81.81,0,0,1-.21-.54,1,1,0,0,1,.2-.59,1.31,1.31,0,0,1,.54-.42,1.89,1.89,0,0,1,.77-.15,2.34,2.34,0,0,1,.38,0l.3.06.15,0,0,0-.07.37a5.36,5.36,0,0,0-.08.63l-.3,0s0,0,0-.1a1.29,1.29,0,0,0,0-.14.53.53,0,0,0-.16-.43.79.79,0,0,0-.51-.14.82.82,0,0,0-.47.13.38.38,0,0,0-.19.32.52.52,0,0,0,.17.37,2.18,2.18,0,0,0,.55.37,4.1,4.1,0,0,1,.91.59.76.76,0,0,1,.24.55.94.94,0,0,1-.2.58A1.42,1.42,0,0,1,145,35a1.77,1.77,0,0,1-.74.16A2.84,2.84,0,0,1,143.78,35.17Z"/><path class="cls-1" d="M147.23,35a1.53,1.53,0,0,1-.56-.64,2.14,2.14,0,0,1-.2-.95,2.24,2.24,0,0,1,.25-1.05,1.93,1.93,0,0,1,.68-.75,1.77,1.77,0,0,1,1-.27,1.51,1.51,0,0,1,.82.23,1.53,1.53,0,0,1,.57.64,2.15,2.15,0,0,1,.2.95,2.25,2.25,0,0,1-.25,1.05,1.93,1.93,0,0,1-.68.75,1.78,1.78,0,0,1-1,.27A1.51,1.51,0,0,1,147.23,35Zm1.79-.55a1.69,1.69,0,0,0,.27-1,2.37,2.37,0,0,0-.15-.86,1.38,1.38,0,0,0-.41-.59.94.94,0,0,0-.6-.21.85.85,0,0,0-.73.38,1.73,1.73,0,0,0-.27,1,2.34,2.34,0,0,0,.15.86,1.37,1.37,0,0,0,.41.59,1,1,0,0,0,.61.21A.85.85,0,0,0,149,34.43Z"/></g></svg>