<svg xmlns="http://www.w3.org/2000/svg" xmlns:xlink="http://www.w3.org/1999/xlink" viewBox="0 0 102.89 103.27"><defs><style>.cls-1{fill:none;}.cls-2{clip-path:url(#clip-path);}.cls-3{fill:#fff;}</style><clipPath id="clip-path"><rect class="cls-1" width="102.89" height="103.27"/></clipPath></defs><title>web-logo-escala-comun</title><g id="figuras"><g class="cls-2"><g class="cls-2"><path class="cls-3" d="M37.72,98.24a.28.28,0,0,1-.56,0v-4.4a.34.34,0,0,1,.33-.33h1.9a.28.28,0,0,1,.28.28.27.27,0,0,1-.28.27H37.72v1.64h1.53a.28.28,0,0,1,.27.27.27.27,0,0,1-.27.27H37.72Z"/><path class="cls-3" d="M42.43,95.13a.27.27,0,0,1,.55,0v2.45c0,.38.07.38.13.49a.3.3,0,0,1,0,.14.25.25,0,0,1-.26.25.36.36,0,0,1-.3-.21,2,2,0,0,1-1,.25c-.74,0-1.11-.53-1.11-1.32v-2a.27.27,0,0,1,.55,0v2c0,.53.22.83.64.83a1.44,1.44,0,0,0,.77-.23c0-.07,0-.14,0-.2Z"/><path class="cls-3" d="M44.61,98.23a.27.27,0,0,1-.55,0V95.85c0-.38-.06-.38-.13-.49a.27.27,0,0,1,0-.14.25.25,0,0,1,.26-.25.36.36,0,0,1,.29.2,1.74,1.74,0,0,1,1-.32c.74,0,1.11.53,1.11,1.32v2a.27.27,0,0,1-.55,0v-2c0-.53-.22-.83-.64-.83a1.29,1.29,0,0,0-.78.29,1.16,1.16,0,0,1,0,.2Z"/><path class="cls-3" d="M49.35,95V93.64a.27.27,0,0,1,.55,0v4a.45.45,0,0,0,.18.42.23.23,0,0,1,0,.14.25.25,0,0,1-.25.25.44.44,0,0,1-.37-.22,2.25,2.25,0,0,1-1,.27c-.74,0-1.11-.54-1.11-1.32v-.89c0-.83.28-1.41,1.17-1.41a2.63,2.63,0,0,1,.78.13m0,.49a2.09,2.09,0,0,0-.71-.15c-.51,0-.69.29-.69.94v.89c0,.55.22.83.68.83a1.66,1.66,0,0,0,.73-.2.66.66,0,0,1,0-.16Z"/><path class="cls-3" d="M52.63,96.08a.66.66,0,0,0-.75-.75,1,1,0,0,0-.53.15.5.5,0,0,1-.18.06c-.13,0-.19-.13-.2-.23,0-.32.5-.46,1-.46.87,0,1.23.49,1.23,1.41V97.8c0,.14,0,.21.13.21h.06a.22.22,0,0,1,.2.24c0,.18-.16.24-.32.24a.58.58,0,0,1-.52-.35,1.36,1.36,0,0,1-1,.37,1,1,0,0,1-1.07-1.06v0c0-.69.41-1,1.23-1a2.53,2.53,0,0,1,.71.1Zm-1.4,1.34v0c0,.33.15.56.62.56a1.14,1.14,0,0,0,.78-.31v-.76a2.63,2.63,0,0,0-.71-.1c-.57,0-.69.27-.69.58"/><path class="cls-3" d="M54.07,96.16a1.16,1.16,0,0,1,1.25-1.29c.33,0,1,.1,1,.43a.24.24,0,0,1-.24.24l-.11,0a1.15,1.15,0,0,0-.57-.16c-.55,0-.76.29-.76.8v1.06c0,.51.22.8.76.8a1.15,1.15,0,0,0,.57-.16l.11,0a.24.24,0,0,1,.24.24c0,.33-.64.43-1,.43a1.16,1.16,0,0,1-1.25-1.29Z"/><path class="cls-3" d="M57.36,94.11a.34.34,0,0,1-.34-.34.34.34,0,0,1,.67,0,.34.34,0,0,1-.34.34m0,4.4a.27.27,0,0,1-.27-.27V95.14a.27.27,0,1,1,.55,0v3.09a.27.27,0,0,1-.27.27"/><path class="cls-3" d="M58.53,97.26V96.09a1.31,1.31,0,0,1,2.62,0v1.17a1.31,1.31,0,0,1-2.62,0m2.07,0V96.08a.76.76,0,0,0-1.53,0v1.18a.76.76,0,0,0,1.53,0m-.71-3.74c.1-.09.13-.16.26-.16a.24.24,0,0,1,.22.23.2.2,0,0,1,0,.12l-.57.6c-.08.08-.13.13-.22.13a.23.23,0,0,1-.23-.25.16.16,0,0,1,0-.1Z"/><path class="cls-3" d="M62.55,98.23a.27.27,0,0,1-.55,0V95.85c0-.38-.06-.38-.13-.49a.27.27,0,0,1,0-.14.25.25,0,0,1,.26-.25.36.36,0,0,1,.29.2,1.74,1.74,0,0,1,1-.32c.74,0,1.11.53,1.11,1.32v2a.27.27,0,0,1-.55,0v-2c0-.53-.22-.83-.64-.83a1.29,1.29,0,0,0-.78.29,1.16,1.16,0,0,1,0,.2Z"/><path class="cls-3" d="M22.51,88.74H19.43c-.57,0-1.08-.2-1.08-.83V81.37a.89.89,0,0,1,.9-.83H22.4a.8.8,0,0,1,.81.76.76.76,0,0,1-.81.72H20v1.87h2.2a.78.78,0,0,1,.8.73.76.76,0,0,1-.8.74H20v1.9h2.54a.74.74,0,1,1,0,1.48"/><path class="cls-3" d="M26.52,82.77c.76,0,1.89.19,1.89,1a.61.61,0,0,1-.69.59c-.41,0-.62-.24-1.19-.24s-.67.15-.67.42.09.28.35.38c.84.36,2.36.52,2.36,2.07,0,1.13-.8,1.84-2.27,1.84-.74,0-2.09-.19-2.09-.91a.73.73,0,0,1,.76-.69c.38,0,.75.26,1.32.26.42,0,.71-.14.71-.47a.39.39,0,0,0-.25-.37c-.76-.42-2.47-.45-2.47-2.07,0-1.07.76-1.8,2.25-1.8"/><path class="cls-3" d="M29.49,85a2.13,2.13,0,0,1,2.41-2.22c.69,0,2,.16,2,1,0,.28-.14.59-.72.59a1,1,0,0,1-.38-.07,1.88,1.88,0,0,0-.79-.2.79.79,0,0,0-.9.88V86.6a.79.79,0,0,0,.9.88,1.83,1.83,0,0,0,.79-.2.83.83,0,0,1,.36-.07c.61,0,.74.33.74.59,0,.84-1.3,1-2,1a2.13,2.13,0,0,1-2.4-2.22Z"/><path class="cls-3" d="M39.53,87.35c0,.35.17.31.37.4a.41.41,0,0,1,.27.44c0,.37-.22.61-.84.61a1.08,1.08,0,0,1-1-.49,2.35,2.35,0,0,1-1.57.52c-1.35,0-2.07-.73-2.07-1.84v0q0-1.78,2.3-1.78a3.07,3.07,0,0,1,.92.12v-.37c0-.55-.29-.8-.88-.8a1.65,1.65,0,0,0-.76.19,1,1,0,0,1-.44.12.65.65,0,0,1-.67-.67c0-.69,1-1,2-1,1.69,0,2.37.84,2.37,2.41ZM36.3,87v0c0,.38.22.54.72.54a1.42,1.42,0,0,0,.91-.3v-.84a4.46,4.46,0,0,0-.83-.09c-.67,0-.8.31-.8.66"/><path class="cls-3" d="M41.12,87.45V81.06a.77.77,0,0,1,.8-.72.75.75,0,0,1,.8.72v6.25a.52.52,0,0,0,.17.48c.12.13.21.19.21.41,0,.42-.33.63-.87.63s-1.12-.15-1.12-1.37"/><path class="cls-3" d="M48.72,87.35c0,.35.17.31.37.4a.41.41,0,0,1,.27.44c0,.37-.22.61-.84.61a1.08,1.08,0,0,1-1-.49,2.35,2.35,0,0,1-1.57.52c-1.35,0-2.07-.73-2.07-1.84v0q0-1.78,2.3-1.78a3.07,3.07,0,0,1,.92.12v-.37c0-.55-.29-.8-.88-.8a1.64,1.64,0,0,0-.76.19,1,1,0,0,1-.44.12.65.65,0,0,1-.68-.67c0-.69,1-1,2-1,1.69,0,2.37.84,2.37,2.41ZM45.48,87v0c0,.38.22.54.72.54a1.42,1.42,0,0,0,.91-.3v-.84a4.46,4.46,0,0,0-.83-.09c-.67,0-.8.31-.8.66"/><path class="cls-3" d="M55.08,85.79c0,1,.35,1.63,1.4,1.63a1.71,1.71,0,0,0,1-.28l.12-.07a.75.75,0,0,1,.5-.17.73.73,0,0,1,.77.7c0,.67-1.18,1.25-2.41,1.25a2.71,2.71,0,0,1-3-3v-2.3a2.71,2.71,0,0,1,3-3c1.23,0,2.41.57,2.41,1.25a.73.73,0,0,1-.77.7.76.76,0,0,1-.5-.17l-.12-.07a1.71,1.71,0,0,0-1-.28c-1,0-1.4.63-1.4,1.63Z"/><path class="cls-3" d="M59.69,86.66V84.93c0-1.22.87-2.16,2.52-2.16s2.53.94,2.53,2.16v1.73c0,1.22-.87,2.16-2.53,2.16s-2.52-.94-2.52-2.16m3.44,0V84.92c0-.48-.31-.78-.92-.78s-.92.3-.92.78v1.75c0,.49.31.79.92.79s.92-.3.92-.79"/><path class="cls-3" d="M72.43,84.88a.67.67,0,0,0-.67-.73,1.53,1.53,0,0,0-.93.41,2.71,2.71,0,0,1,0,.3V88.1a.81.81,0,0,1-1.61,0v-3c0-.54-.09-.94-.61-.94a2.39,2.39,0,0,0-1,.3.46.46,0,0,1,0,.13V88.1a.81.81,0,0,1-1.61,0V84.58c0-.38,0-.42-.09-.49-.16-.22-.2-.31-.2-.44a.71.71,0,0,1,.76-.69.75.75,0,0,1,.62.33,3.06,3.06,0,0,1,1.57-.51,2.11,2.11,0,0,1,1.35.51,3.51,3.51,0,0,1,1.76-.51A2,2,0,0,1,74,84.86V88.1a.81.81,0,0,1-1.61,0Z"/><path class="cls-3" d="M77.7,88.83a2.05,2.05,0,0,1-2.17-2.28v-3a.81.81,0,0,1,1.61,0v3c0,.59.24.93.76.93a2.26,2.26,0,0,0,.9-.24,1.57,1.57,0,0,1,0-.22v-3.5c0-.4.27-.7.8-.7s.8.3.8.7v3.74c0,.17.07.26.22.41a.51.51,0,0,1,.16.4.72.72,0,0,1-.75.71.87.87,0,0,1-.71-.44,2.7,2.7,0,0,1-1.61.51m.73-8.34.09-.09a.56.56,0,0,1,.48-.22.59.59,0,0,1,.57.57.56.56,0,0,1-.1.33l-1,1a.68.68,0,0,1-.52.24.57.57,0,0,1-.59-.57.44.44,0,0,1,.09-.29Z"/><path class="cls-3" d="M83.57,88.1a.81.81,0,0,1-1.61,0V84.58c0-.38,0-.42-.09-.49-.16-.22-.2-.3-.2-.45a.72.72,0,0,1,.78-.67.78.78,0,0,1,.62.34,2.82,2.82,0,0,1,1.54-.5,2,2,0,0,1,2.2,2.27v3a.81.81,0,0,1-1.61,0v-3c0-.58-.29-.94-.76-.94a2.27,2.27,0,0,0-.9.24,1.52,1.52,0,0,1,0,.22Z"/><path class="cls-3" d="M54.08,74.39h-.14A2.42,2.42,0,0,1,51.48,72a.6.6,0,0,1,1.19,0,1.22,1.22,0,0,0,1.27,1.17h.14A1.25,1.25,0,0,0,55.37,72V16.5a1,1,0,0,0-.55-.92l-23-12.44a1.05,1.05,0,0,0-1.55.92V67.67a1.24,1.24,0,0,0,1.28,1.19h.14A1.23,1.23,0,0,0,33,67.68a.6.6,0,0,1,1.19,0,2.42,2.42,0,0,1-2.46,2.37h-.14a2.43,2.43,0,0,1-2.48-2.38V4.06a2.25,2.25,0,0,1,3.31-2l23,12.44a2.24,2.24,0,0,1,1.18,2V72a2.45,2.45,0,0,1-2.49,2.39"/><path class="cls-3" d="M18.44,37.35A8.39,8.39,0,1,1,26.82,29a8.4,8.4,0,0,1-8.39,8.39m0-15.58A7.19,7.19,0,1,0,25.63,29a7.2,7.2,0,0,0-7.19-7.19"/><path class="cls-3" d="M68.23,46.54a8.39,8.39,0,1,1,8.39-8.39,8.4,8.4,0,0,1-8.39,8.39m0-15.58a7.19,7.19,0,1,0,7.19,7.19A7.2,7.2,0,0,0,68.23,31"/><path class="cls-3" d="M91,48.88c-6.21,0-11.26-6.72-11.26-15,0-3.41,1.91-7.08,5.51-10.6A33.29,33.29,0,0,1,90.72,19a.6.6,0,0,1,.62,0,33.28,33.28,0,0,1,5.44,4.3c3.6,3.52,5.51,7.18,5.51,10.6,0,8.26-5,15-11.26,15m0-28.65C89.31,21.35,81,27.13,81,33.9,81,41.5,85.48,47.68,91,47.68s10.06-6.18,10.06-13.78c0-6.78-8.34-12.55-10.06-13.67"/><path class="cls-3" d="M3.51,74.32a.6.6,0,0,1-.6-.6V50.43A12.35,12.35,0,0,1,15.25,38.1H22A12.35,12.35,0,0,1,34.29,50.43V67.25a.6.6,0,0,1-1.19,0V50.43A11.16,11.16,0,0,0,22,39.29h-6.7A11.15,11.15,0,0,0,4.1,50.43V73.72a.6.6,0,0,1-.6.6"/><path class="cls-3" d="M89.87,74.22H83.16c-1.06,0-1.92-1.14-1.92-2.55v-14c0-5.1-4.91-9.25-10.95-9.25H63.68c-6.06,0-11,4.15-11,9.25V71.87a.6.6,0,1,1-1.19,0V57.67c0-5.76,5.46-10.44,12.18-10.44h6.61c6.7,0,12.14,4.69,12.14,10.44v14c0,.75.4,1.35.73,1.35h6.71c.4,0,.71-.49.71-1.15V48.28a.6.6,0,0,1,1.19,0V71.87a2.11,2.11,0,0,1-1.91,2.34"/><path class="cls-3" d="M48.76,27.68H36.93a1,1,0,0,1-1-1V22.17a1,1,0,0,1,1-1H48.76a1,1,0,0,1,1,1v4.49a1,1,0,0,1-1,1M37.11,26.48H48.58V22.35H37.11Z"/><path class="cls-3" d="M48.76,36.59H36.93a1,1,0,0,1-1-1V31.08a1,1,0,0,1,1-1H48.76a1,1,0,0,1,1,1v4.49a1,1,0,0,1-1,1M37.11,35.39H48.58V31.26H37.11Z"/></g></g></g></svg>