<svg xmlns="http://www.w3.org/2000/svg" viewBox="0 0 110.59 100.86"><defs><style>.cls-1{fill:#fff;}</style></defs><title>web-logo-ministerio-cultura</title><g id="figuras"><path class="cls-1" d="M55.78,12.76l-.13-5.09c-.1.65-.21,1.11-.29,1.46l-.86,3.64H52.75L52,9.12c-.08-.35-.18-.79-.3-1.46l-.08,5.09H50.43l.23-6h2s.66,3,1,5c.41-1.94,1.19-5,1.19-5h2l.24,6Z"/><path class="cls-1" d="M58.46,12.76V9.23L58,9.11V8.38h1.67v4.38Zm0-6.17h1.18V7.66H58.46Z"/><path class="cls-1" d="M63.41,12.76v-2.6c0-.66-.25-1-.79-1a1.43,1.43,0,0,0-.79.27v3.31H60.68V8.38h.79l.18.5A1.79,1.79,0,0,1,63,8.3c1.11,0,1.58.65,1.58,1.75v2.71Z"/><path class="cls-1" d="M65.91,12.76V9.23l-.51-.11V8.38h1.67v4.38Zm0-6.17h1.18V7.66H65.91Z"/><path class="cls-1" d="M69.14,9.54c0,.68,1.9.47,1.9,1.9,0,.79-.59,1.42-1.72,1.42A2.86,2.86,0,0,1,68,12.53l.24-.79a2,2,0,0,0,1,.3c.39,0,.65-.21.65-.48,0-.79-1.87-.53-1.87-2,0-.64.49-1.22,1.67-1.22A3.6,3.6,0,0,1,71,8.53l-.17.85a2.58,2.58,0,0,0-1.06-.22c-.4,0-.6.13-.6.38"/><path class="cls-1" d="M73.57,12.86c-.79,0-1.28-.37-1.28-1.46V9.22h-.64V8.38h.65V7.6l1.15-.38V8.35h1.17v.83H73.44v2.14a.44.44,0,0,0,.37.5h.09a1.47,1.47,0,0,0,.67-.17l.22.93a2.47,2.47,0,0,1-1.22.26"/><path class="cls-1" d="M76.28,10.89A1,1,0,0,0,77.17,12a.91.91,0,0,0,.23,0,3,3,0,0,0,1.29-.36l.22.79a3.61,3.61,0,0,1-1.65.43,2,2,0,0,1-2.16-2.29c0-1.35.65-2.27,2.06-2.27S79,9.25,79,10.34v.51Zm.79-1.73c-.58,0-.79.53-.79,1h1.58c0-.57-.14-1-.75-1Z"/><path class="cls-1" d="M82.37,9.36a1.86,1.86,0,0,0-.54-.07,1.27,1.27,0,0,0-.79.29v3.15H79.88V8.38h.79l.13.59a1.16,1.16,0,0,1,1-.67,2.17,2.17,0,0,1,.51.06Z"/><path class="cls-1" d="M83.45,12.76V9.23l-.51-.11V8.38h1.68v4.38Zm0-6.17h1.17V7.66H83.45Z"/><path class="cls-1" d="M89.59,10.56c0,1.5-.79,2.29-2.06,2.29s-2.05-.79-2.05-2.29a2.06,2.06,0,0,1,4.11-.36,2.16,2.16,0,0,1,0,.36m-1.2,0c0-1.05-.32-1.42-.86-1.42s-.85.37-.85,1.42S87,12,87.53,12s.86-.38.86-1.43"/><path class="cls-1" d="M95.26,8.72a2.72,2.72,0,0,1-.11-.79V6.6h1.16v6.17h-1l-.1-.48a1.41,1.41,0,0,1-1.16.57c-1,0-1.79-.72-1.79-2.28S93.1,8.3,94.2,8.3a1.44,1.44,0,0,1,1.06.42m-.11.66a1.61,1.61,0,0,0-.79-.21c-.55,0-.91.38-.91,1.39s.33,1.44.89,1.44a1.13,1.13,0,0,0,.79-.38Z"/><path class="cls-1" d="M98.41,10.89A1,1,0,0,0,99.3,12a.91.91,0,0,0,.23,0,3,3,0,0,0,1.28-.36l.22.79a3.52,3.52,0,0,1-1.65.43,2,2,0,0,1-2.16-1.91,1.94,1.94,0,0,1,0-.38c0-1.35.65-2.27,2.06-2.27s1.84,1,1.84,2.08v.51Zm.79-1.73c-.58,0-.79.53-.79,1H100c0-.57-.18-1-.79-1"/><path class="cls-1" d="M54,93.82a4,4,0,0,1-1.78.43c-1.42,0-2.09-1-2.09-2.51s.72-2.43,2.21-2.43a2.66,2.66,0,0,1,1.57.42l-.4.7a2.06,2.06,0,0,0-1.16-.31c-.86,0-1.25.65-1.25,1.57,0,1.12.41,1.74,1.21,1.74a2,2,0,0,0,.83-.17V92.4h-.66l0-.68h1.57Z"/><path class="cls-1" d="M57.9,92.45c0,1.17-.59,1.8-1.62,1.8s-1.62-.62-1.62-1.8a1.63,1.63,0,1,1,3.24-.32,1.7,1.7,0,0,1,0,.32m-.94,0c0-.83-.25-1.13-.68-1.13s-.67.3-.67,1.13.21,1.13.67,1.13.68-.3.68-1.13"/><path class="cls-1" d="M59.45,91.08a1.23,1.23,0,0,1,.92-.43c.79,0,1.39.58,1.39,1.8s-.7,1.8-1.51,1.8a1.13,1.13,0,0,1-1-.49l-.17.42h-.5V89.31h.92v1.22Zm.06,2.14a.79.79,0,0,0,.63.36c.4,0,.7-.29.7-1.13s-.22-1.13-.69-1.13a1,1,0,0,0-.65.28Z"/><path class="cls-1" d="M62.74,94.18V91.4l-.39-.09v-.59h1.31v3.45Zm0-4.86h.94v.84h-1Z"/><path class="cls-1" d="M65.3,92.7a.79.79,0,0,0,.71.86h.18a2.35,2.35,0,0,0,1-.3l.17.65a2.75,2.75,0,0,1-1.3.35,1.58,1.58,0,0,1-1.71-1.8c0-1.06.51-1.8,1.57-1.8A1.45,1.45,0,0,1,67.4,92.3v.4Zm.64-1.37c-.46,0-.64.42-.64.79h1.26c0-.44-.14-.79-.62-.79"/><path class="cls-1" d="M70.07,91.49a1.41,1.41,0,0,0-.43-.06,1,1,0,0,0-.61.23v2.51h-.89V90.72h.64a2.79,2.79,0,0,0,.1.46.92.92,0,0,1,.79-.53,1.89,1.89,0,0,1,.4,0v.79"/><path class="cls-1" d="M72.8,94.18V92.11c0-.52-.2-.79-.61-.79a1.11,1.11,0,0,0-.61.21v2.61h-.92V90.68h.64l.14.39a1.45,1.45,0,0,1,1.09-.46c.87,0,1.22.52,1.22,1.39v2.14Z"/><path class="cls-1" d="M77.6,92.45c0,1.17-.59,1.8-1.62,1.8s-1.62-.62-1.62-1.8a1.63,1.63,0,1,1,3.24-.32,1.7,1.7,0,0,1,0,.32m-.94,0c0-.83-.25-1.13-.68-1.13s-.67.3-.67,1.13.22,1.13.67,1.13.68-.3.68-1.13"/><path class="cls-1" d="M82.09,91a1.87,1.87,0,0,1-.09-.63v-1h.92v4.86h-.75l-.1-.38a1.12,1.12,0,0,1-.92.45c-.79,0-1.41-.56-1.41-1.79s.65-1.81,1.49-1.81a1.14,1.14,0,0,1,.87.34m-.09.53a1.2,1.2,0,0,0-.62-.17c-.44,0-.72.3-.72,1.1s.27,1.13.7,1.13a.87.87,0,0,0,.64-.3Z"/><path class="cls-1" d="M84.54,92.7a.79.79,0,0,0,.71.86h.18a2.37,2.37,0,0,0,1-.3l.17.65a2.74,2.74,0,0,1-1.3.35,1.57,1.57,0,0,1-1.72-1.42,1.49,1.49,0,0,1,0-.39c0-1.06.51-1.8,1.61-1.8a1.45,1.45,0,0,1,1.46,1.64v.4Zm.65-1.37c-.46,0-.65.42-.65.79h1.27c0-.44-.14-.79-.62-.79"/><path class="cls-1" d="M90.89,94.25c-1.34,0-2-.9-2-2.49s.7-2.45,2-2.45a3,3,0,0,1,1.62.4l-.36.73A2.07,2.07,0,0,0,91,90.12c-.79,0-1.19.58-1.19,1.63s.39,1.68,1.17,1.68A2.28,2.28,0,0,0,92.24,93l.29.74a2.83,2.83,0,0,1-1.64.5"/><path class="cls-1" d="M93.16,94.18V89.31h.92v1.27a2.07,2.07,0,0,1-.09.54,1.2,1.2,0,0,1,1-.47c1,0,1.28.52,1.28,1.39v2.13h-.94V92.11a.31.31,0,0,0,0-.2.5.5,0,0,0-.57-.56,1.08,1.08,0,0,0-.61.21v2.6Z"/><path class="cls-1" d="M97.29,94.18V91.4l-.4-.09v-.59H98.2v3.45Zm0-4.86h.93v.84h-.93Z"/><path class="cls-1" d="M99,93.27V89.33H100v3.94c0,.29.18.34.56.34v.65a3,3,0,0,1-.5.06c-.71,0-1-.37-1-1"/><path class="cls-1" d="M101.91,92.7a.79.79,0,0,0,.71.86h.18a2.35,2.35,0,0,0,1-.3l.17.65a2.74,2.74,0,0,1-1.3.35A1.57,1.57,0,0,1,101,92.83a1.49,1.49,0,0,1,0-.39c0-1.06.51-1.8,1.62-1.8s1.46.79,1.46,1.64v.4Zm.64-1.37c-.46,0-.64.42-.64.79h1.26c0-.44-.14-.79-.62-.79"/><path class="cls-1" d="M108.86,0H0V100.86H110.59V0ZM1.72,1.71h43V99.15h-43ZM108.87,99.15H46.45V1.71h62.39Z"/><path class="cls-1" d="M24.59,15.08a.43.43,0,0,0,.13-.58c-.08-.16-.28-.17-.2-.19,1.1-.26,1.69-1.86,1.66-2.48a2.2,2.2,0,0,0,2.76-.11,2,2,0,0,0-.09-2.78l-.06-.05a1.8,1.8,0,0,0-2,0,1,1,0,0,0-.8-.5,2,2,0,0,0-.45-1.29,2.11,2.11,0,0,0-2.65,0,1.88,1.88,0,0,0-2.39,1.15,1.85,1.85,0,0,0-.09.82,3.24,3.24,0,0,0-1.64-.27,2,2,0,0,0-1.09.62,4.36,4.36,0,0,0-.24.39,1.78,1.78,0,0,0-.19.94A1.72,1.72,0,0,0,18,12.12a2.89,2.89,0,0,0,1.68.25A1.26,1.26,0,0,0,20.4,12c.07-.07.12-.19.23-.19a1.35,1.35,0,0,0,.86,1.39,1,1,0,0,1,0,.14,1.25,1.25,0,0,0,1.08,1.09c-.34.21-.2.5-.12.66a3.23,3.23,0,0,1,2.13,0"/><path class="cls-1" d="M27.2,18.54a3.41,3.41,0,0,1,.79-2,.31.31,0,0,0,.09-.25.29.29,0,0,0-.11-.18l-.72-.45h0c-.06,0-.09,0-.16.09a1.32,1.32,0,0,1-.84.3h-.24a2.65,2.65,0,0,1-.63-.24L25,15.59a3.25,3.25,0,0,0-2.68,0l-.16.08-.39.18a1.45,1.45,0,0,1-.42.14h-.24a1.31,1.31,0,0,1-.84-.3c-.07-.06-.11-.09-.16-.09h0l-.72.46a.29.29,0,0,0-.13.19.31.31,0,0,0,.09.25A3.42,3.42,0,0,1,20,18.58a3,3,0,0,1-.51,1.84,2.16,2.16,0,0,0,2.13,3.27c.13,0,1.28,0,1.67.79,0,0,.2.32.27.46l.09.17.09-.17c.09-.16.18-.32.28-.47.39-.73,1.58-.75,1.66-.75a2.17,2.17,0,0,0,2.12-3.27,3,3,0,0,1-.65-1.91m-.61,0-2,1.43.79,2.28-1.93-1.46-1.92,1.46L22.31,20l-2-1.43h2.47l.69-2.3.69,2.3h2.43Z"/><path class="cls-1" d="M27.65,15.38l.14.12Z"/><path class="cls-1" d="M28.41,16l-.26-.2Z"/><path class="cls-1" d="M27.87,15.56l.24.19Z"/><path class="cls-1" d="M40.62,28.07c-.25-.3-.92-.15-.92-.15a1,1,0,0,0-.5-1.31l-.12,0a.88.88,0,0,0-.73.08l-.07.06a.5.5,0,0,0-.15.36.52.52,0,0,0,.52.51.51.51,0,0,0,.29-.09.55.55,0,0,0,.2-.31.51.51,0,0,1,.19.23c.27.93-.75,1.25-.75,1.25a4,4,0,0,1-3.64-.49l.39-.21a.85.85,0,0,1,.36-.08.19.19,0,0,0,0,.06.45.45,0,0,0,.9,0,.46.46,0,0,0-.09-.27c-.26-.4-1.18-.13-1.18-.13a1.64,1.64,0,0,0,0-1.28,1.23,1.23,0,0,0-1.41-.6.62.62,0,0,0-.42.42c-.13.69.43.74.43.74.4,0,.41-.31.41-.31.06-.32-.4-.34-.4-.34.39-.67,1.58.43.79,1.4a.1.1,0,0,1-.16,0,15.81,15.81,0,0,1-2.45-1.41c0-.38-.37-.57-.31-.68s.25.07.37-.1a4.42,4.42,0,0,0,.21-1.09,4,4,0,0,0,2.52.33.29.29,0,0,0,.2-.29c0-.47-1.21-3.26-1.24-4.24.57.29.94-.61,1-.88.79.35,1,7.59,1.65,7.87.31.12.42-.37.45-.46a23.6,23.6,0,0,0,.94-7.42,19.65,19.65,0,0,0-.63-4.48c-.24-.83-.72-2.54-1.82-2.78a.79.79,0,0,0-.89.67,1,1,0,0,0,0,.12c0,.38.27.56.15.93a3.09,3.09,0,0,0-.35.79c-.06.27.17.38.09.66-.35-.06-.52.25-1.07.12.36-.17.36-1.19-.07-1.36a.16.16,0,0,1-.16-.09,1.51,1.51,0,0,0,.27-1.58c.18,0,.37-.31.39-.58a1.23,1.23,0,0,1,.1-.52.14.14,0,0,0-.06-.18.13.13,0,0,0-.18.07h0c-.11.23-.37.09-.26-.13a.13.13,0,0,0-.06-.18h0a.13.13,0,0,0-.17.06h0c-.1.21-.36.09-.25-.13a.14.14,0,0,0-.06-.18h0a.14.14,0,0,0-.18.07c-.1.23-.36.1-.26-.12a.14.14,0,0,0-.06-.19.15.15,0,0,0-.12,0,1.13,1.13,0,0,1-.32.43c-.24,0-.18.32-.15.51a.66.66,0,0,0-.78.52v0H31c-.38,0-.74.2-.71.56a.6.6,0,0,0,.33.44s0-.2.17-.22a.51.51,0,0,1,.48.31c0,.19-.12.66.5.73a1.27,1.27,0,0,1,0,.2,1.64,1.64,0,0,0-.5,0c-.39.06-.92.28-1,.67a.66.66,0,0,0,0,.29c0,.08.09.17.07.28a.53.53,0,0,1-.12.17,1.25,1.25,0,0,1-.73.35.89.89,0,0,1-.69-.34c-.4-.52.12-1.43.11-1.77,0-.91-1.16-.37-1.62-.13a4.44,4.44,0,0,0-1.32,1.19,3.41,3.41,0,0,0-.53.79s-.06.05-.11,0a2.67,2.67,0,0,0,1,.27,1.56,1.56,0,0,0,1.09-.29.24.24,0,0,1,.15-.06.24.24,0,0,1,.17.08l.13.1.14.12.08.06.24.19.26.2.23.16a.1.1,0,0,1,0,.06.21.21,0,0,1,0,.11l-.12.15a4.74,4.74,0,0,0-.61,1,1.4,1.4,0,0,0,1.09.79.57.57,0,0,0,.64-.47v0a4.83,4.83,0,0,0,.57,1.5c-.28.13-.71.57-.47,1.78a8.87,8.87,0,0,1-.84-.64,1.31,1.31,0,0,0-1-.9,4.85,4.85,0,0,0,.45,1,2.83,2.83,0,0,1,.29,1.65c.28-.29.25-1.09.25-1.09h.06c.06,0,.35.56.84.68a6.35,6.35,0,0,0,2.07,2.24c0,.27,0,.91-.16.91-.55.12-1.05-.25-1.57-.23l-.09,0c-2.09-1-4.85,1.16-5.31,1.58-.24.22-.52-.08-.52-.08a.79.79,0,0,0-1.11-.08L23,26.2s-.28.3-.52.08c-.44-.4-2.94-2.36-5-1.67,0-.11-.28-.17-.36-.2a1.67,1.67,0,0,1-.4-.23,3,3,0,0,0-.84-.07,1,1,0,0,1-.32-.12,3.11,3.11,0,0,1-.91-.74l-.13-.18a1.26,1.26,0,0,1-.23-.43,3.21,3.21,0,0,1,.12-1.24,5.22,5.22,0,0,0,.06-.65,3.82,3.82,0,0,0,2.13-1.94,2,2,0,0,0,.11-.2h.18c.52,0,.86-.29,1.43-.22a.76.76,0,0,0,.44.42,2.33,2.33,0,0,0,.18,1c0,.06.07.09.1.14a4,4,0,0,0,.32-1.35.2.2,0,0,1,0-.11,1.19,1.19,0,0,0-.69-1,3,3,0,0,1-.39-.17,1.58,1.58,0,0,1-.55-.55,1.15,1.15,0,0,0,.13-.15A3.16,3.16,0,0,0,18.52,15c.28-.38,1-.23,1.34-.17a.62.62,0,0,1,.27.09c.08.05.1.18.21.23a1,1,0,0,0,.41,0,1,1,0,0,1,.13.22,1,1,0,0,0,.11.15A3,3,0,0,0,22,15.25l-.06,0a1.17,1.17,0,0,0-.63-.46c-.29,0-.35-.31-.62-.36a1,1,0,0,0-.39,0,6.84,6.84,0,0,1-1.58-.2c-.54,0-.56.33-.79.64a1.93,1.93,0,0,1-.24.34c-.15.14-.32.14-.5.28l-.09-.23a2.15,2.15,0,0,0-1.52-1.53.59.59,0,0,1-.23-.13.11.11,0,0,1,0-.15l0,0c.19-.11.51-.07.71-.17.52-.24.34-.68.13-.72a4.63,4.63,0,0,1-.83-.23c-.13-.08-.34-.48-.55-.57s-.15-.43-.35-.51a.67.67,0,0,0-.38.1c0-.08-.06-.5-.29-.64s-.24.06-.24.15.26.22.31.61l-.13.09a.79.79,0,0,0-.27-.53c-.18-.09-.24.06-.24.16s.23.2.3.53l-.15.13c-.35-.09-.45-.33-.54-.35s-.25,0-.17.21a.83.83,0,0,0,.5.33l-.09.11c-.4-.08-.5-.35-.59-.36s-.26,0-.18.21.57.35.62.36a.43.43,0,0,0-.09.28c-.32,0-.87.13-.79.5.11.08.48-.23.79-.06a1.26,1.26,0,0,0,.67.43.91.91,0,0,1,.2.45,3.66,3.66,0,0,0,.5.79,10,10,0,0,0,.6.86.59.59,0,0,1,0,.25,7.62,7.62,0,0,1-1.2,1.06c-.29.28-3,2.36-3.34,3.24a1.75,1.75,0,0,0-.11.73c-.17.08-.53.23-.65.07s.2-.51.11-.79A.21.21,0,0,0,9.39,20h0a.91.91,0,0,0-.19,1.28.89.89,0,0,0,.3.26c.46.19.53-.31.9-.11.09.06.95.79.79,1.42a.67.67,0,0,1-.05.14c-.23.22-.47.44-.72.64-.44.28.42,2.06.35,3,0,.35.29.31.5.85a.63.63,0,0,0-.53.21.43.43,0,0,0-.09.28.44.44,0,0,0,.44.44h0a.45.45,0,0,0,.45-.44V27.9a.93.93,0,0,1,.36.08l.39.21a4,4,0,0,1-3.64.49s-1-.32-.73-1.24a.49.49,0,0,1,.19-.24.51.51,0,0,0,1-.12.52.52,0,0,0-.14-.35l-.07-.06a.89.89,0,0,0-.74-.08,1,1,0,0,0-.67,1.22.83.83,0,0,0,.05.14s-.67-.15-.92.15a.39.39,0,0,0-.08.26.57.57,0,0,0,.07.22.39.39,0,0,0,.62,0,.17.17,0,0,1,.23,0c1.5,1.57,3.94.92,5.29-.13a8.17,8.17,0,0,1,1.57-1.22c.32.14.67.24,1,.37a3.22,3.22,0,0,0,.61,2,.73.73,0,0,1-1,.27.54.54,0,0,1-.1-.75l0,0s.27-.22.39.05a.27.27,0,0,0-.25.27.26.26,0,0,0,.26.26.26.26,0,0,0,.26-.24h0a.62.62,0,0,0-.21-.57.68.68,0,0,0-.59-.16c-.57.09-.89,1.28.23,1.77,0,0,.88.4,1.34-.25,0,0,0-.1.16.06.93.91,3,.65,3.84,0,0,0,.21-.13.44-.24a.65.65,0,1,0,.79-.65,1.33,1.33,0,0,0-1,.24,5.11,5.11,0,0,1-.61.34,3.88,3.88,0,0,0,.44-1.28c.91.09,1.84.17,2.81.19a2.83,2.83,0,0,1-.17.88s-.34.14-.35.38c0,0,0,.17.27.42a1.66,1.66,0,0,1,.28.43s0,.27.39.27h.13c.36,0,.39-.27.39-.27a1.64,1.64,0,0,1,.31-.4c.3-.24.26-.42.26-.42,0-.24-.35-.39-.35-.39a2.56,2.56,0,0,1-.16-.88A25,25,0,0,0,27,28.75,3.54,3.54,0,0,0,27.41,30a5.13,5.13,0,0,1-.61-.34,1.32,1.32,0,0,0-1-.24.65.65,0,1,0,.79.65,4.15,4.15,0,0,1,.44.24c.83.62,2.91.87,3.85,0,.17-.16.16-.06.16-.06.46.65,1.34.25,1.34.25,1.13-.49.79-1.68.24-1.77a.73.73,0,0,0-.6.17.65.65,0,0,0-.21.57.26.26,0,1,0,.52,0,.27.27,0,0,0-.24-.27c.12-.28.39-.06.39-.06a.54.54,0,0,1-.16.73.74.74,0,0,1-1-.28l0,0a3.25,3.25,0,0,0,.62-2c.34-.12.68-.22,1-.36a8.38,8.38,0,0,1,1.58,1.21c1.35,1,3.79,1.69,5.29.13.12-.12.2-.07.23,0a.39.39,0,0,0,.3.15.42.42,0,0,0,.33-.17.72.72,0,0,0,.1-.19.44.44,0,0,0-.08-.27m-27.94-.46a.12.12,0,0,1-.16,0c-.79-1,.42-2.07.79-1.4,0,0-.46,0-.41.34,0,0,0,.33.42.31,0,0,.57-.06.43-.74a.62.62,0,0,0-.37-.45,1.24,1.24,0,0,0-1.42.6,1.67,1.67,0,0,0-.16.5.78.78,0,0,0-.39-.19,4.79,4.79,0,0,1-.3-2.6A2.62,2.62,0,0,0,13.2,22a.86.86,0,0,1,.5.61c0,.21-.07.42,0,.59a3.44,3.44,0,0,0,.79.63,15.78,15.78,0,0,0,1.34.95c.16,0,.26-.09.4-.06a.32.32,0,0,1,.12.08l.2.17a9.45,9.45,0,0,0-1.18.91s-.36.53-2.73,1.7m3.73,1.08a2,2,0,0,1-.17.5,3.25,3.25,0,0,1-.35-1.37c.25.08.5.17.79.24a4,4,0,0,0-.26.62m3,1.42a2.6,2.6,0,0,1-2.68-.5,6.12,6.12,0,0,1,.37-1.43,23.6,23.6,0,0,0,2.75.52c-.06.6-.16,1.38-.45,1.42M17.82,27a1.8,1.8,0,0,1,1.23-.5.9.9,0,0,1,.84.88c-.76-.11-1.46-.24-2.06-.38Zm1.58-1a3.62,3.62,0,0,0-2,.91c-.47-.12-.91-.24-1.24-.34a3,3,0,0,1,.24-.4,3.31,3.31,0,0,1,3.76-.72c.07,0-.09.41-.75.52Zm1.1,1.47c.1-1,.17-1.77.52-1.77a.58.58,0,0,1,.42.24c.31.42,1.12.92,1.5,1.69-.89,0-1.68-.09-2.43-.16Zm3.82.16c.37-.79,1.19-1.27,1.5-1.69a.58.58,0,0,1,.42-.24c.35,0,.42.79.52,1.77-.72.08-1.55.14-2.42.16Zm2.77-2.18a3.3,3.3,0,0,1,3.76.72,2.3,2.3,0,0,1,.25.4l-1.24.35a3.61,3.61,0,0,0-2-.94c-.66-.11-.82-.5-.77-.52Zm1.13,1.06a1.78,1.78,0,0,1,1.23.51c-.6.13-1.29.26-2.07.37a.91.91,0,0,1,.86-.88Zm-.34,3.59c-.25,0-.39-.79-.45-1.42a23.59,23.59,0,0,0,2.75-.52,6,6,0,0,1,.38,1.43,2.61,2.61,0,0,1-2.66.5ZM31,29.19a2.3,2.3,0,0,1-.17-.5,4.28,4.28,0,0,0-.22-.62l.79-.23A3.18,3.18,0,0,1,31,29.19Z"/><path class="cls-1" d="M50.49,20.71v-5h1.15v4.94c0,.36.23.42.71.42v.79a3.79,3.79,0,0,1-.64.07c-.89,0-1.21-.48-1.21-1.25"/><path class="cls-1" d="M55.8,21.87l-.16-.52a1.57,1.57,0,0,1-1.28.61,1.35,1.35,0,0,1-1.46-1.4c0-.79.6-1.29,1.65-1.29h.92V19c0-.56-.32-.74-.79-.74a3.06,3.06,0,0,0-1.32.3l-.3-.84a4.45,4.45,0,0,1,1.72-.35c1.24,0,1.78.57,1.78,1.68v2.78ZM55.47,20h-.73c-.48,0-.7.24-.7.57a.58.58,0,0,0,.5.64h.14a1.33,1.33,0,0,0,.79-.29Z"/><path class="cls-1" d="M58.63,18.64c0,.69,1.89.48,1.89,1.91,0,.79-.59,1.41-1.72,1.41a2.87,2.87,0,0,1-1.32-.32l.24-.79a2.05,2.05,0,0,0,1,.31c.39,0,.64-.21.64-.48,0-.79-1.86-.53-1.86-2,0-.65.5-1.22,1.67-1.22a3.47,3.47,0,0,1,1.24.21l-.16.85a2.63,2.63,0,0,0-1.05-.23c-.4,0-.6.13-.6.37"/><path class="cls-1" d="M65.88,22c-1.69,0-2.61-1.12-2.61-3.15,0-1.87.9-3.07,2.61-3.07a3.76,3.76,0,0,1,2.06.5l-.45,1A2.47,2.47,0,0,0,66,16.77c-1,0-1.5.71-1.5,2S65,20.91,66,20.91a2.8,2.8,0,0,0,1.58-.56l.38,1a3.61,3.61,0,0,1-2.06.65"/><path class="cls-1" d="M71.64,21.87l-.18-.53a1.73,1.73,0,0,1-1.37.62c-1.09,0-1.57-.61-1.57-1.81V17.49h1.16v2.66c0,.67.24.91.79.91a1.38,1.38,0,0,0,.79-.26V17.49h1.17v4.38Z"/><path class="cls-1" d="M73.42,20.71v-5h1.15v4.94c0,.36.23.42.71.42v.79a3.79,3.79,0,0,1-.64.07c-.89,0-1.21-.48-1.21-1.25"/><path class="cls-1" d="M77.66,22c-.79,0-1.29-.36-1.29-1.46V18.32h-.65v-.83h.65V16.7l1.16-.37v1.13h1.21v.83H77.52v2.17a.43.43,0,0,0,.36.49H78a1.54,1.54,0,0,0,.67-.16l.18.86a2.54,2.54,0,0,1-1.18.29"/><path class="cls-1" d="M82.66,21.87l-.18-.53a1.71,1.71,0,0,1-1.36.62c-1.09,0-1.57-.61-1.57-1.81V17.49H80.7v2.66c0,.67.24.91.79.91a1.39,1.39,0,0,0,.79-.26V17.49h1.17v4.38Z"/><path class="cls-1" d="M86.87,18.47a1.87,1.87,0,0,0-.54-.07,1.27,1.27,0,0,0-.79.29v3.15H84.37V17.49h.79l.12.59a1.17,1.17,0,0,1,1-.67,1.76,1.76,0,0,1,.5.06Z"/><path class="cls-1" d="M90.18,21.87,90,21.35a1.58,1.58,0,0,1-1.28.61,1.35,1.35,0,0,1-1.46-1.24,1.07,1.07,0,0,1,0-.16c0-.79.6-1.29,1.65-1.29h.92V19c0-.56-.32-.74-.79-.74a3,3,0,0,0-1.31.3l-.3-.84a4.45,4.45,0,0,1,1.73-.35c1.24,0,1.78.57,1.78,1.68v2.78ZM89.85,20h-.72c-.48,0-.71.24-.71.57a.58.58,0,0,0,.52.64h.13a1.36,1.36,0,0,0,.79-.29Z"/><path class="cls-1" d="M93,18.64c0,.69,1.89.48,1.89,1.91,0,.79-.59,1.41-1.72,1.41a2.87,2.87,0,0,1-1.32-.32l.24-.79a2.05,2.05,0,0,0,1,.31c.38,0,.64-.21.64-.48,0-.79-1.87-.53-1.87-2,0-.65.49-1.22,1.67-1.22a3.48,3.48,0,0,1,1.24.21l-.17.85a2.59,2.59,0,0,0-1-.23c-.41,0-.6.13-.6.37"/><path class="cls-1" d="M95.71,20.61h1.18v1.33c0,.75-.43,1.06-1.18,1.14v-.61c.17,0,.28-.19.28-.61l-.28-.13Z"/><path class="cls-1" d="M50.49,29.81v-5h1.15v4.94c0,.37.23.42.71.42V31a3.77,3.77,0,0,1-.64.07c-.89,0-1.21-.44-1.21-1.22"/><path class="cls-1" d="M55.8,31l-.16-.52a1.57,1.57,0,0,1-1.28.61,1.36,1.36,0,0,1-1.46-1.24,1.32,1.32,0,0,1,0-.16c0-.79.6-1.3,1.65-1.3h.92v-.22c0-.57-.32-.74-.79-.74a3.22,3.22,0,0,0-1.32.29l-.3-.79a4.43,4.43,0,0,1,1.72-.36c1.24,0,1.78.57,1.78,1.69V31Zm-.33-1.91h-.73c-.48,0-.7.23-.7.56a.59.59,0,0,0,.51.65h.13a1.32,1.32,0,0,0,.79-.29Z"/><path class="cls-1" d="M58.63,27.75c0,.68,1.89.47,1.89,1.91,0,.79-.59,1.41-1.72,1.41a2.77,2.77,0,0,1-1.32-.32l.24-.79a2,2,0,0,0,1,.31c.39,0,.64-.22.64-.49,0-.79-1.87-.53-1.87-2,0-.65.5-1.23,1.67-1.23a3.66,3.66,0,0,1,1.24.21l-.15.81a2.62,2.62,0,0,0-1.05-.22c-.4,0-.6.17-.6.42"/><path class="cls-1" d="M64.14,31H63l1.63-6h2l1.57,6H66.85l-.31-1.36H64.46Zm1.21-5-.66,2.7h1.65L65.71,26Z"/><path class="cls-1" d="M71.29,27.55a2.21,2.21,0,0,0-.54-.07,1.24,1.24,0,0,0-.79.3v3.15H68.79V26.6h.79l.13.59a1.17,1.17,0,0,1,1-.68,2.1,2.1,0,0,1,.5.06Z"/><path class="cls-1" d="M73.61,31.06c-.79,0-1.29-.36-1.29-1.46V27.43h-.68V26.6h.65v-.79l1.16-.38v1.14h1.17v.83H73.48v2.15a.43.43,0,0,0,.36.49h.1a1.63,1.63,0,0,0,.67-.16l.18.88a2.59,2.59,0,0,1-1.18.29"/><path class="cls-1" d="M76.32,29.13a1,1,0,0,0,.88,1.09h.24a2.94,2.94,0,0,0,1.28-.37l.22.83a3.55,3.55,0,0,1-1.65.43,2,2,0,0,1-2.17-1.9,2.07,2.07,0,0,1,0-.38c0-1.35.65-2.28,2.06-2.28s1.84,1,1.84,2.09v.5Zm.79-1.73c-.58,0-.79.53-.79,1h1.58c0-.6-.15-1.08-.74-1.08Z"/><path class="cls-1" d="M80.93,27.75c0,.68,1.9.47,1.9,1.91,0,.79-.59,1.41-1.72,1.41a2.79,2.79,0,0,1-1.32-.32L80,30a2,2,0,0,0,1,.31c.39,0,.65-.22.65-.49,0-.79-1.86-.53-1.86-2,0-.65.49-1.23,1.67-1.23a3.73,3.73,0,0,1,1.24.21l-.17.81a2.56,2.56,0,0,0-1.05-.22c-.4,0-.6.17-.6.42"/><path class="cls-1" d="M87.39,30.87,86.6,31,85.3,26.6h1.3l.93,3.67.94-3.67h1.16l-1.36,4.48c-.37,1.26-1,1.72-1.91,1.72a2.29,2.29,0,0,1-1.23-.43l.36-.79h.11a1.49,1.49,0,0,0,.79.31c.47,0,.79-.32.93-.88Z"/><path class="cls-1" d="M93.22,29.13a1,1,0,0,0,.88,1.09h.24a2.9,2.9,0,0,0,1.28-.37l.23.83a3.63,3.63,0,0,1-1.65.43A2,2,0,0,1,92,29.19a1.93,1.93,0,0,1,0-.38c0-1.35.65-2.28,2.06-2.28s1.84,1,1.84,2.09v.5ZM94,27.4c-.58,0-.79.53-.79,1H94.8c0-.6-.15-1.08-.76-1.08Z"/><path class="cls-1" d="M96.83,29.81v-5H98v4.94c0,.37.22.42.7.42V31a3.67,3.67,0,0,1-.64.07c-.9,0-1.22-.44-1.22-1.22"/><path class="cls-1" d="M52.34,38h-.66v2.1H50.5V34h1.83c1.23,0,2.29.59,2.29,1.89A2.07,2.07,0,0,1,52.55,38h-.21m0-2.94h-.63v2h.63a1,1,0,0,0,1.09-.91,1.09,1.09,0,0,0,0-.18c0-.62-.44-.94-1.12-.94Z"/><path class="cls-1" d="M57.8,40.08l-.16-.51a1.58,1.58,0,0,1-1.28.58,1.36,1.36,0,0,1-1.46-1.24c0-.05,0-.11,0-.16,0-.79.6-1.3,1.64-1.3h.92v-.22a.67.67,0,0,0-.52-.79.63.63,0,0,0-.26,0,3.08,3.08,0,0,0-1.31.3L55.11,36a4.43,4.43,0,0,1,1.73-.35c1.24,0,1.77.57,1.77,1.68v2.78Zm-.33-1.91h-.72c-.48,0-.7.23-.7.56a.58.58,0,0,0,.53.63h.11a1.27,1.27,0,0,0,.79-.3Z"/><path class="cls-1" d="M61.23,40.15c-.79,0-1.28-.37-1.28-1.46V36.54H59.3V35.7h.65v-.79l1.15-.38v1.13h1.17v.83H61.1v2.14c0,.31.15.5.46.5a1.48,1.48,0,0,0,.67-.16l.18.86a2.44,2.44,0,0,1-1.18.31"/><path class="cls-1" d="M65.65,36.68a1.87,1.87,0,0,0-.54-.07,1.27,1.27,0,0,0-.79.29V40H63.16V35.7h.79l.13.59a1.17,1.17,0,0,1,1-.67,2.09,2.09,0,0,1,.51.06Z"/><path class="cls-1" d="M66.71,40.08V36.54l-.51-.11V35.7h1.67v4.38Zm0-6.17h1.18V35H66.71Z"/><path class="cls-1" d="M72.81,37.38v2.7H71.64v-2.6c0-.66-.24-1-.79-1a1.29,1.29,0,0,0-.74.27v3.31H68.93V35.7h.79l.2.51a1.63,1.63,0,0,1,1.3-.6,1.39,1.39,0,0,1,1.36.61,1.73,1.73,0,0,1,1.32-.61c1.25,0,1.62.65,1.62,1.76v2.7H74.33v-2.6c0-.66-.28-1-.79-1a1.35,1.35,0,0,0-.74.27,2.81,2.81,0,0,1,0,.61"/><path class="cls-1" d="M80.39,37.88c0,1.5-.79,2.29-2.06,2.29s-2.05-.79-2.05-2.29a2.06,2.06,0,1,1,4.11-.36,1.85,1.85,0,0,1,0,.36m-1.2,0c0-1.06-.31-1.42-.86-1.42s-.85.37-.85,1.42.28,1.43.85,1.43.86-.39.86-1.43"/><path class="cls-1" d="M84,40.08v-2.6c0-.66-.24-1-.79-1a1.4,1.4,0,0,0-.79.27v3.31H81.23V35.7H82l.18.5a1.8,1.8,0,0,1,1.39-.59c1.11,0,1.57.65,1.57,1.76v2.7Z"/><path class="cls-1" d="M86.48,40.08V36.54L86,36.43V35.7h1.68v4.38Zm0-6.17h1.17V35H86.48Z"/><path class="cls-1" d="M92.64,37.88c0,1.5-.79,2.29-2.06,2.29s-2.06-.79-2.06-2.29a2.06,2.06,0,1,1,4.11-.36,2.16,2.16,0,0,1,0,.36m-1.2,0c0-1.06-.32-1.42-.86-1.42s-.85.37-.85,1.42.28,1.43.85,1.43.86-.39.86-1.43"/></g></svg>