<svg xmlns="http://www.w3.org/2000/svg" viewBox="0 0 311.31 102.73"><defs><style>.cls-1{fill:#fff;}</style></defs><title>web-logo-locus-frase</title><g id="figuras"><path class="cls-1" d="M54.21,23.19A7.7,7.7,0,0,0,55.07,19v-.57a7.64,7.64,0,0,0-.86-4.09A3.34,3.34,0,0,0,51.27,13a3.43,3.43,0,0,0-2.91,1.26,7.61,7.61,0,0,0-.79,4.13V19A7.3,7.3,0,0,0,48.44,23a3.31,3.31,0,0,0,2.8,1.26,3.52,3.52,0,0,0,3-1.11M93.13,77.81l-3.66,3a9.53,9.53,0,0,0-6.57-2.69c-2,0-2.94.65-2.94,1.69,0,1.22,1.69,1.76,4.41,2.3,5,1,8.43,2.94,8.43,6.31,0,3.7-3.23,6.46-9.22,6.46-4.45,0-8.18-1.18-10.69-3.37l3.37-3.55a10.72,10.72,0,0,0,7,3.12c2.48,0,3.23-.79,3.23-1.72,0-1.22-1.54-1.9-4.88-2.62-4.92-1.08-7.82-2.76-7.82-6.1,0-3.77,3.7-6.17,9.19-6.17,4.59,0,7.79,1.29,10.15,3.37m-.39-16.4H86.46a33.08,33.08,0,0,1-.79-4.84c-1.08,3.26-3.52,5.53-6.53,5.53a5.4,5.4,0,0,1-4.34-1.76c-1.08-1.18-1.51-3.48-1.51-7.21V42.25h6.85V52.33c0,2.83.14,3.8.47,4.31a2.22,2.22,0,0,0,2.08.93,4.48,4.48,0,0,0,3-1V42.25h6.89V55.49c0,1.08.07,5.56.18,5.92M62,18.67c0,6.17-3.77,10.19-10.76,10.19-7.21,0-10.62-4-10.62-10.19s4-10.16,10.73-10.16c7,0,10.66,3.95,10.66,10.16M41.15,51.87c0-6.06,4.16-10.15,10.48-10.15,5.49,0,8.36,2.33,9.72,5.6L55.22,49a3.08,3.08,0,0,0-3.37-2.48,3.27,3.27,0,0,0-2.69,1.08,6.22,6.22,0,0,0-1.08,4.05v.39a6.35,6.35,0,0,0,1.08,4.06,3.54,3.54,0,0,0,2.76,1.08c2.19,0,3.19-.75,3.59-2.69l6,1.29c-1.08,3.91-4.23,6.24-9.87,6.24-7,0-10.44-3.84-10.44-10.19m-14-23H12V8.5h8V21.11l-1,2.64.28.28,2.52-1.17h5.4Zm75,28.65a2.06,2.06,0,0,0,.4-1.74L99.09,40.57A2.06,2.06,0,0,0,98,39.17L83.91,32.4a2.06,2.06,0,0,0-1.79,0L68.59,38.91a3.3,3.3,0,0,1-2.86,0l-3-1.45a1.24,1.24,0,0,1-.43-1.88l8.17-10.24a2.06,2.06,0,0,0,.4-1.74L67.38,8.37A2.06,2.06,0,0,0,66.27,7L52.2.2a2.06,2.06,0,0,0-1.79,0L36.88,6.72a3.29,3.29,0,0,1-2.86,0L20.49.2a2.06,2.06,0,0,0-1.79,0L4.64,7a2.06,2.06,0,0,0-1.11,1.4L.05,23.59a2.06,2.06,0,0,0,.4,1.74l9.73,12.21a2.06,2.06,0,0,0,1.61.78H27.41A2.06,2.06,0,0,0,29,37.54l5.47-6.86a1.24,1.24,0,0,1,1.93,0l3.91,4.9a1.24,1.24,0,0,1-.43,1.88l-3.55,1.71a2.06,2.06,0,0,0-1.11,1.4L31.76,55.79a2.06,2.06,0,0,0,.4,1.74l9.73,12.21a2.06,2.06,0,0,0,1.61.77H59.11a2.06,2.06,0,0,0,1.61-.77l5.47-6.86a1.24,1.24,0,0,1,1.93,0L72,67.79a1.24,1.24,0,0,1-.43,1.88l-3.56,1.71a2.06,2.06,0,0,0-1.11,1.4L63.47,88a2.06,2.06,0,0,0,.4,1.74l9.73,12.21a2.06,2.06,0,0,0,1.61.78H90.82a2.06,2.06,0,0,0,1.61-.78l9.73-12.21a2.06,2.06,0,0,0,.4-1.74L99.09,72.78A2.06,2.06,0,0,0,98,71.38l-3.56-1.71A1.24,1.24,0,0,1,94,67.79Z"/><path class="cls-1" d="M192.72,31.46l.11-.32V27.71l-.12-.4.41.11h.71c1.18,0,1.73.62,1.73,1.95v.05c0,1.29-.58,1.93-1.77,1.93h-.66Zm-1,.82h2.09a2.65,2.65,0,0,0,3-2.87,2.62,2.62,0,0,0-2.9-2.9h-2.17Zm-6-2.29-.4.17.22-.3.69-2.06.19-1,.2,1,.65,2,.25.33L187,30Zm2.39,2.29h1.17l-2.11-5.77h-1.43l-2.18,5.77h1.12l.5-1.36h2.45Zm-10.53-.82.11-.32V27.71l-.12-.4.41.11h.71c1.18,0,1.73.62,1.73,1.95v.05c0,1.29-.58,1.93-1.77,1.93H178Zm-1,.82h2.09a2.65,2.65,0,0,0,3-2.87,2.62,2.62,0,0,0-2.9-2.9h-2.17Zm-5.37.15a2.2,2.2,0,0,0,2.36-2.49V26.5H172.4V30c0,1-.37,1.48-1.25,1.48s-1.3-.5-1.3-1.5V26.5h-1.14v3.42a2.2,2.2,0,0,0,2.43,2.49m-6.58-.15h1.14V26.5h-1.14Zm-5.25.15a2.43,2.43,0,0,0,2.6-1.92l-1.13-.27a1.31,1.31,0,0,1-1.44,1.22c-1,0-1.53-.78-1.53-2v-.09c0-1.3.59-2,1.55-2a1.29,1.29,0,0,1,1.41,1.18H162a2.42,2.42,0,0,0-2.59-2.13,2.75,2.75,0,0,0-2.74,3c0,1.83,1.08,3,2.68,3M147.68,30l-.4.17.22-.3.69-2.06.19-1,.2,1,.65,2,.25.33L149,30Zm2.39,2.29h1.17l-2.11-5.77H147.7l-2.18,5.77h1.12l.5-1.36h2.45Zm-10.16,0h3.73v-1h-2.25l-.5.19h0l.18-.49V26.5h-1.15Zm-7.68-5.77v3.3l.2,1.41,0,.13L132,30.22,129.6,26.5h-1.26v5.77h1v-3.5l-.17-1.37.45.95,2.55,3.93h1.06V26.5Zm-10.91,5.77h4.32v-1h-2.88l-.5.14.13-.46V29.87l-.05-.21.46.12h1.76v-1h-2l-.19.07.06-.26v-.84l-.12-.43.49.1h2.79v-1h-4.22Z"/><path class="cls-1" d="M307.75,20.5l-.4.17.22-.3.69-2.06.19-1,.2,1,.65,2,.25.33-.44-.19Zm2.39,2.29h1.17L309.2,17h-1.43l-2.18,5.77h1.12l.5-1.36h2.45Zm-8.09,0h1.14V17H302Zm-5.25.15A2.43,2.43,0,0,0,299.4,21l-1.13-.27A1.31,1.31,0,0,1,296.82,22c-1,0-1.53-.78-1.53-2v-.09c0-1.3.59-2,1.55-2A1.29,1.29,0,0,1,298.25,19h1.19a2.42,2.42,0,0,0-2.59-2.13,2.75,2.75,0,0,0-2.74,3c0,1.83,1.08,3,2.68,3M290.38,17v3.3l.2,1.41,0,.13-.47-1.12L287.74,17h-1.26v5.77h1v-3.5l-.17-1.37.45.95,2.55,3.93h1.06V17Zm-10.91,5.77h4.32v-1h-2.88l-.5.14.13-.46V20.38l-.05-.21.46.12h1.76v-1h-2l-.19.07.06-.26v-.84l-.12-.43.49.1h2.79V17h-4.22Zm-5.25.15a2.43,2.43,0,0,0,2.6-1.92l-1.13-.27A1.31,1.31,0,0,1,274.24,22c-1,0-1.53-.78-1.53-2v-.09c0-1.3.59-2,1.55-2A1.29,1.29,0,0,1,275.67,19h1.19a2.42,2.42,0,0,0-2.59-2.13,2.75,2.75,0,0,0-2.74,3c0,1.83,1.08,3,2.69,3m-7.18,0c1.43,0,2.16-.76,2.16-1.77s-1.06-1.48-2-1.75c-.77-.23-1.46-.4-1.46-.9s.29-.76,1-.76,1.18.3,1.3.9h1.1a2.11,2.11,0,0,0-2.39-1.77c-1.36,0-2.12.76-2.12,1.72,0,1.11,1,1.45,2,1.72.77.22,1.46.38,1.46.91s-.25.81-1,.81a1.38,1.38,0,0,1-1.53-1h-1.17A2.39,2.39,0,0,0,267,22.93m-9.17-.14h4.32v-1h-2.88l-.5.14.13-.46V20.38l-.05-.21.46.12h1.76v-1h-2l-.19.07.06-.26v-.84l-.12-.43.49.1h2.79V17h-4.22Zm-6.28,0h3.73v-1h-2.25l-.5.19h0l.18-.49V17h-1.15ZM246,22c-1.1,0-1.67-.77-1.67-2.09v0c0-1.33.58-2.08,1.68-2.08s1.67.76,1.67,2.08v0c0,1.32-.58,2.09-1.68,2.09m0,.93a2.77,2.77,0,0,0,2.89-3,2.74,2.74,0,0,0-2.82-3,2.78,2.78,0,0,0-2.89,3c0,1.84,1,3,2.82,3m-9.21-1,.11-.32V18.23l-.12-.4.41.11h.71c1.18,0,1.73.62,1.73,1.95v.05c0,1.29-.58,1.93-1.77,1.93h-.66Zm-1,.82h2.09a2.65,2.65,0,0,0,3-2.87,2.62,2.62,0,0,0-2.9-2.9h-2.17Zm-6-2.29-.4.17.22-.3.69-2.06.19-1,.2,1,.65,2,.25.33-.44-.19Zm2.39,2.29h1.17L231.18,17h-1.43l-2.18,5.77h1.12l.5-1.36h2.45Zm-12.49,0h1.15V20.58L222.86,17h-1.24l-1.23,2.28-.13.63h0l-.14-.62L218.86,17h-1.3l2.07,3.56ZM209.24,20.5l-.4.17.22-.3.69-2.06.19-1,.2,1,.65,2,.25.33-.44-.19Zm2.39,2.29h1.17L210.7,17h-1.43l-2.18,5.77h1.12l.5-1.36h2.45Zm-8.09,0h1.14V17h-1.14Zm-5.25.15a2.43,2.43,0,0,0,2.6-1.92l-1.13-.27A1.31,1.31,0,0,1,198.32,22c-1,0-1.53-.78-1.53-2v-.09c0-1.3.59-2,1.55-2A1.29,1.29,0,0,1,199.74,19h1.19a2.42,2.42,0,0,0-2.59-2.13,2.75,2.75,0,0,0-2.74,3c0,1.83,1.08,3,2.68,3M191.87,17v3.3l.2,1.41,0,.13-.47-1.12L189.23,17H188v5.77h1v-3.5l-.17-1.37.45.95,2.55,3.93h1.06V17ZM182,20.5l-.4.17.22-.3.69-2.06.19-1,.2,1,.65,2,.25.33-.44-.19Zm2.39,2.29h1.17L183.43,17H182l-2.18,5.77h1.12l.5-1.36h2.45Zm-10.07,0h1.11v-2.1l-.1-.33.51.14h1.83v-1h-2.05l-.28.07.1-.24v-1l-.13-.43.5.1h2.56V17h-4ZM170.19,17v3.3l.2,1.41,0,.13-.47-1.12L167.56,17H166.3v5.77h1v-3.5l-.17-1.37.45.95,2.55,3.93h1.06V17Zm-8.11,5.77h1.14V17h-1.14Zm-10.59,0h4.32v-1h-2.88l-.5.14.13-.46V20.38l-.05-.21.46.12h1.76v-1h-2l-.19.07.06-.26v-.84l-.12-.43.49.1h2.79V17h-4.22Zm-6.51-3,0-.23V18.21l-.11-.37.4.09h1c.81,0,1.14.33,1.14.88,0,.74-.28,1-1.42,1h-.77Zm-1.07,3H145v-2l0-.32.43.07H146a5,5,0,0,0,.76-.05,2.34,2.34,0,0,1,.74,2v.31h1.25v-.16c0-1.09-.27-1.69-.94-2a2.48,2.48,0,0,0-.85-.17v-.12a1.61,1.61,0,0,0,1.69-1.72c0-1-.76-1.63-2.23-1.63h-2.49Zm-5-.89h-1.12l-.41.09.09-.3V20l.28.1h1.4c.54,0,.85.31.85.92s-.35.85-1.09.85m-1.13-4h1.14c.61,0,.85.28.85.76s-.3.83-.93.83h-1.37V18.16l-.11-.33ZM139.43,20A1.49,1.49,0,0,0,141,18.59c0-1-.66-1.57-2.14-1.57H136.4v5.77H139c1.51,0,2.24-.47,2.24-1.54S140.45,20,139.43,20m-8.61,2c-1.1,0-1.67-.77-1.67-2.09v0c0-1.33.58-2.08,1.68-2.08s1.67.76,1.67,2.08v0c0,1.32-.58,2.09-1.68,2.09m0,.93a2.77,2.77,0,0,0,2.89-3,2.74,2.74,0,0,0-2.82-3,2.78,2.78,0,0,0-2.89,3c0,1.84,1,3,2.82,3m-7.31,0c1.43,0,2.16-.76,2.16-1.77s-1.06-1.48-2-1.75c-.76-.23-1.46-.4-1.46-.9s.29-.76,1-.76,1.18.3,1.3.9h1.1a2.11,2.11,0,0,0-2.39-1.77c-1.36,0-2.12.76-2.12,1.72,0,1.11,1,1.45,2,1.72.76.22,1.46.38,1.46.91s-.25.81-1,.81A1.39,1.39,0,0,1,122,21H120.8a2.39,2.39,0,0,0,2.68,1.94"/><path class="cls-1" d="M275.18,13.31h3.73v-1h-2.25l-.5.19h0l.18-.49V7.54h-1.15Zm-6-2.29-.4.17.22-.3.69-2.06.19-1,.2,1,.65,2,.25.33-.44-.19Zm2.39,2.29h1.17l-2.11-5.77H269.2L267,13.31h1.12l.5-1.36h2.45Zm-8-5.77v3.3l.2,1.41,0,.13-.47-1.12L261,7.54H259.7v5.77h1V9.81l-.17-1.37.45.95,2.55,3.93h1.06V7.54Zm-9.47,5c-1.1,0-1.67-.77-1.67-2.09v0c0-1.33.58-2.08,1.68-2.08s1.67.76,1.67,2.08v0c0,1.32-.58,2.09-1.68,2.09m0,.93a2.77,2.77,0,0,0,2.89-3,2.74,2.74,0,0,0-2.82-3,2.78,2.78,0,0,0-2.89,3c0,1.84,1,3,2.82,3m-6.67-.15h1.14V7.54h-1.14Zm-5.25.15a2.43,2.43,0,0,0,2.6-1.92l-1.13-.27a1.31,1.31,0,0,1-1.44,1.22c-1,0-1.53-.78-1.53-2v-.09c0-1.3.59-2,1.55-2a1.29,1.29,0,0,1,1.41,1.18h1.19a2.42,2.42,0,0,0-2.59-2.13,2.75,2.75,0,0,0-2.74,3c0,1.83,1.08,3,2.69,3M233.86,11l-.4.17.22-.3.69-2.06.19-1,.2,1,.65,2,.25.33-.44-.19Zm2.39,2.29h1.17l-2.11-5.77h-1.43l-2.18,5.77h1.12l.5-1.36h2.45Zm-8-5.77v3.3l.2,1.41,0,.13L228,11.26l-2.39-3.72h-1.26v5.77h1V9.81l-.17-1.37.45.95,2.55,3.93h1.06V7.54Zm-10.41,2.82,0-.23V8.73l-.11-.37.4.09h1c.81,0,1.14.33,1.14.88,0,.74-.28,1-1.42,1h-.76Zm-1.07,3h1.09v-2l0-.32.43.07h.58a5,5,0,0,0,.77-.05,2.34,2.34,0,0,1,.74,2v.31h1.25v-.16c0-1.09-.27-1.69-.94-2a2.48,2.48,0,0,0-.85-.17v-.12a1.61,1.61,0,0,0,1.69-1.72c0-1-.76-1.63-2.23-1.63H216.8Zm-7,0h4.32v-1h-2.88l-.5.14.13-.46V10.9l-.05-.21.46.12H213v-1h-2l-.19.07.06-.26V8.82l-.12-.43.49.1H214v-1h-4.22Zm-5.42,0h1.11V8.81l-.11-.49h0l.49.23h1.36v-1H202.6v1H204l.49-.23h0l-.1.5ZM199,7.54v3.3l.2,1.41,0,.13-.47-1.12-2.39-3.72h-1.26v5.77h1V9.81L196,8.43l.45.95L199,13.31h1.06V7.54Zm-8.11,5.77h1.14V7.54h-1.14Zm-9.51,0h3.73v-1H182.9l-.5.19h0l.18-.49V7.54h-1.15Zm-6-2.29-.4.17.22-.3.69-2.06.19-1,.2,1,.65,2,.25.33-.44-.19Zm2.39,2.29H179l-2.11-5.77h-1.43l-2.18,5.77h1.12l.5-1.36h2.45Zm-7.16-5.77-1.3,4.13-.15,1.27-.15-1.27-1.36-4.13h-1.21l2,5.77h1.3l2-5.77Zm-7.8,5.77H164V7.54h-1.14Zm-5.42,0h1.11V8.81l-.11-.49h0l.49.23h1.36v-1h-4.64v1H157l.49-.23h0l-.1.5Zm-6,.14c1.43,0,2.16-.76,2.16-1.77s-1.06-1.48-2-1.75c-.76-.23-1.46-.4-1.46-.9s.29-.76,1-.76,1.18.3,1.3.9h1.1a2.11,2.11,0,0,0-2.39-1.77c-1.36,0-2.12.76-2.12,1.72,0,1.11,1,1.45,2,1.72.76.22,1.46.38,1.46.91s-.25.81-1,.81a1.38,1.38,0,0,1-1.53-1h-1.17a2.39,2.39,0,0,0,2.68,1.94m-9.17-.14h4.32v-1h-2.88l-.5.14.13-.46V10.9l-.05-.21.46.12h1.76v-1h-2l-.19.07.06-.26V8.82l-.12-.43.49.1h2.79v-1h-4.22Zm-6.61,0h1.11v-2.1l-.1-.33.51.14H139V10H137l-.28.07.1-.24v-1l-.13-.43.5.1h2.56v-1h-4Zm-7.82-3.7a.75.75,0,0,1-.77-.84v0a.76.76,0,0,1,.8-.81.73.73,0,0,1,.77.81v0a.75.75,0,0,1-.79.84m0,.66a1.47,1.47,0,0,0,1.56-1.51,1.44,1.44,0,0,0-1.52-1.51,1.46,1.46,0,0,0-1.58,1.51,1.45,1.45,0,0,0,1.54,1.51m-5.34,3h1.08V7.54h-1a2.41,2.41,0,0,1-1.76,1.85v1.06c.82,0,1.33-.68,1.75-1.55l0,0-.06.38Z"/><path class="cls-1" d="M224.91,48.8h4.4v-1h-2.82l-.69.22.1-.17c.43-1.33,3.44-1.54,3.44-3.32,0-1.11-.82-1.68-2.1-1.68a2.5,2.5,0,0,0-2.37,1.5l1,.51c.36-.7.65-1.06,1.36-1.06s1,.27,1,.73c0,1.26-3.28,1.3-3.28,4Zm-6.84,0h4.4v-1h-2.82L219,48l.1-.17c.43-1.33,3.44-1.54,3.44-3.32,0-1.11-.82-1.68-2.1-1.68a2.5,2.5,0,0,0-2.37,1.5l1,.51c.36-.7.65-1.06,1.36-1.06s1,.27,1,.73c0,1.26-3.28,1.3-3.28,4ZM213.23,48c-.85,0-1.31-.67-1.31-2v-.21c0-1.35.44-2.07,1.29-2.07s1.31.73,1.31,2.07V46c0,1.34-.44,2-1.29,2m0,.89c1.56,0,2.45-1.1,2.45-3s-.89-3-2.44-3-2.45,1.14-2.45,3,.89,3,2.44,3m-9.3-.12h4.4v-1H205.5l-.69.22.1-.17c.43-1.33,3.44-1.54,3.44-3.32,0-1.11-.82-1.68-2.1-1.68a2.5,2.5,0,0,0-2.37,1.5l1,.51c.36-.7.65-1.06,1.36-1.06s1,.27,1,.73c0,1.26-3.28,1.3-3.28,4Zm-9.74-3,0-.23V44.22l-.11-.37.4.09h1c.81,0,1.14.33,1.14.88,0,.74-.28,1-1.42,1h-.77Zm-1.07,3h1.09v-2l0-.32.43.07h.58a5,5,0,0,0,.77-.05,2.34,2.34,0,0,1,.74,2v.31h1.25v-.16c0-1.09-.27-1.69-.94-2a2.48,2.48,0,0,0-.85-.17v-.12a1.61,1.61,0,0,0,1.69-1.72c0-1-.76-1.63-2.23-1.63h-2.49Zm-6-2.29-.4.17.22-.3.69-2.06.19-1,.2,1,.65,2,.25.33-.44-.19Zm2.39,2.29h1.17L188.57,43h-1.43l-2.18,5.77h1.12l.5-1.36H189Zm-13.62,0h1V45.13l-.12-1.77h.06l.36,1.26,1.64,4.18h.74l1.63-4.2.36-1.23h.05l-.1,1.8V48.8h1V43h-1.69l-1.43,3.82L179.28,48h0l-.18-1.17L177.59,43h-1.7Zm-9.51,0h3.73v-1h-2.25l-.5.19h0l.18-.49V43h-1.15Zm-7,0h4.32v-1H160.8l-.5.14.13-.46V46.39l-.05-.21.46.12h1.76v-1h-2l-.19.07.06-.26v-.84l-.12-.43.49.1h2.79V43h-4.22ZM152.6,48l.11-.32V44.23l-.12-.4.41.11h.71c1.18,0,1.73.62,1.73,1.95v.05c0,1.29-.58,1.93-1.77,1.93H153Zm-1,.82h2.09a2.65,2.65,0,0,0,3-2.87,2.62,2.62,0,0,0-2.9-2.9h-2.17Zm-9.32-2.29-.4.17.22-.3.69-2.06.19-1,.2,1,.65,2,.25.33-.44-.19Zm2.39,2.29h1.17L143.7,43h-1.43l-2.18,5.77h1.12l.49-1.36h2.45Zm-8-5.77v3.3l.2,1.41,0,.13-.47-1.12L134,43h-1.26V48.8h1V45.3l-.17-1.37.45.95,2.55,3.93h1.06V43Zm-2.52-.85a2.48,2.48,0,0,1,.21-.91h.23a1.48,1.48,0,0,0,1.5,1.16c.71,0,1-.33,1.1-1l.05-.43h-.71l0,.22a2.21,2.21,0,0,1-.23.9H136a1.5,1.5,0,0,0-1.52-1.17c-.65,0-1,.32-1.05,1.07l-.05.41h.71a1.55,1.55,0,0,1,0-.2m-5.59,6.63h1.14V43h-1.14ZM124.9,43l-1.3,4.13-.15,1.27-.15-1.27L121.94,43h-1.21l2,5.77H124l2-5.77Z"/><path class="cls-1" d="M115.19,75c0-.81.66-5.85,1.22-6.75H117c.52.92,1.22,6,1.22,6.75v.73h-3.07Zm.08-10.5h2.88v2.64h-2.88Z"/><path class="cls-1" d="M120.74,60.95h2.43v12h-2.43Z"/><path class="cls-1" d="M134.09,72.9h-2.45a4.29,4.29,0,0,1-.22-1.82l0-2.73v-.08l-.38.47a7.89,7.89,0,0,1-1.88.41c-.81.16-1.19.57-1.19,1.26s.46,1.12,1.31,1.12a2.57,2.57,0,0,0,1.87-.79,3,3,0,0,1-3.07,2.42c-1.61,0-2.7-.79-2.7-2.4s1-2.34,3.34-2.56c1.74-.17,2.53-.22,2.72-.49v-.22c0-1.15-.6-1.61-1.75-1.61A2.84,2.84,0,0,0,127.21,67l-1.72-1.28a6,6,0,0,1,4.3-1.52c2.64,0,3.92,1.19,3.92,3.16v2.66A9.38,9.38,0,0,0,134.09,72.9Z"/><path class="cls-1" d="M140,68.69a4.21,4.21,0,0,1,4.39-4.46,4,4,0,0,1,4,2.31l-2.21.79a1.65,1.65,0,0,0-1.75-1.22,1.78,1.78,0,0,0-1.39.51,3,3,0,0,0-.57,2v.13a2.91,2.91,0,0,0,.58,2,2,2,0,0,0,1.47.57A1.56,1.56,0,0,0,146.29,70l2.15.63c-.58,1.64-1.85,2.54-4.13,2.54C141.37,73.17,140,71.37,140,68.69Z"/><path class="cls-1" d="M150.26,60.52H153a11.89,11.89,0,0,1-.25,2.37h-2.23A16.53,16.53,0,0,1,150.26,60.52Zm.14,4h2.43V72.9H150.4Z"/><path class="cls-1" d="M156.25,72.47c-.49-.52-.68-1.41-.68-3.08v-4.9H158v4.65c0,1.25.11,1.68.27,1.9a1.14,1.14,0,0,0,1,.4,2.6,2.6,0,0,0,1.72-.55V64.49h2.43v5.69a18.92,18.92,0,0,0,.14,2.72h-2.29a6.3,6.3,0,0,1-.27-2,3.37,3.37,0,0,1-3,2.26A2.22,2.22,0,0,1,156.25,72.47Z"/><path class="cls-1" d="M174.47,60.95v12h-2.24L172.1,71a3.57,3.57,0,0,1-3.16,2.17,2.74,2.74,0,0,1-2-.81c-.57-.54-1.14-1.49-1.14-3.7s.6-3.13,1.11-3.64a2.88,2.88,0,0,1,2.13-.84c1.41,0,2.32.81,3.1,2.15V60.95ZM172.1,71V66.39a4.85,4.85,0,0,0-1.88-.4,1.79,1.79,0,0,0-1.41.47c-.28.28-.54.85-.54,2.24a3.32,3.32,0,0,0,.49,2.23,1.79,1.79,0,0,0,1.3.49A5.41,5.41,0,0,0,172.1,71Z"/><path class="cls-1" d="M185.39,72.9h-2.45a4.29,4.29,0,0,1-.22-1.82l0-2.73v-.08l-.38.47a7.89,7.89,0,0,1-1.88.41c-.81.16-1.19.57-1.19,1.26s.46,1.12,1.31,1.12a2.57,2.57,0,0,0,1.87-.79,3,3,0,0,1-3.07,2.42c-1.61,0-2.7-.79-2.7-2.4s1-2.34,3.34-2.56c1.74-.17,2.53-.22,2.72-.49v-.22c0-1.15-.6-1.61-1.75-1.61A2.84,2.84,0,0,0,178.51,67l-1.72-1.28a6,6,0,0,1,4.3-1.52c2.64,0,3.92,1.19,3.92,3.16v2.66A9.38,9.38,0,0,0,185.39,72.9Z"/><path class="cls-1" d="M196,60.95v12h-2.24L193.59,71a3.57,3.57,0,0,1-3.16,2.17,2.74,2.74,0,0,1-2-.81c-.57-.54-1.14-1.49-1.14-3.7s.6-3.13,1.11-3.64a2.88,2.88,0,0,1,2.13-.84c1.41,0,2.32.81,3.1,2.15V60.95ZM193.59,71V66.39a4.85,4.85,0,0,0-1.88-.4,1.79,1.79,0,0,0-1.41.47c-.28.28-.54.85-.54,2.24a3.32,3.32,0,0,0,.49,2.23,1.79,1.79,0,0,0,1.3.49A5.41,5.41,0,0,0,193.59,71Z"/><path class="cls-1" d="M124.12,83.77l-1-.38.27.73v3.65c0,.57.35.74.82.74h1.55v1.6a5.22,5.22,0,0,1-2.21.43c-1.79-.06-2.34-.92-2.37-2.77V83.34l-.55.43h-1.09v-1.9h1.55L121.7,79h1.77v1.83l-.54,1h3v1.9Z"/><path class="cls-1" d="M136.08,90.28h-2.45a4.29,4.29,0,0,1-.22-1.82l0-2.73v-.08l-.38.47a7.89,7.89,0,0,1-1.88.41c-.81.16-1.19.57-1.19,1.26s.46,1.12,1.31,1.12a2.57,2.57,0,0,0,1.87-.79,3,3,0,0,1-3.07,2.42c-1.61,0-2.7-.79-2.7-2.4s1-2.34,3.34-2.56c1.74-.17,2.53-.22,2.72-.49v-.22c0-1.15-.6-1.61-1.75-1.61a2.84,2.84,0,0,0-2.45,1.15l-1.72-1.28a6,6,0,0,1,4.3-1.52c2.64,0,3.92,1.19,3.92,3.16v2.66A9.38,9.38,0,0,0,136.08,90.28Z"/><path class="cls-1" d="M138.47,81.87h2.23l.17,1.83a3.55,3.55,0,0,1,3-2.1,2.07,2.07,0,0,1,1.68.66,2.57,2.57,0,0,1,.58,1.39A3.36,3.36,0,0,1,149,81.6a2.38,2.38,0,0,1,1.85.7c.43.47.63,1.34.63,3v5h-2.42V85.62a3.75,3.75,0,0,0-.24-1.87,1.1,1.1,0,0,0-.95-.4,6.81,6.81,0,0,0-1.74.33v6.59h-2.36V85.62a3.67,3.67,0,0,0-.25-1.87c-.13-.21-.38-.36-.93-.36a6.94,6.94,0,0,0-1.71.3v6.59h-2.45Z"/><path class="cls-1" d="M162.93,86.09c0,2.15-.58,3.16-1.2,3.76a2.64,2.64,0,0,1-1.94.73,3.6,3.6,0,0,1-3.16-2.15v1.85h-2.37v-12h2.39v5.47c.74-1.42,1.66-2.18,3.07-2.18a3,3,0,0,1,2.21.89C162.38,83,162.93,83.79,162.93,86.09Zm-2.51,0c0-1.45-.24-1.93-.51-2.21a1.82,1.82,0,0,0-1.41-.44,4.88,4.88,0,0,0-1.87.38l0,4.63a5,5,0,0,0,2,.41,1.77,1.77,0,0,0,1.3-.51A3.58,3.58,0,0,0,160.42,86.08Z"/><path class="cls-1" d="M165.1,77.91h2.75a11.89,11.89,0,0,1-.25,2.37h-2.23A16.53,16.53,0,0,1,165.1,77.91Zm.14,4h2.43v8.41h-2.43Z"/><path class="cls-1" d="M172.15,86.06v.28a2.19,2.19,0,0,0,2.29,2.45,2.34,2.34,0,0,0,2-.95L178.1,89a4.65,4.65,0,0,1-3.75,1.5c-2.72,0-4.44-1.49-4.44-4.39a4.61,4.61,0,0,1,1.25-3.35,5,5,0,0,1,6.32-.13,4.33,4.33,0,0,1,1.07,3.24v.65h-5.12Zm.52-2.17a2.4,2.4,0,0,0-.52,1.52h4.19a2.19,2.19,0,0,0-.51-1.53,1.82,1.82,0,0,0-1.52-.55A2,2,0,0,0,172.67,83.9Zm1.66-3.37h-1.23l1.8-3.4h2.88v.25Z"/><path class="cls-1" d="M180.71,81.87h2.23l.17,1.83a3.84,3.84,0,0,1,3.21-2.1,2.29,2.29,0,0,1,1.82.66c.44.51.58,1.41.58,3v5h-2.43V85.62c0-1.25,0-1.64-.22-1.87a1.07,1.07,0,0,0-.95-.38,8.31,8.31,0,0,0-1.94.33v6.58h-2.47Z"/><path class="cls-1" d="M197.21,86.06v.28a2.19,2.19,0,0,0,2.29,2.45,2.34,2.34,0,0,0,2-.95l1.64,1.2a4.65,4.65,0,0,1-3.75,1.5c-2.72,0-4.44-1.49-4.44-4.39a4.61,4.61,0,0,1,1.25-3.35,5,5,0,0,1,6.32-.13,4.33,4.33,0,0,1,1.07,3.24v.65h-5.12Zm.52-2.17a2.4,2.4,0,0,0-.52,1.52h4.19a2.19,2.19,0,0,0-.51-1.53,1.82,1.82,0,0,0-1.52-.55A2,2,0,0,0,197.73,83.9Z"/><path class="cls-1" d="M204.92,88.94l1.42-1.36a4.06,4.06,0,0,0,3,1.41c1.28,0,1.61-.47,1.61-1,0-.68-.9-.93-2.26-1.22-1.87-.38-3.32-1-3.32-2.54s1.41-2.7,3.65-2.7a5.87,5.87,0,0,1,4.28,1.53l-1.47,1.15a3.93,3.93,0,0,0-2.88-1.2c-.95,0-1.42.36-1.42.92s.95.87,2.18,1.12c1.88.38,3.48,1,3.48,2.58s-1.26,2.85-3.76,2.85A6.11,6.11,0,0,1,204.92,88.94Z"/><path class="cls-1" d="M222.88,83.77l-1-.38.27.73v3.65c0,.57.35.74.82.74h1.55v1.6a5.22,5.22,0,0,1-2.21.43c-1.79-.06-2.34-.92-2.37-2.77V83.34l-.55.43h-1.09v-1.9h1.55l.63-2.85h1.77v1.83l-.54,1h3v1.9Z"/><path class="cls-1" d="M227.33,89.86c-.49-.52-.68-1.41-.68-3.08v-4.9h2.42v4.65c0,1.25.11,1.68.27,1.9a1.14,1.14,0,0,0,1,.4,2.6,2.6,0,0,0,1.72-.55V81.87h2.43v5.69a18.92,18.92,0,0,0,.14,2.72h-2.29a6.3,6.3,0,0,1-.27-2,3.37,3.37,0,0,1-3,2.26A2.21,2.21,0,0,1,227.33,89.86Z"/><path class="cls-1" d="M245.06,81.87l-3.13,8.61c-.81,2.23-1.71,3.3-3.6,3.3a3.1,3.1,0,0,1-1.2-.19V91.94h.62c1.11,0,1.49-.22,2-1.42l-3.32-8.65H239l1.56,5.42.33,2.1.27-2.1,1.53-5.42Z"/><path class="cls-1" d="M254.82,90.28h-2.45a4.29,4.29,0,0,1-.22-1.82l0-2.73v-.08l-.38.47a7.89,7.89,0,0,1-1.88.41c-.81.16-1.19.57-1.19,1.26s.46,1.12,1.31,1.12a2.57,2.57,0,0,0,1.87-.79,3,3,0,0,1-3.07,2.42c-1.61,0-2.7-.79-2.7-2.4s1-2.34,3.34-2.56c1.74-.17,2.53-.22,2.72-.49v-.22c0-1.15-.6-1.61-1.75-1.61a2.84,2.84,0,0,0-2.45,1.15l-1.72-1.28a6,6,0,0,1,4.3-1.52c2.64,0,3.92,1.19,3.92,3.16v2.66A9.38,9.38,0,0,0,254.82,90.28Z"/><path class="cls-1" d="M256.92,79.79v-.71H260v.71c0,.81-.68,5.83-1.2,6.75h-.63C257.6,85.64,256.92,80.59,256.92,79.79Zm.09,7.86h2.88v2.64H257Z"/></g></svg>