<svg xmlns="http://www.w3.org/2000/svg" xmlns:xlink="http://www.w3.org/1999/xlink" viewBox="0 0 128.75 65.33"><defs><style>.cls-1{fill:none;}.cls-2{clip-path:url(#clip-path);}.cls-3{fill:#fff;}</style><clipPath id="clip-path"><rect class="cls-1" x="850.83" y="-5054.16" width="1366" height="2853.96"/></clipPath></defs><title>web-logo-catolica-valparaiso</title><g id="fondos"><g class="cls-2"><path class="cls-3" d="M2357-4068.16c-47.23-29.33-130.15-46.55-185.15-38.45L919.24-3922.83c-55,8-128.9,47.32-165.1,88.18L-92.21-2882.39c-36.14,40.82-66.83,117.53-68.47,171.4l-39.47,1276.23c-1.64,53.88,24.51,133,58.5,176.35L642.87-260c34,43.35,105.85,87.53,160.52,98.89L2041.44,95.93c54.68,11.35,138.23-.55,186.67-26.79l1117.1-603.48c48.44-26.24,103.93-88.4,123.88-138.48L3941-1859.25c19.95-50.08,22.38-132.65,5.44-184.49l-397.24-1210.5c-16.94-51.9-69.05-117.34-116.29-146.61Z"/></g></g><g id="figuras"><polygon class="cls-3" points="27.14 6.57 27.14 7.59 26 7.59 26 8.22 27.14 8.22 27.14 10.26 27.78 10.26 27.78 8.22 28.93 8.22 28.93 7.59 27.78 7.59 27.78 6.57 27.14 6.57"/><path class="cls-3" d="M27.14,18.38V31.27a14.94,14.94,0,0,1-6,.45v5.66H8.25a19.16,19.16,0,0,1,18.9-19m19.59,19h-13V31.72a14.94,14.94,0,0,1-6-.45V18.38a19.38,19.38,0,0,1,19,19M27.78,57v-9.7c3.31-.85,5.85-4.24,5.94-9.33h13a19.32,19.32,0,0,1-19,19m-.32-25.33a14.27,14.27,0,0,0,5.79.47v5.52c0,4.92-2.44,8.42-5.79,9.16-3.35-.74-5.79-4.24-5.79-9.16V32.19a14.27,14.27,0,0,0,5.79-.47M8.25,38H21.18c.09,5.09,2.65,8.48,6,9.33V57A19.18,19.18,0,0,1,8.25,38m-.54-.31A19.78,19.78,0,1,0,27.49,17.84,19.82,19.82,0,0,0,7.71,37.71"/><path class="cls-3" d="M31.11,10.43,31,11a27,27,0,0,1-3.49,53.69A27,27,0,0,1,24,11l-.13-.54a27.49,27.49,0,1,0,7.25,0"/><path class="cls-3" d="M27.73,4.73,28.07.35A1.45,1.45,0,0,1,27.52,0,1.45,1.45,0,0,1,27,.35l.34,4.38ZM27,4.8l-.75-4s-.41.28-.48.35l.82,3.67Zm-.82.14-1-3.39-.75.28,1.43,3.32Zm-.61.42L23.58,2l-1,.07,2.58,3.53Zm-.68.49-3.4-3.67h-.75V3l3.81,3.18Zm-.54.64L20.52,4a5.4,5.4,0,0,1-.14.85l3.74,2Zm-.41.71L20,5.72l-.34.71,4.08,1.2Zm-.2.78-4.49-.85c-.14.14-.54.71-.54.71l5,.49Zm-.07,1.13V8.68l-5.51-.07L17.66,9a5.27,5.27,0,0,1,.48.56Zm-5.17,1.06.54.56L23.71,10l-.07-.42ZM28.07,4.8l.41.07.82-3.67L28.82.85Zm.82.14.34.21,1.43-3.32-.75-.28Zm.61.42.34.21L32.42,2l-1-.07Zm.68.49.34.35L34.33,3V2.19h-.75Zm.54.64.2.35,3.74-2A5.4,5.4,0,0,1,34.53,4Zm.41.71.14.42,4.08-1.2L35,5.72Zm.2.78.07.35,5-.49s-.41-.56-.54-.71Zm.07,1.13,5.51.42A5.26,5.26,0,0,1,37.39,9l-.48-.35-5.51.07Zm5.17,1.06L31.4,9.6l-.07.42,4.69.71.54-.56"/><path class="cls-3" d="M11.82,53.33a2.56,2.56,0,0,0-.26-.24l-1.79,1.8c-.1.1-.14.17-.09.26a1,1,0,0,0,.16.18c.54.53,1,.48,1.77-.26.89-.9.51-1.45.21-1.75m-1.61,2.58a3.18,3.18,0,0,1-.63-.51l-.46-.48-.42-.39.06-.06a.34.34,0,0,0,.25.09c.13,0,.23-.1.53-.41l1.2-1.21c.22-.22.29-.31.3-.4a.33.33,0,0,0-.09-.27l.06-.06s.12.14.38.4l.59.57a1.56,1.56,0,0,1,.2,2.38,1.52,1.52,0,0,1-2,.36"/><path class="cls-3" d="M13.56,58.71l-1.12-.82c-.22-.16-.44-.33-.67-.48l.05-.07a.33.33,0,0,0,.26.06c.12,0,.21-.14.46-.48l1-1.38c.18-.25.24-.35.24-.44a.33.33,0,0,0-.13-.25l.05-.07c.21.17.38.3.61.46l1.15.84s-.25.33-.37.53L15,56.54a.38.38,0,0,0,.06-.37c0-.12-.12-.18-.37-.37l-.33-.24-.72,1,.34.25a.62.62,0,0,0,.37.17.39.39,0,0,0,.28-.16l.08.06c-.06.09-.11.14-.3.39s-.21.3-.28.39l-.08-.06a.39.39,0,0,0,.07-.28.66.66,0,0,0-.29-.34l-.33-.24-.65.89c-.13.18-.12.23.1.39L13,58c.22.16.39.27.56.24a.5.5,0,0,0,.29-.2l.08.06c-.15.17-.42.55-.42.55"/><path class="cls-3" d="M19.5,58.44a5.21,5.21,0,0,0-.45.39l-2,1.83-.37-.1L17,57.89c0-.36,0-.59,0-.63a.26.26,0,0,0-.15-.22l0-.08.55.28.61.26,0,.08a.36.36,0,0,0-.24,0,.14.14,0,0,0-.09.08,1,1,0,0,0-.05.29l-.17,1.64c0,.32-.06.46-.06.46l.34-.34,1.18-1.16a1,1,0,0,0,.19-.22.12.12,0,0,0,0-.11c0-.07-.12-.12-.18-.15l0-.08.42.22.43.18,0,.08a.28.28,0,0,0-.28,0"/><path class="cls-3" d="M20.72,59.8a3.46,3.46,0,0,1,0-.47l-.72.94.74.23Zm.34,2.29-.64-.17,0-.09a.36.36,0,0,0,.24,0,.14.14,0,0,0,.07-.09,1,1,0,0,0,0-.29l0-.72-.89-.27-.44.59a1,1,0,0,0-.16.25.12.12,0,0,0,0,.11c0,.07.14.1.2.12l0,.09L19,61.46l-.45-.12,0-.09a.28.28,0,0,0,.27-.07,5.17,5.17,0,0,0,.39-.45L21,58.66l.37,0,.11,2.67c0,.36,0,.59,0,.63a.26.26,0,0,0,.18.2l0,.09-.59-.2"/><path class="cls-3" d="M24.55,62.78l-1.34-.22c-.27,0-.54-.09-.81-.12v-.09a.33.33,0,0,0,.26-.07c.1-.08.13-.22.19-.64L23.14,60c.05-.31.05-.42,0-.5a.33.33,0,0,0-.23-.16v-.09l.71.14.73.1,0,.09a.46.46,0,0,0-.41.08c-.09.09-.11.24-.17.62l-.31,1.88c0,.22,0,.26.26.3h.08c.27,0,.44.06.58,0a.5.5,0,0,0,.17-.31l.1,0c-.06.22-.13.68-.13.68"/><path class="cls-3" d="M27,61.49a1,1,0,0,1-.33,0v-.1h.1a.57.57,0,0,0,.36-.09.79.79,0,0,0,.26-.65c0-.71-.39-.75-.65-.76h-.21L26.51,62c0,.39,0,.54,0,.64s.17.14.38.16v.09l-.8,0c-.17,0-.45,0-.67,0V62.8a.33.33,0,0,0,.25-.1c.09-.09.1-.23.11-.66l.05-1.71c0-.31,0-.42,0-.5a.33.33,0,0,0-.25-.13v-.09l.59,0h.75a2.93,2.93,0,0,1,.56.07.8.8,0,0,1,.67.85c0,.66-.54.94-1.13.92"/><path class="cls-3" d="M29.79,60.72a3.45,3.45,0,0,1-.18-.43l-.3,1.15.77-.08Zm1.2,2-.65.09v-.09a.36.36,0,0,0,.23-.08.14.14,0,0,0,0-.11,1,1,0,0,0-.1-.27l-.31-.66-.92.09-.18.71a1,1,0,0,0-.05.29.13.13,0,0,0,0,.1.37.37,0,0,0,.23,0v.09l-.47,0-.46.07v-.09a.28.28,0,0,0,.23-.17,5.22,5.22,0,0,0,.19-.56l.78-2.59.35-.1,1.14,2.42c.16.33.27.53.29.56a.26.26,0,0,0,.25.12v.09l-.62,0"/><path class="cls-3" d="M32.79,59.22l-.2.07L33,60.72l.23,0,.18-.07c.06,0,.36-.18.2-.83s-.58-.59-.77-.54M35,61.84a.85.85,0,0,1-.89-.21c-.14-.11-.62-.48-.95-.77l-.2.05.17.65c.08.3.12.4.19.46a.33.33,0,0,0,.28.06l0,.09-.63.14-.63.18,0-.09a.33.33,0,0,0,.21-.17c.06-.11,0-.25-.08-.66l-.43-1.65c-.08-.3-.12-.41-.19-.46a.33.33,0,0,0-.28-.06l0-.09.52-.12.73-.2a2.53,2.53,0,0,1,.56-.09.78.78,0,0,1,.84.6.89.89,0,0,1-.48,1.06l1.06.73c.3.2.51.34.72.3l0,.08a4,4,0,0,1-.51.15"/><path class="cls-3" d="M36.79,58.89a3.52,3.52,0,0,1-.3-.35l.07,1.18.71-.31Zm1.76,1.51-.6.29,0-.08a.36.36,0,0,0,.19-.15.14.14,0,0,0,0-.12,1,1,0,0,0-.18-.23l-.5-.53-.85.38,0,.73a1,1,0,0,0,0,.29.13.13,0,0,0,.08.08A.37.37,0,0,0,37,61l0,.08-.44.17-.41.2,0-.08a.28.28,0,0,0,.16-.23,5.19,5.19,0,0,0,0-.59l-.07-2.71.31-.21,1.84,1.95c.25.26.42.42.45.45a.26.26,0,0,0,.27,0l0,.08-.58.23"/><path class="cls-3" d="M39.12,56.58c0,.12,0,.25.26.61l.87,1.47c.16.27.23.36.31.39a.33.33,0,0,0,.28,0l0,.08-.59.32-.56.36,0-.08a.33.33,0,0,0,.15-.22c0-.12,0-.25-.26-.61l-.87-1.47c-.16-.27-.23-.36-.31-.39a.33.33,0,0,0-.28,0l0-.08.59-.32.56-.36,0,.08a.33.33,0,0,0-.15.22m-.21-.82-.73.87-.1,0,.25-.94,0,0,.53.06Z"/><path class="cls-3" d="M42.32,58.15a2.84,2.84,0,0,1-.69.38l0-.06c-.14-.19-.24-.31-.34-.42l.08-.06a.52.52,0,0,0,.35.18.8.8,0,0,0,.48-.19c.51-.38.27-.73.21-.81-.19-.26-.43-.23-.75-.2l-.33,0a1,1,0,0,1-1-.38c-.15-.2-.42-.77.4-1.38a5,5,0,0,1,.65-.41,2.13,2.13,0,0,0,.15.22,3.57,3.57,0,0,0,.22.28l-.08.06a.45.45,0,0,0-.28-.16.74.74,0,0,0-.5.18c-.41.31-.28.58-.18.71s.35.22.66.19l.37,0a1,1,0,0,1,1.09.38c.4.53.14,1.08-.44,1.51"/><path class="cls-3" d="M43.13,53.38c-.48.48-.19,1.11.37,1.66s1.24.84,1.69.39.19-1.11-.37-1.66-1.24-.84-1.69-.39m2.19,2.23a1.5,1.5,0,0,1-2.3,0,1.6,1.6,0,0,1,0-2.41,1.5,1.5,0,0,1,2.3,0,1.6,1.6,0,0,1,0,2.41"/><path class="cls-3" d="M5.74,46.21a1,1,0,0,1,.09.32l-.09,0,0-.1a.57.57,0,0,0-.23-.29.79.79,0,0,0-.7,0c-.66.27-.52.66-.43.9,0,.08.09.19.09.19l2-.82c.36-.15.5-.2.57-.31a.46.46,0,0,0,0-.41l.08,0c.06.18.22.59.28.75s.17.42.27.61l-.08,0a.33.33,0,0,0-.19-.18c-.12,0-.25,0-.65.17l-1.58.64c-.29.12-.39.17-.44.25a.33.33,0,0,0,0,.28l-.08,0c-.06-.18-.14-.4-.21-.56s-.18-.41-.29-.69a2.91,2.91,0,0,1-.16-.54.8.8,0,0,1,.5-1,1,1,0,0,1,1.3.66"/><path class="cls-3" d="M3.13,43.3c.15.66.84.75,1.61.57S6.1,43.26,6,42.65s-.84-.75-1.61-.57S3,42.69,3.13,43.3m3-.68a1.5,1.5,0,0,1-1.21,2,1.6,1.6,0,0,1-2.06-1.25,1.5,1.5,0,0,1,1.21-2,1.6,1.6,0,0,1,2.06,1.25"/><path class="cls-3" d="M2.44,37.59c.1.08.24.08.66.05l2.43-.13,0,.28-2.4,2a1,1,0,0,1-.18.13l2-.11c.31,0,.42,0,.49-.09a.33.33,0,0,0,.11-.26h.09c0,.19,0,.29,0,.47a4.5,4.5,0,0,0,0,.49H5.59a.33.33,0,0,0-.12-.24c-.1-.08-.24-.08-.66-.05l-1.71.09c-.31,0-.42,0-.49.09a.33.33,0,0,0-.11.26H2.41c0-.19,0-.4,0-.58s0-.3,0-.43l1.83-1.54a1.73,1.73,0,0,1,.23-.17L3,38c-.31,0-.42,0-.49.09a.33.33,0,0,0-.11.26H2.28c0-.19,0-.31,0-.49a4.09,4.09,0,0,0,0-.47h.09a.33.33,0,0,0,.12.24"/><path class="cls-3" d="M3.16,34.13a.38.38,0,0,0-.35.14c-.07.1-.09.2-.12.51l0,.18L5,35.17c.31,0,.42,0,.5,0s.16-.29.16-.34h.09c0,.19-.08.59-.09.76s0,.57-.05.77H5.49A.54.54,0,0,0,5.41,36c-.09-.09-.21-.11-.64-.15L2.6,35.64l0,.18a.93.93,0,0,0,0,.52.38.38,0,0,0,.32.2v.1c-.23,0-.64-.08-.64-.08L2.53,34s.41,0,.64,0Z"/><path class="cls-3" d="M3.08,32.22c.08.1.21.13.63.22l1.67.34c.31.06.42.07.5,0a.33.33,0,0,0,.17-.22l.09,0c0,.19-.12.48-.15.65s-.09.46-.11.66l-.09,0a.33.33,0,0,0-.06-.26c-.08-.1-.21-.13-.63-.22l-1.67-.34C3.12,33,3,33,2.92,33a.33.33,0,0,0-.17.22l-.09,0c0-.19.12-.48.15-.65s.09-.46.11-.66L3,32a.33.33,0,0,0,.06.26"/><path class="cls-3" d="M4.42,29.2a.38.38,0,0,0-.37.06c-.09.08-.13.18-.23.47l-.12.39,1.16.37.13-.4a.62.62,0,0,0,0-.41.39.39,0,0,0-.24-.21l0-.1.46.16.46.14,0,.1a.38.38,0,0,0-.29,0,.65.65,0,0,0-.23.38l-.12.39.84.27c.3.1.4.11.48.09s.21-.25.23-.3l.09,0c-.07.18-.2.55-.26.72s-.11.38-.18.65l-.09,0a.33.33,0,0,0,0-.27c-.06-.11-.19-.16-.6-.29l-1.63-.52c-.3-.1-.41-.11-.49-.09a.33.33,0,0,0-.2.2l-.09,0c.1-.26.16-.46.25-.72l.43-1.35s.39.13.61.18Z"/><path class="cls-3" d="M4.79,27.17c.05.12.18.18.57.35l1.56.69c.29.13.39.16.48.14a.33.33,0,0,0,.22-.18l.08,0c-.09.17-.22.45-.29.61s-.18.44-.25.62l-.08,0a.33.33,0,0,0,0-.27c-.05-.12-.18-.18-.57-.35l-1.56-.69c-.29-.13-.39-.16-.48-.14a.33.33,0,0,0-.22.18l-.08,0c.09-.17.22-.45.29-.61s.18-.44.25-.62l.08,0a.33.33,0,0,0,0,.27"/><path class="cls-3" d="M7,24.11a.36.36,0,0,0-.32,0,.91.91,0,0,0-.42.41c-.22.38-.48,1,.68,1.69.71.42,1.35.47,1.78-.25a.71.71,0,0,0,.12-.57.43.43,0,0,0-.21-.24L8.67,25c.12.08.25.17.45.29l.07,0a3.06,3.06,0,0,1-.33.78,1.8,1.8,0,0,1-1.22,1,1.6,1.6,0,0,1-1-.25,1.64,1.64,0,0,1-.83-1.79,2.46,2.46,0,0,1,.29-.71c.19-.33.42-.6.44-.64l.26.17L7,24Z"/><path class="cls-3" d="M7.88,22.13c0,.12.13.21.47.47l1.36,1c.25.19.34.24.43.25a.33.33,0,0,0,.25-.13l.07.05-.42.52-.39.54-.07-.05a.34.34,0,0,0,.06-.26c0-.12-.13-.21-.47-.47l-1.36-1c-.25-.19-.34-.24-.43-.25a.33.33,0,0,0-.25.13l-.07-.05.42-.52.39-.54.07.05a.33.33,0,0,0-.06.26"/><path class="cls-3" d="M10.21,20.94a3.57,3.57,0,0,1-.41-.22l.51,1.07.54-.56Zm2.19.74-.45.49-.06-.06A.36.36,0,0,0,12,21.9a.14.14,0,0,0,0-.11,1,1,0,0,0-.25-.14l-.66-.31-.65.67.32.66a1,1,0,0,0,.15.25.13.13,0,0,0,.1,0c.08,0,.15-.08.2-.12l.06.06c-.13.12-.22.2-.34.32s-.21.22-.31.35l-.06-.06a.28.28,0,0,0,.07-.27,5.24,5.24,0,0,0-.22-.55L9.3,20.2l.21-.31L11.94,21c.33.15.55.23.59.24a.26.26,0,0,0,.26-.07l.06.06-.45.43"/><path class="cls-3" d="M14.94,16c0,.13.05.24.29.6l.55.84a2.32,2.32,0,0,1,.37.72c.14.62-.37,1-.71,1.23-.7.46-1.1.37-1.39.16a2.48,2.48,0,0,1-.53-.65l-.63-1c-.17-.26-.24-.34-.33-.38a.33.33,0,0,0-.28,0l0-.07.57-.35.55-.38,0,.07a.34.34,0,0,0-.14.23c0,.12.05.24.29.6l.72,1.1c.25.37.53.74,1.13.34s.35-.86.14-1.18l-.8-1.22c-.17-.26-.24-.34-.33-.38a.33.33,0,0,0-.28,0l0-.07.46-.28.49-.34,0,.07a.33.33,0,0,0-.14.22"/><path class="cls-3" d="M18.79,14.18c0,.12,0,.25.18.64l1,2.23-.25.11-2.74-1.55a1,1,0,0,1-.18-.13l.79,1.81c.12.29.18.38.26.43a.33.33,0,0,0,.28,0l0,.08-.44.17a4.44,4.44,0,0,0-.45.22l0-.08a.33.33,0,0,0,.18-.2c0-.12,0-.25-.18-.64l-.68-1.57c-.12-.29-.18-.38-.26-.43a.33.33,0,0,0-.28,0l0-.08.54-.21.39-.19L19,16a1.71,1.71,0,0,1,.24.16l-.58-1.33c-.12-.29-.18-.38-.26-.43a.33.33,0,0,0-.28,0l0-.08.45-.18a4.16,4.16,0,0,0,.43-.21L19,14a.33.33,0,0,0-.18.2"/><path class="cls-3" d="M21,13.53c-.05.11,0,.25.1.66l.47,1.64c.09.3.13.4.2.46a.33.33,0,0,0,.28,0l0,.09-.65.17-.63.2,0-.09a.33.33,0,0,0,.2-.17c.05-.11,0-.25-.1-.66l-.47-1.64c-.09-.3-.13-.4-.2-.46a.33.33,0,0,0-.28,0l0-.09.65-.17.63-.2,0,.09a.33.33,0,0,0-.2.17"/><path class="cls-3" d="M24.84,12.79a5.15,5.15,0,0,0-.15.57L24.09,16l-.36.13-1.29-2.34c-.18-.32-.3-.51-.33-.55a.26.26,0,0,0-.25-.1v-.09l.62-.08.65-.13v.09a.36.36,0,0,0-.22.1.14.14,0,0,0,0,.12,1,1,0,0,0,.12.27l.79,1.45c.15.28.21.42.21.42s0-.17.09-.48l.31-1.63a1,1,0,0,0,0-.29.13.13,0,0,0-.06-.1.37.37,0,0,0-.23,0v-.09l.47-.06.45-.1v.09a.28.28,0,0,0-.22.18"/><path class="cls-3" d="M28,15.71l-1.39,0c-.28,0-.55,0-.82,0v-.09a.33.33,0,0,0,.24-.12c.08-.1.08-.24.07-.66l0-1.71c0-.31,0-.42-.08-.49a.33.33,0,0,0-.26-.12V12.5h.76l1.42,0s0,.41,0,.64h-.1a.38.38,0,0,0-.18-.33.93.93,0,0,0-.52-.06h-.41l0,1.22h.42a.62.62,0,0,0,.4-.09.39.39,0,0,0,.12-.3h.1c0,.11,0,.18,0,.49s0,.37,0,.48h-.1a.38.38,0,0,0-.12-.27.65.65,0,0,0-.43-.09h-.41l0,1.1c0,.22,0,.25.31.25h.08c.27,0,.47,0,.59-.15A.5.5,0,0,0,27.9,15H28c0,.23,0,.7,0,.7"/><path class="cls-3" d="M30.25,12.81H30l-.18,1.46.23,0h.19c.07,0,.4,0,.49-.7s-.32-.77-.52-.79m1.14,3.26a.85.85,0,0,1-.76-.52c-.09-.15-.4-.68-.6-1.06l-.21,0-.08.67c0,.31,0,.42,0,.5a.33.33,0,0,0,.24.15v.09l-.64-.1-.66-.06v-.09a.34.34,0,0,0,.25-.08c.1-.08.12-.22.17-.64l.21-1.7c0-.31,0-.42,0-.5a.33.33,0,0,0-.24-.15v-.09l.53.08.76.08a2.53,2.53,0,0,1,.56.12.78.78,0,0,1,.56.86.89.89,0,0,1-.83.81l.72,1.07c.21.3.35.51.56.54v.08a4,4,0,0,1-.53,0"/><path class="cls-3" d="M33,16.46a2.84,2.84,0,0,1-.73-.31l0-.08c.06-.23.09-.39.12-.53l.1,0a.52.52,0,0,0,.07.39.8.8,0,0,0,.45.26c.62.17.74-.24.76-.33.08-.31-.09-.48-.3-.72l-.22-.24a1,1,0,0,1-.33-1c.07-.24.34-.81,1.34-.54a5,5,0,0,1,.72.25,2.23,2.23,0,0,0-.08.25c-.07.27-.08.35-.08.35l-.1,0a.45.45,0,0,0-.05-.32.74.74,0,0,0-.45-.29c-.49-.13-.63.13-.67.3s0,.41.26.63l.26.27a1,1,0,0,1,.37,1.09c-.18.64-.76.78-1.46.59"/><path class="cls-3" d="M36.95,14.53c-.11.06-.17.19-.32.58L36,16.7c-.11.29-.14.4-.12.49a.33.33,0,0,0,.19.21l0,.08-.62-.26L34.8,17l0-.08a.33.33,0,0,0,.27,0c.11-.06.17-.18.32-.58L36,14.72c.11-.29.14-.4.12-.49A.33.33,0,0,0,36,14l0-.08.62.26.63.22,0,.08a.33.33,0,0,0-.27,0"/><path class="cls-3" d="M39.28,15.67a2.51,2.51,0,0,0-.32-.16l-1.22,2.22c-.07.13-.09.2,0,.27a1,1,0,0,0,.2.13c.66.36,1.14.17,1.63-.73.61-1.11.09-1.53-.28-1.74m-.84,2.92a3.17,3.17,0,0,1-.75-.32l-.57-.33-.51-.26,0-.08a.33.33,0,0,0,.27,0c.12,0,.19-.16.4-.54l.82-1.5c.15-.27.19-.38.18-.47a.33.33,0,0,0-.16-.23l0-.08s.16.1.48.28l.72.38a1.56,1.56,0,0,1,.85,2.23,1.52,1.52,0,0,1-1.8.89"/><path class="cls-3" d="M42.14,18.64a3.59,3.59,0,0,1,.17-.44l-1,.63.61.47Zm-.49,2.26-.53-.39.05-.07a.36.36,0,0,0,.22.1.14.14,0,0,0,.1-.06,1,1,0,0,0,.11-.27l.23-.69L41.1,19l-.62.39a1,1,0,0,0-.24.18.13.13,0,0,0,0,.11c0,.08.09.14.14.19l-.05.07c-.13-.11-.22-.2-.36-.3l-.38-.27.05-.07a.28.28,0,0,0,.28,0,5.2,5.2,0,0,0,.52-.28l2.35-1.35.33.17-.84,2.54c-.11.35-.17.57-.18.61a.26.26,0,0,0,.1.25l-.05.07-.48-.4"/><path class="cls-3" d="M45.54,20.45a2.58,2.58,0,0,0-.25-.25l-1.85,1.73c-.1.1-.15.16-.1.26a1,1,0,0,0,.15.18c.52.55,1,.52,1.78-.19.92-.86.56-1.43.27-1.74M43.84,23a3.17,3.17,0,0,1-.61-.54l-.44-.49-.4-.41.07-.06a.34.34,0,0,0,.25.1c.13,0,.23-.09.54-.39L44.49,20c.23-.21.3-.3.32-.39a.33.33,0,0,0-.08-.27l.07-.06s.12.15.37.41l.56.59a1.56,1.56,0,0,1,.11,2.38,1.52,1.52,0,0,1-2,.28"/><path class="cls-3" d="M49.21,26.24a.36.36,0,0,0,.18-.26.92.92,0,0,0-.15-.57c-.22-.38-.64-.91-1.81-.22-.71.42-1.07,1-.64,1.68a.71.71,0,0,0,.44.38.43.43,0,0,0,.31-.06l.05.09c-.13.06-.27.13-.47.25l-.07,0a3.07,3.07,0,0,1-.52-.67,1.8,1.8,0,0,1-.25-1.54,1.6,1.6,0,0,1,.72-.79,1.64,1.64,0,0,1,2,.14,2.46,2.46,0,0,1,.48.59c.19.33.33.66.35.7l-.27.15-.27.17Z"/><path class="cls-3" d="M49.7,28.58a3.48,3.48,0,0,1,.36-.29l-1.18,0,.29.72Zm-1.56,1.71c-.06-.14-.2-.48-.27-.6l.08,0a.36.36,0,0,0,.14.19.14.14,0,0,0,.12,0,1,1,0,0,0,.23-.18l.55-.48-.35-.86-.73,0a1,1,0,0,0-.29,0,.13.13,0,0,0-.08.08.37.37,0,0,0,0,.23l-.08,0c-.06-.16-.09-.28-.16-.44s-.12-.28-.19-.42l.08,0a.28.28,0,0,0,.22.17A5.18,5.18,0,0,0,48,28l2.71,0,.2.31-2,1.77c-.27.24-.44.41-.46.44a.26.26,0,0,0,0,.27l-.08,0c0-.14-.16-.45-.21-.58"/><path class="cls-3" d="M51.52,32.7a.38.38,0,0,0,.28-.25.93.93,0,0,0-.06-.52l0-.18-2.24.58c-.3.08-.4.12-.46.19s0,.33,0,.37l-.09,0c0-.19-.13-.58-.17-.75s-.15-.55-.21-.74l.09,0a.54.54,0,0,0,.2.3c.11.06.24,0,.65-.08l2.1-.55,0-.18c-.08-.3-.11-.39-.2-.48a.38.38,0,0,0-.37-.08l0-.1c.23,0,.62-.15.62-.15l.65,2.52s-.4.1-.62.18Z"/><path class="cls-3" d="M53.2,35.71l-.49-1,.08-.07.75.62v0l-.28.46Zm-.87-.59c-.07-.67-.74-.85-1.52-.77s-1.43.43-1.37,1.06.74.85,1.52.77,1.43-.43,1.37-1.06m-3.11.29a1.5,1.5,0,0,1,1.45-1.79,1.6,1.6,0,0,1,1.88,1.5,1.5,1.5,0,0,1-1.45,1.79,1.6,1.6,0,0,1-1.88-1.5"/><path class="cls-3" d="M49.3,39.84l.07-1.36c0-.28,0-.55,0-.82h.09a.33.33,0,0,0,.1.25c.09.09.23.1.65.12l1.71.08c.31,0,.42,0,.5,0a.33.33,0,0,0,.14-.25h.09c0,.19,0,.55-.06.72s0,.54,0,.74h-.09a.46.46,0,0,0-.13-.39c-.1-.08-.25-.08-.64-.1l-1.9-.09c-.22,0-.25,0-.27.3v.08c0,.27,0,.44.11.57a.5.5,0,0,0,.33.14v.1c-.23,0-.69,0-.69,0"/><path class="cls-3" d="M52.08,42c-.08-.1-.22-.12-.64-.19l-1.69-.27c-.31,0-.42-.05-.5,0a.33.33,0,0,0-.16.23H49c0-.19.1-.49.12-.66s.06-.47.08-.66h.09a.33.33,0,0,0,.07.26c.08.1.22.13.64.19l1.69.27c.31,0,.42.05.5,0a.33.33,0,0,0,.16-.23h.09c0,.19-.1.49-.12.66s-.06.47-.08.66h-.09a.33.33,0,0,0-.07-.26"/><path class="cls-3" d="M50.73,45.51a.36.36,0,0,0,.31-.05.91.91,0,0,0,.31-.5c.12-.42.21-1.09-1.09-1.46-.8-.23-1.43-.11-1.66.7a.71.71,0,0,0,0,.58.43.43,0,0,0,.26.18l0,.1-.51-.16-.08,0a3.05,3.05,0,0,1,.12-.84,1.8,1.8,0,0,1,.94-1.25,1.6,1.6,0,0,1,1.07,0,1.64,1.64,0,0,1,1.26,1.52,2.45,2.45,0,0,1-.1.76,7.7,7.7,0,0,1-.27.74L51,45.69l-.31-.08Z"/><path class="cls-3" d="M49.38,47.47a3.51,3.51,0,0,1,.46.06L49,46.7l-.32.71Zm-2.31.05c.06-.14.2-.47.25-.61l.08,0a.36.36,0,0,0,0,.24.14.14,0,0,0,.08.09,1,1,0,0,0,.29,0l.72.06.38-.85L48.31,46a1,1,0,0,0-.23-.19.13.13,0,0,0-.11,0c-.07,0-.12.12-.15.18l-.08,0c.08-.15.14-.26.21-.42s.12-.28.17-.43l.08,0a.28.28,0,0,0,0,.28,5.13,5.13,0,0,0,.39.44l1.86,2-.09.36L47.73,48c-.36,0-.59,0-.63,0a.26.26,0,0,0-.22.16l-.08,0c.07-.13.21-.43.27-.56"/><path class="cls-3" d="M29.06,25.8h.51a.86.86,0,0,1-.3-.54c0-.43.51-.72.51-1.27s-.38-.85-.38-1.36.34-.79.34-1.17a1.08,1.08,0,0,0-.21-.62h-.47a1.53,1.53,0,0,1,.21.62c0,.38-.34.63-.34,1.18s.43.93.43,1.36-.51.75-.51,1.26a.77.77,0,0,0,.21.54"/><path class="cls-3" d="M29.49,26.69H33c0,.64-1.36.87-1.36,1.38s1,.4,1,1.17H29.83c0-.76,1-.65,1-1.17s-1.36-.74-1.36-1.38m-.18,2.5v.55H42.42v-.51H39a2.44,2.44,0,0,0,2-2.54c0-2-2.3-4.1-5.63-4.1a7,7,0,0,0-2.1.29,1.08,1.08,0,0,1,0-.25c0-.47.34-.79.34-1.18a1.09,1.09,0,0,0-.21-.62h-.47a1.53,1.53,0,0,1,.21.62c0,.38-.34.63-.34,1.18a1.11,1.11,0,0,0,.08.4,4.89,4.89,0,0,0-.74.37,2,2,0,0,1-.24-.77c0-.47.34-.79.34-1.18a1.09,1.09,0,0,0-.21-.62h-.47a1.53,1.53,0,0,1,.21.62c0,.38-.34.63-.34,1.18a3.17,3.17,0,0,0,.35,1,4.36,4.36,0,0,0-1.33,1.63s0-.06,0-.09c0-.34.51-.77.51-1.19s-.38-.85-.38-1.37.34-.79.34-1.17a1.09,1.09,0,0,0-.21-.62h-.47a1.53,1.53,0,0,1,.21.62c0,.38-.34.63-.34,1.18s.43.93.43,1.36-.51.75-.51,1.26a.77.77,0,0,0,.21.54h.47c.43-1.27,1.75-2.76,4.65-2.76,3.15,0,5.12,2,5.12,3.63a1.89,1.89,0,0,1-2,2.09c-1.36,0-1.83-.85-1.83-1.58a1.44,1.44,0,0,1,1-1.41,3.19,3.19,0,0,0-3-1.63,3.12,3.12,0,0,0-3,1.65h.51a2.14,2.14,0,0,1,.61-.66.69.69,0,0,0,0,.12.79.79,0,0,0,.21.55h.51a.86.86,0,0,1-.3-.54.71.71,0,0,1,.16-.41,3.79,3.79,0,0,1,1.34-.22,2.8,2.8,0,0,1,2.34,1,2,2,0,0,0-.9,1.6,2,2,0,0,0,1.82,2H33.24c0-.89-1.15-.89-1.15-1.14s1.53-.77,1.53-1.78H28.89c0,1,1.55,1.51,1.55,1.76s-1.13.31-1.13,1.12"/><path class="cls-3" d="M37.08,33.8a1,1,0,0,1-1,1.07,1.08,1.08,0,0,0,.26-.64c0-.72-.94-1.07-.94-1.83a1,1,0,0,1,1-1.07,1.32,1.32,0,0,0-.21.72c0,.68.94,1.07.94,1.75m-.13-2.69a.9.9,0,0,0-.6-.17,1.45,1.45,0,0,0-1.45,1.49c0,1,.94,1.28.94,1.88a.9.9,0,0,1-.47.72,1,1,0,0,0,.68.21,1.42,1.42,0,0,0,1.45-1.49c0-.85-.9-1.24-.9-1.83a1.34,1.34,0,0,1,.34-.81"/><path class="cls-3" d="M42.19,34.86a1.08,1.08,0,0,0,.26-.64c0-.73-.94-1.07-.94-1.83a1,1,0,0,1,1-1.07,1.32,1.32,0,0,0-.21.72c0,.68.94,1.07.94,1.75a1,1,0,0,1-1,1.07m.55-2.94a1.34,1.34,0,0,1,.34-.81.9.9,0,0,0-.6-.17A1.45,1.45,0,0,0,41,32.43c0,1,.94,1.28.94,1.88a.9.9,0,0,1-.47.72,1,1,0,0,0,.68.21,1.42,1.42,0,0,0,1.45-1.49c0-.85-.9-1.24-.9-1.83"/><path class="cls-3" d="M40.15,33.8a1,1,0,0,1-1,1.07,1.08,1.08,0,0,0,.26-.64c0-.72-.94-1.07-.94-1.83a1,1,0,0,1,1-1.07,1.32,1.32,0,0,0-.21.72c0,.68.94,1.07.94,1.75M40,31.11a.9.9,0,0,0-.6-.17A1.45,1.45,0,0,0,38,32.43c0,1,.94,1.28.94,1.88a.9.9,0,0,1-.47.72,1,1,0,0,0,.68.21,1.42,1.42,0,0,0,1.45-1.49c0-.85-.9-1.24-.9-1.83a1.34,1.34,0,0,1,.34-.81"/><path class="cls-3" d="M15.62,24.67a1.53,1.53,0,0,0,1.6,1.51,1.3,1.3,0,0,0,1.34-1.25,1.08,1.08,0,0,0-.17-.56,4.57,4.57,0,0,0,1.43.22.9.9,0,0,0,.73-.3c-1.64,0-2.29-.43-3-.43a.84.84,0,0,0-.91.82.69.69,0,0,0,.69.73.46.46,0,0,0,.52-.43.2.2,0,0,0-.22-.22c0,.13-.09.22-.26.22a.3.3,0,0,1-.3-.3c0-.22.17-.39.47-.39a.59.59,0,0,1,.65.65c0,.52-.35.86-1,.86a1.05,1.05,0,0,1-1.08-1.12,1.21,1.21,0,0,1,1.34-1.25c1,0,1.64.26,3.54.26s2.55-.26,3.54-.26a1.21,1.21,0,0,1,1.34,1.25,1.05,1.05,0,0,1-1.08,1.12c-.65,0-1-.35-1-.86a.59.59,0,0,1,.65-.65c.3,0,.47.17.47.39a.3.3,0,0,1-.3.3c-.17,0-.26-.09-.26-.22a.2.2,0,0,0-.22.22.46.46,0,0,0,.52.43.69.69,0,0,0,.69-.73.84.84,0,0,0-.91-.82c-.73,0-1.38.39-3,.43a.9.9,0,0,0,.73.3,4.57,4.57,0,0,0,1.42-.22,1.08,1.08,0,0,0-.17.56,1.3,1.3,0,0,0,1.34,1.25,1.53,1.53,0,0,0,1.6-1.51A1.59,1.59,0,0,0,24.52,23c-1,0-1.73.3-3.54.3s-2.5-.3-3.54-.3a1.59,1.59,0,0,0-1.81,1.64m1.21-2c0,.09,0,.13.09.13H25s.09,0,.09-.13-.09-.26-.35-.26h-7.6c-.26,0-.35.13-.35.26m.6,4.06a.69.69,0,0,0,.39.56.41.41,0,0,0-.09.3.59.59,0,0,0,.6.56.49.49,0,0,0-.13.35.53.53,0,0,0,.56.48c.26,0,.43-.17.39-.39a.63.63,0,0,1-.3.09c-.17,0-.35-.09-.35-.26a.37.37,0,0,1,.09-.26c.17,0,.26-.09.26-.3a1.2,1.2,0,0,1-.39,0,.39.39,0,0,1-.43-.35.33.33,0,0,1,.09-.22.87.87,0,0,0,.73-.09c.17,1,.95,2.55,2.12,2.51s1.94-1.51,2.12-2.51a.87.87,0,0,0,.73.09.33.33,0,0,1,.09.22.39.39,0,0,1-.43.35,1.2,1.2,0,0,1-.39,0c0,.22.09.26.26.3a.37.37,0,0,1,.09.26c0,.17-.17.26-.35.26a.63.63,0,0,1-.3-.09c0,.22.13.39.39.39a.53.53,0,0,0,.56-.48.49.49,0,0,0-.13-.35.59.59,0,0,0,.6-.56.41.41,0,0,0-.09-.3.69.69,0,0,0,.39-.56.42.42,0,0,0-.47-.43.39.39,0,0,1,.13.3c0,.26-.22.43-.56.43a.87.87,0,0,1-.47-.13c0-.22-.13-.35-.3-.43a1.09,1.09,0,0,1,0,.56c-.13.39-.69.48-.69.52s.13.17.22.17a.53.53,0,0,0,.43-.26c-.17.73-.78,1.94-1.77,1.94s-1.6-1.21-1.77-1.94a.53.53,0,0,0,.43.26c.09,0,.22,0,.22-.17s-.56-.13-.69-.52a1.09,1.09,0,0,1,0-.56c-.17.09-.35.22-.3.43a.87.87,0,0,1-.48.13c-.35,0-.56-.17-.56-.43a.39.39,0,0,1,.13-.3.42.42,0,0,0-.47.43m.82-.69c-.22.26,0,.48.22.48s.6-.13,1-.73c.22-.3.3-.52.69-.52.56,0,.52-.56.86-.56s.3.56.86.56c.39,0,.47.22.69.52.35.6.69.73,1,.73s.43-.22.22-.48a.29.29,0,0,1-.26.17c-.35,0-.47-.3-.73-.69.13,0,.26.22.43.22a.21.21,0,0,0,.22-.3c-.69,0-.52-.48-1.38-.48-.39,0-.52-.56-1-.56s-.6.56-1,.56c-.86,0-.69.48-1.38.48a.21.21,0,0,0,.22.3c.17,0,.3-.17.43-.22-.26.39-.39.69-.73.69a.29.29,0,0,1-.26-.17m1.21.22c0,.13.09.17.13.17s.13-.13.26-.17a.23.23,0,0,0,.26.26.24.24,0,0,0,.26-.22c.09,0,.17.17.22.17s.09-.09.09-.26a.82.82,0,0,0-.65-.3c-.35,0-.56.09-.56.35m.86,2,0,.22a.32.32,0,0,1,.22,0c.13,0,.17,0,.39,0s.26,0,.39,0a.32.32,0,0,1,.22,0l0-.22a.5.5,0,0,0-.3-.09c-.13,0-.22,0-.35,0s-.22,0-.35,0a.5.5,0,0,0-.3.09m.13-.48c.26,0,.3.09.52.09s.26-.09.52-.09a.61.61,0,0,0-.09-.26c-.35,0-.35.13-.43.13s-.09-.13-.43-.13a.61.61,0,0,0-.09.26m.22,1a.35.35,0,0,0,.6,0,.26.26,0,0,0,0-.17s-.09.09-.26.09-.22,0-.26-.09a.26.26,0,0,0,0,.17m.6-2.59c0,.17,0,.26.09.26s.13-.13.22-.17a.24.24,0,0,0,.26.22.23.23,0,0,0,.26-.26c.13,0,.17.17.26.17s.13,0,.13-.17-.22-.35-.56-.35a.82.82,0,0,0-.65.3"/><path class="cls-3" d="M18.49,30.46V29.9a6.24,6.24,0,0,0-3.32.64,6.2,6.2,0,0,0-3.29-.64v.56a3.3,3.3,0,0,0-1-.14V36a7.6,7.6,0,0,1,3.92.73h.77A7.39,7.39,0,0,1,19.46,36V30.32a3.24,3.24,0,0,0-1,.14m-6.17-.22a4.42,4.42,0,0,1,2.66.64v4.38a6.55,6.55,0,0,0-2.66-.53Zm5.74,0v4.49a6.45,6.45,0,0,0-2.66.53V30.88a4.37,4.37,0,0,1,2.66-.64m1,5.27a6.07,6.07,0,0,0-3.54.81h-.6a6.17,6.17,0,0,0-3.57-.81V30.74a1.88,1.88,0,0,1,.57.14v4.21a5.66,5.66,0,0,1,3,.64h.51a5.9,5.9,0,0,1,3.06-.64V30.88a1.74,1.74,0,0,1,.54-.14Z"/><path class="cls-3" d="M22.34,49.35c-1.65,0-1.68,1.5-3.24,1.5s-1.68-1.53-3.24-1.53a2.43,2.43,0,0,0-1.75.8l.36.38a1.89,1.89,0,0,1,1.36-.65c1.34,0,1.59,1.5,3.27,1.5s1.81-1.5,3.24-1.5,1.56,1.56,3.24,1.5v-.5c-1.56,0-1.56-1.5-3.24-1.5"/><path class="cls-3" d="M22.34,51.37c-1.65,0-1.68,1.5-3.24,1.5s-1.68-1.53-3.24-1.53a2.45,2.45,0,0,0-.48.05c.16.14.54.48.55.48,1.26,0,1.48,1.49,3.17,1.49s1.81-1.5,3.24-1.5,1.56,1.56,3.24,1.5v-.5c-1.56,0-1.56-1.5-3.24-1.5"/><path class="cls-3" d="M22.37,53.39c-1.13,0-1.5.7-2.12,1.14.15.1.33.15.49.24.47-.41.83-.88,1.63-.88,1.43,0,1.56,1.56,3.24,1.5v-.5c-1.56,0-1.56-1.5-3.24-1.5"/><path class="cls-3" d="M13,48.87l.31.36c1-.27,1.33-1.32,2.48-1.32,1.34,0,1.59,1.5,3.27,1.5s1.81-1.5,3.24-1.5,1.56,1.56,3.24,1.5v-.5c-1.56,0-1.56-1.5-3.24-1.5s-1.68,1.5-3.24,1.5-1.68-1.53-3.24-1.53S14,48.53,13,48.87"/><path class="cls-3" d="M15.57,40.25c.18,0,.53.51.53,1s-.31,1-.53,1-.53-.43-.53-1,.35-1,.53-1m-1.49,1.57a1.38,1.38,0,0,1,1.18,1.06c0,.17-.13.26-.35.26a1.24,1.24,0,0,1-1.14-1.06c0-.17.09-.26.31-.26m2.93,0a.23.23,0,0,1,.26.26,1.2,1.2,0,0,1-1.14,1.06.23.23,0,0,1-.26-.26A1.33,1.33,0,0,1,17,41.83M13.95,43.4a1.33,1.33,0,0,1,1.31,1c0,.17-.13.26-.31.26a1.22,1.22,0,0,1-1.23-1.06c0-.17.09-.21.22-.21m2.19,1.28c-.22,0-.26-.13-.26-.26a1.11,1.11,0,0,1,1.05-1c.22,0,.31,0,.31.21a1.06,1.06,0,0,1-1.09,1m-.57,1.06a1.14,1.14,0,0,0-.48-.72c.26,0,.44-.09.48-.38,0,.3.22.38.48.38a1.14,1.14,0,0,0-.48.72m-.66.51a1.21,1.21,0,0,1-1.14-1.11c0-.17.13-.21.26-.21a1.23,1.23,0,0,1,1.23,1,.31.31,0,0,1-.35.3m1.27,0a.27.27,0,0,1-.31-.3,1.15,1.15,0,0,1,1.05-1c.22,0,.39,0,.39.21a1.17,1.17,0,0,1-1.14,1.11m-.61-2.09a1.15,1.15,0,0,0-.53-.72c.26,0,.48,0,.53-.43,0,.38.26.43.53.43a1.15,1.15,0,0,0-.53.72m-.26,3.42h.53V46.47c0,.09.22.13.39.13a1.63,1.63,0,0,0,1.49-1.53l1.36-1.41-.26-.21-1.32,1.28a.59.59,0,0,0-.44-.13,1.23,1.23,0,0,0,.61-1.11l1.41-1.37-.26-.21-1.32,1.28a.54.54,0,0,0-.39-.13A1.45,1.45,0,0,0,17.71,42l1.36-1.41-.26-.25-1.27,1.32a.49.49,0,0,0-.44-.21,1.28,1.28,0,0,0-.79.3.94.94,0,0,0,.13-.55A1.47,1.47,0,0,0,15.78,40l0-1.53h-.35l0,1.53a1.47,1.47,0,0,0-.66,1.23,1.35,1.35,0,0,0,.09.51,1.57,1.57,0,0,0-.79-.26.49.49,0,0,0-.39.17l-1.27-1.28-.26.25L13.38,42A1.43,1.43,0,0,0,13.86,43a.51.51,0,0,0-.35.13l-1.23-1.24-.26.21,1.32,1.37a1.45,1.45,0,0,0,.57,1.06.54.54,0,0,0-.35.13l-1.27-1.24-.26.21L13.38,45a1.67,1.67,0,0,0,1.49,1.57.67.67,0,0,0,.44-.13Z"/><path class="cls-3" d="M32.1,53a.59.59,0,1,1,0-.45.59.59,0,0,1,0,.45M32,51.9a.92.92,0,1,0-.26,1.72l.13,0A.92.92,0,0,0,32,51.9"/><path class="cls-3" d="M36.68,51.35a.48.48,0,1,1-.57-.67l.07,0a.48.48,0,0,1,.5.68m-.06-.93a.8.8,0,1,0-.23,1.51l.11,0a.8.8,0,0,0,.11-1.48"/><path class="cls-3" d="M38.37,51.8a.82.82,0,0,1-.7-.17l-.15-.15-.76.84.14.14a.91.91,0,0,1,.28.69l-.46.15a.9.9,0,0,1-.18-.72l0-.19-.9-.19-.2,0,0,.21a.82.82,0,0,1-.47.55l-.31-.29c0-.25.37-.46.51-.52l.16-.08L35,51l-.17,0a1.3,1.3,0,0,1-.73-.12l.09-.43a.81.81,0,0,1,.68.17l.15.16.74-.85-.13-.13s-.34-.37-.27-.7l.43-.14a.93.93,0,0,1,.2.72l0,.19.88.2.21,0,0-.21a.81.81,0,0,1,.45-.54l.33.29a1.25,1.25,0,0,1-.52.53l-.15.08.35,1,.17,0a1,1,0,0,1,.72.12Zm-4.86.48h-.18l-.11,1.13.2,0a1,1,0,0,1,.63.26l-.21.4c-.29,0-.59-.32-.6-.32l-.14-.16-.85.76.13.15a1,1,0,0,1,.23.63l-.42.14a1,1,0,0,1-.19-.65l0-.2-1.13-.11v.21s0,.46-.29.61l-.41-.2a1.06,1.06,0,0,1,.35-.58l.15-.14-.76-.85-.15.11a1.15,1.15,0,0,1-.62.25L29,53.32a1,1,0,0,1,.65-.16h.2L30,52l-.2,0a1,1,0,0,1-.62-.28l.21-.4a1,1,0,0,1,.59.33l.14.15.86-.77-.13-.15a.93.93,0,0,1-.25-.6l.46-.15a.93.93,0,0,1,.15.63l0,.2,1.15.11,0-.2a1,1,0,0,1,.28-.62l.41.2a1,1,0,0,1-.34.59l-.15.14.75.85.15-.12a1,1,0,0,1,.64-.23l.12.38a1.2,1.2,0,0,1-.65.2M34.57,52l-.19-.59a2,2,0,0,0,.35,0l.11.35a1.81,1.81,0,0,0-.27.21m4.27-.81a1.11,1.11,0,0,0-1-.37l-.12-.35a1.36,1.36,0,0,0,.61-.83l0-.11-.69-.62-.12,0a1.3,1.3,0,0,0-.75.7l-.35-.08a1.1,1.1,0,0,0-.48-1l-.08,0-.79.26,0,.08a1.1,1.1,0,0,0,.2,1.08l-.23.27a1.29,1.29,0,0,0-1-.12l-.12,0-.19.91.08.08a.87.87,0,0,0,.2.15,1.38,1.38,0,0,0-.64.21l-.24-.28a1,1,0,0,0,.3-1l0-.08-.74-.37-.08,0a1,1,0,0,0-.59.8l-.37,0a1,1,0,0,0-.44-.87l-.08,0-.82.27,0,.08a1,1,0,0,0,.16,1l-.27.24a1,1,0,0,0-.95-.29l-.08,0-.38.73,0,.08a1,1,0,0,0,.81.59l0,.36a1,1,0,0,0-.89.45l0,.08.26.79.08,0a1.08,1.08,0,0,0,1-.17l.25.28a1,1,0,0,0-.32.94l0,.08.74.37.08,0a1,1,0,0,0,.61-.79l.35,0a1.15,1.15,0,0,0,.43.88l.08.06.83-.27,0-.1a1.15,1.15,0,0,0-.17-1l.26-.23a1,1,0,0,0,1,.28l.08,0,.38-.73,0-.08a1,1,0,0,0-.81-.57l0-.38a1.67,1.67,0,0,0,.57-.17.71.71,0,0,0,0,.21v.08l.62.59.12,0a1.25,1.25,0,0,0,.79-.71l.35.07a1.09,1.09,0,0,0,.46,1l.08,0,.83-.27,0-.09a1.09,1.09,0,0,0-.22-1.08l.24-.27a1.25,1.25,0,0,0,1.06.11l.12,0,.16-.84Z"/><path class="cls-3" d="M37.48,39.79v1.71l3.09-1.81v1.81l2.84-2L43.06,39h1.32v1.42l-.55-.55L40,42.72v-1.9l-3.42,2.13V41.46L33.45,43.3v.61l2.74-1.61v1.52l3.38-2.13v1.9l4.25-3.13,1,1V38.62H42.16l.61.77L41,40.66V38.85L37.9,40.66V38.95l-3.58,1.93v.61Zm4.8,3.13L39.13,45.3V43.17L35.78,45.3V43.75l-3.29,2v.61l2.87-1.74v1.52L38.71,44v2.13L43,43l-.39-.48H43.9V44l-.52-.55L38.1,47.62V45.43l-3.22,2.06V46.14l-3,1.87v.61L34.45,47v1.35l3.22-2.06v2.29L43.38,44l1,1v-3H41.64Z"/><path class="cls-3" d="M28.44,42.68a2.66,2.66,0,0,1-1,.41,2.66,2.66,0,0,1-1-.41V37.4H23.71V35.46h2.83V32.91h1.9v2.56h2.83V37.4H28.44ZM27,42.35a.7.7,0,0,0,1,0V37h2.79V35.88H28V33.38H27v2.49H24.19V37H27Z"/><polygon class="cls-3" points="27.39 45.12 27.39 45.36 26.48 45.36 26.48 44.22 27.36 44.22 27.36 44.45 26.74 44.45 26.74 44.7 27.27 44.7 27.27 44.91 26.74 44.91 26.74 45.12 27.39 45.12"/><polygon class="cls-3" points="28.58 44.47 28.2 44.47 28.2 45.36 27.94 45.36 27.94 44.47 27.56 44.47 27.56 44.22 28.58 44.22 28.58 44.47"/><polygon class="cls-3" points="30.34 44.04 30.51 44.22 29.9 44.81 29.11 43.98 29.3 43.8 29.92 44.45 30.34 44.04"/><path class="cls-3" d="M30.75,43.06,30.32,43l.23.38Zm.54.12L31,43.11l-.31.44.17.27-.16.22C30.27,43.36,30,43,30,43l.18-.25s.45.07,1.23.25Z"/><path class="cls-3" d="M31.62,42c0-.11,0-.17,0-.2s-.14,0-.19.11l-.15.34.22.1Zm-.78.06.22.1.12-.27c0-.1,0-.15,0-.18s-.13,0-.18.09Zm.87-.49c.21.09.24.27.13.51l-.26.59-1-.47.24-.53c.11-.24.26-.29.43-.21a.22.22,0,0,1,.15.2.27.27,0,0,1,.36-.09"/><path class="cls-3" d="M32,40.79a.34.34,0,1,0-.41.27.32.32,0,0,0,.41-.27m-.9-.21a.58.58,0,1,1,.43.73.55.55,0,0,1-.43-.73"/><path class="cls-3" d="M31.87,39.62l0-.27c0-.15,0-.22-.15-.23s-.17.05-.18.21l0,.28Zm.61-.46-.35.16v0l0,.29.34,0,0,.25-1.14-.08,0-.54c0-.3.17-.46.43-.44a.36.36,0,0,1,.33.21l.41-.21Z"/><polygon class="cls-3" points="23.57 39.55 23.32 39.57 23.37 40.12 23.15 40.14 23.1 39.59 22.67 39.63 22.64 39.37 23.79 39.27 23.87 40.17 23.63 40.19 23.57 39.55"/><rect class="cls-3" x="22.82" y="40.5" width="1.15" height="0.26" transform="translate(-7.96 5.77) rotate(-12.03)"/><path class="cls-3" d="M23.39,41.76c.08.22.22.3.43.22s.25-.23.17-.45l-.08-.22-.6.23Zm.83-.34c.16.41,0,.68-.31.81s-.61,0-.76-.4L23,41.39,24,41Z"/><polygon class="cls-3" points="24.31 43.56 24.11 43.69 23.63 42.91 24.59 42.3 25.06 43.05 24.86 43.17 24.53 42.65 24.32 42.78 24.61 43.23 24.43 43.34 24.15 42.89 23.97 43.01 24.31 43.56"/><path class="cls-3" d="M25.33,44a.16.16,0,0,0,.08,0c.05,0,.07-.12,0-.26s-.2-.14-.27-.08.46.58.13.87c-.16.15-.35.11-.58-.14s-.24-.47-.08-.61a.88.88,0,0,1,.19.15c-.1.09-.08.18,0,.32s.19.15.25.09-.47-.57-.12-.88c.15-.14.35-.11.57.14s.22.45.1.55a.26.26,0,0,1-.12.07Z"/><path class="cls-3" d="M62.53,22.52a1.66,1.66,0,0,1-.53-.06v-.16h.17a.93.93,0,0,0,.57-.17,1.29,1.29,0,0,0,.4-1.08c0-1.16-.68-1.2-1.09-1.2l-.34,0v3.56c0,.63,0,.88.11,1s.29.23.63.24v.15l-1.3,0c-.28,0-.74,0-1.08,0v-.15a.54.54,0,0,0,.4-.18c.14-.15.15-.38.15-1.08V20.69c0-.51,0-.69-.1-.81a.54.54,0,0,0-.41-.2v-.15l1,0,1.22,0a4.74,4.74,0,0,1,.91.08A1.3,1.3,0,0,1,64.32,21c0,1.08-.83,1.55-1.8,1.55"/><path class="cls-3" d="M67.72,19.85c-1.1,0-1.5,1.05-1.5,2.34s.46,2.39,1.49,2.39,1.5-1.05,1.5-2.34-.46-2.39-1.49-2.39m0,5.09A2.45,2.45,0,0,1,65,22.29a2.6,2.6,0,0,1,2.75-2.8,2.45,2.45,0,0,1,2.66,2.65,2.6,2.6,0,0,1-2.75,2.8"/><path class="cls-3" d="M76.24,19.86c-.14.15-.15.38-.15,1.08v4h-.45l-3.08-4.09a1.64,1.64,0,0,1-.19-.31v3.22c0,.51,0,.69.11.81a.54.54,0,0,0,.41.2v.15c-.32,0-.48,0-.76,0a7.37,7.37,0,0,0-.81,0v-.15a.54.54,0,0,0,.4-.18c.14-.15.15-.38.15-1.08V20.69c0-.51,0-.69-.11-.81a.54.54,0,0,0-.41-.2v-.15l.94,0,.7,0,2.35,3.12a2.81,2.81,0,0,1,.26.4V20.69c0-.51,0-.69-.11-.81a.54.54,0,0,0-.41-.2v-.15c.32,0,.51,0,.79,0a6.82,6.82,0,0,0,.78,0v.15a.55.55,0,0,0-.4.18"/><path class="cls-3" d="M81.16,20.6a.62.62,0,0,0-.28-.55,1.52,1.52,0,0,0-.84-.12h-.3v3.78c0,.51,0,.69.11.8s.49.21.57.21v.15l-1.25,0-1.25,0v-.15a.89.89,0,0,0,.56-.19c.14-.15.15-.36.15-1.06V19.93h-.3a1.52,1.52,0,0,0-.84.12.62.62,0,0,0-.28.55H77c0-.37,0-1,0-1H81.3s0,.67,0,1Z"/><path class="cls-3" d="M83.62,19.86c-.14.15-.15.38-.15,1.08v2.78c0,.51,0,.69.11.81a.54.54,0,0,0,.41.2v.15l-1.09,0-1.08,0v-.15a.54.54,0,0,0,.4-.18c.14-.15.15-.38.15-1.08V20.69c0-.51,0-.69-.11-.81a.54.54,0,0,0-.41-.2v-.15l1.09,0,1.08,0v.15a.55.55,0,0,0-.4.18"/><path class="cls-3" d="M88.34,20.6a.62.62,0,0,0-.28-.55,1.52,1.52,0,0,0-.84-.12h-.66v2h.68a1,1,0,0,0,.66-.14.63.63,0,0,0,.21-.48h.17c0,.18,0,.29,0,.8s0,.6,0,.78h-.17a.63.63,0,0,0-.18-.44,1.07,1.07,0,0,0-.7-.16h-.66v1.44c0,.51,0,.67.11.78s.49.21.57.21v.15l-1.24,0c-.45,0-.65,0-1.1,0v-.15a.54.54,0,0,0,.4-.18c.14-.15.15-.38.15-1.08V20.69c0-.51,0-.69-.11-.81a.54.54,0,0,0-.41-.2v-.15c.44,0,.79,0,1.25,0h2.31s0,.67,0,1Z"/><path class="cls-3" d="M91,19.86c-.14.15-.15.38-.15,1.08v2.78c0,.51,0,.69.11.81a.54.54,0,0,0,.41.2v.15l-1.09,0-1.08,0v-.15a.54.54,0,0,0,.4-.18c.14-.15.15-.38.15-1.08V20.69c0-.51,0-.69-.11-.81a.54.54,0,0,0-.41-.2v-.15l1.09,0,1.08,0v.15a.55.55,0,0,0-.4.18"/><path class="cls-3" d="M96.49,20.6a.58.58,0,0,0-.22-.47,1.49,1.49,0,0,0-.92-.26c-.71,0-1.8.15-1.8,2.35,0,1.35.46,2.29,1.83,2.29a1.16,1.16,0,0,0,.9-.3.7.7,0,0,0,.17-.49h.17c0,.23,0,.49,0,.87v.14a5,5,0,0,1-1.37.18A2.93,2.93,0,0,1,92.84,24a2.61,2.61,0,0,1-.51-1.67,2.67,2.67,0,0,1,1.83-2.65,4,4,0,0,1,1.23-.18,12.59,12.59,0,0,1,1.27.09c0,.15,0,.34,0,.5s0,.41,0,.52Z"/><path class="cls-3" d="M99.35,19.86c-.14.15-.15.38-.15,1.08v2.78c0,.51,0,.69.11.81a.54.54,0,0,0,.41.2v.15l-1.09,0-1.08,0v-.15a.54.54,0,0,0,.4-.18c.14-.15.15-.38.15-1.08V20.69c0-.51,0-.69-.11-.81a.54.54,0,0,0-.41-.2v-.15l1.09,0,1.08,0v.15a.55.55,0,0,0-.4.18"/><path class="cls-3" d="M102.71,21.44a5.73,5.73,0,0,1-.22-.73l-.67,1.81h1.26Zm1.63,3.41-1.08,0v-.15a.58.58,0,0,0,.38-.1.23.23,0,0,0,.07-.18,1.6,1.6,0,0,0-.12-.46l-.39-1.12H101.7L101.28,24a1.63,1.63,0,0,0-.13.46.2.2,0,0,0,.06.17.6.6,0,0,0,.37.1v.15c-.28,0-.48,0-.77,0s-.49,0-.75,0v-.15a.46.46,0,0,0,.4-.23,8.37,8.37,0,0,0,.4-.88l1.68-4.08.59-.1,1.46,4.11c.2.56.35.91.38,1a.42.42,0,0,0,.38.23v.15l-1,0"/><path class="cls-3" d="M64.95,29.23c-.14.15-.15.38-.15,1.08v1.64a3.77,3.77,0,0,1-.14,1.31,2,2,0,0,1-2.07,1c-1.37,0-1.83-.49-2-1a4.05,4.05,0,0,1-.14-1.36V30.06c0-.51,0-.69-.11-.81a.54.54,0,0,0-.41-.2V28.9l1.09,0,1.08,0V29a.54.54,0,0,0-.4.18c-.14.15-.15.38-.15,1.08v2.15c0,.73.06,1.48,1.24,1.48S64,33.08,64,32.45V30.06c0-.51,0-.69-.11-.81a.54.54,0,0,0-.41-.2V28.9c.32,0,.59,0,.87,0l1,0V29a.54.54,0,0,0-.4.18"/><path class="cls-3" d="M71,29.23c-.14.15-.15.38-.15,1.08v4h-.45l-3.08-4.09a1.63,1.63,0,0,1-.19-.31v3.22c0,.51,0,.69.11.81a.54.54,0,0,0,.41.2v.15c-.32,0-.48,0-.76,0a7.37,7.37,0,0,0-.81,0V34.1a.54.54,0,0,0,.4-.18c.14-.15.15-.38.15-1.08V30.06c0-.51,0-.69-.11-.81a.54.54,0,0,0-.41-.2V28.9l.94,0,.7,0L70.09,32a2.81,2.81,0,0,1,.26.4V30.06c0-.51,0-.69-.11-.81a.54.54,0,0,0-.41-.2V28.9c.32,0,.51,0,.79,0a6.82,6.82,0,0,0,.78,0V29a.55.55,0,0,0-.4.18"/><path class="cls-3" d="M74,29.23c-.14.15-.15.38-.15,1.08v2.78c0,.51,0,.69.11.81a.54.54,0,0,0,.41.2v.15l-1.09,0-1.08,0V34.1a.54.54,0,0,0,.4-.18c.14-.15.15-.38.15-1.08V30.06c0-.51,0-.69-.11-.81a.54.54,0,0,0-.41-.2V28.9l1.09,0,1.08,0V29a.54.54,0,0,0-.4.18"/><path class="cls-3" d="M79.76,29.28a8.32,8.32,0,0,0-.4.88l-1.67,4.08-.61.11-1.46-4.11c-.2-.56-.35-.91-.38-1a.42.42,0,0,0-.38-.23V28.9l1,0,1.08,0V29a.58.58,0,0,0-.38.1.23.23,0,0,0-.07.18,1.6,1.6,0,0,0,.12.46l.88,2.54c.17.49.23.73.23.73s.09-.27.27-.74l.94-2.53a1.62,1.62,0,0,0,.13-.46.2.2,0,0,0-.06-.17.6.6,0,0,0-.37-.1V28.9c.28,0,.49,0,.78,0s.49,0,.75,0V29a.46.46,0,0,0-.4.23"/><path class="cls-3" d="M84,34.23H81.78c-.45,0-.89,0-1.34,0V34.1a.55.55,0,0,0,.4-.18c.14-.15.15-.38.15-1.08V30.06c0-.51,0-.69-.11-.81a.54.54,0,0,0-.41-.2V28.9c.44,0,.79,0,1.25,0H84s0,.67,0,1h-.17a.62.62,0,0,0-.28-.55,1.52,1.52,0,0,0-.84-.12h-.66v2h.68a1,1,0,0,0,.66-.14.63.63,0,0,0,.21-.48h.17c0,.18,0,.29,0,.8s0,.6,0,.78h-.17a.63.63,0,0,0-.18-.44,1.06,1.06,0,0,0-.7-.16h-.66v1.79c0,.36.06.41.5.41h.14c.44,0,.77,0,1-.22a.82.82,0,0,0,.19-.54h.17c0,.37,0,1.13,0,1.13"/><path class="cls-3" d="M87,29.22a3,3,0,0,0-.35,0v2.39l.38,0a1.27,1.27,0,0,0,.32,0c.11,0,.65-.13.65-1.23s-.68-1.17-1-1.17m2.5,5a1.39,1.39,0,0,1-1.33-.69c-.18-.23-.78-1-1.18-1.59H86.7v1.1c0,.51,0,.69.1.81a.54.54,0,0,0,.41.2v.15l-1.06,0-1.08,0V34.1a.54.54,0,0,0,.4-.18c.14-.15.15-.38.15-1.08V30.06c0-.51,0-.69-.11-.81a.54.54,0,0,0-.41-.2V28.9l.87,0c.58,0,.72,0,1.24,0a4.11,4.11,0,0,1,.92.08,1.28,1.28,0,0,1,1.08,1.29A1.45,1.45,0,0,1,88,31.74l1.38,1.59c.4.45.67.75,1,.77v.14a6.53,6.53,0,0,1-.87,0"/><path class="cls-3" d="M92.13,34.27a4.64,4.64,0,0,1-1.28-.17V34c0-.38,0-.65,0-.88H91a.84.84,0,0,0,.28.58,1.3,1.3,0,0,0,.82.22c1,0,1.06-.69,1.06-.85,0-.53-.34-.72-.78-1l-.45-.28a1.61,1.61,0,0,1-1-1.49c0-.4.19-1.42,1.88-1.42a8.15,8.15,0,0,1,1.25.09,3.55,3.55,0,0,0,0,.44c0,.45,0,.58,0,.58H93.9a.73.73,0,0,0-.22-.48,1.2,1.2,0,0,0-.82-.26c-.83,0-.93.48-.93.75s.24.62.68.88l.52.31a1.65,1.65,0,0,1,1.05,1.55c0,1.08-.86,1.55-2,1.55"/><path class="cls-3" d="M96.95,29.23c-.14.15-.15.38-.15,1.08v2.78c0,.51,0,.69.11.81a.54.54,0,0,0,.41.2v.15l-1.09,0-1.08,0V34.1a.54.54,0,0,0,.4-.18c.14-.15.15-.38.15-1.08V30.06c0-.51,0-.69-.11-.81a.54.54,0,0,0-.41-.2V28.9l1.09,0,1.08,0V29a.55.55,0,0,0-.4.18"/><path class="cls-3" d="M100.47,29.28a4.15,4.15,0,0,0-.57,0v4.13c0,.23,0,.36.19.4a1.62,1.62,0,0,0,.39,0c1.23,0,1.76-.65,1.76-2.33,0-2.05-1.07-2.26-1.76-2.26m1.1,4.83a5.17,5.17,0,0,1-1.32.13l-1.08,0-.94,0V34.1a.55.55,0,0,0,.4-.18c.14-.15.15-.38.15-1.08V30.06c0-.51,0-.69-.11-.81a.54.54,0,0,0-.41-.2V28.9s.31,0,.9,0l1.33,0c.73,0,3,.06,3,2.52a2.47,2.47,0,0,1-1.88,2.69"/><path class="cls-3" d="M106.33,30.8a5.73,5.73,0,0,1-.22-.73l-.67,1.81h1.26ZM108,34.21l-1.08,0V34.1a.58.58,0,0,0,.38-.1.23.23,0,0,0,.07-.18,1.59,1.59,0,0,0-.12-.46l-.39-1.12h-1.51l-.41,1.12a1.62,1.62,0,0,0-.13.46.2.2,0,0,0,.06.17.6.6,0,0,0,.37.1v.15c-.28,0-.48,0-.77,0s-.49,0-.75,0V34.1a.46.46,0,0,0,.4-.23,8.3,8.3,0,0,0,.4-.88l1.68-4.08.59-.1,1.46,4.11c.2.56.35.91.38,1a.42.42,0,0,0,.38.23v.15l-1,0"/><path class="cls-3" d="M111.73,29.28a4.16,4.16,0,0,0-.57,0v4.13c0,.23,0,.36.19.4a1.62,1.62,0,0,0,.39,0c1.23,0,1.76-.65,1.76-2.33,0-2.05-1.07-2.26-1.76-2.26m1.1,4.83a5.17,5.17,0,0,1-1.32.13l-1.08,0-.94,0V34.1a.55.55,0,0,0,.4-.18c.14-.15.15-.38.15-1.08V30.06c0-.51,0-.69-.11-.81a.54.54,0,0,0-.41-.2V28.9s.31,0,.9,0l1.33,0c.73,0,3,.06,3,2.52a2.47,2.47,0,0,1-1.88,2.69"/><path class="cls-3" d="M66.07,39.67a.83.83,0,0,0-.31-.67,2.12,2.12,0,0,0-1.31-.37c-1,0-2.56.22-2.56,3.34,0,1.92.66,3.25,2.6,3.25a1.65,1.65,0,0,0,1.28-.43,1,1,0,0,0,.24-.7h.24c0,.33,0,.69,0,1.23v.2a7.09,7.09,0,0,1-1.94.25,4.17,4.17,0,0,1-3.37-1.3,3.71,3.71,0,0,1-.72-2.37,3.8,3.8,0,0,1,2.6-3.77,5.67,5.67,0,0,1,1.75-.25,17.91,17.91,0,0,1,1.8.13c0,.22,0,.48,0,.71s0,.59,0,.74Z"/><path class="cls-3" d="M70.53,40.86a8.2,8.2,0,0,1-.31-1l-1,2.57h1.79Zm2.31,4.84c-.34,0-1.2,0-1.53,0v-.21a.83.83,0,0,0,.54-.14.32.32,0,0,0,.1-.25,2.26,2.26,0,0,0-.17-.66l-.55-1.59H69.08l-.59,1.6a2.31,2.31,0,0,0-.18.66.29.29,0,0,0,.09.24.85.85,0,0,0,.53.14v.21c-.4,0-.68,0-1.09,0s-.7,0-1.07,0v-.21a.65.65,0,0,0,.56-.33A12,12,0,0,0,67.9,44l2.39-5.79.84-.15,2.07,5.84c.29.79.49,1.29.54,1.37a.6.6,0,0,0,.54.32v.21c-.33,0-1.1,0-1.44,0"/><path class="cls-3" d="M80.13,39.67a.88.88,0,0,0-.39-.78,2.16,2.16,0,0,0-1.2-.17h-.43v5.37c0,.72,0,1,.15,1.14s.7.3.82.3v.22c-.45,0-1.37,0-1.77,0s-1.33,0-1.78,0v-.21a1.26,1.26,0,0,0,.79-.28c.2-.22.21-.52.21-1.51v-5h-.43a2.16,2.16,0,0,0-1.2.17.89.89,0,0,0-.39.78h-.24c0-.53,0-1.48,0-1.48h6s0,1,0,1.48Z"/><path class="cls-3" d="M86.47,36.73,84,37.61l-.14-.21,1.61-1.58.08,0,1,.76Zm-1.56,1.87c-1.56,0-2.13,1.49-2.13,3.32s.66,3.4,2.12,3.4S87,43.84,87,42s-.66-3.4-2.12-3.4m-.07,7.23a3.48,3.48,0,0,1-3.78-3.76,3.7,3.7,0,0,1,3.91-4,3.48,3.48,0,0,1,3.78,3.76,3.7,3.7,0,0,1-3.91,4"/><path class="cls-3" d="M95.07,45.72H91.92c-.64,0-1.26,0-1.91,0v-.21a.77.77,0,0,0,.56-.25c.2-.22.21-.54.21-1.53v-4c0-.72,0-1-.15-1.15a.77.77,0,0,0-.59-.29v-.21c.45,0,1.28,0,1.68,0s1.25,0,1.7,0v.22c-.48,0-.74.13-.9.34s-.16.59-.16,1.48v4.4c0,.52.09.59.71.59h.2c.63,0,1,0,1.31-.31a1.16,1.16,0,0,0,.28-.77h.24c0,.53,0,1.61,0,1.61"/><path class="cls-3" d="M98.82,38.62c-.2.22-.21.54-.21,1.53v4c0,.72,0,1,.15,1.15a.77.77,0,0,0,.59.29v.21c-.45,0-1.15,0-1.55,0s-1.09,0-1.54,0v-.21a.77.77,0,0,0,.56-.25c.2-.22.21-.54.21-1.53v-4c0-.72,0-1-.15-1.15a.77.77,0,0,0-.59-.29v-.21c.45,0,1.15,0,1.55,0s1.09,0,1.54,0v.21a.77.77,0,0,0-.56.25"/><path class="cls-3" d="M106.56,39.67a.83.83,0,0,0-.31-.67,2.12,2.12,0,0,0-1.31-.37c-1,0-2.56.22-2.56,3.34,0,1.92.66,3.25,2.6,3.25a1.65,1.65,0,0,0,1.28-.43,1,1,0,0,0,.24-.7h.24c0,.33,0,.69,0,1.23v.2a7.09,7.09,0,0,1-1.94.25,4.17,4.17,0,0,1-3.37-1.3,3.71,3.71,0,0,1-.72-2.37,3.8,3.8,0,0,1,2.6-3.77A5.67,5.67,0,0,1,105,38.1a17.9,17.9,0,0,1,1.8.13c0,.22,0,.48,0,.71s0,.59,0,.74Z"/><path class="cls-3" d="M111,40.86a8.2,8.2,0,0,1-.31-1l-1,2.57h1.79Zm2.31,4.84c-.34,0-1.2,0-1.53,0v-.21a.83.83,0,0,0,.54-.14.32.32,0,0,0,.1-.25,2.26,2.26,0,0,0-.17-.66l-.55-1.59h-2.15L109,44.5a2.31,2.31,0,0,0-.18.66.29.29,0,0,0,.09.24.85.85,0,0,0,.53.14v.21c-.4,0-.68,0-1.09,0s-.7,0-1.07,0v-.21a.65.65,0,0,0,.56-.33,12,12,0,0,0,.56-1.25l2.39-5.79.84-.15,2.07,5.84c.29.79.49,1.29.54,1.37a.6.6,0,0,0,.54.32v.21c-.33,0-1.1,0-1.44,0"/><path class="cls-3" d="M120.21,40.78a4.16,4.16,0,0,0-.57,0v4.13c0,.23,0,.36.19.4a1.62,1.62,0,0,0,.39,0c1.23,0,1.76-.65,1.76-2.33,0-2.05-1.07-2.26-1.76-2.26m1.1,4.83a5.17,5.17,0,0,1-1.32.13l-1.08,0-.94,0v-.15a.55.55,0,0,0,.4-.18c.14-.15.15-.38.15-1.08V41.55c0-.51,0-.69-.11-.81a.54.54,0,0,0-.41-.2V40.4s.31,0,.9,0l1.33,0c.73,0,3,.06,3,2.52a2.47,2.47,0,0,1-1.88,2.69"/><path class="cls-3" d="M127.68,45.72h-2.27c-.45,0-.89,0-1.34,0v-.15a.54.54,0,0,0,.4-.18c.14-.15.15-.38.15-1.08V41.55c0-.51,0-.69-.11-.81a.54.54,0,0,0-.41-.2V40.4c.44,0,.79,0,1.25,0h2.31s0,.67,0,1h-.17a.62.62,0,0,0-.28-.55,1.52,1.52,0,0,0-.84-.12h-.66v2h.68a1,1,0,0,0,.66-.14.63.63,0,0,0,.21-.48h.17c0,.18,0,.29,0,.8s0,.6,0,.78h-.17a.63.63,0,0,0-.18-.44,1.07,1.07,0,0,0-.7-.16h-.66v1.79c0,.36.06.41.5.41h.14c.44,0,.77,0,1-.22a.82.82,0,0,0,.19-.54h.17c0,.37,0,1.13,0,1.13"/><path class="cls-3" d="M66.5,50.24a11.81,11.81,0,0,0-.56,1.24l-2.36,5.75-.87.15-2.05-5.8c-.29-.79-.49-1.28-.54-1.36a.6.6,0,0,0-.54-.32v-.21c.33,0,1.1,0,1.43,0s1.2,0,1.53,0v.21a.82.82,0,0,0-.54.14.32.32,0,0,0-.1.25,2.25,2.25,0,0,0,.17.65l1.24,3.58c.24.7.32,1,.32,1s.13-.38.38-1l1.32-3.57a2.29,2.29,0,0,0,.18-.65.29.29,0,0,0-.09-.24.85.85,0,0,0-.52-.14v-.21c.4,0,.68,0,1.1,0s.7,0,1.06,0v.21a.65.65,0,0,0-.56.33"/><path class="cls-3" d="M70.05,52.39a8.16,8.16,0,0,1-.31-1l-.95,2.56h1.78Zm2.29,4.8c-.34,0-1.19,0-1.52,0V57a.82.82,0,0,0,.54-.14.32.32,0,0,0,.1-.25A2.25,2.25,0,0,0,71.3,56l-.55-1.57H68.61L68,56a2.29,2.29,0,0,0-.18.65.29.29,0,0,0,.09.24.84.84,0,0,0,.52.14v.21c-.4,0-.67,0-1.08,0s-.7,0-1.06,0V57a.65.65,0,0,0,.56-.33,11.81,11.81,0,0,0,.56-1.24l2.37-5.75.83-.15,2.05,5.8c.29.79.49,1.28.54,1.36a.6.6,0,0,0,.54.32v.21c-.33,0-1.1,0-1.43,0"/><path class="cls-3" d="M79.53,57.22H76.41c-.64,0-1.26,0-1.89,0V57a.77.77,0,0,0,.56-.25c.19-.22.21-.54.21-1.52V51.34c0-.72,0-1-.15-1.14a.76.76,0,0,0-.58-.29v-.21c.44,0,1.27,0,1.67,0s1.24,0,1.69,0v.22c-.48,0-.73.13-.89.34s-.16.58-.16,1.47v4.37c0,.51.09.58.71.58h.19c.63,0,1,0,1.3-.31a1.15,1.15,0,0,0,.27-.76h.24c0,.53,0,1.6,0,1.6"/><path class="cls-3" d="M84.19,53.92a2.34,2.34,0,0,1-.75-.09V53.6h.24a1.31,1.31,0,0,0,.81-.24A1.82,1.82,0,0,0,85,51.85c0-1.64-1-1.69-1.54-1.69-.19,0-.48,0-.48,0v5c0,.89,0,1.24.16,1.47s.41.32.89.34v.21c-.44,0-1.44,0-1.84,0s-1,0-1.53,0V57a.77.77,0,0,0,.56-.25c.19-.22.21-.54.21-1.52V51.34c0-.72,0-1-.15-1.14a.76.76,0,0,0-.58-.29v-.21c.44,0,1,0,1.37,0l1.72,0a6.68,6.68,0,0,1,1.29.11,1.83,1.83,0,0,1,1.6,1.89c0,1.52-1.16,2.19-2.53,2.19"/><path class="cls-3" d="M90.17,52.39a8.16,8.16,0,0,1-.31-1l-.95,2.56h1.78Zm2.29,4.8c-.34,0-1.19,0-1.52,0V57a.82.82,0,0,0,.54-.14.32.32,0,0,0,.1-.25,2.26,2.26,0,0,0-.17-.65l-.55-1.57H88.73L88.15,56a2.29,2.29,0,0,0-.18.65.29.29,0,0,0,.09.24.84.84,0,0,0,.52.14v.21c-.4,0-.67,0-1.08,0s-.7,0-1.06,0V57A.65.65,0,0,0,87,56.7a11.81,11.81,0,0,0,.56-1.24l2.37-5.75.83-.15,2.05,5.8c.29.79.49,1.28.54,1.36a.6.6,0,0,0,.54.32v.21c-.33,0-1.1,0-1.43,0"/><path class="cls-3" d="M97.4,50.15a4.2,4.2,0,0,0-.49,0v3.38s.26,0,.54,0a1.78,1.78,0,0,0,.44,0c.16,0,.91-.18.91-1.73s-1-1.65-1.4-1.65m3.53,7.12a2,2,0,0,1-1.87-1c-.25-.32-1.11-1.43-1.67-2.25h-.48v1.55c0,.72,0,1,.15,1.14a.76.76,0,0,0,.58.29v.21c-.44,0-1.1,0-1.49,0s-1.07,0-1.52,0V57a.77.77,0,0,0,.56-.25c.19-.22.21-.54.21-1.52V51.34c0-.72,0-1-.15-1.14a.76.76,0,0,0-.58-.29v-.21c.44,0,.83,0,1.23,0,.82,0,1,0,1.75,0a5.82,5.82,0,0,1,1.3.11,1.8,1.8,0,0,1,1.52,1.81,2.05,2.05,0,0,1-1.67,2.08l1.94,2.24c.56.63.95,1.06,1.43,1.08v.19a9.24,9.24,0,0,1-1.23,0"/><path class="cls-3" d="M106.2,52.39a8.16,8.16,0,0,1-.31-1l-.95,2.56h1.78Zm2.29,4.8c-.34,0-1.19,0-1.52,0V57a.82.82,0,0,0,.54-.14.32.32,0,0,0,.1-.25,2.25,2.25,0,0,0-.17-.65l-.55-1.57h-2.13L104.18,56a2.29,2.29,0,0,0-.18.65.29.29,0,0,0,.09.24.84.84,0,0,0,.52.14v.21c-.4,0-.67,0-1.08,0s-.7,0-1.06,0V57a.65.65,0,0,0,.56-.33,11.88,11.88,0,0,0,.56-1.24L106,49.71l.83-.15,2.05,5.8c.29.79.49,1.28.54,1.36a.6.6,0,0,0,.54.32v.21c-.33,0-1.1,0-1.43,0"/><path class="cls-3" d="M113.74,48.29l-2.46.87-.14-.21,1.6-1.56.08,0,1,.75Zm-.54,1.87c-.19.22-.21.54-.21,1.52v3.93c0,.72,0,1,.15,1.14a.76.76,0,0,0,.58.29v.21c-.44,0-1.14,0-1.54,0s-1.08,0-1.53,0V57a.77.77,0,0,0,.56-.25c.19-.22.21-.54.21-1.52V51.34c0-.72,0-1-.15-1.14a.76.76,0,0,0-.58-.29v-.21c.44,0,1.14,0,1.54,0s1.08,0,1.53,0v.21a.77.77,0,0,0-.56.25"/><path class="cls-3" d="M116.87,57.28a6.54,6.54,0,0,1-1.8-.24v-.18c0-.54,0-.91,0-1.24h.24a1.18,1.18,0,0,0,.4.82,1.83,1.83,0,0,0,1.15.31c1.47,0,1.49-1,1.49-1.2,0-.74-.48-1-1.11-1.4l-.64-.4a2.27,2.27,0,0,1-1.36-2.1c0-.57.27-2,2.65-2a11.47,11.47,0,0,1,1.76.13,5,5,0,0,0,0,.62c0,.64,0,.82,0,.82h-.24a1,1,0,0,0-.31-.67,1.69,1.69,0,0,0-1.16-.37c-1.18,0-1.31.67-1.31,1.06,0,.59.34.88,1,1.24l.73.43a2.32,2.32,0,0,1,1.48,2.19c0,1.53-1.21,2.18-2.88,2.18"/><path class="cls-3" d="M124.94,50.15c-1.55,0-2.11,1.48-2.11,3.3s.65,3.38,2.1,3.38,2.11-1.48,2.11-3.3-.65-3.38-2.1-3.38m-.07,7.18a3.45,3.45,0,0,1-3.75-3.73A3.67,3.67,0,0,1,125,49.65a3.45,3.45,0,0,1,3.75,3.73,3.67,3.67,0,0,1-3.88,3.95"/></g></svg>