<svg xmlns="http://www.w3.org/2000/svg" xmlns:xlink="http://www.w3.org/1999/xlink" viewBox="0 0 165.27 39.65"><defs><style>.cls-1{fill:none;}.cls-2{clip-path:url(#clip-path);}.cls-3{fill:#fff;}</style><clipPath id="clip-path"><rect class="cls-1" x="1083.11" y="-5070.28" width="1366" height="2853.96"/></clipPath></defs><title>web-logo-unicef</title><g id="fondos"><g class="cls-2"><path class="cls-3" d="M2589.27-4084.28c-47.23-29.33-130.15-46.55-185.15-38.45l-1252.6,183.78c-55,8-128.9,47.32-165.1,88.18L140.07-2898.51c-36.14,40.82-66.83,117.53-68.47,171.4L32.13-1450.88c-1.64,53.88,24.51,133,58.5,176.35L875.15-276.17c34,43.35,105.85,87.53,160.52,98.89L2273.72,79.81C2328.4,91.16,2412,79.25,2460.39,53l1117.1-603.48c48.44-26.24,103.93-88.4,123.88-138.48l471.91-1186.43c19.95-50.08,22.38-132.65,5.44-184.49l-397.24-1210.5c-16.94-51.9-69.05-117.34-116.29-146.61Z"/></g></g><g id="figuras"><path class="cls-3" d="M165.27,16.2a10.91,10.91,0,0,1-.48,2.58,6.69,6.69,0,0,1-2.89,3.72l-.15.07a5.26,5.26,0,0,1,.23-1.66,22.93,22.93,0,0,1,2.05-5c.29-.51.65-1,1-1.47l.17-.21.07.79Z"/><path class="cls-3" d="M142.29,31.19A15.6,15.6,0,1,1,158,15.66,15.62,15.62,0,0,1,142.29,31.19ZM142,7V4.44l0,0-1.78-.32a.23.23,0,0,0-.18.09c-.12.18-.21.37-.32.56L139,5.91l-.53-.36.93-1.71L138,3l-1.53,1.26c-.07.06-.17.14-.25.13a5.77,5.77,0,0,1-.66-.17l1.95-1.66c-.23-.24-.46-.48-.67-.73a.17.17,0,0,0-.24-.05,14.93,14.93,0,0,0-5.26,3.65,14.67,14.67,0,0,0-3.83,8.11c-.08.55-.11,1.11-.16,1.71l.11-.07A16.57,16.57,0,0,1,130,13.44a1.47,1.47,0,0,0,.7-1.78,7.31,7.31,0,0,1-.33-2.52A4.26,4.26,0,0,1,131,6.92a4.46,4.46,0,0,1,5.18-1.75,7.4,7.4,0,0,1,3.1,2,3.28,3.28,0,0,1,1,2.52,3.64,3.64,0,0,1-.81,2,1.4,1.4,0,0,0-.29,1.5c.13.3.06.41-.24.53s-.32.19-.26.42,0,.27-.13.33a.28.28,0,0,0-.19.34c0,.07-.09.22-.13.22-.31,0-.45.18-.6.39a1,1,0,0,1-.72.43,4.38,4.38,0,0,1-.92,0c-.4-.06-.78-.19-1.18-.25a.73.73,0,0,0-.89.89c.11.45.23.89.3,1.35.18,1.22.33,2.44.47,3.66A.75.75,0,0,0,135,22a2.29,2.29,0,0,0,1.22.38,10,10,0,0,1,1.42.13.81.81,0,0,0,.8-.19,1.69,1.69,0,0,1,1.3-.53c.22,0,.27.1.21.32a1,1,0,0,0,0,.18.81.81,0,0,0,.21,0c.16,0,.32-.11.48-.13a.42.42,0,0,1,.5.37.91.91,0,0,1,0,.36,6.14,6.14,0,0,1-.28,1,1.48,1.48,0,0,1-1.44,1,6.84,6.84,0,0,1-1-.19,1.39,1.39,0,0,0-.44,0c-.93.15-1.86.35-2.79.46a3,3,0,0,1-2.47-.48,2.65,2.65,0,0,0-.56,1.47.69.69,0,0,0,.28.64c.18.13.34.29.51.43.39.29.72.68,1.26.69.22,0,.45,0,.67,0a7.2,7.2,0,0,0,2.82-.63,14.7,14.7,0,0,1,4.56-1.28,1.21,1.21,0,0,0,.95-1.74,6,6,0,0,1-.33-2,2.48,2.48,0,0,0-1-2c-.45-.36-.91-.71-1.33-1.1a1.2,1.2,0,0,1-.06-1.77.71.71,0,0,0,.28-.75c-.06-.33.07-.48.4-.53a.35.35,0,0,0,.35-.44,3.69,3.69,0,0,1,0-.47c0-.15.07-.26.26-.25a.35.35,0,0,0,.37-.52,5.6,5.6,0,0,1-.22-.59.39.39,0,0,1,.31-.53,2.75,2.75,0,0,1,.47-.05c.23,0,.46,0,.69,0a3.18,3.18,0,0,0,2-1,10.1,10.1,0,0,1,1-1,5.09,5.09,0,0,1,5.21-1A7.55,7.55,0,0,1,154,11.92,6.73,6.73,0,0,1,156.41,17a6.34,6.34,0,0,1-2.08,5.07,7.37,7.37,0,0,1-2.08,1.4,4.58,4.58,0,0,1-2.28.38c-.4,0-.54,0-.59.45a2.58,2.58,0,0,0,.17,1.29,3.75,3.75,0,0,0,1.74,1.85.29.29,0,0,0,.26,0c.42-.35.84-.7,1.24-1.08a14.94,14.94,0,0,0,2.65-18c-.17-.31-.36-.6-.53-.88L152.29,9l.4,1,0,0c-.34-.2-.84-.19-.92-.73a1.27,1.27,0,0,1-.45.13c-.35,0-.7-.14-1.08-.22l1.24-.49a15.82,15.82,0,0,0-1.82-2.83L146.81,7l.88,2.59-.61.18-.88-2.57-3.52.5V10.6l3.54-.3-.75.67a.34.34,0,0,1-.18.07l-.62.05-2,.14v1.05H142V7.63l-1.38-.07a.24.24,0,0,1-.17-.06c-.12-.19-.23-.39-.35-.61Zm12.54-.06A15,15,0,0,0,152,4.15l-1.77,1.27,1.86,2.92ZM142.67,4.45V7a14.48,14.48,0,0,0,3.21-.45,1.2,1.2,0,0,0,0-.13c-.32-.63-.63-1.26-1-1.89-.24-.46-.25-.44-.74-.33S143.17,4.36,142.67,4.45Zm2.6-.61,1.28,2.5a13.34,13.34,0,0,0,2.6-1.09A15.45,15.45,0,0,0,146.73,3a.17.17,0,0,0-.15,0Zm4.52,1.08,1.67-1.17a14.66,14.66,0,0,0-3.4-2,.19.19,0,0,0-.17,0c-.24.25-.48.51-.68.74ZM142.67,3.8l1.58-.28,0-.08-1.54-2.11-.05,0Zm-.67,0V1.37l0,0-1.57,2.15c.31.07.55.14.8.18S141.71,3.74,142,3.78Zm1.49-2.61,0,.06c.39.54.79,1.08,1.17,1.63s.28.42.74.18c.24-.13.47-.28.71-.42V2.53Zm-2.24,0a15.09,15.09,0,0,0-2.66,1.42l1.18.66Zm2.85-.45.07.06,2.36,1.3a.22.22,0,0,0,.2,0c.2-.19.38-.39.59-.6A14.49,14.49,0,0,0,144.09.75Zm-6.73.74.69.65,2.5-1.39A14.42,14.42,0,0,0,137.36,1.49Z"/><path class="cls-3" d="M83.42,24.33a9.92,9.92,0,0,0,.83,5.14A5.19,5.19,0,0,0,89,32.6a7.92,7.92,0,0,0,2.82-.35,4.11,4.11,0,0,0,2.69-2.77c.17-.51.28-1,.42-1.58h4.66c-.18.7-.32,1.38-.54,2a7.77,7.77,0,0,1-1.86,3,8.68,8.68,0,0,1-3,2,12.77,12.77,0,0,1-4.11.84,13.13,13.13,0,0,1-4.35-.43,8.54,8.54,0,0,1-5.17-4,13,13,0,0,1-1.63-5.17,19.16,19.16,0,0,1,.23-6.25,12.05,12.05,0,0,1,2.41-5.27,9.24,9.24,0,0,1,5.26-3.21,12.26,12.26,0,0,1,6.73.36,8.48,8.48,0,0,1,5.24,4.82,12.12,12.12,0,0,1,1,4.33c0,1,0,2.09.05,3.13,0,.15,0,.21-.2.21H83.42Zm11.77-3.08c0-.06,0-.09,0-.13a8.87,8.87,0,0,0-.58-3.45A5,5,0,0,0,92.16,15a6.47,6.47,0,0,0-3.24-.6,5.21,5.21,0,0,0-3.93,2,6.94,6.94,0,0,0-1.44,3.37c-.08.5-.1,1-.16,1.52Z"/><path class="cls-3" d="M24.68,35.2V11.83H29v3.42l.06,0c0-.05.08-.1.11-.16A7.19,7.19,0,0,1,32,12.3a8.89,8.89,0,0,1,6.17-1,10.58,10.58,0,0,1,2.94.9A6.65,6.65,0,0,1,44.87,17a10.83,10.83,0,0,1,.2,2.06c0,5.27,0,10.53,0,15.8,0,.1,0,.2,0,.31H40.64v-.29q0-7.34,0-14.67a7.54,7.54,0,0,0-.59-3.1,4.08,4.08,0,0,0-2.88-2.4,6.58,6.58,0,0,0-4,.14,5.56,5.56,0,0,0-3.75,4.28,15.9,15.9,0,0,0-.3,3.18q0,6.31,0,12.62c0,.22-.05.27-.27.27-1.33,0-2.65,0-4,0Z"/><path class="cls-3" d="M15.73,11.82h4.42V35.2H15.82V31.78l-.05,0a1.07,1.07,0,0,0-.09.11A8.17,8.17,0,0,1,12.14,35a10,10,0,0,1-3.7.88A8.78,8.78,0,0,1,5,35.48,6.89,6.89,0,0,1,1.25,32.4,9.09,9.09,0,0,1,0,28.13c0-.37,0-.75,0-1.12q0-7.44,0-14.89v-.29H4.44c0,.1,0,.19,0,.29q0,7,0,13.92a11.6,11.6,0,0,0,.45,3.44,4,4,0,0,0,2.75,2.95,6.07,6.07,0,0,0,5.89-1.18,5.07,5.07,0,0,0,1.55-2.59,17.75,17.75,0,0,0,.65-4.91q0-5.81,0-11.62Z"/><path class="cls-3" d="M76.6,19.31H72.27c-.15-.66-.26-1.32-.46-1.95a4.13,4.13,0,0,0-4-3,5.94,5.94,0,0,0-2.56.4,4.9,4.9,0,0,0-2.46,2.38,11,11,0,0,0-1.08,4.09,21.93,21.93,0,0,0,.13,5.46A9.2,9.2,0,0,0,63,30.27a4.79,4.79,0,0,0,4.08,2.33A5.1,5.1,0,0,0,70,31.95a4.47,4.47,0,0,0,2-2.68c.17-.56.23-1.16.34-1.73l0-.15H76.8c0,.26,0,.51-.08.76a8.69,8.69,0,0,1-2.62,5.22,8.42,8.42,0,0,1-3.6,2A11.85,11.85,0,0,1,63,35a8.3,8.3,0,0,1-4.27-3.7A13.55,13.55,0,0,1,57,25.63a19.23,19.23,0,0,1,.17-5.1,12.71,12.71,0,0,1,2.12-5.33,9.22,9.22,0,0,1,5.4-3.67,11.51,11.51,0,0,1,5.46-.09,8.09,8.09,0,0,1,4.54,2.74,8.3,8.3,0,0,1,1.83,4.62C76.59,19,76.59,19.13,76.6,19.31Z"/><path class="cls-3" d="M104.83,14.92h-4V11.85h3.78c.18,0,.21-.06.21-.22q0-2.32,0-4.63a7.13,7.13,0,0,1,.77-3.36,5.4,5.4,0,0,1,2.76-2.51,9.5,9.5,0,0,1,5.83-.47l1,.19.08,0V4.53l-.61,0a12.39,12.39,0,0,0-2.82,0,3.16,3.16,0,0,0-1.89.77,2.47,2.47,0,0,0-.69,1.83c0,1.57,0,3.14,0,4.71a.28.28,0,0,0,0,.06h5.34v3.07h-5.37V35.1h-4.4Z"/><path class="cls-3" d="M49.22,35.18V11.8h4.4V35.18Z"/><path class="cls-3" d="M136.44,39.05a16.39,16.39,0,0,1,5-4.23c-.42-.15-.79-.32-1.18-.43s-.87-.21-1.31-.29a.39.39,0,0,0-.3.09,4.46,4.46,0,0,1-3.12,1.34,14.5,14.5,0,0,1-6.66-1.17.8.8,0,0,1-.26-.15l.68-.19a24,24,0,0,1,7-.85,17.52,17.52,0,0,1,5.91,1.16.45.45,0,0,0,.3,0,17.77,17.77,0,0,1,5.69-1.15,23.11,23.11,0,0,1,6,.56c.63.14,1.25.3,1.88.5l-.57.25a15,15,0,0,1-5.67,1.08,6.4,6.4,0,0,1-2.56-.46,4.11,4.11,0,0,1-1.23-.9.38.38,0,0,0-.36-.11,8.84,8.84,0,0,0-2.43.73,16.28,16.28,0,0,1,5,4.22l-.81.55c-.1.07-.18,0-.27-.06a17.32,17.32,0,0,0-2.81-2.83c-.59-.46-1.23-.87-1.85-1.31a.29.29,0,0,0-.37,0,17.74,17.74,0,0,0-4.33,3.74l-.33.4a.17.17,0,0,1-.26.05Z"/><path class="cls-3" d="M54,6.32H48.78V6.09c0-1.44,0-2.87,0-4.31,0-.2,0-.26.26-.26h4.87l.14,0Z"/><path class="cls-3" d="M123,28.24a10.43,10.43,0,0,1,1.16.3,23.64,23.64,0,0,1,6.36,3.55,8.06,8.06,0,0,1,.79.83,6.79,6.79,0,0,1-3.85-.18A7.53,7.53,0,0,1,124,29.94c-.38-.53-.72-1.08-1.08-1.63Z"/><path class="cls-3" d="M161.81,28.27l-.44.72a10.67,10.67,0,0,1-2.31,2.72A6.2,6.2,0,0,1,154,33l-.51-.08,0-.06a8.08,8.08,0,0,1,.64-.71A16.77,16.77,0,0,1,157,30.26a23.57,23.57,0,0,1,3.3-1.61A5.35,5.35,0,0,1,161.81,28.27Z"/><path class="cls-3" d="M149.45,32.63a2.34,2.34,0,0,1,.64-1.21A27.44,27.44,0,0,1,153.72,28c.4-.33.81-.64,1.23-.95a4.43,4.43,0,0,1,.48-.27c-.11.55-.19,1-.3,1.54A6.86,6.86,0,0,1,154,31a4.22,4.22,0,0,1-3.55,1.68C150.11,32.67,149.79,32.65,149.45,32.63Z"/><path class="cls-3" d="M129.32,26.75c.3.2.57.36.82.55a32.81,32.81,0,0,1,4.13,3.7,9.14,9.14,0,0,1,.78,1,3.49,3.49,0,0,1,.27.61l-.45,0a5.17,5.17,0,0,1-2.58-.4,4.1,4.1,0,0,1-1.76-1.57,8.74,8.74,0,0,1-1.12-3.28c0-.1,0-.2,0-.3S129.33,26.91,129.32,26.75Z"/><path class="cls-3" d="M164.72,21.22c-.38,2.87-3,6.76-6.4,7.58.11-.27.2-.53.31-.77a15.11,15.11,0,0,1,1.86-2.79A20.32,20.32,0,0,1,163.66,22C164,21.72,164.34,21.49,164.72,21.22Z"/><path class="cls-3" d="M120,21.26c2,1,6,5.65,6.4,7.57-.39-.15-.77-.26-1.12-.42a8.6,8.6,0,0,1-3.34-2.8,10.46,10.46,0,0,1-1.73-3.43C120.11,21.88,120.06,21.59,120,21.26Z"/><path class="cls-3" d="M155.73,30a4.59,4.59,0,0,1,.1-2.15,20.45,20.45,0,0,1,1.76-5.24c.15-.29.35-.55.53-.83h.07c.1.35.21.69.29,1a7.44,7.44,0,0,1,.07,3.53,5.47,5.47,0,0,1-2.32,3.3Z"/><path class="cls-3" d="M129,30a5.63,5.63,0,0,1-3-4.61,8.93,8.93,0,0,1,.5-3.5.92.92,0,0,1,.05-.11,5.73,5.73,0,0,1,.94,1.58A22.93,22.93,0,0,1,129,28.4,3.41,3.41,0,0,1,129,30Z"/><path class="cls-3" d="M119.52,14.28c1.5,1.4,3.7,7.06,3.41,8.32-.39-.3-.78-.56-1.13-.88a6.76,6.76,0,0,1-2-3.23A11,11,0,0,1,119.52,14.28Z"/><path class="cls-3" d="M159.86,25a5.48,5.48,0,0,1-.64-2.06,21.19,21.19,0,0,1-.28-3.48,7.89,7.89,0,0,1,.27-2.35l.1-.32c.23.36.45.67.64,1a7.81,7.81,0,0,1,1.11,3.28A5.59,5.59,0,0,1,159.86,25Z"/><path class="cls-3" d="M125.43,16.82c.65,2,.33,6.71-.58,8.19-.17-.26-.33-.5-.48-.76a5.62,5.62,0,0,1-.41-4.67,10,10,0,0,1,1.36-2.66Z"/><path class="cls-3" d="M121.15,8c.86,1.59,1.35,6.62.73,8.59-.21-.27-.41-.51-.58-.76a6,6,0,0,1-1-3,10.81,10.81,0,0,1,.74-4.65Z"/><path class="cls-3" d="M162.85,16.51c-.61-1.72-.18-6.81.74-8.58.13.38.27.72.37,1.08a10.13,10.13,0,0,1,.33,4.57,5.81,5.81,0,0,1-1.37,2.87Z"/><path class="cls-3" d="M125.36,12.22c.31,1.83-1.35,6.29-2.41,7.43a5.8,5.8,0,0,1-.41-1.62,6,6,0,0,1,1-3.63A9.43,9.43,0,0,1,125.36,12.22Z"/><path class="cls-3" d="M161.78,19.63c-1-.87-2.76-5.61-2.4-7.42.29.3.57.56.82.85a7.77,7.77,0,0,1,1.87,3.43A5,5,0,0,1,161.78,19.63Z"/><path class="cls-3" d="M122.94,13.65a5.17,5.17,0,0,1,1.34-4.3,8.9,8.9,0,0,1,2.58-1.92A13.67,13.67,0,0,1,122.94,13.65Z"/><path class="cls-3" d="M158,7.31a11,11,0,0,1,2,1.41,5.75,5.75,0,0,1,1.78,2.87,6.18,6.18,0,0,1,.11,2C160.85,13.36,158.31,9.2,158,7.31Z"/><path class="cls-3" d="M125.53,4a10,10,0,0,1-3,6.31c-.06-.34-.13-.63-.15-.92a4.68,4.68,0,0,1,.74-2.68A10.59,10.59,0,0,1,125.46,4Z"/><path class="cls-3" d="M162.21,10.28a9.74,9.74,0,0,1-3-6.3l.48.41a9.28,9.28,0,0,1,2.2,2.82,4.06,4.06,0,0,1,.34,2.93Z"/></g></svg>