<svg xmlns="http://www.w3.org/2000/svg" viewBox="0 0 78.94 98.84"><defs><style>.cls-1{fill:#fff;}</style></defs><title>web-logo-arq-usm</title><g id="figuras"><polygon class="cls-1" points="0 0 29.64 0 0 73.91 0 0"/><polygon class="cls-1" points="36.64 5.71 21.84 42.89 51.44 42.84 36.64 5.71"/><path class="cls-1" d="M2.85,82.72H4.55l2.81,7.52H5.64l-.57-1.67H2.26l-.59,1.67H0Zm-.16,4.61H4.64l-.95-2.76h0Z"/><path class="cls-1" d="M7.54,82.72h4.05a2.42,2.42,0,0,1,.91.16,2.11,2.11,0,0,1,.69.45,1.93,1.93,0,0,1,.44.66,2.12,2.12,0,0,1,.15.8,2.26,2.26,0,0,1-.28,1.15,1.75,1.75,0,0,1-.91.74v0a1.27,1.27,0,0,1,.51.26,1.41,1.41,0,0,1,.33.42,2,2,0,0,1,.18.52,4.38,4.38,0,0,1,.08.56c0,.12,0,.26,0,.42s0,.32,0,.49a3.45,3.45,0,0,0,.08.48,1.1,1.1,0,0,0,.17.39H12.36a1.85,1.85,0,0,1-.11-.39q0-.22-.06-.45t0-.48q0-.25,0-.47a1.49,1.49,0,0,0-.36-.86,1.23,1.23,0,0,0-.89-.27H9.19v2.94H7.54Zm1.65,3.4H11a1.25,1.25,0,0,0,.85-.25,1,1,0,0,0,.29-.82,1,1,0,0,0-.29-.79A1.27,1.27,0,0,0,11,84H9.19Z"/><path class="cls-1" d="M20.92,90.94l-1.06-1a3.28,3.28,0,0,1-.83.33,4,4,0,0,1-1,.12,3.79,3.79,0,0,1-1.56-.31,3.4,3.4,0,0,1-1.16-.83A3.64,3.64,0,0,1,14.59,88a4.55,4.55,0,0,1-.25-1.53A4.71,4.71,0,0,1,14.59,85a3.74,3.74,0,0,1,.73-1.26,3.34,3.34,0,0,1,1.16-.84,4.13,4.13,0,0,1,3.12,0,3.34,3.34,0,0,1,1.16.84A3.75,3.75,0,0,1,21.47,85a4.71,4.71,0,0,1,.25,1.56A4.5,4.5,0,0,1,21.47,88a3.78,3.78,0,0,1-.73,1.24l.94.85Zm-2.16-3.48.85.78a2.27,2.27,0,0,0,.34-.71,3.6,3.6,0,0,0,.13-1,4.11,4.11,0,0,0-.11-1,2.54,2.54,0,0,0-.35-.83,1.79,1.79,0,0,0-.63-.58,2.19,2.19,0,0,0-1.89,0,1.78,1.78,0,0,0-.63.58,2.53,2.53,0,0,0-.35.83,4.12,4.12,0,0,0-.11,1,3.83,3.83,0,0,0,.11.92,2.49,2.49,0,0,0,.35.81,1.81,1.81,0,0,0,.63.57A1.93,1.93,0,0,0,18,89h.38a.42.42,0,0,0,.28-.09L18,88.28Z"/><path class="cls-1" d="M28.76,87.4a2.87,2.87,0,0,1-.85,2.27,3.46,3.46,0,0,1-2.36.75,3.44,3.44,0,0,1-2.36-.74,2.89,2.89,0,0,1-.84-2.28V82.72H24V87.4a3.38,3.38,0,0,0,.05.6,1.25,1.25,0,0,0,.22.53,1.15,1.15,0,0,0,.47.37,2,2,0,0,0,.81.14,1.55,1.55,0,0,0,1.22-.39,1.88,1.88,0,0,0,.34-1.24V82.72h1.65Z"/><rect class="cls-1" x="29.71" y="82.72" width="1.65" height="7.52"/><polygon class="cls-1" points="34 84.11 31.75 84.11 31.75 82.72 37.91 82.72 37.91 84.11 35.65 84.11 35.65 90.24 34 90.24 34 84.11"/><polygon class="cls-1" points="38.3 82.72 43.92 82.72 43.92 84.11 39.95 84.11 39.95 85.72 43.59 85.72 43.59 87.01 39.95 87.01 39.95 88.85 44 88.85 44 90.24 38.3 90.24 38.3 82.72"/><path class="cls-1" d="M49.65,85.25a1.35,1.35,0,0,0-.19-.52,1.66,1.66,0,0,0-.37-.42,1.7,1.7,0,0,0-.5-.28,1.72,1.72,0,0,0-.58-.1,1.93,1.93,0,0,0-.95.22,1.79,1.79,0,0,0-.63.58,2.54,2.54,0,0,0-.35.83,4.12,4.12,0,0,0-.11,1,3.83,3.83,0,0,0,.11.92,2.49,2.49,0,0,0,.35.81,1.81,1.81,0,0,0,.63.57A1.93,1.93,0,0,0,48,89a1.52,1.52,0,0,0,1.18-.47,2.16,2.16,0,0,0,.52-1.22h1.6A3.83,3.83,0,0,1,51,88.62a3.06,3.06,0,0,1-.69,1,3,3,0,0,1-1,.62,3.62,3.62,0,0,1-1.27.22,3.79,3.79,0,0,1-1.56-.31,3.4,3.4,0,0,1-1.16-.83A3.64,3.64,0,0,1,44.57,88a4.56,4.56,0,0,1-.25-1.53A4.71,4.71,0,0,1,44.57,85a3.75,3.75,0,0,1,.73-1.26,3.33,3.33,0,0,1,1.16-.84,4,4,0,0,1,2.73-.13,3.19,3.19,0,0,1,1,.52,2.82,2.82,0,0,1,.72.85,3,3,0,0,1,.36,1.16Z"/><polygon class="cls-1" points="53.63 84.11 51.38 84.11 51.38 82.72 57.54 82.72 57.54 84.11 55.29 84.11 55.29 90.24 53.63 90.24 53.63 84.11"/><path class="cls-1" d="M64.31,87.4a2.87,2.87,0,0,1-.85,2.27,4.11,4.11,0,0,1-4.72,0,2.89,2.89,0,0,1-.84-2.28V82.72h1.65V87.4a3.39,3.39,0,0,0,.05.6,1.25,1.25,0,0,0,.22.53,1.16,1.16,0,0,0,.47.37,2,2,0,0,0,.8.14,1.55,1.55,0,0,0,1.22-.39,1.88,1.88,0,0,0,.34-1.24V82.72h1.65Z"/><path class="cls-1" d="M65.25,82.72h4.05a2.42,2.42,0,0,1,.91.16,2.1,2.1,0,0,1,.69.45,1.93,1.93,0,0,1,.44.66,2.13,2.13,0,0,1,.15.8,2.26,2.26,0,0,1-.28,1.15,1.75,1.75,0,0,1-.91.74v0a1.27,1.27,0,0,1,.51.26,1.41,1.41,0,0,1,.33.42,2,2,0,0,1,.18.52,4.41,4.41,0,0,1,.08.56c0,.12,0,.26,0,.42s0,.32,0,.49a3.48,3.48,0,0,0,.08.48,1.1,1.1,0,0,0,.17.39H70.08a1.84,1.84,0,0,1-.11-.39q0-.22-.06-.45t0-.48q0-.25,0-.47a1.5,1.5,0,0,0-.36-.86,1.23,1.23,0,0,0-.89-.27H66.91v2.94H65.25Zm1.65,3.4h1.81a1.25,1.25,0,0,0,.85-.25,1,1,0,0,0,.29-.82,1,1,0,0,0-.29-.79,1.27,1.27,0,0,0-.85-.25H66.91Z"/><path class="cls-1" d="M74.43,82.72h1.69l2.81,7.52H77.22l-.57-1.67H73.84l-.59,1.67H71.58Zm-.16,4.61h1.95l-.95-2.76h0Z"/><path class="cls-1" d="M7.18,95.82a2.87,2.87,0,0,1-.85,2.27A3.46,3.46,0,0,1,4,98.84a3.44,3.44,0,0,1-2.36-.74,2.89,2.89,0,0,1-.84-2.28V91.14H2.42v4.67a3.38,3.38,0,0,0,.05.6,1.25,1.25,0,0,0,.22.53,1.16,1.16,0,0,0,.47.37,2,2,0,0,0,.81.14,1.55,1.55,0,0,0,1.22-.39,1.88,1.88,0,0,0,.34-1.24V91.14H7.18Z"/><path class="cls-1" d="M9.25,96.17a1.38,1.38,0,0,0,.14.64,1.19,1.19,0,0,0,.36.43,1.58,1.58,0,0,0,.53.24,2.49,2.49,0,0,0,.64.08,3.28,3.28,0,0,0,.47,0,1.64,1.64,0,0,0,.47-.14,1,1,0,0,0,.37-.29.73.73,0,0,0,.15-.47.66.66,0,0,0-.19-.49,1.61,1.61,0,0,0-.51-.32,4.32,4.32,0,0,0-.72-.22l-.81-.21a7.14,7.14,0,0,1-.82-.26,2.82,2.82,0,0,1-.72-.39,1.88,1.88,0,0,1-.51-.6,1.83,1.83,0,0,1-.19-.88,2,2,0,0,1,.25-1,2.24,2.24,0,0,1,.65-.71,2.82,2.82,0,0,1,.91-.42,3.86,3.86,0,0,1,1-.14,4.8,4.8,0,0,1,1.13.13,2.83,2.83,0,0,1,1,.43,2.16,2.16,0,0,1,.67.75,2.31,2.31,0,0,1,.25,1.11h-1.6a1.33,1.33,0,0,0-.14-.56.94.94,0,0,0-.32-.35,1.36,1.36,0,0,0-.46-.18,2.83,2.83,0,0,0-.56-.05,1.94,1.94,0,0,0-.4,0,1.07,1.07,0,0,0-.36.15.89.89,0,0,0-.27.27.71.71,0,0,0-.11.39.67.67,0,0,0,.08.36.72.72,0,0,0,.33.25,5,5,0,0,0,.68.23l1.14.3.36.09a3.88,3.88,0,0,1,.47.16,3,3,0,0,1,.49.26,2.15,2.15,0,0,1,.45.39,1.83,1.83,0,0,1,.33.55,2,2,0,0,1,.13.74,2.3,2.3,0,0,1-.2,1,2.08,2.08,0,0,1-.6.76,2.93,2.93,0,0,1-1,.51,4.51,4.51,0,0,1-1.35.18,4.61,4.61,0,0,1-1.21-.16,3,3,0,0,1-1-.48,2.37,2.37,0,0,1-1-2Z"/><polygon class="cls-1" points="14.48 91.14 16.81 91.14 18.57 96.31 18.59 96.31 20.25 91.14 22.58 91.14 22.58 98.66 21.03 98.66 21.03 93.33 21.01 93.33 19.17 98.66 17.89 98.66 16.05 93.39 16.03 93.39 16.03 98.66 14.48 98.66 14.48 91.14"/><polygon class="cls-1" points="68.41 67.36 64.22 71.56 64.22 51.49 78.41 65.65 78.41 51.45 78.41 51.45 78.29 0 43.65 0 64.22 51.48 18.43 51.58 9.54 73.91 71.02 73.91 68.41 67.36"/><polygon class="cls-1" points="72.13 65.81 75.37 73.91 78.41 73.91 78.41 65.81 72.13 65.81"/></g></svg>