<svg xmlns="http://www.w3.org/2000/svg" viewBox="0 0 103.96 89.71"><defs><style>.cls-1{fill:#fff;}</style></defs><title>web-logo-viña-del-mar</title><g id="figuras"><path class="cls-1" d="M34.43,41.83c-.05-.23-.21-.24-.32-.29l-13.53-6.3L6.76,28.81a1.35,1.35,0,0,0-2,.68C3.34,32.63,1.91,35.79.42,38.93a3.32,3.32,0,0,0-.16,2.91c1.3,3.24,2.47,6.54,3.7,9.81a1.33,1.33,0,0,0,2,.82l2.77-1,21.4-8Z"/><path class="cls-1" d="M32.85,6.35Q35.08,12.17,37.31,18c1.08,2.84,2.15,5.69,3.23,8.53.5,1.32,1,2.63,1.59,4.1.29-.66.5-1.15.73-1.64q2.78-6,5.55-12.08c1.65-3.61,3.29-7.23,4.93-10.84a1.25,1.25,0,0,0-.68-1.88l-8.95-4a1.46,1.46,0,0,0-1.2,0c-1.1.43-2.21.84-3.31,1.26-2,.75-4,1.5-6,2.27a1.19,1.19,0,0,0-.74,1.74Z"/><path class="cls-1" d="M49.45,75.47l-6.7-17.56c-.49-1.28-1-2.56-1.55-4C39.77,57,38.42,60,37.07,63q-3.21,7-6.43,14a1.18,1.18,0,0,0,.66,1.63c2.73,1.22,5.47,2.44,8.2,3.68a2,2,0,0,0,1.63.06c2.77-1.08,5.55-2.13,8.33-3.18a1.14,1.14,0,0,0,.78-1.69C50,76.82,49.71,76.15,49.45,75.47Z"/><path class="cls-1" d="M36.21,47.24c-.29-.3-.71.1-1.08.2,0,0-.07.06-.1.08-1.47.47-2.92,1-4.34,1.56L15.47,54.65c-.9.33-1.11.75-.79,1.59.9,2.44,1.82,4.87,2.71,7.32a1.63,1.63,0,0,0,1,1.12l2.92,1.27c1.48.7,3,1.42,4.45,2.09.63.28,1.11,0,1.42-.67l3-6.58Q33,54.49,35.9,48.18C36,47.87,36.43,47.47,36.21,47.24Zm-.82,1.28v0h0Z"/><path class="cls-1" d="M86.85,50.81c0-.51-.2-.59-.62-.57-.9,0-1.81,0-2.71,0a.79.79,0,0,0-.9.62c-.94,2.67-1.91,5.32-2.87,8-.07-.14-.14-.28-.19-.42-.93-2.55-1.86-5.11-2.78-7.66a.67.67,0,0,0-.75-.54c-1,0-1.94.06-2.9,0-.52,0-.56.18-.56.6,0,2.44,0,4.89,0,7.33,0,1.48,0,3,0,4.43,0,.4.07.61.54.57a10.71,10.71,0,0,1,1.65,0c.44,0,.55-.11.54-.54,0-2.18,0-4.36,0-6.55,0-.6,0-1.2,0-2,.14.29.21.4.25.52.82,2.21,1.64,4.43,2.44,6.65.15.41.33.6.8.56a16.7,16.7,0,0,1,2,0,.52.52,0,0,0,.58-.4c.66-1.81,1.34-3.62,2-5.43L84,54.23c.13,2.3.12,4.56.14,6.82,0,.69-.31,1.65.13,2s1.35.06,2,.11c.45,0,.49-.17.49-.53C86.83,58.7,86.82,54.75,86.85,50.81Z"/><path class="cls-1" d="M67.26,25.69c.77-.29.88-.5.59-1.29-.54-1.45-1.1-2.89-1.63-4.35a1,1,0,0,0-.6-.64L61.38,17.5c-.69-.31-.93-.21-1.23.47l-3.38,7.55-2.2,4.9,2.3-.88Z"/><path class="cls-1" d="M52.66,34.25c-.32,1-.68,1.93-1,2.9L49,44.55,48.46,43q-1.55-4.36-3.09-8.71c-.13-.36-.27-.52-.7-.48a14.88,14.88,0,0,1-1.85,0c-.84,0-.83,0-.52.8.43,1.14.85,2.28,1.28,3.42,1.18,3.13,2.37,6.25,3.54,9.38a.59.59,0,0,0,.67.46c.84,0,1.67-.05,2.51,0a.52.52,0,0,0,.61-.41q2.47-6.59,5-13.17c.16-.43,0-.49-.35-.48-.77,0-1.54,0-2.31,0C52.88,33.82,52.75,34,52.66,34.25Z"/><path class="cls-1" d="M63.59,38.83a1.53,1.53,0,0,1,0-.34c.1-.63-.22-.79-.79-.73a10.74,10.74,0,0,1-1.45,0c-.3,0-.42,0-.42.39q0,4.66,0,9.33c0,.37.15.45.48.44.64,0,1.28,0,1.92,0,.39,0,.51-.12.51-.54,0-1.74,0-3.48,0-5.22a2.08,2.08,0,0,1,2.25-2,1.82,1.82,0,0,1,1.91,2c0,1.23,0,2.47,0,3.7,0,.67-.31,1.61.14,1.95s1.44.09,2.19.11c.38,0,.47-.13.47-.5,0-2.12,0-4.23,0-6.35a3.41,3.41,0,0,0-.85-2.22A4.29,4.29,0,0,0,63.59,38.83Z"/><path class="cls-1" d="M103.2,53.63A3.4,3.4,0,0,0,100,55c-.14-1.13-.14-1.12-1.21-1.11a7.45,7.45,0,0,1-.86,0c-.32,0-.4.06-.4.39q0,4.23,0,8.45c0,.33.07.47.43.45a10,10,0,0,1,1.58,0c.53.05.62-.18.61-.64,0-1.5,0-3,0-4.49A1.87,1.87,0,0,1,102,56.1c.48,0,1.05.41,1.39,0a4.18,4.18,0,0,0,.42-1.43s0-.08,0-.12C104.06,53.79,104,53.69,103.2,53.63Z"/><path class="cls-1" d="M75,76.88c-2.28-.54-4.53-1.18-6.85-1.55-.12,0-.25-.27-.37,0s0,.28.13.42q1.87,3.06,3.73,6.13a.6.6,0,0,0,1,.22c.52-.33,1.07-.6,1.57-1,.3-.21.75-.29.86-.67.28-1,.51-2,.73-2.89C75.82,76.85,75.34,77,75,76.88Z"/><path class="cls-1" d="M57.08,47.92c.66,0,1.32,0,2,0,.37,0,.48-.09.47-.48,0-1.54,0-3.08,0-4.62h0c0-1.52,0-3,0-4.55,0-.35-.06-.52-.46-.51-.68,0-1.36,0-2,0-.28,0-.38.07-.38.36q0,4.69,0,9.37C56.65,47.81,56.76,47.93,57.08,47.92Z"/><path class="cls-1" d="M69.65,63.18c.45,0,.54-.14.54-.55q0-5.93,0-11.86c0-.51-.27-.42-.58-.45s-.54,0-.53.48c0,2,0,3.92,0,5.88s0,4,0,5.94C69.09,63.06,69.22,63.18,69.65,63.18Z"/><path class="cls-1" d="M67.55,34.09c-.46.77-.49.77-1.27.36a3.26,3.26,0,0,0-1.72-.56c-.15,0-.31,0-.46,0a2.09,2.09,0,0,0-1.34,1.78c0,.61.62.47.95.67s.41.07.51-.25c.14-.47.46-.58.91-.32a10.47,10.47,0,0,0,1.23.61,1.72,1.72,0,0,0,2.3-.79c.57-1,.39-1.41-.67-1.68C67.8,33.9,67.66,33.9,67.55,34.09Z"/><path class="cls-1" d="M53.85,65.82c-.4,0-.82-.1-1,.46a8,8,0,0,1-.77,1.84c-.3-.71-.59-1.37-.85-2-.19-.49-.6-.25-.91-.26s-.19.31-.19.5c0,.9,0,1.79,0,2.69,0,.15-.23.47.24.41.28,0,.5,0,.47-.42,0-.6,0-1.2,0-1.8a7.33,7.33,0,0,1,.71,1.46.53.53,0,0,0,.56.4c.39,0,.45-.16.55-.39.22-.51.42-1,.63-1.53l.1,0c0,.61,0,1.22,0,1.83,0,.29.06.42.41.41s.35-.15.35-.4c0-.84,0-1.67,0-2.51C54.13,66.25,54.3,65.87,53.85,65.82Z"/><path class="cls-1" d="M58.09,36.7a1.46,1.46,0,0,0,1.45-1.42,1.44,1.44,0,0,0-2.88,0A1.42,1.42,0,0,0,58.09,36.7Z"/><path class="cls-1" d="M82.92,68.49a1.17,1.17,0,0,1-1.66-.09,1.27,1.27,0,0,1,0-1.58,1.13,1.13,0,0,1,1.59-.1c.32.24.5.05.67-.11s0-.39-.19-.51a2.2,2.2,0,0,0-2.41,0,2,2,0,0,0-.61,2.19,1.92,1.92,0,0,0,1.91,1.23,2,2,0,0,0,1.12-.42c.13-.14.45-.25.19-.51S83.25,68.22,82.92,68.49Z"/><path class="cls-1" d="M101.44,67.93l-.7-.15c-.13,0-.28-.07-.27-.23s.19-.16.3-.16a1.47,1.47,0,0,1,.65.07c.28.14.32,0,.41-.2s-.05-.33-.25-.39a1.52,1.52,0,0,0-.69-.13h-.28c-.5.05-.89.28-.94.82s.32.72.79.78c.19,0,.38.08.58.12s.2.09.2.21-.11.17-.22.18a2,2,0,0,1-1-.13.3.3,0,0,0-.42.19c-.12.25.07.36.2.41a2.2,2.2,0,0,0,1.66.06.73.73,0,0,0,.46-.78A.6.6,0,0,0,101.44,67.93Z"/><path class="cls-1" d="M86.09,66.81c-.27,0-.34.11-.33.36a6.21,6.21,0,0,1,0,1.12c0,.31-.2.6-.6.56s-.47-.25-.44-.59,0-.75,0-1.12-.11-.36-.36-.35-.42.1-.4.4c0,.48,0,1,.06,1.45a.91.91,0,0,0,.95.88c1.33.09,1.46,0,1.46-1.37,0-.33,0-.66,0-1S86.34,66.81,86.09,66.81Z"/><path class="cls-1" d="M59.48,69.41c.28,0,.38-.07.37-.36s0-.79,0-1.19a1,1,0,0,0-1.4-1.09,1.21,1.21,0,0,1-.7.07c-.32-.1-.43,0-.42.34,0,.73,0,1.45,0,2.24.68,0,.68,0,.68-.69a7.59,7.59,0,0,1,0-.79.56.56,0,0,1,.61-.55c.4,0,.5.26.53.54a9.11,9.11,0,0,1,0,1.12C59.16,69.27,59.16,69.43,59.48,69.41Z"/><path class="cls-1" d="M56.62,66.82c-.33,0-.36.15-.36.39s0,.7,0,1.05a.51.51,0,0,1-.57.57c-.33,0-.5-.22-.49-.57s0-.7,0-1.05,0-.41-.33-.4-.35.15-.34.4c0,.42,0,.84,0,1.25a1,1,0,0,0,1.39,1c.12,0,.27-.16.36-.12.81.33.65-.25.64-.68,0-.15,0-.31,0-.46h0c0-.31,0-.62,0-.92S56.93,66.84,56.62,66.82Z"/><path class="cls-1" d="M63,67.49a.42.42,0,0,0,.6-.21c.15-.29-.19-.33-.36-.42-.85-.45-2.18.23-2,1.2a1.34,1.34,0,0,0,1.89,1.34c.23-.11.59-.14.45-.48s-.35-.37-.68-.14a.6.6,0,0,1-.85-.25.67.67,0,0,1,0-.85A.63.63,0,0,1,63,67.49Z"/><path class="cls-1" d="M12.28,25.48,17.74,28c0,.12.15.11.25.1a22.37,22.37,0,0,0,2.94,1.32,5.28,5.28,0,0,0,1.45.66,1.3,1.3,0,0,0,.29.25l2.17.95L28.73,33c.1.13.2.26.39.24a.84.84,0,0,0,.68.25l2,.93.05,0a11.06,11.06,0,0,0,2.07.91,19.39,19.39,0,0,0,2.13,1c.22.23.53.41.8.26s.06-.38-.15-.51a17.5,17.5,0,0,0-1-2.94,35,35,0,0,0-1.32-3.7c-.61-1.73-1.21-3.47-1.85-5.2-.71-1.93-1.31-3.9-2.14-5.78a9.16,9.16,0,0,0-.65-1.88h0c-.57-1.63-1.15-3.25-1.71-4.88-.46-1.33-1-1.57-2.33-.92l0,0,0,0a1.84,1.84,0,0,0-1,.37c-2.15.63-4.22,1.51-6.33,2.28l-.14.1a4.71,4.71,0,0,0-1.73.66c-.31.06-.35.3-.39.55a1,1,0,0,0-.28.64h0a23.73,23.73,0,0,0-1.44,3.06.46.46,0,0,0-.25.53l-.13.27a11.64,11.64,0,0,0-1.05,2.38.86.86,0,0,0-.29.62h0a6.52,6.52,0,0,0-.88,1.74A1,1,0,0,0,12.28,25.48Zm17-8.35h0Zm4.91,13.23h0Z"/><path class="cls-1" d="M60.59,66.82c-.31,0-.36.15-.35.41s0,.61,0,.92h0c0,.31,0,.61,0,.92s.16.35.4.35.35,0,.34-.33c0-.61,0-1.22,0-1.83C61,67,60.91,66.82,60.59,66.82Z"/><path class="cls-1" d="M68.51,69.41c.31,0,.37-.09.37-.35,0-.63,0-1.27,0-1.9,0-.2,0-.4-.33-.35s-.43,0-.41.36,0,.62,0,.92,0,.62,0,.92S68.18,69.4,68.51,69.41Z"/><path class="cls-1" d="M87.25,66.78c-.22,0-.44.05-.42.38s0,.62,0,.92,0,.62,0,.92,0,.4.35.39.37-.14.37-.39c0-.63,0-1.27,0-1.9C87.55,66.92,87.49,66.75,87.25,66.78Z"/><path class="cls-1" d="M64.28,69.42c.16,0,.42.12.43-.2q0-1.08,0-2.16c0-.27-.21-.26-.43-.27S64,67,64,67.14c0,.33,0,.65,0,1h0c0,.35,0,.7,0,1C64.05,69.31,64,69.5,64.28,69.42Z"/><path class="cls-1" d="M68.55,65.7c-.26,0-.41.12-.39.41s.15.43.4.43a.4.4,0,0,0,.42-.41A.42.42,0,0,0,68.55,65.7Z"/><path class="cls-1" d="M60.59,65.7a.34.34,0,0,0-.38.35c0,.28.08.47.38.48a.39.39,0,0,0,.43-.36A.42.42,0,0,0,60.59,65.7Z"/><path class="cls-1" d="M87.21,65.71a.39.39,0,0,0-.42.46.36.36,0,0,0,.37.37.43.43,0,0,0,.47-.45A.4.4,0,0,0,87.21,65.71Z"/><path class="cls-1" d="M64.35,65.7a.38.38,0,0,0-.42.41c0,.28.18.38.44.44s.34-.18.37-.42S64.58,65.71,64.35,65.7Z"/><path class="cls-1" d="M68,83.83a3.73,3.73,0,0,0-1.48-1.59c-.92-1-1.85-1.91-2.76-2.87s-2-2.25-3.12-3.25a7.76,7.76,0,0,0-1.47-1.61A5.29,5.29,0,0,0,58,73.33a11.47,11.47,0,0,0-.19,2.57q-.29,5.94-.58,11.87a1.55,1.55,0,0,0,.21,1.2c.15.44.52.52.92.56,1.79.13,3.59.18,5.38.19a.89.89,0,0,0,.61-.2c1-.88,2-1.71,2.88-2.66a5.63,5.63,0,0,0,1.42-1.47A1.12,1.12,0,0,0,68,83.83Z"/><path class="cls-1" d="M73.8,47.83a4.44,4.44,0,0,0,4.92-1.15c.08,1.23.08,1.23,1.26,1.24a7.71,7.71,0,0,1,.86,0c.44.05.57-.1.56-.54,0-2,.05-4,0-5.95-.07-1.68-.67-3.4-3.13-3.82A7.72,7.72,0,0,0,73,38.5c-.47.26-.66.47-.31,1a4.82,4.82,0,0,1,.57,1c.16.42.35.38.66.18A4.71,4.71,0,0,1,77,40a1.66,1.66,0,0,1,1.49,1.35c.08.64,0,.73-.64.58a7.19,7.19,0,0,0-3.75,0,3.1,3.1,0,0,0-2.31,2.86A3,3,0,0,0,73.8,47.83Zm1.63-4a3.35,3.35,0,0,1,1.16-.24c.5.09,1,.2,1.49.25s.51.34.33.72a2.58,2.58,0,0,1-2.95,1.24,1,1,0,0,1-.8-1A1,1,0,0,1,75.43,43.78Z"/><path class="cls-1" d="M96.51,56.89a3.11,3.11,0,0,0-2.22-3,7,7,0,0,0-5,.43c-1,.44-1,.49-.49,1.46.11.21.23.42.33.64s.29.35.56.15a4.57,4.57,0,0,1,1.7-.64,2,2,0,0,1,2.59,1.44c0,.28.14.52-.4.39a6.06,6.06,0,0,0-4.23.23,2.81,2.81,0,0,0,.3,5.17,4.14,4.14,0,0,0,4.45-1c.08,1,.08,1,1.08,1a7.12,7.12,0,0,1,.86,0c.49.06.59-.16.58-.61C96.56,60.67,96.61,58.78,96.51,56.89ZM93.86,60a2.33,2.33,0,0,1-2.15,1.32c-.74,0-1.25-.36-1.31-.91s.37-1,1.13-1.1a5.9,5.9,0,0,1,2.05.14C94,59.51,94,59.71,93.86,60Z"/><path class="cls-1" d="M57.86,62.7c0-1.23,0-2.47,0-3.7,0-2.71,0-5.42,0-8.13,0-.18.17-.44-.19-.53-.62-.16-.87,0-.87.66q0,1.49,0,3c0,.45,0,.9,0,1.45a4.6,4.6,0,0,0-6.92-.24,5.33,5.33,0,0,0,.52,7.22,4.39,4.39,0,0,0,6.46-.92,12.21,12.21,0,0,1,.05,1.24c0,.39.14.46.49.47S57.87,63.07,57.86,62.7Zm-3.17-.59a3.5,3.5,0,0,1-4.82-3.53,3.51,3.51,0,0,1,3.26-3.83,3.34,3.34,0,0,1,3.57,2.59A3.88,3.88,0,0,1,54.69,62.1Z"/><path class="cls-1" d="M62.37,53.89a4.14,4.14,0,0,0-3.23,3.77,4.89,4.89,0,0,0,2.23,5.14A5.13,5.13,0,0,0,67,62.31c.35-.29.33-.44.05-.75s-.36-.4-.75-.09a3.66,3.66,0,0,1-6-2c-.08-.4-.05-.55.4-.54h6.74c.24,0,.45.05.49-.33C68.2,55.21,65.83,53.07,62.37,53.89ZM65.59,58H63.47c-.95,0-1.89,0-2.84,0-.31,0-.45-.06-.38-.4a3.43,3.43,0,0,1,5.51-2.14,2.82,2.82,0,0,1,.77,1.11C67,57.75,66.82,58,65.59,58Z"/><path class="cls-1" d="M90.66,65.94c0-.27-.09-.41-.38-.4s-.41.1-.4.38,0,.61,0,1a2,2,0,0,0-.86-.14,1.29,1.29,0,0,0-1.16,1.51,1.26,1.26,0,0,0,1.29,1.26c.43,0,.82-.31,1.28-.13.2.08.23-.12.23-.29C90.66,68,90.66,67,90.66,65.94Zm-1.43,2.9a.69.69,0,0,1-.7-.73c.08-.41.23-.72.75-.72a.72.72,0,0,1-.05,1.45Z"/><path class="cls-1" d="M75.71,65.54c-.24,0-.37.08-.37.34s0,.63,0,1a3.73,3.73,0,0,0-.87-.14c-.79.08-1.21.64-1.15,1.6a1.21,1.21,0,0,0,1.36,1.18c.38-.05.74-.26,1.15-.1.18.07.25-.11.24-.29,0-1.08,0-2.15,0-3.23C76.06,65.65,76,65.53,75.71,65.54Zm-1.07,3.3c-.44,0-.63-.32-.64-.79s.23-.66.71-.65a.67.67,0,0,1,.73.75A.7.7,0,0,1,74.63,68.84Z"/><path class="cls-1" d="M66.33,69.48a1.18,1.18,0,0,0,1.33-.5,1.47,1.47,0,0,0,0-1.62,1.14,1.14,0,0,0-1.14-.62c-.39,0-.75.28-1.19.08-.21-.1-.27.2-.26.41,0,.51,0,1,0,1.52h0a6.48,6.48,0,0,0,0,1.12c.05.29-.34.86.36.82s.25-.54.28-.81C65.82,69.46,65.84,69.33,66.33,69.48Zm.14-2.08c.51,0,.71.32.74.73a.65.65,0,0,1-.68.72.66.66,0,0,1-.76-.69C65.82,67.72,66,67.42,66.48,67.4Z"/><path class="cls-1" d="M96.38,65.88c0-.25-.07-.35-.33-.34s-.36.11-.35.35,0,.61,0,1a1.33,1.33,0,0,0-1-.18,1.39,1.39,0,0,0,.43,2.74c.29-.08.54-.24.87-.08.15.07.36,0,.35-.3C96.36,68,96.37,67,96.38,65.88Zm-1.33,3a.61.61,0,0,1-.68-.69c0-.41.11-.73.61-.76s.7.26.77.66S95.52,68.85,95,68.84Z"/><path class="cls-1" d="M91.46,66.88c-.16.07-.47.1-.32.44s.25.23.51.15.77-.27,1,.33a6.69,6.69,0,0,0-.94,0c-.43.07-.78.22-.83.76a.76.76,0,0,0,.66.9c.58.15,1.15-.31,1.75-.09A3.36,3.36,0,0,0,93.39,68C93.3,66.85,92.57,66.41,91.46,66.88Zm1.16,1.66c-.1.31-.39.35-.69.33s-.4,0-.32-.27.44-.26.71-.26S92.69,68.32,92.62,68.54Z"/><path class="cls-1" d="M78.4,66.91a1.46,1.46,0,0,0-1.75.24,1.56,1.56,0,0,0-.15,1.7,1.33,1.33,0,0,0,1.69.56c.25-.07.67,0,.55-.45s-.4-.27-.71-.16a.7.7,0,0,1-1-.47h1.24c.77,0,1-.35.56-1A1.31,1.31,0,0,0,78.4,66.91Zm-1.29.9c.31-.56.72-.59,1.17,0Z"/><path class="cls-1" d="M98.13,66.74a1.38,1.38,0,0,0-1.5,1.38,1.45,1.45,0,0,0,2.91,0A1.38,1.38,0,0,0,98.13,66.74Zm-.05,2.11c-.46,0-.64-.31-.66-.72s.15-.71.62-.73.72.22.73.7A.66.66,0,0,1,98.07,68.85Z"/><path class="cls-1" d="M69.19,68a1.32,1.32,0,0,0,1.38,1.48,1.39,1.39,0,1,0,.11-2.78A1.31,1.31,0,0,0,69.19,68Zm2.14.06a.71.71,0,1,1-1.42,0,.69.69,0,0,1,.63-.74A.7.7,0,0,1,71.33,68.1Z"/></g></svg>