<svg xmlns="http://www.w3.org/2000/svg" viewBox="0 0 39.97 40.03"><defs><style>.cls-1{fill:#fff;}</style></defs><title>web-logo-youtube</title><g id="figuras"><path class="cls-1" d="M39.93,19.67C40.57,30,31.89,39.4,21.24,40A20,20,0,0,1,18.61,0C30.93-.72,40.17,9.24,39.93,19.67Zm-20.1,8.82h8c2.76,0,4.15-1.29,4.22-4.06.08-3,.08-6.07,0-9.11a3.58,3.58,0,0,0-3.88-3.75q-8.16,0-16.32,0A3.62,3.62,0,0,0,8,15.48c0,3-.05,6.07,0,9.11a3.65,3.65,0,0,0,3.91,3.89C14.51,28.52,17.17,28.49,19.83,28.49Z"/><path class="cls-1" d="M17.85,15.28l6.48,4.27-6.48,4.27Z"/></g></svg>