<svg xmlns="http://www.w3.org/2000/svg" xmlns:xlink="http://www.w3.org/1999/xlink" viewBox="0 0 44.98 45.06"><defs><style>.cls-1{fill:none;}.cls-2{clip-path:url(#clip-path);}.cls-3{fill:#fecd00;}.cls-4{fill:#fff;}</style><clipPath id="clip-path"><rect class="cls-1" x="395.7" y="-619.85" width="1366" height="695.97"/></clipPath></defs><title>web-locus-logo-header</title><g id="fondos"><g class="cls-2"><path class="cls-3" d="M860.28,1199c44.33,34,116.21,34,160.55,0l924.6-711.5c44.33-34.25,67-105.25,50.57-158.75L1640.93-828.78c-16.41-53.5-75.06-96.75-131-96.75H371.19c-55.94,0-114.59,43.25-131,96.75L-114.89,328.72c-16.41,53.5,6.23,124.5,50.57,158.75Z"/></g></g><g id="figuras"><path class="cls-4" d="M23.76,10.12a3.37,3.37,0,0,0,.38-1.86V8a3.35,3.35,0,0,0-.38-1.8,1.47,1.47,0,0,0-1.29-.57,1.51,1.51,0,0,0-1.28.55A3.34,3.34,0,0,0,20.85,8v.25a3.21,3.21,0,0,0,.38,1.8,1.45,1.45,0,0,0,1.23.55,1.54,1.54,0,0,0,1.31-.49m17.09,24-1.24,1a.56.56,0,0,1-.69,0,4.09,4.09,0,0,0-2.56-.91c-.87,0-1.29.28-1.29.74s.74.77,1.94,1c2.19.46,3.7,1.29,3.7,2.77S39.3,41.6,36.67,41.6a7.56,7.56,0,0,1-4.17-1.08.57.57,0,0,1-.09-.86l.67-.71a.56.56,0,0,1,.76-.05,4.53,4.53,0,0,0,2.68,1c1.09,0,1.42-.35,1.42-.76s-.68-.83-2.14-1.15c-2.16-.47-3.44-1.21-3.44-2.68,0-1.66,1.62-2.71,4-2.71a6.42,6.42,0,0,1,4.46,1.48m-.17-7.2H38.38a.57.57,0,0,1-.56-.46v0a.56.56,0,0,0-1-.26,2.74,2.74,0,0,1-2.12,1,2.38,2.38,0,0,1-1.91-.77c-.47-.52-.66-1.53-.66-3.17V19.06a.57.57,0,0,1,.57-.57h1.88a.57.57,0,0,1,.57.57v3.86a4.13,4.13,0,0,0,.21,1.89,1,1,0,0,0,.91.41,2,2,0,0,0,1-.26.57.57,0,0,0,.28-.49V19.06a.57.57,0,0,1,.57-.57H40a.57.57,0,0,1,.57.57v5.25c0,.47,0,2.44.08,2.6M27.18,8.14c0,2.71-1.65,4.47-4.73,4.47s-4.66-1.76-4.66-4.47,1.75-4.46,4.71-4.46,4.68,1.73,4.68,4.46M18,22.72a4.28,4.28,0,0,1,4.6-4.46A4.29,4.29,0,0,1,26.55,20a.57.57,0,0,1-.32.86l-1.53.43a.55.55,0,0,1-.64-.26,1.38,1.38,0,0,0-1.34-.69,1.43,1.43,0,0,0-1.18.47,2.73,2.73,0,0,0-.47,1.78v.17a2.79,2.79,0,0,0,.47,1.78,1.56,1.56,0,0,0,1.21.47c.77,0,1.21-.21,1.44-.73a.56.56,0,0,1,.63-.34l1.49.32a.57.57,0,0,1,.39.81c-.63,1.31-2,2.07-4.08,2.07-3.06,0-4.59-1.69-4.59-4.47m-6.7-10.1H5.8a.57.57,0,0,1-.57-.57V4.24a.57.57,0,0,1,.57-.57H8.17a.57.57,0,0,1,.57.57V9.11a.59.59,0,0,1,0,.2l-.41,1.06.12.12,1-.46A.55.55,0,0,1,9.64,10h1.68a.57.57,0,0,1,.57.57v1.51a.57.57,0,0,1-.57.57m33.33,12.8a1.47,1.47,0,0,0,.28-1.24L43.54,18a1.48,1.48,0,0,0-.8-1l-5.69-2.74a1.48,1.48,0,0,0-1.28,0l-5.45,2.63a2,2,0,0,1-1.75,0l-.44-.21A1.11,1.11,0,0,1,27.76,15l3-3.73A1.47,1.47,0,0,0,31,10l-1.4-6.15a1.46,1.46,0,0,0-.8-1L23.13.15a1.47,1.47,0,0,0-1.28,0L16.4,2.77a2,2,0,0,1-1.75,0L9.2.15a1.47,1.47,0,0,0-1.28,0L2.24,2.88a1.47,1.47,0,0,0-.8,1L0,10a1.47,1.47,0,0,0,.28,1.24l3.94,4.94a1.47,1.47,0,0,0,1.15.55h6.31a1.47,1.47,0,0,0,1.15-.55L14.66,14a1.11,1.11,0,0,1,1.73,0l.83,1a1.11,1.11,0,0,1-.39,1.69l-.67.32a1.47,1.47,0,0,0-.8,1L14,24.18a1.46,1.46,0,0,0,.28,1.24l3.93,4.93a1.47,1.47,0,0,0,1.15.55h6.31a1.47,1.47,0,0,0,1.15-.55l1.79-2.25a1.11,1.11,0,0,1,1.73,0l.83,1a1.11,1.11,0,0,1-.39,1.69l-.68.33a1.46,1.46,0,0,0-.8,1l-1.4,6.15a1.47,1.47,0,0,0,.29,1.24l3.93,4.93a1.47,1.47,0,0,0,1.15.56h6.31a1.47,1.47,0,0,0,1.15-.55l3.94-4.93a1.47,1.47,0,0,0,.28-1.24l-1.4-6.15a1.47,1.47,0,0,0-.8-1l-.68-.33a1.11,1.11,0,0,1-.39-1.69Z"/></g></svg>