<svg xmlns="http://www.w3.org/2000/svg" viewBox="0 0 40.01 40"><defs><style>.cls-1{fill:#fff;}</style></defs><title>web-logo-linkedin</title><g id="figuras"><path class="cls-1" d="M0,20.24A20,20,0,1,1,20.82,40,20,20,0,0,1,0,20.24Zm26.82,9.25h4.71c0-3.18.17-6.22,0-9.23a5,5,0,0,0-6.32-4.85,13.51,13.51,0,0,0-2.95,1.38l-.32-1.07H17.49V29.49h4.6c0-1,0-1.83,0-2.68,0-1.76,0-3.52.05-5.27a2.42,2.42,0,0,1,2.41-2.48c1.28,0,2.1.84,2.23,2.41.06.69,0,1.38,0,2.08C26.83,25.5,26.82,27.46,26.82,29.49ZM10.22,15.72V29.48h4.61V15.72Zm2.35-6.81a2.45,2.45,0,1,0,0,4.89,2.45,2.45,0,1,0,0-4.89Z"/></g></svg>