<svg xmlns="http://www.w3.org/2000/svg" xmlns:xlink="http://www.w3.org/1999/xlink" viewBox="0 0 73.34 71.75"><defs><style>.cls-1{fill:none;}.cls-2{clip-path:url(#clip-path);}.cls-3{fill:#fff;}.cls-4{fill:#033ad3;}</style><clipPath id="clip-path"><rect class="cls-1" x="1668.12" y="-5416.15" width="1366" height="5518.05"/></clipPath></defs><g id="fondos"><g class="cls-2"><path class="cls-3" d="M1623.4-1685.07c-60.37-8.77-150.75,11.2-201.8,44.59L258.65-880.62c-51.11,33.35-106.72,107.51-124.13,166.17L-273.95,653.72c-17.37,58.58-13,151.72,10,208.08L278.24,2197.1c22.91,56.36,85,126.13,138.57,155.4l1235.72,673.42c53.58,29.28,145.23,42.17,204.82,29L3206.7,2756.76c59.59-13.17,137.33-63.49,173.58-112.62l836.85-1131.39c36.26-49.13,63.16-138.56,60.2-199.33L4206.42-126c-3-60.77-38.16-147.11-78.66-192.91L3180.83-1387.6c-40.5-45.86-122.19-89.68-182.54-98.4Z"/></g></g><g id="figuras"><path class="cls-4" d="M36.67,32.19c-43.39-31.85-54.1,15.1,0,0-54.1,15.1-24.08,52.75,0,0-24.08,52.75,24.08,52.75,0,0,24.08,52.75,54.1,15.1,0,0,54.1,15.1,43.38-31.85,0,0,43.38-31.85,0-52.74,0,0,0-52.74-43.39-31.85,0,0"/></g></svg>