<svg xmlns="http://www.w3.org/2000/svg" xmlns:xlink="http://www.w3.org/1999/xlink" viewBox="0 0 86.23 86.87"><defs><style>.cls-1{fill:none;}.cls-2{clip-path:url(#clip-path);}.cls-3{fill:#fff;}</style><clipPath id="clip-path"><rect class="cls-1" x="1564.4" y="-5530.87" width="1366" height="5518.05"/></clipPath></defs><g id="fondos"><g class="cls-2"><path class="cls-3" d="M1519.68-1799.79c-60.37-8.77-150.75,11.2-201.8,44.59L154.93-995.35C103.82-962,48.21-887.83,30.8-829.17L-377.67,539c-17.37,58.59-13,151.73,10,208.09l542.23,1335.3c22.91,56.36,85,126.12,138.57,155.4L1548.81,2911.2c53.58,29.28,145.23,42.17,204.82,29L3103,2642c59.59-13.17,137.33-63.49,173.58-112.63L4113.41,1398c36.26-49.13,63.16-138.55,60.2-199.32L4102.7-240.74c-3-60.77-38.16-147.11-78.66-192.91L3077.11-1502.32c-40.5-45.86-122.19-89.68-182.54-98.4Z"/></g></g><g id="figuras"><path class="cls-3" d="M43.12,5C37.65,5,35.76-2.1,31,.63s.51,11.82-4.22,14.55-10-6.35-14.72-3.62.44,7.9-2.3,12.64S0,27,0,32.5,10.49,38,10.49,43.43,0,48.9,0,54.36s7.06,3.58,9.79,8.32-2.43,9.9,2.3,12.63,10-6.36,14.71-3.63S26.29,83.51,31,86.24s6.63-4.32,12.1-4.32,7.35,7,12.09,4.32-.52-11.82,4.21-14.55,10,6.36,14.72,3.62-.43-7.9,2.3-12.63,9.79-2.85,9.79-8.31S75.74,48.91,75.74,43.44,86.23,38,86.23,32.51s-7-3.58-9.79-8.32,2.44-9.9-2.3-12.63-10,6.36-14.71,3.63S59.66,2.47,54.63.34C50.26-1.5,48.58,5,43.12,5"/></g></svg>