<svg id="Capa_5" data-name="Capa 5" xmlns="http://www.w3.org/2000/svg" viewBox="0 0 3426.63 3495.29"><defs><style>.cls-1{fill:#ffbe00;}</style></defs><path class="cls-1" d="M1776,3485.47c-34.64,13.1-90.79,13.1-125.43,0l-999-376.12c-34.61-12.8-77.32-49.72-95.35-81.91l-533-954.8c-18-32.46-27.61-88.21-21.38-124.59L187.13,861.36c6.23-36.38,33.94-85.6,61.88-109.92l815.4-707.72C1092.38,19.63,1145,0,1182,0H2244.6c37,0,89.65,19.63,117.59,43.72l815.39,707.72c28,24.32,55.65,73.54,61.88,109.92l185.26,1086.69c6.24,36.38-3.34,92.13-21.4,124.59l-533,954.8c-18,32.19-60.73,69.11-95.37,81.91Z"/></svg>