<svg id="Capa_5" data-name="Capa 5" xmlns="http://www.w3.org/2000/svg" viewBox="0 0 4194.28 4180.73"><defs><style>.cls-1{fill:#f5b5cd;}</style></defs><path class="cls-1" d="M2265.08,18.48C2213.67-2.75,2129-6.2,2076,10.79L869.57,396.92c-53,16.93-119.5,67.78-148.56,114L41.17,1589.28c-29,46.21-46.76,126.94-39.57,180.39L171.21,3035.94c7.19,53.46,45.93,127.28,86.57,164.53l937.59,857.3c40.64,37.24,118.79,69.11,174.62,71.38l1264.15,51.44c55.83,2.28,136.37-23.13,179.9-56.95l1004.1-778.29c43.53-33.81,88.14-104.25,99.65-156.94l271.94-1248.3c11.51-52.69.42-134.6-24.78-183l-590-1130c-25.21-48.46-87.35-104.54-138.76-125.72Z"/></svg>