<svg xmlns="http://www.w3.org/2000/svg" viewBox="0 0 433.33 431.89"><defs><style>.cls-1{fill:#033ad3;}</style></defs><g id="Capa_6" data-name="Capa 6"><path class="cls-1" d="M433.33,215.94c0,5.38-46.57,8.82-47,14.09s44.95,16.34,44.08,21.56-47.38,1-48.67,6.18,41.63,23.53,39.9,28.55-46.89-6.85-49-2,37.16,30.09,34.62,34.76-45.11-14.5-48-10.05,31.7,35.79,28.42,40-42.11-21.73-45.72-17.81,25.41,40.5,21.49,44.11-38-28.32-42.19-25,18.44,44.11,14,47-32.82-34.18-37.51-31.63,10.94,46.54,6,48.69S277,375.27,272,377s3.09,47.71-2.1,49S250,383,244.73,383.88s-4.84,47.57-10.19,48-12.49-45.7-17.87-45.7-12.6,46.13-17.87,45.7-5-47.13-10.19-48-20,43.45-25.13,42.15,2.91-47.3-2.11-49-26.91,39.54-31.77,37.4,10.72-46.16,6-48.69-33.06,34.54-37.51,31.63,18.18-43.77,14-47-38.28,28.65-42.2,25S95,335.16,91.41,331.23,49,353.24,45.68,349,77,313.51,74.12,309s-45.49,14.75-48,10.06,36.78-29.87,34.63-34.77-47.29,7-49,2S52.91,263,51.6,257.76s-47.8-.88-48.68-6.17S47.44,235.39,47,230,0,221.32,0,215.94s46.57-8.81,47-14.08S2.06,185.52,2.92,180.3s47.38-1,48.68-6.18S10,150.59,11.69,145.57s46.89,6.84,49,2-37.16-30.09-34.63-34.77,45.12,14.51,48,10S42.42,87,45.69,82.84s42.12,21.72,45.73,17.8S66,60.15,69.92,56.53s38,28.33,42.2,25-18.45-44.11-14-47S131,68.73,135.65,66.18s-10.94-46.55-6-48.7,26.7,39.14,31.76,37.4-3.09-47.71,2.11-49,19.84,43,25.13,42.14S193.44.44,198.8,0s12.49,45.7,17.87,45.7S229.27-.43,234.54,0s5,47.14,10.19,48,20-43.44,25.13-42.14-2.91,47.3,2.11,49,26.9-39.53,31.77-37.39S293,63.65,297.69,66.18s33.06-34.54,37.52-31.63-18.18,43.76-14,47,38.28-28.66,42.2-25.05-25.11,40.19-21.5,44.11,42.45-22,45.73-17.8-31.36,35.53-28.43,40,45.48-14.75,48-10-36.78,29.87-34.63,34.76,47.29-7,49-2-41.22,23.35-39.91,28.54,47.8.88,48.67,6.18-44.51,16.2-44.08,21.56,47,8.7,47,14.08"/></g></svg>