<svg xmlns="http://www.w3.org/2000/svg" viewBox="0 0 65.97 66.46"><defs><style>.cls-1{fill:#033ad3;}</style></defs><g id="Capa_6" data-name="Capa 6"><path class="cls-1" d="M33,3.79c-4.18,0-5.63-5.4-9.25-3.31s.39,9-3.23,11.13S12.88,6.75,9.25,8.84s.33,6.05-1.76,9.67S0,20.68,0,24.87s8,4.18,8,8.36-8,4.18-8,8.36S5.4,44.33,7.49,48s-1.86,7.58,1.76,9.67,7.63-4.87,11.25-2.78-.39,9,3.23,11.14,5.08-3.31,9.26-3.31,5.63,5.4,9.25,3.31-.4-9,3.22-11.13,7.64,4.86,11.26,2.77-.33-6,1.76-9.67S66,45.78,66,41.6s-8-4.18-8-8.36,8-4.19,8-8.37-5.4-2.74-7.49-6.36,1.87-7.57-1.76-9.66-7.63,4.86-11.25,2.77S45.65,1.89,41.79.26C38.45-1.15,37.17,3.79,33,3.79"/></g></svg>