<svg id="Capa_5" data-name="Capa 5" xmlns="http://www.w3.org/2000/svg" viewBox="0 0 4584.47 4695.02"><defs><style>.cls-1{fill:#fff;}</style></defs><path class="cls-1" d="M2395.57,16.2C2338.51-5.4,2246-5.4,2188.9,16.2l-1299.5,491C832.29,528.76,762,589.18,732.33,642.7l-694,1247.81C8.68,1944-7.11,2035.87,3.11,2095.84L244.45,3516.68c10.22,60,55.78,141.49,101.79,181.64l1061.3,924.18c46,40.15,132.71,72.52,193.74,72.52h1381.9c61,0,147.79-32.37,193.8-72.52l1061.25-924.18c46-40.15,91.57-121.66,101.78-181.64l241.35-1420.84c10.22-60-5.52-151.87-35.18-205.33L3852.13,642.7c-29.65-53.52-100-113.94-157-135.47Z"/></svg>