<svg xmlns="http://www.w3.org/2000/svg" xmlns:xlink="http://www.w3.org/1999/xlink" viewBox="0 0 19.92 24.39"><defs><style>.cls-1{fill:none;}.cls-2{clip-path:url(#clip-path);}.cls-3{fill:#fff;}.cls-4{fill:#033ad3;}</style><clipPath id="clip-path"><rect class="cls-1" x="1541.2" y="-5427.64" width="1366" height="5518.05"/></clipPath></defs><g id="fondos"><g class="cls-2"><path class="cls-3" d="M1496.48-1696.56c-60.37-8.77-150.75,11.2-201.79,44.59L131.74-892.11C80.63-858.76,25-784.6,7.6-725.94L-400.86,642.22c-17.37,58.59-13,151.73,9.95,208.09l542.23,1335.3c22.92,56.36,85,126.13,138.58,155.4l1235.71,673.42c53.59,29.28,145.23,42.17,204.82,29l1349.35-298.16c59.6-13.17,137.33-63.49,173.59-112.62l836.85-1131.39c36.26-49.13,63.15-138.56,60.19-199.33L4079.5-137.51c-3-60.77-38.16-147.11-78.65-192.91L3053.92-1399.09c-40.51-45.86-122.19-89.68-182.55-98.4Z"/></g></g><g id="figuras"><path class="cls-4" d="M0,14.83V9.55L19.92,0V7.87L15.07,10,4.18,12.19,15,14.26l4.94,2.25v7.88Z"/></g></svg>