<svg xmlns="http://www.w3.org/2000/svg" xmlns:xlink="http://www.w3.org/1999/xlink" viewBox="0 0 13.89 16.2"><defs><style>.cls-1{fill:none;}.cls-2{clip-path:url(#clip-path);}.cls-3{fill:#fff;}</style><clipPath id="clip-path"><rect class="cls-1" x="1710.01" y="-5662.04" width="1366" height="5518.05"/></clipPath></defs><g id="fondos"><g class="cls-2"><path class="cls-3" d="M1665.29-1931c-60.37-8.77-150.75,11.2-201.8,44.59L300.55-1126.52C249.43-1093.17,193.82-1019,176.41-960.34L-232,407.82c-17.37,58.59-13,151.73,10,208.09l542.23,1335.3c22.91,56.36,85,126.12,138.57,155.4L1694.42,2780c53.58,29.28,145.23,42.17,204.82,29l1349.35-298.16c59.59-13.17,137.33-63.49,173.59-112.63L4259,1266.85c36.26-49.13,63.16-138.55,60.2-199.32L4248.31-371.92c-3-60.76-38.16-147.1-78.66-192.9L3222.72-1633.49c-40.5-45.86-122.19-89.68-182.54-98.4Z"/></g></g><g id="figuras"><path class="cls-3" d="M0,9.25V7L13.89,0V4L7,7.06l-5.43,1L7,9.18l6.87,3.06v4Z"/></g></svg>