<svg xmlns="http://www.w3.org/2000/svg" xmlns:xlink="http://www.w3.org/1999/xlink" viewBox="0 0 13.86 16.2"><defs><style>.cls-1{fill:none;}.cls-2{clip-path:url(#clip-path);}.cls-3{fill:#fff;}</style><clipPath id="clip-path"><rect class="cls-1" x="1664.62" y="-5661.04" width="1366" height="5518.05"/></clipPath></defs><g id="fondos"><g class="cls-2"><path class="cls-3" d="M1619.9-1930c-60.36-8.77-150.74,11.2-201.79,44.59L255.16-1125.52C204.05-1092.17,148.44-1018,131-959.34L-277.44,408.82c-17.37,58.59-13,151.73,10,208.09l542.22,1335.3c22.92,56.36,85,126.12,138.58,155.4L1649,2781c53.58,29.28,145.23,42.17,204.82,29l1349.35-298.16c59.59-13.17,137.32-63.49,173.58-112.63l836.85-1131.39c36.26-49.13,63.16-138.55,60.19-199.32l-70.9-1439.45c-3-60.76-38.17-147.1-78.66-192.9L3177.34-1632.49c-40.5-45.86-122.19-89.68-182.54-98.4Z"/></g></g><g id="figuras"><path class="cls-3" d="M0,12.24l6.88-3.1,5.47-1L6.88,7,0,4V0L13.86,7v2.3L0,16.2Z"/></g></svg>