<svg xmlns="http://www.w3.org/2000/svg" xmlns:xlink="http://www.w3.org/1999/xlink" viewBox="0 0 19.92 24.39"><defs><style>.cls-1{fill:none;}.cls-2{clip-path:url(#clip-path);}.cls-3{fill:#fff;}.cls-4{fill:#033ad3;}</style><clipPath id="clip-path"><rect class="cls-1" x="1502.78" y="-5427.64" width="1366" height="5518.05"/></clipPath></defs><g id="fondos"><g class="cls-2"><path class="cls-3" d="M1458.06-1696.56c-60.36-8.77-150.75,11.2-201.79,44.59L93.32-892.11C42.21-858.76-13.4-784.6-30.81-725.94L-439.28,642.22c-17.37,58.59-13,151.73,10,208.09L112.9,2185.61c22.92,56.36,85,126.13,138.58,155.4L1487.2,3014.43c53.58,29.28,145.23,42.17,204.82,29l1349.35-298.16c59.59-13.17,137.32-63.49,173.58-112.62L4051.8,1501.26c36.26-49.13,63.16-138.56,60.19-199.33L4041.08-137.51c-3-60.77-38.16-147.11-78.65-192.91L3015.5-1399.09c-40.51-45.86-122.19-89.68-182.54-98.4Z"/></g></g><g id="figuras"><path class="cls-4" d="M0,16.51l4.85-2.16,10.9-2.16L4.94,10.13,0,7.87V0L19.92,9.55v5.28L0,24.39Z"/></g></svg>