<svg id="fondos" xmlns="http://www.w3.org/2000/svg" xmlns:xlink="http://www.w3.org/1999/xlink" viewBox="0 0 95.89 95.57"><defs><style>.cls-1{fill:none;}.cls-2{clip-path:url(#clip-path);}.cls-3{fill:#fff;}.cls-4{fill:#033ad3;}</style><clipPath id="clip-path"><rect class="cls-1" x="-1453.66" y="-7873.4" width="1366" height="6363.31"/></clipPath></defs><g class="cls-2"><path class="cls-3" d="M-1498.38-4337.62c-60.37-8.78-150.75,11.19-201.79,44.59l-1162.95,759.85c-51.12,33.35-106.73,107.52-124.14,166.17l-408.46,1368.17c-17.37,58.59-13,151.73,9.95,208.09l542.23,1335.3c22.92,56.36,85,126.12,138.58,155.4l1235.71,673.41c53.59,29.28,145.23,42.18,204.82,29L84.92,104.2C144.51,91,222.25,40.71,258.51-8.42l836.85-1131.39c36.25-49.13,63.15-138.55,60.19-199.32l-70.91-1439.45c-3-60.77-38.16-147.11-78.65-192.91L59.06-4040.15c-40.51-45.86-122.19-89.69-182.55-98.41Z"/><path class="cls-4" d="M-899.52,247.27c-98.21,56.06-242,36-321.08-44.77L-2108-705c-79.12-80.79-104.59-229.56-56.92-332.11l559.24-1203.23c47.66-102.56,177.15-173.12,289.21-157.49L-96-2227.7c112.05,15.62,217.29,118.91,235.1,230.59L347.92-686.79c17.8,111.67-47.4,247.8-145.59,303.86Z"/></g><path class="cls-3" d="M95.89,47.78c0-1.19-10.31-2-10.4-3.11s9.94-3.62,9.75-4.77-10.48-.23-10.77-1.37,9.21-5.21,8.83-6.32-10.37,1.52-10.85.44S90.68,26,90.12,25s-10,3.21-10.63,2.22,7-7.92,6.29-8.85-9.32,4.81-10.12,3.94,5.63-9,4.76-9.76S72,18.78,71.08,18.05s4.08-9.76,3.1-10.4-7.27,7.56-8.31,7,2.42-10.3,1.34-10.78-5.91,8.66-7,8.27.68-10.55-.47-10.84-4.39,9.52-5.56,9.32S53.08.1,51.9,0s-2.76,10.11-4,10.11S45.16-.09,44,0s-1.1,10.43-2.25,10.62S37.31,1,36.18,1.3s.64,10.46-.47,10.84-5.95-8.74-7-8.27S31.05,14.08,30,14.64s-7.32-7.64-8.3-7,4,9.69,3.09,10.41-8.47-6.34-9.34-5.54S21,21.4,20.23,22.27s-9.39-4.87-10.12-3.94,6.94,7.86,6.29,8.85S6.34,23.92,5.77,25s8.14,6.61,7.67,7.69S3,31.09,2.59,32.21s9.12,5.17,8.83,6.32S.84,38.72.65,39.9s9.85,3.58,9.75,4.77S0,46.59,0,47.78s10.31,2,10.4,3.12S.46,54.52.65,55.67,11.13,55.9,11.42,57s-9.21,5.2-8.83,6.31S13,61.84,13.44,62.92s-8.23,6.66-7.67,7.69,10-3.21,10.63-2.22-7,7.92-6.29,8.84,9.32-4.8,10.12-3.93-5.63,9-4.76,9.76,8.41-6.27,9.34-5.55-4.08,9.77-3.1,10.41,7.27-7.56,8.3-7-2.42,10.3-1.33,10.78,5.91-8.66,7-8.28S35,94,36.17,94.27s4.39-9.52,5.57-9.32S42.8,95.47,44,95.57s2.76-10.12,3.95-10.12,2.79,10.21,4,10.12S53,85.14,54.15,85s4.43,9.61,5.56,9.32-.64-10.46.47-10.85,5.95,8.75,7,8.28-2.37-10.21-1.34-10.78,7.32,7.65,8.3,7-4-9.68-3.09-10.4,8.47,6.34,9.34,5.54-5.56-8.89-4.76-9.76,9.39,4.87,10.12,3.94-6.94-7.86-6.29-8.85,10.06,3.26,10.62,2.22S82,64,82.45,62.92s10.47,1.56,10.85.44S84.18,58.19,84.47,57s10.58-.2,10.77-1.37-9.85-3.58-9.75-4.77S95.89,49,95.89,47.78ZM51,60.61H43.15V49.12c0-3.2,0-4.25-.44-4.82a2.29,2.29,0,0,0-2.23-1,15.66,15.66,0,0,0-3.92.73V60.61H28.75V39h7.12l.57,5a9.12,9.12,0,0,1,8.05-5.74c2.47,0,3.92.68,4.93,1.78C50.6,41.31,51,43.66,51,47.66ZM74.51,50,57.32,53.82a.44.44,0,0,1-.52-.44V46a.44.44,0,0,1,.55-.43l17.19,3.5A.44.44,0,0,1,74.51,50Z"/></svg>