<svg xmlns="http://www.w3.org/2000/svg" xmlns:xlink="http://www.w3.org/1999/xlink" viewBox="0 0 160.71 140.54"><defs><style>.cls-1{fill:none;}.cls-2{clip-path:url(#clip-path);}.cls-3{fill:#ffbe00;}.cls-4{fill:#033ad3;}.cls-5{clip-path:url(#clip-path-2);}.cls-6{fill:#fff;}.cls-7{fill:#209477;}</style><clipPath id="clip-path"><rect class="cls-1" x="-1643.1" y="-6845.59" width="1366" height="7489.55"/></clipPath><clipPath id="clip-path-2"><rect class="cls-1" x="383.29" y="-6845.59" width="1366" height="11221.52"/></clipPath></defs><g id="fondos"><g class="cls-2"><path class="cls-3" d="M-2788.17,1659.43c-30.09-37.31-52.74-106.36-50.61-154.24L-2779.31,125c1.77-47.72,29.94-115.14,62.26-150.3L-1758-1066c32.65-35.26,97.34-69.54,144.59-76.55l1411.06-210.66c47.25-7,119,7.2,160.13,31.74L1157.09-604.27c40.91,24.69,86.28,81.48,101.22,127L1687,829.4c14.92,45.48,12,118.16-6.32,162.24L1139.39,2279.88c-18.63,44.21-68,98.1-110.21,120.44L-232.39,3066.58c-42.22,22.34-114.64,33.05-161.85,24l-1389.15-270.15c-46.87-9.21-109.49-46.8-139.21-84.24Z"/><path class="cls-4" d="M-1190.28,2487.56c-102.41,58.46-252.31,37.56-334.82-46.68l-925.44-946.41c-82.51-84.25-109.08-239.38-59.37-346.32L-1926.72-106.6C-1877-213.54-1742-287.13-1625.13-270.83L-352.32-93.37c116.85,16.29,226.6,124,245.17,240.47L110.57,1513.51C129.13,1630,61.14,1771.92-41.26,1830.38Z"/></g><g class="cls-5"><path class="cls-6" d="M2145.94-5818.51C2000.38-5908.9,1744.79-5962,1575.29-5937l-3860.65,566.42c-169.63,24.78-397.27,145.85-508.85,271.79l-2608.56,2935c-111.39,125.81-206,362.22-211,528.28l-121.66,3933.48c-5.05,166.06,75.55,409.92,180.3,543.53l2418,3077.06c104.76,133.62,326.22,269.78,494.74,304.78l3815.82,792.38c168.52,35,426-1.71,575.34-82.57l3443-1860c149.3-80.87,320.32-272.47,381.8-426.81L7028,989.61c61.49-154.34,69-408.83,16.76-568.63L5820.44-3309.91c-52.2-160-212.82-361.65-358.41-451.89Z"/></g></g><g id="figuras"><g id="PNsQ5A"><path class="cls-7" d="M83.43,0c6.28,3.93,12.62,7.77,18.83,11.81q28.61,18.6,57.12,37.31l1.33.91-6.26.86-16.4,2.25L124.62,55a1.32,1.32,0,0,1-.56,0l-5.37-2c.72-1.38,1.32-2.71,2.08-3.94.93-1.51,2-2.92,3-4.4a1.81,1.81,0,0,1,1.79-1,21.8,21.8,0,0,0,2.45-.16,17,17,0,0,0-1.54-2.72c-2.67-3.09-5.24-6.28-8.17-9.11C109.5,23.16,100,15.46,90.46,7.85,87.59,5.56,84.69,3.31,81.74,1l.76-1Z"/><path class="cls-7" d="M79,0c-.67.61-1.31,1.28-2,1.83C65.62,10.67,54.38,19.69,43.87,29.56c-3,2.8-5.71,5.88-8.45,8.92a35.08,35.08,0,0,0-2.72,4.07,7.53,7.53,0,0,0,1.7.37,3.26,3.26,0,0,1,3.05,1.84c1.63,2.48,3.37,4.88,5.15,7.42-3.08,1.09-5.9,2.31-9.31,1.69-5.5-1-11.08-1.54-16.62-2.3C12.47,51,8.26,50.4,4.06,49.82c-1.24-.18-2.49-.31-4.06-.51,1.77-1.19,3.24-2.2,4.74-3.19Q28.35,30.69,52,15.28c7.76-5,15.64-9.92,23.46-14.88A5.52,5.52,0,0,0,76,0Z"/><path class="cls-7" d="M108.27,76.68l.06-1.1h.2c0,2.41,0,4.81,0,7.22a1.92,1.92,0,0,1-.2.88,48.16,48.16,0,0,1-7.86,11.4c-3.3,3.33-7.27,4.13-11.71,3.57-7.67-1-13.25-5.33-17.93-11.1a81.8,81.8,0,0,1-5.22-7.09,20.55,20.55,0,0,1-1.55-4.16c-1.26.33-1.82-.72-2.48-1.75-.93-1.46-2-2.86-3-4.27a4.1,4.1,0,0,1,1.62-6.2c.25-.11.49-.25.74-.35.82-.33,1-.8.89-1.78-.62-4-1.48-8-1.5-12a32.46,32.46,0,0,1,5.48-19.07A17.53,17.53,0,0,1,79,23.2c9.39-1,16.29,2.9,21.43,10.5a34.89,34.89,0,0,1,5.82,20.63,19.47,19.47,0,0,0,.27,3.23c0,.26.49.57.8.65a9.42,9.42,0,0,1,2.46.47,2.9,2.9,0,0,1,1.35,1.87c.31,2.75.62,5.59-.76,8.17a16.73,16.73,0,0,1-2,2.3,2.12,2.12,0,0,0-.58,1.19c.09,1.49.3,3,.47,4.46Zm-7.58-11.86c-.4-.85-.42-1.72-1.41-1.85-1.37-.18-2.75-.39-4.14-.44a85,85,0,0,0-25.6,2.68c-.86.24-1.07.56-.94,1.33s.6,1.23,1.46,1,1.64-.48,2.47-.63c1.88-.34,3.76-.62,5.65-.93.09.42.12.53.13.64s0,.25,0,.34a7.54,7.54,0,0,0,4.45,3.9c3.73,1.15,6.26-1,8.65-3.36,0,0,0-.13,0-.21l-1-.14c.08-1.24.41-2.13,1.79-2.16.7,0,1.39-.17,2.08-.18C96.33,64.81,98.38,64.82,100.69,64.82Zm-6.48,9.49c-1.35-.9-1.35-1.56-.19-2.3a.87.87,0,0,0,.39-.57c0-1.48,0-3,0-4.46l-.4-.2a6.12,6.12,0,0,0-1.21.82c-.91,1-1.71,2-2.62,2.94-2.86,2.91-6.56,3.74-9.55,1.93a20.75,20.75,0,0,1-3.29-3c-.45-.43-.63-1.27-1.68-1l1.48,8.12ZM74.42,61.77c3.33-.38,6.57-.9,9.83-1.08s6.56,0,9.93,0c0-.32,0-.57,0-.56-.6-.41-1.29-.63-1.4-1S93,58,93.11,57.4a21.48,21.48,0,0,0-8.39-.76c-2.62.36-5.23.91-7.81,1.51-2.85.66-2.87.78-2.5,3.59C74.41,61.81,74.48,61.87,74.42,61.77Zm-9.84,1.64c-1.33.81-2.46,1.62-3.7,2.21a2.21,2.21,0,0,0-1.35,2.87,18.56,18.56,0,0,0,1.2,3.6c1.16,2.26,3.25,2.64,5.25,1.1l.93-.72C64.79,69.84,64.42,66.78,64.58,63.41Zm38.83,4.89c1.19.32,2.27.57,3.33.9a1.88,1.88,0,0,0,2.45-1.12,6.18,6.18,0,0,0,.49-4c-.15-.93-.2-2.12-.78-2.71a8.91,8.91,0,0,0-5.71-2.3A8.55,8.55,0,0,1,103.41,68.3ZM99.1,60.53c2.42.27,2.9.87,2.94,2.94a4.33,4.33,0,0,1-1.31,3.1c-.39.42-.54.85,0,1.11a1.7,1.7,0,0,0,1.29,0,1.82,1.82,0,0,0,.62-1.07,8.11,8.11,0,0,0-1.15-6.73,2,2,0,0,0-1.48-.78C99.74,59.13,99.47,59.94,99.1,60.53ZM69.92,69.79c-2.07-.09-2.78-.77-2.74-2.85a5.59,5.59,0,0,1,.57-2.65c.66-1.1-.07-1.5-.7-1.92s-1.12-.22-1,.6a41.12,41.12,0,0,0,.79,5.45,2.79,2.79,0,0,0,3,2.34Z"/><path class="cls-7" d="M145,56c-1.86,2-3.56,3.64-5.13,5.43-4.78,5.47-9.48,11-14.26,16.47-5.79,6.63-11.87,13-19.41,17.65-3,1.83-6.23,3.2-9.35,4.77l-.58.27a14.39,14.39,0,0,0,6.26.82,25.47,25.47,0,0,1,4.94.17,8.64,8.64,0,0,1,2.49,1.34l-.17.31c-1.94.19-3.88.35-5.81.59a36.51,36.51,0,0,0-10.18,3c-3.6,1.58-7.14,3.3-10.78,4.77a12.7,12.7,0,0,1-10.56-.38c-.14-.07-.27-.15-.4-.23s0-.06-.06-.22c5.19-1.11,10.27-2.52,14-6.83h-1.8a37.08,37.08,0,0,1-23.63-8.74A101.42,101.42,0,0,1,49.5,83.9c-7.36-8.21-15-16.12-24-22.58-2.35-1.69-4.81-3.21-7.29-4.86a56,56,0,0,1,5.63-.94,63,63,0,0,1,6.73,0c9.61.37,17.91,3.63,23.88,11.45,3.9,5.09,7.46,10.43,11.16,15.67,3.42,4.84,7,9.51,12,12.94a23.66,23.66,0,0,0,16.11,4.27,12.23,12.23,0,0,0,7.07-3.4,38,38,0,0,0,7.51-10.09c3.11-5.64,6-11.41,9.24-17,3-5.13,7-9.44,12.61-11.89a25.13,25.13,0,0,1,11.56-1.81C142.68,55.77,143.71,55.89,145,56Z"/><path class="cls-7" d="M17.4,130.46c-.23-4-.47-7.93-.68-11.85a18.2,18.2,0,0,1,0-2.09c.16-3.25,1.43-4.72,4.59-5.47A40,40,0,0,1,33,110.48c8.8.53,17.2,3.13,25.72,5.1a110.73,110.73,0,0,0,17.94,2.73c9.69.63,19.07-1,28.4-3.35,5.45-1.37,10.91-2.77,16.44-3.8a61.46,61.46,0,0,1,17.45-.51c3.76.39,4.95,2.25,5.09,5.45.13,3-.23,6-.32,9,0,1.79,0,3.59,0,5.63a7.13,7.13,0,0,1-1.06-.83,8.3,8.3,0,0,0-6.06-2.78,57.54,57.54,0,0,0-8.09.21c-4.61.42-9.22.93-13.81,1.58-4.42.62-8.84,1.37-13.22,2.24-7.65,1.51-15.3,2.92-23.15,2.9a71.18,71.18,0,0,1-16.82-2.38,181.61,181.61,0,0,0-21.71-3.94,62.12,62.12,0,0,0-13.07-.49C23.32,127.58,20.09,128.28,17.4,130.46Zm109.12-9.38h-.15c.14-1.73.18-3.47.43-5.18.15-1-.18-1.38-1.1-1.59-4.1-.94-8.51,3.17-7.75,7.32a3.52,3.52,0,0,0,1.1,1.82c1.14,1,3.21.41,3.42-.91a1.6,1.6,0,0,0-.62-1.36.86.86,0,0,0-1.24.69,9.52,9.52,0,0,1,.9.89s-.32.47-.39.44a2.76,2.76,0,0,1-1.05-.54,1.54,1.54,0,0,1-.38-.94,14.28,14.28,0,0,1,.09-3,4.68,4.68,0,0,1,5.81-3.79,6.28,6.28,0,0,0-2.1,4.13c-.37,1.93-.64,3.88-1,5.8a4.45,4.45,0,0,1-.83,1.6c-.09.11-.59-.07-.89-.12a5.37,5.37,0,0,1,.31-.69c.16-.27.37-.51.55-.77-.35-.15-.7-.46-1-.44a1.21,1.21,0,0,0-1.21,1.4,1.33,1.33,0,0,0,1.34,1.33,2,2,0,0,0,2.2-1.66c.31-1,.52-2.09.74-3.15.38-1.82.72-3.65,1.08-5.48l.37.06-.54,8.92.3.19c.36-.34.87-.62,1-1,.63-1.52,1.19-3.07,1.7-4.64s1-3.35,1.51-5l.34.1c-.19,1.23-.39,2.46-.56,3.7a37.89,37.89,0,0,0-.54,4.36c0,1.28.85,1.68,2,1A7.85,7.85,0,0,0,131,124c.9.72,1.17.68,2.06-.09,1.35,0,2.45,0,3.54,0,.15,0,.33-.55.39-.86.21-1.09.38-2.18.57-3.3,1.18.57,1.83.31,2.29-.63l-1.18-1.24-.52.42c-.49-.11-.85-.31-1.1-.22a1.22,1.22,0,0,0-.64.73c-.22,1-.3,2.07-.54,3.08a4.89,4.89,0,0,1-.71,1.25l-.43-.19c.24-1.5.47-3,.77-4.89a14.29,14.29,0,0,0-2.41.94c-1.3.82-1.71,2.2-2,3.64a6.53,6.53,0,0,1-.67,1.35l-.54-.17q.77-5.11,1.53-10.26c-1.8.06-2.85,1-3.51,3C127.41,118,127,119.54,126.52,121.08Zm-94.86-6.82c-.9-.29-1.4-.09-1.63.78-.44,1.6-1.05,3.16-1.39,4.78a6.52,6.52,0,0,1-2.78,3.81c-1.72,1.33-2.83.83-3.19-1.32a1,1,0,0,1-.05-.23,12.38,12.38,0,0,1,2.32-7.73,2.46,2.46,0,0,1,2.37-1.18c.77.12,1,.65.46,1.12a8.32,8.32,0,0,1-1.9,1.06,2,2,0,0,0,2.93.44,2.05,2.05,0,0,0,.92-2.32c-.31-1-1.18-1.16-2.08-1a4.24,4.24,0,0,0-1.77.43,10.78,10.78,0,0,0-5.14,9.44c0,2.07,1.59,3.14,3.59,2.58a7.09,7.09,0,0,0,1.94-1,13.4,13.4,0,0,0,1.45-1.29c.63,1.28.89,1.31,2.43.36.86.85.87.85,2.1.07.77.78.91.77,2.36-.07,1,1,2.1.78,3-.68.67-1,1.31-2,1.87-3l-1-1.23c-.62.4-1.55.66-1,1.78s-.1,2.54-1.69,3l2.57-8.61c-.9-.29-1.37-.14-1.62.78-.59,2.19-1.26,4.37-2,6.53-.13.39-.56.69-.85,1l-.37-.26L35,117.92c-1-.37-1.52,0-1.72,1a20.52,20.52,0,0,1-.56,2c-.19.55-.45,1.07-.67,1.6l-.34-.12L33,117.85H31.62c-.19.64-.36,1.23-.54,1.82s-.39,1.09-.54,1.65-.29,1.19-1.29,1.23Zm44.62,13.46a23.26,23.26,0,0,1-2.36,1.63.74.74,0,0,1-1.13-.58c-.13-.67.27-.71.81-.78a2.86,2.86,0,0,0,1.44-.58c.65-.55,1.32-1.35.75-2.19s-1.47-.48-2.29-.11a4.41,4.41,0,0,0-2.08,2.51,1.45,1.45,0,0,1-1.62,1c1-1.42.58-3.59,3.17-3.84l-1.14-.61.93-2.12c-1.27-.52-1.58.35-1.86,1.14s-.77.9-1.6.79a6,6,0,0,0-2.63.28c-1.27.42-1.75,1.64-2.36,2.72-.19.35-.76.49-1.15.72-.14-.38-.47-.81-.38-1.14s.69-.43.89-.75c.41-.69.71-1.45,1.06-2.17l-1.67-.45,1.49-3.32-.22-.32c-.42.17-1.07.23-1.22.54-1.29,2.62-2.48,5.28-3.74,8l1.25.23.76-1.46c.29.56.44,1.3.86,1.5s1.12-.09,1.75-.17c.44,1.26,1.33.55,2.12.27.74,1.28,1.59.46,2.15.26.63.34,1.11.83,1.51.78a3.34,3.34,0,0,0,1.24-.7c.72.45,1.3,1.12,1.91,1.14C74.37,130.06,75.42,129.19,76.28,127.72Zm5.1-1,.91.94c-.18.17-.48.51-.53.48a5.28,5.28,0,0,1-.94-.83.92.92,0,0,1-.16-.55,6.91,6.91,0,0,1,1.84-5.65,4.89,4.89,0,0,1,4.72-1.41A8.62,8.62,0,0,0,84,125.45a14.31,14.31,0,0,0-.18,4.57c.25,1.89,1.68,2.28,3,1a4.49,4.49,0,0,0,1.25-1.77q1.25-4,2.27-8.1a10.76,10.76,0,0,0,0-2.54l-.33,0a5.5,5.5,0,0,0-.25.88,33.19,33.19,0,0,1-.56,4c-.62,2.22-1.41,4.39-2.23,6.54-.14.37-.73.58-1.11.86a3.72,3.72,0,0,1-.56-1.27,14.94,14.94,0,0,1,.2-3c.45-2.5.86-5,2.67-7-2.13-1-5.4-.24-7.19,1.77a6.76,6.76,0,0,0-2,5.7,2.11,2.11,0,0,0,1.59,1.81,2.29,2.29,0,0,0,2.41-.76c.55-.59.6-1.3,0-1.73A1,1,0,0,0,81.38,126.74Zm33.51-1.15-.36-.09c.44-2.76.88-5.52,1.32-8.3-.93-.22-1.37.08-1.49,1-.19,1.53-.51,3-.73,4.56a4,4,0,0,1-1.55,3.1,1.5,1.5,0,0,1-1.16.23c-.27-.09-.37-.62-.53-.92a15.43,15.43,0,0,0,1.68-.91c.81-.6,1.15-2.23.65-2.81s-1.66-.39-2.55.5a3.72,3.72,0,0,0-1.19,3.13c.06.62-.06,1.14-1,1.22.43-2.83.84-5.57,1.26-8.31-1-.18-1.41.19-1.44,1.1a11.68,11.68,0,0,1-.39,2.16.94.94,0,0,1-.43.59,4.5,4.5,0,0,0-2.59,3.94,6.76,6.76,0,0,0,.33,2l1.8-.49a3.37,3.37,0,0,0,1.37.1,5.08,5.08,0,0,0,1.32-1l0,.33a5.59,5.59,0,0,0,2.06.26,5.2,5.2,0,0,0,1.63-1.09c.54.29,1,.79,1.44.73a1.57,1.57,0,0,0,1.28-1.65Zm-18.54,2.34-.44-.16c.07-.45.13-.89.2-1.34a21.85,21.85,0,0,0,.3-2.4c0-.27-.38-.79-.57-.78a23.92,23.92,0,0,0-2.6.37c-.16.85-.3,1.73-.49,2.59s.08,1.86-1.3,2.39l.81-5-1.4.3c-.22,1.55-.5,3.1-.64,4.67,0,.33.47,1,.73,1a16.28,16.28,0,0,0,2.57-.3c.39-1.66.76-3.26,1.13-4.86l.41.09c-.17,1.12-.38,2.24-.48,3.37,0,.36.18,1,.38,1a2.33,2.33,0,0,0,1.27-.3c.19-.07.31-.31.51-.52.85,1.27,1.58.41,2.32-.08,1.23.81,2.06.4,2.6-1.3l-1.15.83.71-5.06a6.85,6.85,0,0,0-1.22.16c-1.92.61-2.7,2.13-3.1,3.95A7.62,7.62,0,0,1,96.35,127.93Zm-40.67-2.72a1.31,1.31,0,0,0,1-1.49,1.36,1.36,0,0,0-1.48-1.44,4.11,4.11,0,0,0-2.12.66,3.37,3.37,0,0,0-.87,4.28,3.9,3.9,0,0,0,4.28,1.54,4.54,4.54,0,0,0,2.19-7.43,3.48,3.48,0,0,1-.87-1.69,1.9,1.9,0,0,1,.68-1.59,3.15,3.15,0,0,1,1.92.14c.19,0,.42.65.33.87a1.34,1.34,0,0,1-.84.63,4.5,4.5,0,0,1-1.22,0c.13,1.15.27,1.31,1.09,1.39a1.81,1.81,0,0,0,2-1.32,2.1,2.1,0,0,0-1.67-2.41,3.31,3.31,0,0,0-3.59,1.28,3.22,3.22,0,0,0,.7,3.72,3.52,3.52,0,0,1-.44,5.35,2.67,2.67,0,0,1-3.32,0,2.34,2.34,0,0,1-.67-2.91c.32-.66.84-1.25,1.63-.94C54.88,124,55.16,124.62,55.68,125.21Zm-7.78-9.34c-.89-.38-1.4-.16-1.68.67a8.54,8.54,0,0,1-.73,1.7,1.64,1.64,0,0,1-.84.79,4.65,4.65,0,0,0-3.29,3,11,11,0,0,0-.34,2.09h2.16c.75.86.93.85,2.68-.28A1.57,1.57,0,0,0,47.8,125a3.71,3.71,0,0,0,2.51-1.69,12.38,12.38,0,0,1-2.15,1c-.23.06-.6-.45-.9-.7a3.54,3.54,0,0,1,.67-.67c.22-.13.55,0,.79-.13a2.44,2.44,0,0,0,1.73-2c0-.35-.26-1.07-.39-1.07a6.58,6.58,0,0,0-2.39.37,3.83,3.83,0,0,0-1.85,2.67,4.72,4.72,0,0,1-.74,1.08l-.44-.27C45.72,121.06,46.79,118.51,47.9,115.87Zm49.29,4.73a3.62,3.62,0,0,1-1.44,0c-1.17-.55-2-.11-2.2,1.09.35-.07.81-.32,1.13-.19C96,122,96.49,121.82,97.19,120.6Zm-4,.89c-.58-.44-.91-.88-1.2-.86s-.65.46-1,.72c.3.35.53.84.91,1C92.16,122.42,92.6,121.93,93.22,121.49Z"/><path class="cls-7" d="M2.71,135.32c1.28-2,2.46-3.87,3.73-5.7a1.71,1.71,0,0,0,.22-1.79c-1-2.74-1.9-5.51-2.71-8.35,3.31,2.58,7.15,3.75,11.08,4.7a1,1,0,0,1,.57.68c.11,1,.12,1.93.16,2.89q.13,3.41.28,6.81a1.78,1.78,0,0,0,.08.45c.6,2.08,1.25,2.44,3.25,1.61,1.74-.72,3.42-1.6,5.15-2.34a2.83,2.83,0,0,1,3.35.87,1,1,0,0,1,0,1.65,11.51,11.51,0,0,1-6.8,3.44,22.9,22.9,0,0,1-17.68-4.39Z"/><path class="cls-7" d="M156.54,118.89c-.77,2.31-1.44,4.67-2.36,6.92a3.35,3.35,0,0,0,.37,3.73c.92,1.18,1.64,2.53,2.54,3.73.66.86.44,1.37-.34,2a22.58,22.58,0,0,1-7.64,3.74,21.2,21.2,0,0,1-10.86.67,9,9,0,0,1-5.68-3.72c-.48-.71-.41-1.11.44-1.48a5.25,5.25,0,0,1,4.47.16c1.69.74,3.34,1.58,5.06,2.24,1.33.5,1.79.35,2-1a74.49,74.49,0,0,0,.39-7.48c0-1.2-.06-2.4-.12-3.59,0-.82.32-1.18,1.13-1.45,2.73-.92,5.44-1.91,8.11-3a11.3,11.3,0,0,0,2.2-1.58Z"/><path class="cls-7" d="M17.16,135.05A5.46,5.46,0,0,1,19.27,131a11.26,11.26,0,0,1,6.32-2.25c.42,0,.85,0,1.28,0,3.19,0,3.19,0,2.87,3.46-3.1-.93-5.56.73-8.12,2A6.45,6.45,0,0,1,17.16,135.05Z"/><path class="cls-7" d="M143.52,135.55c-1.49-.6-2.82-1.17-4.17-1.68a26.55,26.55,0,0,0-4.11-1.4,12,12,0,0,0-3.15.23,5.24,5.24,0,0,1-.1-3.58,1,1,0,0,1,.67-.36,15,15,0,0,1,8.51,1.63C143,131.43,143.83,133,143.52,135.55Z"/><path class="cls-7" d="M75.33,59.72l0,.56c.41.27.88.82,1.22.75a1.51,1.51,0,0,0,1-1.09c0-.36-.63-.92-1-1S75.72,59.44,75.33,59.72Z"/><path class="cls-7" d="M67.6,128.23l.31.21c1.37-.61,1.3-2.2,2-3.26.09-.14-.24-.57-.46-1Zm.06-3.73a4.33,4.33,0,0,0-2.13,3.69C67.16,127.26,67.09,125.69,67.66,124.5Zm5.2,2.94c1.25,0,1.85-.75,2-2.26C73.52,125.41,73.71,126.74,72.86,127.44Z"/><path class="cls-7" d="M42.43,123.22c.89.07,2.1-1.87,2.16-3.48C43.49,120.05,42.54,121.58,42.43,123.22Zm7-3.07-.43-.31-1.61,2.4.35.25A2.8,2.8,0,0,0,49.46,120.15Z"/><path class="cls-7" d="M82.24,66a1.47,1.47,0,0,1,1.15-1.61,7.25,7.25,0,0,1,5.71.5c.18.08.27.73.14,1a1.07,1.07,0,0,1-.88.5c-1.25-.16-2.47-.52-3.73-.64A11.17,11.17,0,0,0,82.24,66Z"/><path class="cls-7" d="M86,67.13l-1.24,1.81c.32,0,.85.13,1.38.23a1.28,1.28,0,0,1,.61.23.67.67,0,0,1-.07.57,2.16,2.16,0,0,1-2.88.5A1.59,1.59,0,0,1,83.65,68a11,11,0,0,1,1.88-1.33Z"/><path class="cls-7" d="M75.33,59.72c.39-.28.83-.83,1.17-.78s1,.64,1,1a1.51,1.51,0,0,1-1,1.09c-.34.07-.81-.48-1.22-.75Z"/><path class="cls-7" d="M132.76,123.13a3.37,3.37,0,0,1,1-3.93C134.08,120.36,133.47,122.72,132.76,123.13Z"/><path class="cls-7" d="M67.6,128.23l1.86-4.08c.22.46.55.89.46,1-.71,1.06-.64,2.65-2,3.26Z"/><path class="cls-7" d="M67.66,124.5c-.57,1.19-.5,2.76-2.13,3.69A4.33,4.33,0,0,1,67.66,124.5Z"/><path class="cls-7" d="M72.86,127.44c.85-.7.66-2,2-2.26C74.71,126.69,74.11,127.43,72.86,127.44Z"/><path class="cls-7" d="M105.82,126.6a3.88,3.88,0,0,1,1.12-4.06C107.25,123.67,106.6,126.12,105.82,126.6Z"/><path class="cls-7" d="M110.21,124.54l1.07-2.91C112,123,111.62,123.9,110.21,124.54Z"/><path class="cls-7" d="M98.4,127.43a3.84,3.84,0,0,1,1.13-3.93C99.87,124.79,99.19,127.17,98.4,127.43Z"/><path class="cls-7" d="M42.43,123.22c.11-1.64,1.06-3.17,2.16-3.48C44.53,121.35,43.32,123.29,42.43,123.22Z"/><path class="cls-7" d="M49.46,120.15a2.8,2.8,0,0,1-1.69,2.34l-.35-.25,1.61-2.4Z"/></g></g></svg>