<svg id="fondos" xmlns="http://www.w3.org/2000/svg" viewBox="0 0 4187.8 4195.62"><defs><style>.cls-1{fill:#f5b5cd;}</style></defs><title>fondo rosado 1</title><path class="cls-1" d="M3828.84,903.95c-15.35-53.46-65.31-121.92-111.55-152.83L2664.62,46.47C2618.39,15.49,2537.23-5,2482.93,1L1215.7,139.28c-54.22,6-128.48,42.32-165.87,81.19L163.69,1140.78c-37.39,38.87-71.11,115.12-75,170.11L.42,2578.27c-3.89,55,19.76,136,52.7,181.13L799,3781.35c32.94,45.13,102.92,92.4,156.47,105.46l1233.92,302.3c53.55,13.06,136.46,4.19,184.87-19.57L3520.94,3606.2c48.42-23.76,105.66-83.38,127.9-133.22l518-1164.75c22.28-49.87,27.55-133.41,12.16-186.85Z"/></svg>