<svg id="fondos" xmlns="http://www.w3.org/2000/svg" viewBox="0 0 4157.93 4208.83"><defs><style>.cls-1{fill:#fff;}</style></defs><title>web-locus</title><path class="cls-1" d="M2557.21,40.45C2510,11.12,2427.06-6.1,2372.06,2L1119.46,185.78c-55,8-128.9,47.32-165.1,88.18L108,1226.22c-36.14,40.82-66.83,117.53-68.47,171.4L.07,2673.85c-1.64,53.88,24.51,133,58.5,176.35l784.52,998.36c34,43.35,105.85,87.53,160.52,98.89l1238.05,257.09c54.68,11.35,138.23-.55,186.67-26.79l1117.1-603.48c48.44-26.24,103.93-88.4,123.88-138.48l471.91-1186.43c19.95-50.08,22.38-132.65,5.44-184.49L3749.41,854.37c-16.94-51.9-69.05-117.34-116.29-146.61Z"/></svg>