<svg id="fondos" xmlns="http://www.w3.org/2000/svg" viewBox="0 0 3815.12 3961.46"><defs><style>.cls-1{fill:#fff;}</style></defs><title>fondo blanco 1</title><path class="cls-1" d="M1568,1.42c-50.49-6.7-125.75,10.9-168,39.31L436.86,687.16c-42.33,28.37-88,90.87-101.93,140L8,1973.73c-13.9,49.1-9.26,126.82,10.46,173.64L485,3256.66c19.72,46.82,72.27,104.43,117.31,128.32L1641,3934.48c45,23.89,121.69,33.71,171.31,22.1l1123.54-262.87c49.62-11.61,114-54.43,143.77-95.82l687-953.27c29.77-41.39,51.3-116.34,48.2-167l-74.06-1201.11c-3.1-50.71-33.38-122.43-67.66-160.25L2871.45,233.72c-34.29-37.87-102.95-73.62-153.43-80.28Z"/></svg>