<svg id="fondos" xmlns="http://www.w3.org/2000/svg" viewBox="0 0 2514.69 2565.08"><defs><style>.cls-1{fill:#ffbe00;}</style></defs><title>web-fondos-</title><path class="cls-1" d="M1303.36,2557.87c-25.42,9.61-66.63,9.61-92,0l-733.12-276c-25.4-9.39-56.74-36.49-70-60.11L17.08,1521c-13.23-23.82-20.26-64.73-15.69-91.43L137.33,632.12c4.57-26.7,24.91-62.82,45.41-80.67L781.13,32.08C801.66,14.41,840.28,0,867.45,0h779.79c27.14,0,65.79,14.41,86.29,32.08l598.39,519.37c20.53,17.85,40.84,54,45.41,80.67l136,797.49c4.57,26.7-2.46,67.61-15.71,91.43l-391.11,700.69c-13.25,23.63-44.57,50.72-70,60.11Z"/></svg>